<svg width="110" height="142" viewBox="0 0 110 142" fill="none" xmlns="http://www.w3.org/2000/svg">
<path d="M17.258 131.002C17.7807 131.095 18.224 131.371 18.588 131.828C18.952 132.285 19.134 132.803 19.134 133.382C19.134 133.877 19.0033 134.325 18.742 134.726C18.49 135.118 18.1213 135.431 17.636 135.664C17.1507 135.888 16.586 136 15.942 136H12.05V126.27H15.76C16.4227 126.27 16.992 126.382 17.468 126.606C17.944 126.83 18.3033 127.133 18.546 127.516C18.7887 127.889 18.91 128.309 18.91 128.776C18.91 129.336 18.7607 129.803 18.462 130.176C18.1633 130.549 17.762 130.825 17.258 131.002ZM13.646 130.358H15.62C16.1427 130.358 16.5487 130.241 16.838 130.008C17.1367 129.765 17.286 129.42 17.286 128.972C17.286 128.533 17.1367 128.193 16.838 127.95C16.5487 127.698 16.1427 127.572 15.62 127.572H13.646V130.358ZM15.802 134.698C16.3433 134.698 16.768 134.567 17.076 134.306C17.384 134.045 17.538 133.681 17.538 133.214C17.538 132.738 17.3747 132.36 17.048 132.08C16.7213 131.8 16.2873 131.66 15.746 131.66H13.646V134.698H15.802ZM27.9384 131.954C27.9384 132.243 27.9197 132.505 27.8824 132.738H21.9884C22.035 133.354 22.2637 133.849 22.6744 134.222C23.085 134.595 23.589 134.782 24.1864 134.782C25.045 134.782 25.6517 134.423 26.0064 133.704H27.7284C27.495 134.413 27.0704 134.997 26.4544 135.454C25.8477 135.902 25.0917 136.126 24.1864 136.126C23.449 136.126 22.7864 135.963 22.1984 135.636C21.6197 135.3 21.1624 134.833 20.8264 134.236C20.4997 133.629 20.3364 132.929 20.3364 132.136C20.3364 131.343 20.495 130.647 20.8124 130.05C21.139 129.443 21.5917 128.977 22.1704 128.65C22.7584 128.323 23.4304 128.16 24.1864 128.16C24.9144 128.16 25.563 128.319 26.1324 128.636C26.7017 128.953 27.145 129.401 27.4624 129.98C27.7797 130.549 27.9384 131.207 27.9384 131.954ZM26.2724 131.45C26.263 130.862 26.053 130.391 25.6424 130.036C25.2317 129.681 24.723 129.504 24.1164 129.504C23.5657 129.504 23.0944 129.681 22.7024 130.036C22.3104 130.381 22.077 130.853 22.0024 131.45H26.2724ZM28.977 132.108C28.977 131.333 29.1357 130.647 29.453 130.05C29.7797 129.453 30.2183 128.991 30.769 128.664C31.329 128.328 31.945 128.16 32.617 128.16C33.2237 128.16 33.751 128.281 34.199 128.524C34.6563 128.757 35.0203 129.051 35.291 129.406V128.286H36.901V136H35.291V134.852C35.0203 135.216 34.6517 135.519 34.185 135.762C33.7183 136.005 33.1863 136.126 32.589 136.126C31.9263 136.126 31.3197 135.958 30.769 135.622C30.2183 135.277 29.7797 134.801 29.453 134.194C29.1357 133.578 28.977 132.883 28.977 132.108ZM35.291 132.136C35.291 131.604 35.179 131.142 34.955 130.75C34.7403 130.358 34.4557 130.059 34.101 129.854C33.7463 129.649 33.3637 129.546 32.953 129.546C32.5423 129.546 32.1597 129.649 31.805 129.854C31.4503 130.05 31.161 130.344 30.937 130.736C30.7223 131.119 30.615 131.576 30.615 132.108C30.615 132.64 30.7223 133.107 30.937 133.508C31.161 133.909 31.4503 134.217 31.805 134.432C32.169 134.637 32.5517 134.74 32.953 134.74C33.3637 134.74 33.7463 134.637 34.101 134.432C34.4557 134.227 34.7403 133.928 34.955 133.536C35.179 133.135 35.291 132.668 35.291 132.136ZM45.9833 128.286V136H44.3873V135.09C44.1353 135.407 43.8039 135.659 43.3933 135.846C42.9919 136.023 42.5626 136.112 42.1053 136.112C41.4986 136.112 40.9526 135.986 40.4673 135.734C39.9913 135.482 39.6133 135.109 39.3333 134.614C39.0626 134.119 38.9273 133.522 38.9273 132.822V128.286H40.5093V132.584C40.5093 133.275 40.6819 133.807 41.0273 134.18C41.3726 134.544 41.8439 134.726 42.4413 134.726C43.0386 134.726 43.5099 134.544 43.8553 134.18C44.2099 133.807 44.3873 133.275 44.3873 132.584V128.286H45.9833ZM49.9511 129.588V133.858C49.9511 134.147 50.0164 134.357 50.1471 134.488C50.2871 134.609 50.5204 134.67 50.8471 134.67H51.8271V136H50.5671C49.8484 136 49.2977 135.832 48.9151 135.496C48.5324 135.16 48.3411 134.614 48.3411 133.858V129.588H47.4311V128.286H48.3411V126.368H49.9511V128.286H51.8271V129.588H49.9511ZM60.242 128.286L55.51 139.626H53.858L55.426 135.874L52.388 128.286H54.166L56.336 134.166L58.59 128.286H60.242ZM64.5512 131.114C64.5512 130.162 64.7705 129.308 65.2092 128.552C65.6572 127.796 66.2592 127.208 67.0152 126.788C67.7805 126.359 68.6159 126.144 69.5212 126.144C70.5572 126.144 71.4765 126.401 72.2792 126.914C73.0912 127.418 73.6792 128.137 74.0432 129.07H72.1252C71.8732 128.557 71.5232 128.174 71.0752 127.922C70.6272 127.67 70.1092 127.544 69.5212 127.544C68.8772 127.544 68.3032 127.689 67.7992 127.978C67.2952 128.267 66.8985 128.683 66.6092 129.224C66.3292 129.765 66.1892 130.395 66.1892 131.114C66.1892 131.833 66.3292 132.463 66.6092 133.004C66.8985 133.545 67.2952 133.965 67.7992 134.264C68.3032 134.553 68.8772 134.698 69.5212 134.698C70.1092 134.698 70.6272 134.572 71.0752 134.32C71.5232 134.068 71.8732 133.685 72.1252 133.172H74.0432C73.6792 134.105 73.0912 134.824 72.2792 135.328C71.4765 135.832 70.5572 136.084 69.5212 136.084C68.6065 136.084 67.7712 135.874 67.0152 135.454C66.2592 135.025 65.6572 134.432 65.2092 133.676C64.7705 132.92 64.5512 132.066 64.5512 131.114ZM75.3793 132.108C75.3793 131.333 75.538 130.647 75.8553 130.05C76.182 129.453 76.6207 128.991 77.1713 128.664C77.7313 128.328 78.3473 128.16 79.0193 128.16C79.626 128.16 80.1533 128.281 80.6013 128.524C81.0587 128.757 81.4227 129.051 81.6933 129.406V128.286H83.3033V136H81.6933V134.852C81.4227 135.216 81.054 135.519 80.5873 135.762C80.1207 136.005 79.5887 136.126 78.9913 136.126C78.3287 136.126 77.722 135.958 77.1713 135.622C76.6207 135.277 76.182 134.801 75.8553 134.194C75.538 133.578 75.3793 132.883 75.3793 132.108ZM81.6933 132.136C81.6933 131.604 81.5813 131.142 81.3573 130.75C81.1427 130.358 80.858 130.059 80.5033 129.854C80.1487 129.649 79.766 129.546 79.3553 129.546C78.9447 129.546 78.562 129.649 78.2073 129.854C77.8527 130.05 77.5633 130.344 77.3393 130.736C77.1247 131.119 77.0173 131.576 77.0173 132.108C77.0173 132.64 77.1247 133.107 77.3393 133.508C77.5633 133.909 77.8527 134.217 78.2073 134.432C78.5713 134.637 78.954 134.74 79.3553 134.74C79.766 134.74 80.1487 134.637 80.5033 134.432C80.858 134.227 81.1427 133.928 81.3573 133.536C81.5813 133.135 81.6933 132.668 81.6933 132.136ZM86.9956 129.406C87.2289 129.014 87.5369 128.711 87.9196 128.496C88.3116 128.272 88.7736 128.16 89.3056 128.16V129.812H88.8996C88.2743 129.812 87.7983 129.971 87.4716 130.288C87.1543 130.605 86.9956 131.156 86.9956 131.94V136H85.3996V128.286H86.9956V129.406ZM97.8427 131.954C97.8427 132.243 97.824 132.505 97.7867 132.738H91.8927C91.9393 133.354 92.168 133.849 92.5787 134.222C92.9893 134.595 93.4933 134.782 94.0907 134.782C94.9493 134.782 95.556 134.423 95.9107 133.704H97.6327C97.3993 134.413 96.9747 134.997 96.3587 135.454C95.752 135.902 94.996 136.126 94.0907 136.126C93.3533 136.126 92.6907 135.963 92.1027 135.636C91.524 135.3 91.0667 134.833 90.7307 134.236C90.404 133.629 90.2407 132.929 90.2407 132.136C90.2407 131.343 90.3993 130.647 90.7167 130.05C91.0433 129.443 91.496 128.977 92.0747 128.65C92.6627 128.323 93.3347 128.16 94.0907 128.16C94.8187 128.16 95.4673 128.319 96.0367 128.636C96.606 128.953 97.0493 129.401 97.3667 129.98C97.684 130.549 97.8427 131.207 97.8427 131.954ZM96.1767 131.45C96.1673 130.862 95.9573 130.391 95.5467 130.036C95.136 129.681 94.6273 129.504 94.0207 129.504C93.47 129.504 92.9987 129.681 92.6067 130.036C92.2147 130.381 91.9813 130.853 91.9067 131.45H96.1767Z" fill="#2F294D"/>
<path d="M105.814 61.25L85.8198 95.8814C83.5868 99.7489 79.4603 102.131 74.9944 102.131L35.0055 102.131C30.5397 102.131 26.4131 99.7489 24.1802 95.8814L4.18579 61.25C1.95288 57.3825 1.95288 52.6175 4.18579 48.75L24.1802 14.1186C26.4131 10.2511 30.5397 7.8686 35.0056 7.8686L74.9944 7.8686C79.4603 7.8686 83.5869 10.2511 85.8198 14.1186L105.814 48.75C108.047 52.6175 108.047 57.3825 105.814 61.25Z" fill="#8681D3" fill-opacity="0.15" stroke="#8681D3"/>
<path d="M54.4878 85.1821C53.8112 84.9542 53.1347 84.7262 52.4655 84.4909C45.2738 81.9392 40.0822 77.1888 36.8687 70.2839C36.4422 69.3647 36.1186 68.4014 35.7951 67.438C35.648 66.9968 35.4862 66.7762 34.9568 66.7615C32.8831 66.7027 31.3609 65.7247 30.4123 63.8642C30.2652 63.5701 30.0814 63.2465 30.0814 62.9303C30.0593 61.0846 29.8681 59.1947 30.1623 57.3931C30.4932 55.3783 32.008 54.2017 33.9935 53.7237C34.1405 53.6869 34.295 53.6649 34.5082 53.6281C34.5082 53.0913 34.5082 52.5692 34.5082 52.0471C34.545 45.5319 37.0525 40.1712 42.0382 35.987C42.7442 35.3987 43.156 34.7884 43.4133 33.8839C44.7958 29.1188 47.9725 26.148 52.8406 25.2141C59.2823 23.9787 65.4225 28.2217 66.702 34.5531C66.7829 34.9575 66.9594 35.2443 67.2976 35.5017C71.6509 38.8696 74.3423 43.2523 75.1659 48.7086C75.3718 50.0764 75.3497 51.4735 75.4233 52.856C75.438 53.106 75.4233 53.356 75.4233 53.6281C76.9307 53.8634 78.1367 54.5179 79.0118 55.7165C79.6074 56.5254 79.953 57.4372 79.9751 58.4373C80.0045 59.6139 80.0119 60.7905 79.9751 61.9597C79.9016 64.4525 77.8352 66.563 75.3497 66.7248C74.3717 66.7909 74.4158 66.8056 74.0555 67.7395C73.5408 69.0632 72.9745 70.3721 72.3863 71.6737C72.0333 72.4605 71.3421 72.7252 70.7244 72.4164C70.0699 72.0855 69.8714 71.3795 70.2758 70.6001C71.3935 68.4308 72.1951 66.1585 72.6363 63.7613C72.9893 61.8714 73.1069 59.9669 73.0407 57.9741C69.7463 57.9593 66.6211 57.2681 63.687 55.8195C60.7603 54.3782 58.3042 52.3633 56.282 49.7749C55.4143 50.297 54.5907 50.8191 53.7524 51.3118C48.6123 54.2899 43.1413 56.4298 37.354 57.7608C36.9422 57.8564 36.8761 58.0255 36.8761 58.3859C36.8246 63.4083 37.957 68.1146 40.6925 72.3723C43.5898 76.88 47.5534 80.0861 52.5611 81.998C53.2524 82.2628 53.9657 82.4834 54.6716 82.6819C54.8849 82.7408 55.1496 82.726 55.3555 82.6525C56.7821 82.1231 58.2013 81.5715 59.6132 81.02C59.8117 80.9391 59.9956 80.8215 60.1868 80.7332C60.9221 80.4023 61.5913 80.5788 61.9148 81.1892C62.231 81.7995 61.9884 82.4907 61.2604 82.8363C60.2235 83.3364 59.172 83.8144 58.1057 84.2409C57.2306 84.5938 56.3188 84.8659 55.4217 85.1748H54.4804L54.4878 85.1821ZM72.9966 55.6062C72.9966 53.9076 73.0334 52.3265 72.9819 50.7455C72.9525 49.8337 72.8348 48.9072 72.6363 48.0174C71.6141 43.4582 69.2022 39.7961 65.4078 37.0753C62.2457 34.8104 58.6793 33.7148 54.7966 33.7368C51.9067 33.7515 49.1491 34.4428 46.5827 35.8105C42.6559 37.9136 39.8542 41.0389 38.1703 45.1568C37.2952 47.2967 36.9422 49.5469 36.8834 51.8486C36.854 53.0178 36.8834 54.187 36.8834 55.3783C37.0599 55.3562 37.1775 55.3562 37.2879 55.3268C42.3691 54.1061 47.2298 52.3118 51.7449 49.6793C54.223 48.2306 56.5394 46.5246 58.9514 44.9583C59.2896 44.7377 59.7308 44.5759 60.1279 44.5833C60.5985 44.5906 60.9368 44.973 61.0471 45.4436C61.1721 45.9731 60.9515 46.4069 60.5324 46.7305C59.7897 47.2967 59.0322 47.8556 58.2454 48.4439C62.0987 53.1134 66.9888 55.4886 73.0113 55.6062H72.9966ZM63.79 33.325C62.6281 30.1042 58.8043 26.8245 53.6274 27.4863C50.0095 27.9496 46.943 30.7219 46.215 33.303C52.0537 30.6925 57.8924 30.6925 63.79 33.3324V33.325ZM34.4053 56.0695C33.3169 56.3563 32.5522 57.0402 32.3757 58.1947C32.2507 58.9815 32.2801 59.7904 32.2875 60.5919C32.2875 61.1949 32.2875 61.8126 32.4125 62.4009C32.6772 63.6069 33.9641 64.5187 34.8097 64.3349L34.4053 56.0695ZM75.1365 64.3496C76.3425 64.3937 77.5264 63.298 77.6146 61.8494C77.6808 60.7537 77.6808 59.658 77.6146 58.5623C77.5337 57.224 76.5778 56.2092 75.5262 56.1283L75.1438 64.3496H75.1365Z" fill="#8681D3"/>
<path d="M69.1801 85.1821C67.452 83.4835 65.7313 81.7848 63.9885 80.1008C63.7017 79.8214 63.3487 79.5861 62.981 79.4317C61.1132 78.6301 59.2381 77.8654 57.3629 77.0859C56.0393 76.5344 55.5246 75.5637 55.8702 74.1739C56.9953 69.6515 59.8337 66.8498 64.3709 65.7762C65.6063 65.482 66.621 66.0115 67.0917 67.2101C67.8417 69.1147 68.5477 71.0413 69.3124 72.9385C69.4963 73.3944 69.7831 73.8356 70.1213 74.1886C71.9818 76.0932 73.879 77.961 75.7541 79.8435C75.9306 80.02 76.1071 80.2185 76.2321 80.4317C76.4968 80.8803 76.3939 81.476 76.0336 81.8289C75.6732 82.1819 75.0629 82.2628 74.629 81.9907C74.4158 81.8583 74.2246 81.6818 74.0481 81.5054C72.3053 79.7626 70.5625 78.0198 68.8197 76.277C68.7389 76.1961 68.6506 76.1226 68.5991 76.0785L65.9592 78.7184C67.3196 80.0788 68.7021 81.4539 70.0846 82.8364C71.0258 83.7776 71.0111 84.3512 70.011 85.1895H69.1874L69.1801 85.1821ZM58.2012 74.8578C60.0249 75.6152 61.856 76.38 63.6943 77.1227C63.8193 77.1741 64.0694 77.0859 64.1797 76.9756C65.1062 76.0785 66.018 75.1666 66.9225 74.2401C67.0181 74.1371 67.1064 73.9165 67.0622 73.7989C66.3563 71.9017 65.6283 70.0191 64.915 68.1366C61.878 68.5264 58.7233 71.3722 58.2012 74.8504V74.8578Z" fill="#8681D3"/>
<path d="M77.8721 85.1821C77.7839 85.1159 77.6883 85.0424 77.6001 84.9762C77.1515 84.638 76.9456 84.2115 77.1368 83.6526C77.3206 83.1158 77.7104 82.8216 78.2839 82.8363C78.8355 82.851 79.2178 83.1599 79.3649 83.6673C79.5193 84.1967 79.3649 84.6674 78.8722 84.9836C78.7766 85.0498 78.681 85.1159 78.5854 85.1748H77.8795L77.8721 85.1821Z" fill="#8681D3"/>
<path d="M45.0532 62.9597C44.3472 62.923 43.2736 62.4303 42.325 61.614C41.7147 61.0919 41.5823 60.4154 42.0088 59.8713C42.45 59.2977 43.1486 59.2389 43.8104 59.7757C44.4355 60.2831 45.1047 60.6287 45.9283 60.636C46.7298 60.6434 47.421 60.4007 48.024 59.8786C48.4652 59.4962 48.9506 59.2683 49.5241 59.5109C50.3036 59.8418 50.458 60.8493 49.8183 61.4596C48.6417 62.5774 47.2372 63.0995 45.0532 62.9597V62.9597Z" fill="#8681D3"/>
<path d="M63.3045 63.0039C62.5251 62.9965 61.3559 62.5406 60.3337 61.6729C59.6425 61.0846 59.5028 60.4301 59.9734 59.8492C60.4293 59.283 61.1132 59.283 61.8338 59.8345C63.0913 60.8052 64.4958 60.9155 65.6797 60.1139C65.893 59.9742 66.0768 59.7977 66.2901 59.658C66.8563 59.2756 67.5034 59.3639 67.9079 59.8639C68.2829 60.3345 68.2314 60.9964 67.7902 61.4596C66.8637 62.4156 65.2018 63.0848 63.3119 63.0112L63.3045 63.0039Z" fill="#8681D3"/>
<path d="M63.0694 44.1935C62.3929 44.2009 61.8855 43.7008 61.8855 43.0317C61.8855 42.3772 62.437 41.8257 63.0694 41.833C63.6798 41.8404 64.2239 42.3846 64.2386 42.9876C64.2533 43.6347 63.7239 44.1862 63.0768 44.1935H63.0694Z" fill="#8681D3"/>
</svg>
