<svg width="23" height="21" viewBox="0 0 23 21" fill="none" xmlns="http://www.w3.org/2000/svg">
<path fill-rule="evenodd" clip-rule="evenodd" d="M3.95881 0.489299C4.73674 0.166278 5.57079 0 6.41312 0C7.25545 0 8.08949 0.166278 8.86742 0.489299C9.64536 0.81232 10.3519 1.28573 10.9465 1.88238L10.9498 1.88572L11.0081 1.94483L11.0665 1.88573L11.0698 1.88238C11.6644 1.28573 12.3709 0.81232 13.1488 0.489299C13.9267 0.166278 14.7608 0 15.6031 0C16.4454 0 17.2795 0.166278 18.0574 0.489299C18.8351 0.81221 19.5414 1.2854 20.1358 1.88177C22.6809 4.42746 22.7374 8.63661 19.7218 11.7088L19.7153 11.7154L11.7152 19.7154C11.5277 19.9029 11.2733 20.0083 11.0081 20.0083C10.7429 20.0083 10.4885 19.9029 10.301 19.7154L2.29445 11.7088C-0.721245 8.63663 -0.664624 4.42745 1.8804 1.88176C2.47486 1.2854 3.18115 0.812208 3.95881 0.489299ZM6.41312 2C5.83402 2 5.26061 2.11432 4.72578 2.33639C4.19096 2.55847 3.70523 2.88394 3.29645 3.29414L3.29523 3.29537C1.60161 4.98898 1.39787 7.93752 3.71863 10.3046L11.0081 17.594L18.2976 10.3046C20.6184 7.93753 20.4146 4.98898 18.721 3.29537L18.7198 3.29414C18.311 2.88394 17.8253 2.55847 17.2905 2.33639C16.7556 2.11432 16.1822 2 15.6031 2C15.024 2 14.4506 2.11432 13.9158 2.33639C13.3817 2.55818 12.8965 2.88308 12.4881 3.29252C12.4875 3.29306 12.487 3.2936 12.4865 3.29414L11.7198 4.07079C11.5319 4.26112 11.2756 4.36826 11.0081 4.36826C10.7407 4.36826 10.4844 4.26112 10.2965 4.07079L9.52979 3.29414C9.52925 3.2936 9.52871 3.29306 9.52817 3.29252C9.11973 2.88308 8.63458 2.55818 8.10045 2.33639C7.56563 2.11432 6.99222 2 6.41312 2Z" fill="#2F294D"/>
</svg>
