<?xml version="1.0" encoding="utf-8"?>
<!-- Generator: Adobe Illustrator 24.0.0, SVG Export Plug-In . SVG Version: 6.00 Build 0)  -->
<svg version="1.1" id="Layer_1" xmlns="http://www.w3.org/2000/svg" xmlns:xlink="http://www.w3.org/1999/xlink" x="0px" y="0px"
	 viewBox="0 0 215.27 89.35" style="enable-background:new 0 0 215.27 89.35;" xml:space="preserve">
<style type="text/css">
	.st0{fill:#CE0E2D;}
	.st1{fill:#FF8300;}
</style>
<g>
	<path class="st0" d="M23.02,8.22H12.03v44.72h4.34V36.53h6.64c8.88,0,15.01-4.66,15.01-15.01C38.03,13.08,31.9,8.22,23.02,8.22
		 M23.02,35.57h-6.64V9.18h6.64c6.58,0,10.67,3.58,10.67,12.46C33.69,30.58,29.54,35.57,23.02,35.57"/>
	<path class="st0" d="M45.06,18.51v0.96c12.01,0,13.74,5.56,13.74,13.67v1.02c-1.98-3.07-6.58-5.24-10.41-5.24
		c-6.52,0-10.09,6.2-10.09,12.07s3.58,12.07,10.09,12.07c3.83,0,8.43-2.17,10.41-5.24v0.51c0.45,1.92,2.11,3.64,3.71,4.6h0.64v-19.8
		C63.14,23.75,58.54,18.51,45.06,18.51 M58.79,44.58c0,3.71-4.92,6.64-8.75,6.64c-4.73,0-7.03-4.47-7.03-10.22s2.3-10.22,7.03-10.22
		c3.83,0,8.75,2.94,8.75,6.64V44.58z"/>
	<path class="st0" d="M73.59,42.08V20.7h5.29v-2.34h-5.29v-7.39c-1.34-0.77-2.17-1.02-3.71-1.02h-0.64v8.41h-2.39v2.34h2.39v17.94
		c0,9.39,0,14.31,10.54,14.31v-0.96C73.98,51.99,73.59,48.15,73.59,42.08"/>
	<path class="st0" d="M87.7,42.08V20.7H93v-2.34H87.7v-7.39C86.36,10.2,85.53,9.95,84,9.95h-0.64v8.41h-2.39v2.34h2.39v17.94
		c0,9.39,0,14.31,10.54,14.31v-0.96C88.09,51.99,87.7,48.15,87.7,42.08"/>
	<path class="st0" d="M99.92,7.39c-1.28,0-2.3,1.53-2.3,3.13c0,2.11,1.85,3.64,2.3,3.64c0.51,0,2.36-1.53,2.36-3.64
		C102.29,8.93,101.2,7.39,99.92,7.39"/>
	<path class="st0" d="M97.75,52.95h4.34v-34.5c-1.73-0.96-2.43-1.02-4.34-1.02V52.95z"/>
	<path class="st0" d="M113.25,18.51v0.96c12.01,0,13.74,5.56,13.74,13.67v1.02c-1.98-3.07-6.58-5.24-10.41-5.24
		c-6.52,0-10.09,6.2-10.09,12.07s3.58,12.07,10.09,12.07c3.83,0,8.43-2.17,10.41-5.24v0.51c0.45,1.92,2.11,3.64,3.71,4.6h0.64v-19.8
		C131.33,23.75,126.73,18.51,113.25,18.51 M126.99,44.58c0,3.71-4.92,6.64-8.75,6.64c-4.73,0-7.03-4.47-7.03-10.22
		s2.3-10.22,7.03-10.22c3.83,0,8.75,2.94,8.75,6.64V44.58z"/>
	<path class="st0" d="M164.86,18.13c-4.34,0-6.77,2.11-7.79,5.11c-0.96-3-3.39-5.11-7.73-5.11c-3.77,0-6.07,1.53-7.28,3.83v-3.52
		c-1.28-0.7-2.3-1.02-3.64-1.02h-0.7v35.52h4.34V26.62c0-3.64,1.66-6.52,5.94-6.52c4.28,0,4.86,2.87,4.86,6.52v26.32h4.79V26.62
		c0-3.64,1.6-6.52,5.88-6.52s4.86,2.87,4.86,6.52v26.32h4.79V26.62C173.17,21.96,170.74,18.13,164.86,18.13"/>
	<path class="st0" d="M178.6,7.9c-1.09-0.06-1.98,0.77-2.11,1.85c-0.06,1.02,0.64,1.98,1.73,2.17c0.06,0.19,0.13,0.38,0.13,0.58
		c0,0.64-0.38,1.34-1.28,2.04l0.26,0.38c1.98-0.83,3.26-2.81,3.2-4.66C180.52,8.86,179.69,7.97,178.6,7.9"/>
	<path class="st0" d="M186.89,24.77c0-3.32,1.09-6.26,5.24-6.26c4.41,0,6.52,1.28,8.3,5.24l0.96-0.32
		c-1.98-4.34-4.28-5.88-8.82-5.88c-6,0-10.22,2.62-10.22,7.41c0,13.48,16.87,7.99,16.87,18.91c0,3.71-1.92,8.11-7.35,8.11
		c-6.52,0-7.79-4.02-8.56-6.77l-0.89,0.32c1.53,5.24,3.45,7.41,8.88,7.41c9.52,0,11.95-6.71,11.95-10.16
		C203.24,28.99,186.89,33.78,186.89,24.77"/>
	<path class="st1" d="M26.67,67.01c-2.13,0-3.9,0.71-5.33,2.14c-1.43,1.43-2.14,3.21-2.14,5.33c0,2.11,0.71,3.89,2.14,5.33
		c1.43,1.43,3.21,2.14,5.33,2.14s3.9-0.71,5.33-2.14c1.43-1.43,2.14-3.2,2.14-5.33c0-2.13-0.71-3.9-2.14-5.33
		C30.57,67.72,28.8,67.01,26.67,67.01 M30.03,77.94c-0.86,0.93-1.97,1.4-3.35,1.4c-1.39,0-2.51-0.47-3.37-1.4
		c-0.86-0.92-1.28-2.08-1.28-3.46c0-0.2,0.03-0.37,0.05-0.56c0.21,0.31,0.43,0.62,0.71,0.89c1.08,1.06,2.4,1.61,3.98,1.61
		c1.59,0,2.92-0.55,4-1.61c0.19-0.19,0.37-0.4,0.52-0.61c0.01,0.09,0.02,0.18,0.02,0.27C31.31,75.86,30.89,77.02,30.03,77.94"/>
	<path class="st1" d="M42.97,67.1h-5.62c-0.27,0-0.49,0.09-0.66,0.26c-0.17,0.17-0.26,0.39-0.26,0.66v13.02
		c0,0.26,0.09,0.49,0.26,0.66c0.17,0.17,0.39,0.26,0.66,0.26h1.16c0.26,0,0.48-0.09,0.66-0.26c0.17-0.17,0.26-0.39,0.26-0.66V76.4
		h2.67l2.84,5.15c0.15,0.27,0.38,0.41,0.7,0.41h1.14c0.5,0,0.85-0.19,1.06-0.57c0.21-0.38,0.18-0.78-0.1-1.21l-2.56-3.93
		c2.1-0.84,3.16-2.32,3.16-4.43v-0.04c0-1.36-0.4-2.44-1.2-3.24C46.17,67.58,44.78,67.1,42.97,67.1 M45.31,71.98
		c0,0.66-0.23,1.18-0.68,1.57c-0.45,0.39-1.08,0.58-1.88,0.58h-3.34v-4.36h3.29c0.82,0,1.46,0.18,1.92,0.55
		c0.46,0.37,0.69,0.91,0.69,1.62V71.98z"/>
	<path class="st1" d="M62,73.08h-3.6c-0.27,0-0.49,0.09-0.66,0.26c-0.17,0.17-0.26,0.39-0.26,0.66v0.79c0,0.27,0.09,0.5,0.26,0.67
		c0.18,0.17,0.4,0.26,0.66,0.25l1.68-0.02v2.75c-0.66,0.47-1.54,0.7-2.63,0.7c-1.39,0-2.51-0.42-3.38-1.27
		c-0.86-0.86-1.3-2-1.3-3.43c0-1.35,0.43-2.45,1.28-3.31c0.86-0.86,1.98-1.3,3.38-1.3c1.04-0.01,2.02,0.24,2.93,0.77
		c0.19,0.11,0.38,0.16,0.59,0.13c0.21-0.02,0.38-0.11,0.52-0.27l0.68-0.75c0.2-0.23,0.28-0.47,0.26-0.74
		c-0.03-0.27-0.16-0.49-0.41-0.65c-1.37-0.87-2.89-1.3-4.56-1.3c-2.12,0-3.89,0.72-5.33,2.15c-1.43,1.45-2.15,3.21-2.15,5.29
		c-0.01,2.14,0.7,3.93,2.14,5.36c1.45,1.43,3.23,2.14,5.34,2.14c1.97,0,3.7-0.58,5.19-1.73c0.19-0.15,0.28-0.35,0.28-0.6v-5.63
		c0-0.27-0.09-0.49-0.26-0.66C62.49,73.16,62.27,73.08,62,73.08"/>
	<path class="st1" d="M73.63,67.6c-0.13-0.33-0.38-0.5-0.75-0.5h-1.72c-0.37,0-0.61,0.17-0.75,0.5l-5.48,12.88
		c-0.16,0.38-0.14,0.72,0.06,1.02c0.2,0.3,0.5,0.45,0.92,0.45h0.88c0.36,0,0.62-0.17,0.76-0.51l1.31-3.22h6.26l1.31,3.22
		c0.07,0.15,0.17,0.28,0.31,0.37c0.13,0.09,0.29,0.14,0.45,0.14h0.95c0.41,0,0.72-0.15,0.92-0.45c0.2-0.3,0.22-0.64,0.06-1.02
		L73.63,67.6z M69.91,75.63l2.06-5.87l2.07,5.87H69.91z"/>
	<path class="st1" d="M93.41,67.01h-1c-0.27,0-0.49,0.09-0.66,0.26c-0.17,0.17-0.26,0.39-0.26,0.66v8.72l-9.43-9.42
		c-0.15-0.15-0.32-0.22-0.53-0.22h-0.12c-0.13,0-0.23,0.09-0.31,0.26c-0.08,0.17-0.12,0.39-0.12,0.66v13.11
		c0,0.26,0.09,0.49,0.26,0.66c0.17,0.17,0.39,0.26,0.66,0.26h1c0.27,0,0.49-0.09,0.66-0.26c0.17-0.17,0.26-0.39,0.26-0.66v-8.63
		l9.33,9.32c0.15,0.15,0.32,0.22,0.53,0.22c0.19,0,0.35-0.09,0.47-0.26c0.12-0.17,0.19-0.39,0.19-0.66V67.93
		c0-0.27-0.09-0.49-0.26-0.66C93.9,67.1,93.68,67.01,93.41,67.01"/>
	<path class="st1" d="M99.44,67h-1.01c-0.27,0-0.49,0.09-0.66,0.26c-0.17,0.17-0.26,0.39-0.26,0.66v13.12
		c0,0.27,0.09,0.49,0.26,0.66c0.17,0.17,0.39,0.26,0.66,0.26h1.01c0.26,0,0.48-0.09,0.66-0.26c0.17-0.17,0.26-0.39,0.26-0.66V67.92
		c0-0.27-0.09-0.49-0.26-0.66C99.93,67.09,99.71,67,99.44,67"/>
	<path class="st1" d="M110.12,69.83c1.04-0.01,2.01,0.24,2.92,0.77c0.19,0.11,0.39,0.16,0.59,0.14c0.2-0.03,0.37-0.12,0.51-0.27
		l0.68-0.74c0.21-0.22,0.3-0.47,0.27-0.75c-0.02-0.28-0.16-0.5-0.41-0.66c-1.37-0.86-2.9-1.3-4.56-1.3c-2.12,0-3.89,0.72-5.33,2.15
		c-1.43,1.43-2.15,3.2-2.15,5.29c-0.01,2.15,0.7,3.93,2.14,5.36c1.45,1.43,3.23,2.14,5.34,2.14c1.69,0,3.22-0.43,4.57-1.3
		c0.25-0.16,0.38-0.38,0.4-0.65c0.02-0.27-0.07-0.52-0.26-0.74l-0.68-0.75c-0.31-0.33-0.68-0.38-1.12-0.14
		c-0.86,0.51-1.83,0.76-2.9,0.76c-1.39,0-2.51-0.42-3.38-1.27c-0.86-0.86-1.29-2-1.31-3.43c0-1.34,0.42-2.45,1.28-3.31
		C107.59,70.26,108.72,69.83,110.12,69.83"/>
	<path class="st1" d="M135.36,67.01h-8.68c-0.27,0-0.49,0.09-0.66,0.26c-0.17,0.17-0.26,0.39-0.26,0.66v13.11
		c0,0.26,0.09,0.49,0.26,0.66c0.17,0.17,0.39,0.26,0.66,0.26h1c0.27,0,0.49-0.09,0.66-0.26c0.17-0.17,0.26-0.39,0.26-0.66v-5.35
		h4.75c0.26,0,0.48-0.09,0.66-0.26c0.17-0.17,0.26-0.39,0.26-0.66v-0.78c0-0.26-0.09-0.48-0.26-0.66c-0.17-0.17-0.39-0.26-0.66-0.26
		h-4.75v-3.45h6.76c0.26,0,0.48-0.09,0.66-0.26c0.17-0.17,0.26-0.39,0.26-0.66v-0.79c0-0.27-0.09-0.49-0.26-0.66
		C135.84,67.1,135.62,67.01,135.36,67.01"/>
	<path class="st1" d="M144.25,67.01c-2.13,0-3.9,0.71-5.33,2.14c-1.43,1.43-2.14,3.21-2.14,5.33c0,2.11,0.71,3.89,2.14,5.33
		c1.43,1.43,3.21,2.14,5.33,2.14c2.13,0,3.9-0.71,5.33-2.14c1.43-1.43,2.14-3.2,2.14-5.33c0-2.13-0.71-3.9-2.14-5.33
		C148.16,67.72,146.38,67.01,144.25,67.01 M147.61,77.94c-0.86,0.93-1.97,1.4-3.35,1.4c-1.39,0-2.51-0.47-3.37-1.4
		c-0.86-0.92-1.28-2.08-1.28-3.46c0-0.11,0.02-0.2,0.03-0.31c0.17,0.22,0.34,0.44,0.55,0.64c1.08,1.06,2.4,1.61,3.98,1.61
		c1.59,0,2.92-0.55,4-1.61c0.27-0.27,0.49-0.56,0.69-0.86c0.02,0.17,0.04,0.34,0.04,0.52C148.9,75.86,148.47,77.02,147.61,77.94"/>
	<path class="st1" d="M160.65,67.01c-2.13,0-3.9,0.71-5.33,2.14c-1.43,1.43-2.14,3.21-2.14,5.33c0,2.11,0.71,3.89,2.14,5.33
		c1.43,1.43,3.21,2.14,5.33,2.14c2.12,0,3.9-0.71,5.33-2.14c1.43-1.43,2.14-3.2,2.14-5.33c0-2.13-0.71-3.9-2.14-5.33
		C164.55,67.72,162.78,67.01,160.65,67.01 M164.01,77.94c-0.86,0.93-1.97,1.4-3.35,1.4c-1.39,0-2.51-0.47-3.37-1.4
		c-0.86-0.92-1.28-2.08-1.28-3.46c0-0.04,0.01-0.08,0.01-0.12c0.12,0.16,0.25,0.31,0.4,0.45c1.08,1.06,2.4,1.61,3.98,1.61
		c1.59,0,2.92-0.55,4-1.61c0.33-0.34,0.61-0.7,0.84-1.08c0.03,0.24,0.06,0.49,0.06,0.75C165.29,75.86,164.87,77.02,164.01,77.94"/>
	<path class="st1" d="M176.11,67h-4.83c-0.26,0-0.49,0.09-0.66,0.26c-0.17,0.17-0.26,0.39-0.26,0.66v13.12
		c0,0.27,0.09,0.49,0.26,0.66c0.17,0.17,0.39,0.26,0.66,0.26h4.83c4.66,0,6.98-2.49,6.98-7.47C183.09,69.49,180.76,67,176.11,67
		 M176.11,79.13h-2.92v-9.29h2.92c2.77,0,4.15,1.55,4.15,4.64C180.26,77.58,178.88,79.13,176.11,79.13"/>
	<path class="st1" d="M194.55,74.31c-0.97-0.65-2.12-1.07-3.46-1.24c-1.21-0.17-2.02-0.48-2.4-0.94c-0.37-0.45-0.37-0.98-0.01-1.58
		c0.36-0.61,1.17-0.92,2.43-0.92c0.87,0,1.61,0.22,2.23,0.65c0.19,0.14,0.39,0.21,0.61,0.2c0.21-0.01,0.4-0.09,0.57-0.25l0.59-0.58
		c0.21-0.2,0.3-0.44,0.29-0.71c-0.01-0.27-0.13-0.5-0.36-0.68c-0.43-0.33-0.86-0.57-1.29-0.75c-0.8-0.33-1.88-0.5-3.25-0.5
		c-1.21,0-2.37,0.4-3.5,1.19c-1.12,0.8-1.68,1.85-1.68,3.14c0,1.46,0.49,2.48,1.47,3.06c1.02,0.61,2.12,0.97,3.3,1.09
		c1.39,0.15,2.27,0.52,2.62,1.12c0.35,0.6,0.35,1.2,0,1.81c-0.39,0.67-1.27,0.98-2.63,0.92c-1.13-0.05-2.08-0.33-2.84-0.86
		c-0.44-0.31-0.84-0.29-1.18,0.05l-0.57,0.57c-0.21,0.2-0.31,0.44-0.3,0.72c0.01,0.28,0.13,0.51,0.37,0.69
		c0.49,0.35,1,0.64,1.52,0.86c0.92,0.4,2.09,0.6,3.51,0.6c1.46,0,2.73-0.43,3.84-1.29c1.1-0.85,1.64-1.86,1.64-3.04
		C196.07,76.1,195.57,75,194.55,74.31"/>
</g>
</svg>
