<svg width="113" height="47" viewBox="0 0 113 47" fill="none" xmlns="http://www.w3.org/2000/svg">
<path d="M6.4959 0.487549H0V26.8728H2.56557V17.1843H6.4918C11.7418 17.1843 15.3648 14.4343 15.3648 8.32771C15.3688 3.3523 11.7418 0.487549 6.4959 0.487549ZM6.4959 16.6228H2.56967V1.05312H6.4959C10.3852 1.05312 12.7992 3.16378 12.7992 8.40148C12.7992 13.6802 10.3484 16.6228 6.4959 16.6228Z" fill="#CE0E2D"/>
<path d="M19.5204 6.55737V7.12295C26.6188 7.12295 27.6393 10.4016 27.6393 15.1885V15.791C26.4672 13.9836 23.7499 12.7008 21.4877 12.7008C17.6352 12.7008 15.5245 16.3566 15.5245 19.8238C15.5245 23.291 17.6393 26.9467 21.4877 26.9467C23.754 26.9467 26.4713 25.6639 27.6393 23.8565V24.1598C27.9057 25.291 28.8852 26.3074 29.8278 26.8729H30.2049V15.1885C30.2049 9.64754 27.4836 6.55737 19.5204 6.55737ZM27.6352 21.9385C27.6352 24.1229 24.7295 25.8566 22.4631 25.8566C19.668 25.8566 18.3114 23.2172 18.3114 19.8238C18.3114 16.4303 19.6721 13.791 22.4631 13.791C24.7295 13.791 27.6352 15.5246 27.6352 17.7131V21.9385Z" fill="#CE0E2D"/>
<path d="M36.3811 20.4671V7.84822H39.5082V6.46707H36.3811V2.11051C35.5901 1.65969 35.0983 1.50806 34.1926 1.50806H33.8155V6.47117H32.4016V7.85232H33.8155V18.4343C33.8155 23.9753 33.8155 26.8769 40.045 26.8769V26.3113C36.6065 26.3113 36.3811 24.049 36.3811 20.4671Z" fill="#CE0E2D"/>
<path d="M44.7212 20.4671V7.84822H47.8483V6.46707H44.7212V2.11051C43.9302 1.65969 43.4384 1.50806 42.5327 1.50806H42.1556V6.47117H40.7417V7.85232H42.1556V18.4343C42.1556 23.9753 42.1556 26.8769 48.3851 26.8769V26.3113C44.9466 26.3113 44.7212 24.049 44.7212 20.4671Z" fill="#CE0E2D"/>
<path d="M51.9425 0C51.1884 0 50.5859 0.905735 50.5859 1.84836C50.5859 3.09016 51.6802 3.9959 51.9425 3.9959C52.2458 3.9959 53.34 3.09016 53.34 1.84836C53.34 0.905735 52.6966 0 51.9425 0Z" fill="#CE0E2D"/>
<path d="M50.6599 26.8729H53.2255V6.52043C52.205 5.95485 51.7911 5.91797 50.6599 5.91797V26.8729Z" fill="#CE0E2D"/>
<path d="M59.8155 6.55737V7.12295C66.9138 7.12295 67.9343 10.4016 67.9343 15.1885V15.791C66.7622 13.9836 64.045 12.7008 61.7827 12.7008C57.9302 12.7008 55.8196 16.3566 55.8196 19.8238C55.8196 23.291 57.9343 26.9467 61.7827 26.9467C64.0491 26.9467 66.7663 25.6639 67.9343 23.8565V24.1598C68.2007 25.291 69.1802 26.3074 70.1229 26.8729H70.4999V15.1885C70.4999 9.64754 67.7827 6.55737 59.8155 6.55737ZM67.9343 21.9385C67.9343 24.1229 65.0286 25.8566 62.7622 25.8566C59.9671 25.8566 58.6106 23.2172 58.6106 19.8238C58.6106 16.4303 59.9712 13.791 62.7622 13.791C65.0286 13.791 67.9343 15.5246 67.9343 17.7131V21.9385Z" fill="#CE0E2D"/>
<path d="M90.3156 6.3319C87.75 6.3319 86.3115 7.57371 85.709 9.3483C85.1435 7.57781 83.709 6.3319 81.1394 6.3319C78.914 6.3319 77.5533 7.23764 76.8361 8.5942V6.52043C76.082 6.10649 75.4754 5.91797 74.6844 5.91797H74.2705V26.8729H76.8361V11.3442C76.8361 9.19666 77.8156 7.49994 80.3484 7.49994C82.8771 7.49994 83.2172 9.19666 83.2172 11.3442V26.8729H86.0492V11.3442C86.0492 9.19666 86.9918 7.49994 89.5246 7.49994C92.0533 7.49994 92.3935 9.19666 92.3935 11.3442V26.8729H95.2254V11.3442C95.2254 8.5942 93.791 6.3319 90.3156 6.3319Z" fill="#CE0E2D"/>
<path d="M98.4345 0.303231C97.7951 0.266346 97.2623 0.75405 97.1886 1.39749C97.1517 1.99995 97.5656 2.56552 98.209 2.68028C98.2459 2.79093 98.2828 2.90569 98.2828 3.02044C98.2828 3.39749 98.0574 3.81143 97.5287 4.22536L97.6804 4.45077C98.8525 3.95897 99.6066 2.79093 99.5697 1.70077C99.5697 0.868803 99.0779 0.340116 98.4345 0.303231Z" fill="#CE0E2D"/>
<path d="M103.332 10.254C103.332 8.29503 103.975 6.56142 106.426 6.56142C109.033 6.56142 110.279 7.31552 111.332 9.65159L111.897 9.46306C110.725 6.90159 109.369 5.99585 106.688 5.99585C103.139 5.99585 100.647 7.54093 100.647 10.3688C100.647 18.3237 110.615 15.0819 110.615 21.5245C110.615 23.709 109.484 26.3114 106.275 26.3114C102.422 26.3114 101.668 23.9385 101.217 22.3155L100.688 22.504C101.594 25.5942 102.725 26.877 105.938 26.877C111.565 26.877 113 22.918 113 20.8852C112.996 12.7417 103.332 15.5655 103.332 10.254Z" fill="#CE0E2D"/>
<path d="M23.8812 39.9304C23.7214 39.7665 23.5574 39.6353 23.3771 39.5452C23.2009 39.455 23.0328 39.3894 22.873 39.3484C23.1025 39.287 23.3074 39.1681 23.4959 39.0001C23.6804 38.832 23.8279 38.6107 23.9386 38.3443C24.0492 38.0779 24.1025 37.7624 24.1025 37.3976C24.1025 36.6476 23.914 36.0902 23.541 35.7173C23.164 35.3484 22.6025 35.1599 21.8525 35.1599H18.705V43.8607H21.9713C22.4754 43.8607 22.9099 43.787 23.2746 43.6435C23.6394 43.496 23.9181 43.2501 24.1148 42.8976C24.3115 42.5452 24.4099 42.0656 24.4099 41.4468C24.4099 41.0984 24.3607 40.8034 24.2623 40.5493C24.1681 40.3034 24.0369 40.0943 23.8812 39.9304ZM19.6558 36.0165H21.8566C22.2582 36.0165 22.5902 36.1271 22.8484 36.3525C23.1025 36.5779 23.2254 36.9714 23.2091 37.5288C23.2009 37.9878 23.0779 38.3484 22.8361 38.6148C22.5943 38.8812 22.291 39.0165 21.9181 39.0165H19.6558V36.0165V36.0165ZM23.3197 42.3607C23.1886 42.6107 23.0082 42.7829 22.7746 42.8812C22.541 42.9796 22.2664 43.0288 21.9509 43.0288H19.6558V39.7665H21.9509C22.2418 39.7665 22.5082 39.8279 22.7459 39.9509C22.9836 40.0738 23.1722 40.2501 23.3074 40.4755C23.4468 40.705 23.5164 40.9796 23.5164 41.3033C23.5123 41.7583 23.4509 42.1107 23.3197 42.3607Z" fill="#592C82"/>
<path d="M28.9385 35.1967C28.5204 35.1844 28.0655 35.1762 27.5778 35.168C27.3729 35.168 27.168 35.1967 26.9631 35.2581C26.7581 35.3155 26.5737 35.4098 26.4057 35.5409C26.2417 35.6721 26.1065 35.8483 26.0081 36.0737C25.9098 36.2991 25.8606 36.5819 25.8606 36.918V42.2253C25.8606 42.6106 25.918 42.918 26.0368 43.1434C26.1557 43.3688 26.3114 43.5368 26.4999 43.6434C26.6885 43.754 26.8893 43.8278 27.1024 43.8606C27.3155 43.8975 27.5163 43.9139 27.7049 43.9139C28.0901 43.9057 28.4835 43.8975 28.8811 43.8893C29.2786 43.8811 29.6762 43.8688 30.0778 43.8524C30.4754 43.836 30.8565 43.8155 31.2213 43.7909V43.0368H27.8565C27.6844 43.0368 27.5122 43.0122 27.3483 42.9672C27.1844 42.9221 27.0491 42.8237 26.9508 42.6721C26.8524 42.5245 26.8032 42.3032 26.8032 42.0081V39.9672L30.7008 39.9057V39.1844L26.8032 39.1229V37.0655C26.8032 36.7049 26.8934 36.4385 27.0737 36.2745C27.254 36.1106 27.4999 36.0245 27.8073 36.0245H31.2172V35.2663C30.8606 35.2499 30.4958 35.2376 30.1229 35.2253C29.754 35.2171 29.3565 35.209 28.9385 35.1967Z" fill="#592C82"/>
<path d="M35.4343 35.1641L32.4507 43.8649H33.422L34.2745 41.3813H37.7786L38.6556 43.8649H39.6269L36.6433 35.1641H35.4343ZM34.5122 40.5329L36.0408 35.9919L37.5449 40.5329H34.5122Z" fill="#592C82"/>
<path d="M46.0819 41.1721C46.0819 41.668 45.9917 42.0532 45.8155 42.3319C45.6393 42.6065 45.3811 42.8032 45.0409 42.918C44.7008 43.0327 44.295 43.0901 43.8196 43.0901C43.3483 43.0901 42.9385 43.0327 42.6024 42.918C42.2622 42.8032 42.004 42.6106 41.8237 42.3319C41.6475 42.0532 41.5573 41.668 41.5573 41.1721V35.168H40.6106V41.1721C40.6106 41.709 40.6844 42.1557 40.836 42.5122C40.9835 42.8688 41.2008 43.1557 41.4794 43.3647C41.7581 43.5737 42.0983 43.7212 42.4917 43.8073C42.8852 43.8934 43.3278 43.9385 43.8196 43.9385C44.3114 43.9385 44.7499 43.8975 45.1475 43.8073C45.5409 43.7212 45.8811 43.5737 46.1598 43.3647C46.4426 43.1557 46.6557 42.8729 46.8032 42.5122C46.9549 42.1557 47.0286 41.7049 47.0286 41.1721V35.168H46.0819V41.1721V41.1721Z" fill="#592C82"/>
<path d="M48.2869 36.0165H50.9754V43.8649H51.9221V36.0165H54.6106V35.1641H48.2869V36.0165Z" fill="#592C82"/>
<path d="M58.8444 40.037L56.5739 35.1641H55.5903L58.3608 40.9796V43.8649H59.3075V40.9796L62.0657 35.1641H61.119L58.8444 40.037Z" fill="#592C82"/>
<path d="M70.3441 35.1434C70.0449 35.1106 69.7704 35.0942 69.5286 35.0942C68.9917 35.0942 68.5245 35.1598 68.131 35.291C67.7376 35.4221 67.4097 35.6475 67.1556 35.9713C66.8974 36.2951 66.7089 36.7418 66.5818 37.3155C66.4548 37.8893 66.3933 38.6147 66.3933 39.4959C66.3933 40.4344 66.4548 41.1926 66.5777 41.7787C66.7007 42.3647 66.8892 42.8073 67.1392 43.1229C67.3933 43.4344 67.7089 43.6475 68.0982 43.7664C68.4835 43.8852 68.9384 43.9426 69.4589 43.9426C69.7499 43.9426 70.049 43.9303 70.3523 43.9057C70.6556 43.8811 70.9548 43.8483 71.2417 43.8073C71.5285 43.7664 71.7909 43.7131 72.0286 43.6598V42.9508C71.7909 42.9918 71.4835 43.0246 71.1064 43.0573C70.7253 43.0901 70.2417 43.1065 69.6515 43.1065C69.2171 43.1065 68.8523 43.0573 68.5613 42.9631C68.2704 42.8688 68.0327 42.6967 67.8523 42.4426C67.672 42.1926 67.5368 41.8278 67.4548 41.3483C67.3728 40.8729 67.3318 40.2582 67.3318 39.5082C67.3318 38.7664 67.3769 38.1639 67.463 37.7008C67.549 37.2377 67.6843 36.8729 67.8728 36.6188C68.0572 36.3606 68.299 36.1885 68.6023 36.0901C68.9015 35.9959 69.2622 35.9467 69.6802 35.9467C70.004 35.9467 70.3195 35.9549 70.6351 35.9754C70.9466 35.9959 71.2253 36.0164 71.4671 36.041C71.713 36.0655 71.9015 36.086 72.0367 36.1106V35.4139C71.799 35.3524 71.5368 35.2992 71.2458 35.2541C70.9384 35.209 70.6433 35.1721 70.3441 35.1434Z" fill="#592C82"/>
<path d="M76.2048 35.1641L73.2212 43.8649H74.1925L75.045 41.3813H78.5491L79.4261 43.8649H80.3974L77.4138 35.1641H76.2048ZM75.2827 40.5329L76.8114 35.9919L78.3155 40.5329H75.2827Z" fill="#592C82"/>
<path d="M86.3319 40.0081C86.5246 39.9262 86.7049 39.795 86.8688 39.6188C87.0328 39.4426 87.168 39.2008 87.2705 38.8975C87.3729 38.5942 87.4262 38.2049 87.4262 37.7335C87.4262 37.1926 87.3606 36.7499 87.2377 36.418C87.1106 36.0819 86.9385 35.8237 86.7213 35.6434C86.5041 35.4631 86.2623 35.3401 85.9918 35.2704C85.7254 35.2008 85.4467 35.168 85.1639 35.168H81.7295V43.8688H82.6762V40.2622C82.8279 40.2622 83 40.2663 83.2049 40.2745C83.4057 40.2827 83.6147 40.2868 83.8279 40.2868C84.041 40.2868 84.2418 40.2909 84.4303 40.2991C84.6188 40.3073 84.7787 40.3114 84.9016 40.3114L86.5942 43.8688H87.5533L85.7664 40.1803C85.9508 40.1475 86.1393 40.0901 86.3319 40.0081ZM85.0246 39.5409H82.6803V36.0163H85.0246C85.2213 36.0163 85.4098 36.0368 85.5819 36.0819C85.7541 36.127 85.9098 36.209 86.0492 36.3319C86.1885 36.4549 86.2951 36.627 86.3729 36.8524C86.4508 37.0778 86.4918 37.3688 86.4918 37.7335C86.4918 38.1147 86.4549 38.418 86.3729 38.6557C86.2951 38.8934 86.1885 39.0778 86.0533 39.2049C85.918 39.336 85.7664 39.4221 85.5901 39.4712C85.418 39.5163 85.2295 39.5409 85.0246 39.5409Z" fill="#592C82"/>
<path d="M90.1476 36.2788C90.328 36.1149 90.5739 36.0288 90.8812 36.0288H94.2911V35.2706C93.9345 35.2542 93.5698 35.2419 93.1968 35.2296C92.8198 35.2173 92.4263 35.205 92.0083 35.1928C91.5902 35.1805 91.1353 35.1723 90.6476 35.1641C90.4427 35.1641 90.2378 35.1928 90.0329 35.2542C89.828 35.3116 89.6435 35.4059 89.4755 35.537C89.3116 35.6682 89.1763 35.8444 89.078 36.0698C88.9796 36.2952 88.9304 36.578 88.9304 36.9141V42.2214C88.9304 42.6067 88.9878 42.9141 89.1066 43.1395C89.2255 43.3649 89.3771 43.5329 89.5698 43.6395C89.7583 43.7501 89.9591 43.8239 90.1722 43.8567C90.3853 43.8936 90.5862 43.91 90.7747 43.91C91.164 43.9018 91.5534 43.8936 91.9509 43.8854C92.3485 43.8772 92.7501 43.8649 93.1476 43.8485C93.5452 43.8321 93.9263 43.8116 94.2911 43.7911V43.0329H90.9263C90.7501 43.0329 90.582 43.0083 90.4181 42.9632C90.2501 42.9182 90.1189 42.8157 90.0206 42.6682C89.9222 42.5206 89.873 42.2993 89.873 42.0042V39.9673L93.7665 39.9059V39.1846L89.873 39.1231V37.0657C89.8771 36.705 89.9673 36.4428 90.1476 36.2788Z" fill="#592C82"/>
<path d="M43.832 41.5656C44.4795 41.5656 45.0656 41.1557 45.2828 40.5451C45.3238 40.4262 45.2623 40.2951 45.1435 40.25C45.0246 40.209 44.8935 40.2705 44.8484 40.3893C44.6967 40.8156 44.2869 41.1065 43.8361 41.1065C43.373 41.1065 42.9631 40.8197 42.8238 40.3975C42.7828 40.2787 42.6517 40.2131 42.5328 40.2541C42.414 40.2951 42.3484 40.4262 42.3853 40.5451C42.5861 41.1557 43.1681 41.5656 43.832 41.5656Z" fill="#592C82"/>
</svg>
