<svg width="110" height="110" viewBox="0 0 110 110" fill="none" xmlns="http://www.w3.org/2000/svg">
<path d="M105.814 48.75C108.047 52.6175 108.047 57.3825 105.814 61.25L85.8198 95.8814C83.5868 99.7489 79.4603 102.131 74.9944 102.131L35.0055 102.131C30.5397 102.131 26.4131 99.7489 24.1802 95.8814L4.18579 61.25C1.95288 57.3825 1.95288 52.6175 4.18579 48.75L24.1802 14.1186C26.4131 10.2511 30.5397 7.8686 35.0056 7.8686L74.9944 7.8686C79.4603 7.8686 83.5869 10.2511 85.8198 14.1186L105.814 48.75Z" fill="#CDA36D" fill-opacity="0.15" stroke="#CDA36D"/>
<path d="M79.9936 52.4669C79.7128 53.1179 79.5213 53.8199 79.132 54.4007C78.2066 55.7856 76.86 56.5514 75.1943 56.7046C74.7795 56.7429 74.3519 56.6599 73.8285 56.628C73.7711 57.0939 73.6179 57.5726 73.6626 58.0385C73.8413 59.9595 74.0008 61.8869 74.3136 63.7887C74.505 64.9375 74.5306 65.9778 73.9498 67.0244C73.4392 67.9434 72.8521 68.7667 71.8756 69.2071C71.365 69.4369 70.8098 69.5581 70.2163 69.7496C70.2163 70.7005 70.2226 71.7089 70.2163 72.7172C70.2099 73.4129 69.9035 73.8341 69.3547 73.9618C68.7675 74.0958 68.2251 73.7894 68.091 73.2023C68.0144 72.8768 68.0081 72.5258 68.0081 72.1875C67.9953 71.3642 68.0081 70.5346 68.0081 69.6921H42.0011C42.0011 70.7197 42.0075 71.728 42.0011 72.73C41.9947 73.4193 41.6883 73.8405 41.1267 73.9618C40.5396 74.0894 39.9843 73.7767 39.8758 73.1895C39.7929 72.7492 39.7993 72.2896 39.7929 71.8365C39.7801 71.1409 39.7929 70.4388 39.7929 69.7496C39.2376 69.5773 38.676 69.456 38.1718 69.2326C36.9337 68.671 36.3338 67.5733 35.7722 66.4054C35.2616 65.3396 35.7083 64.344 35.8168 63.3164C36.0083 61.5295 36.1934 59.7361 36.3402 57.9427C36.3721 57.5215 36.238 57.0875 36.1742 56.6025C35.0382 56.8259 34.0107 56.7301 33.0279 56.2515C29.1731 54.3751 29.1795 49.9077 32.0259 47.8016C33.2066 46.9272 34.5915 46.6273 36.0466 46.7996C36.5827 46.8634 36.8188 46.7358 37.0741 46.2444C39.1738 42.1407 42.4989 39.3836 46.711 37.6285C49.9978 36.2564 53.4378 35.7905 56.9671 36.0841C61.8047 36.4862 66.1828 38.0817 69.8525 41.3493C71.4352 42.7597 72.7053 44.4191 73.5924 46.3529C73.7456 46.6847 73.9243 46.7741 74.2944 46.7613C76.9621 46.6783 79.3299 47.9548 79.9234 50.9224C79.9362 50.9862 79.9745 51.0437 80 51.1011V52.4669H79.9936ZM71.7033 47.4697C71.6459 47.3421 71.6076 47.2527 71.5629 47.1634C69.9099 43.8383 67.255 41.5791 63.9299 40.0793C59.9922 38.305 55.863 37.7753 51.5997 38.5029C47.1833 39.256 43.4434 41.2536 40.5842 44.7573C39.8439 45.6636 39.2312 46.6464 38.7973 47.6612C39.5184 48.2866 40.2396 48.8227 40.8523 49.4609C42.7924 51.4777 43.4881 54.0305 43.8519 56.7046C43.9923 57.7449 44.0689 58.7979 44.171 59.851H65.7871C65.9722 58.3958 66.119 56.9726 66.3423 55.5622C66.6551 53.5774 67.3316 51.733 68.5633 50.1183C69.4057 49.0142 70.4843 48.1909 71.7097 47.4633L71.7033 47.4697ZM54.9503 67.4776C59.8518 67.4776 64.7468 67.4648 69.6483 67.4903C70.8034 67.4967 71.531 67.0053 72.0415 65.9969C72.3479 65.3842 72.2649 64.8162 72.15 64.2035C71.748 62.0783 71.3969 59.9403 71.5182 57.7704C71.5565 57.1003 71.6841 56.411 71.9075 55.7792C72.2649 54.7581 73.0882 54.2985 74.1668 54.4262C74.8241 54.5092 75.456 54.5411 76.0686 54.2347C77.0642 53.7369 77.7854 53.0094 77.8109 51.8478C77.8365 50.8075 77.4025 49.9268 76.4707 49.4099C75.373 48.8036 74.1859 48.7078 73.0435 49.2376C71.7097 49.8566 70.6183 50.8076 69.8461 52.084C68.742 53.9092 68.3846 55.9515 68.1868 58.0321C68.091 59.0532 68.0783 60.0743 67.9889 61.0955C67.9379 61.6571 67.5422 61.989 66.9805 62.0336C66.8657 62.04 66.7508 62.04 66.6359 62.04C58.8753 62.04 51.1083 62.04 43.3477 62.04C43.2009 62.04 43.0541 62.0464 42.9073 62.0209C42.4351 61.9315 42.0904 61.6699 42.0202 61.1784C41.9564 60.7636 41.9692 60.336 41.9245 59.9148C41.7649 58.4278 41.6756 56.9344 41.4075 55.4665C40.9608 53.0094 39.8312 50.9543 37.623 49.5886C36.6018 48.9567 35.5552 48.778 34.4064 49.0461C32.9194 49.3907 31.9557 50.8203 32.2492 52.2627C32.5173 53.5965 34.0745 54.6496 35.4531 54.439C37.023 54.2028 37.9229 54.7964 38.3186 56.3536C38.408 56.6982 38.459 57.0556 38.4845 57.4066C38.6441 59.551 38.3058 61.6507 37.9548 63.7504C37.8655 64.2737 37.6613 64.829 37.7506 65.3268C37.9931 66.7372 38.9632 67.4584 40.4055 67.4584C45.2559 67.4584 50.1063 67.4584 54.9567 67.4584L54.9503 67.4776Z" fill="#CDA36D"/>
</svg>
