<svg width="114" height="45" viewBox="0 0 114 45" fill="none" xmlns="http://www.w3.org/2000/svg">
<g clip-path="url(#clip0_1513_103)">
<path d="M6.52 0.48999H0V27.03H2.58V17.29H6.52C11.79 17.29 15.43 14.52 15.43 8.37999C15.43 3.36999 11.79 0.48999 6.52 0.48999ZM6.52 16.72H2.58V1.05999H6.52C10.42 1.05999 12.85 3.17999 12.85 8.44999C12.85 13.72 10.39 16.71 6.52 16.71V16.72Z" fill="#CE0E2D"/>
<path d="M19.6001 6.59998V7.16998C26.7301 7.16998 27.7501 10.47 27.7501 15.28V15.89C26.5801 14.07 23.8501 12.78 21.5701 12.78C17.7001 12.78 15.5801 16.46 15.5801 19.95C15.5801 23.44 17.7001 27.12 21.5701 27.12C23.8401 27.12 26.5701 25.83 27.7501 24.01V24.31C28.0201 25.45 29.0001 26.47 29.9501 27.04H30.3301V15.28C30.3301 9.70998 27.6001 6.59998 19.6001 6.59998ZM27.7501 22.07C27.7501 24.27 24.8301 26.01 22.5601 26.01C19.7501 26.01 18.3901 23.36 18.3901 19.94C18.3901 16.52 19.7501 13.87 22.5601 13.87C24.8301 13.87 27.7501 15.61 27.7501 17.81V22.06V22.07Z" fill="#CE0E2D"/>
<path d="M36.53 20.59V7.89001H39.67V6.50001H36.53V2.12001C35.73 1.67001 35.24 1.51001 34.33 1.51001H33.95V6.51001H32.53V7.90001H33.95V18.54C33.95 24.11 33.95 27.03 40.2 27.03V26.46C36.75 26.46 36.52 24.19 36.52 20.58L36.53 20.59Z" fill="#CE0E2D"/>
<path d="M44.8999 20.59V7.89001H48.0399V6.50001H44.8999V2.12001C44.0999 1.67001 43.6099 1.51001 42.6999 1.51001H42.3199V6.51001H40.8999V7.90001H42.3199V18.54C42.3199 24.11 42.3199 27.03 48.5699 27.03V26.46C45.1199 26.46 44.8899 24.19 44.8899 20.58L44.8999 20.59Z" fill="#CE0E2D"/>
<path d="M52.16 0C51.4 0 50.8 0.91 50.8 1.86C50.8 3.11 51.9 4.02 52.16 4.02C52.46 4.02 53.5601 3.11 53.5601 1.86C53.5601 0.91 52.92 0 52.16 0V0Z" fill="#CE0E2D"/>
<path d="M50.8701 27.03H53.4501V6.55995C52.4301 5.98995 52.0101 5.94995 50.8701 5.94995V27.03Z" fill="#CE0E2D"/>
<path d="M60.06 6.59998V7.16998C67.19 7.16998 68.21 10.47 68.21 15.28V15.89C67.04 14.07 64.31 12.78 62.03 12.78C58.16 12.78 56.04 16.46 56.04 19.95C56.04 23.44 58.16 27.12 62.03 27.12C64.3 27.12 67.03 25.83 68.21 24.01V24.31C68.48 25.45 69.46 26.47 70.41 27.04H70.79V15.28C70.79 9.70998 68.06 6.59998 60.06 6.59998ZM68.21 22.07C68.21 24.27 65.29 26.01 63.02 26.01C60.21 26.01 58.85 23.36 58.85 19.94C58.85 16.52 60.21 13.87 63.02 13.87C65.29 13.87 68.21 15.61 68.21 17.81V22.06V22.07Z" fill="#CE0E2D"/>
<path d="M90.6901 6.36994C88.1101 6.36994 86.6701 7.61994 86.0601 9.39994C85.4901 7.61994 84.0501 6.36994 81.4701 6.36994C79.2301 6.36994 77.8701 7.27994 77.1501 8.63994V6.54994C76.3901 6.12994 75.7901 5.93994 74.9901 5.93994H74.5701V27.0299H77.1501V11.4099C77.1501 9.24994 78.1401 7.53994 80.6801 7.53994C83.2201 7.53994 83.5601 9.24994 83.5601 11.4099V27.0299H86.4001V11.4099C86.4001 9.24994 87.3501 7.53994 89.8901 7.53994C92.4301 7.53994 92.7701 9.24994 92.7701 11.4099V27.0299H95.6101V11.4099C95.6101 8.63994 94.1701 6.36994 90.6801 6.36994H90.6901Z" fill="#CE0E2D"/>
<path d="M98.84 0.300014C98.2 0.260014 97.67 0.750014 97.59 1.40001C97.55 2.01001 97.97 2.58001 98.61 2.69001C98.65 2.80001 98.69 2.92001 98.69 3.03001C98.69 3.41001 98.46 3.83001 97.93 4.24001L98.08 4.47001C99.26 3.98001 100.01 2.80001 99.98 1.70001C99.98 0.870014 99.49 0.340014 98.84 0.300014Z" fill="#CE0E2D"/>
<path d="M103.76 10.31C103.76 8.34002 104.4 6.59002 106.87 6.59002C109.49 6.59002 110.74 7.35002 111.8 9.70002L112.37 9.51002C111.19 6.93002 109.83 6.02002 107.14 6.02002C103.58 6.02002 101.07 7.57002 101.07 10.42C101.07 18.42 111.08 15.16 111.08 21.64C111.08 23.84 109.94 26.45 106.72 26.45C102.85 26.45 102.09 24.06 101.64 22.43L101.11 22.62C102.02 25.73 103.16 27.02 106.38 27.02C112.03 27.02 113.47 23.04 113.47 20.99C113.47 12.8 103.76 15.64 103.76 10.3V10.31Z" fill="#CE0E2D"/>
<path d="M63.41 40.3701C62.91 37.4501 60.88 34.9801 58.08 33.9301C57.92 34.4201 57.8 34.9301 57.73 35.4501C57.2 39.4201 59.52 43.1001 63.1 44.4501C66.13 43.6101 68.3 40.7801 68.17 37.5001C68.15 37.0701 68.09 36.6501 67.99 36.2401C65.88 36.8201 64.18 38.3801 63.41 40.3801V40.3701ZM63.31 43.7001C63.37 43.4501 63.42 43.2001 63.45 42.9401C63.55 42.2401 63.55 41.5601 63.47 40.8801C64.02 39.4901 65.2 38.4001 66.67 37.9901C66.74 38.2701 66.78 38.5701 66.79 38.8701C66.89 41.1401 65.39 43.1001 63.3 43.7001H63.31Z" fill="#93B278"/>
<path d="M19 43.6901C18.89 43.6001 18.75 43.3701 18.58 42.9801C18.31 42.3101 17.94 41.3201 17.47 39.9901C17 38.6701 16.5 37.2001 15.97 35.5901H14.93C14.29 37.3001 13.68 38.8601 13.1 40.2801C12.52 41.7001 12.12 42.6501 11.9 43.1201C11.77 43.3701 11.63 43.5501 11.46 43.6601C11.3 43.7601 11.06 43.8201 10.78 43.8301V44.2401C11.06 44.2301 11.33 44.2101 11.57 44.2001C11.82 44.2001 12.02 44.2001 12.18 44.2001C12.38 44.2001 12.61 44.2001 12.87 44.2001C13.13 44.2001 13.41 44.2201 13.7 44.2401V43.8201H13.54C13.27 43.8201 13.08 43.7801 12.98 43.7001C12.88 43.6301 12.82 43.4801 12.82 43.2901C12.82 43.1501 12.87 42.9101 12.98 42.5801C13.08 42.2401 13.28 41.7201 13.56 40.9901C13.83 40.9901 14.08 40.9801 14.32 40.9801C14.57 40.9801 14.83 40.9801 15.1 40.9801C15.24 40.9801 15.55 40.9801 16.04 41.0001H16.68L17.27 42.8601C17.31 42.9701 17.33 43.0601 17.35 43.1401C17.36 43.2101 17.37 43.2901 17.37 43.3601C17.37 43.5301 17.32 43.6601 17.21 43.7301C17.11 43.8001 16.9 43.8301 16.62 43.8301H16.51V44.2501C16.81 44.2401 17.09 44.2201 17.37 44.2101C17.64 44.2101 17.89 44.2101 18.12 44.2101C18.29 44.2101 18.52 44.2101 18.77 44.2101C19.03 44.2101 19.32 44.2301 19.64 44.2501V43.8301H19.52C19.3 43.8301 19.13 43.7901 19.01 43.7001L19 43.6901ZM16.18 40.3601C15.66 40.3701 15.29 40.3801 15.09 40.3801C14.93 40.3801 14.61 40.3801 14.15 40.3601C14 40.3601 13.9 40.3601 13.81 40.3601L15.2 36.7401L16.44 40.3601C16.38 40.3601 16.29 40.3601 16.17 40.3601H16.18Z" fill="#93B278"/>
<path d="M29.48 35.6401C29.32 35.6401 29.12 35.6401 28.9 35.6301C28.68 35.6301 28.45 35.6101 28.2 35.5901V36.0101H28.3C28.52 36.0101 28.68 36.0301 28.79 36.0801C28.89 36.1301 28.93 36.2001 28.93 36.3001C28.93 36.4001 28.77 36.7301 28.44 37.3101C28.11 37.8901 27.61 38.7101 26.95 39.7701L25.48 37.1601C25.45 37.1101 25.41 37.0301 25.35 36.9401C25.16 36.6001 25.05 36.3901 25.05 36.2901C25.05 36.2001 25.11 36.1301 25.23 36.0801C25.35 36.0401 25.51 36.0101 25.74 36.0101H25.82V35.5901C25.55 35.6001 25.28 35.6201 25.03 35.6301C24.78 35.6301 24.54 35.6401 24.33 35.6401C24.13 35.6401 23.9 35.6401 23.63 35.6301C23.37 35.6301 23.08 35.6101 22.78 35.5901V36.0101C22.84 36.0101 22.88 36.0001 22.91 36.0001C22.94 36.0001 22.97 36.0001 22.98 36.0001C23.28 36.0001 23.61 36.3001 23.97 36.9101C24.02 37.0101 24.07 37.0801 24.1 37.1301L26.06 40.4401L26.04 42.5901C26.04 43.1001 25.97 43.4401 25.84 43.6001C25.71 43.7601 25.48 43.8401 25.13 43.8401C25.1 43.8401 25.06 43.8401 25 43.8401C24.95 43.8401 24.9 43.8401 24.87 43.8401V44.2701C25.22 44.2601 25.55 44.2401 25.85 44.2301C26.16 44.2301 26.4 44.2301 26.61 44.2301C26.85 44.2301 27.12 44.2301 27.42 44.2301C27.73 44.2301 28.04 44.2501 28.38 44.2701V43.8401H28.17C27.81 43.8401 27.56 43.7701 27.44 43.6301C27.32 43.5001 27.25 43.1401 27.25 42.5801L27.23 40.4101L28.76 38.0801C28.86 37.9201 29.01 37.6901 29.19 37.4001C29.77 36.4801 30.23 36.0201 30.59 36.0201H30.72C30.72 36.0201 30.74 36.0201 30.75 36.0201V35.6001C30.53 35.6101 30.31 35.6301 30.09 35.6401C29.87 35.6401 29.66 35.6501 29.46 35.6501L29.48 35.6401Z" fill="#93B278"/>
<path d="M42.5601 35.6401C42.3201 35.6401 41.9201 35.6301 41.3601 35.6001C41.2701 35.6001 41.2001 35.6001 41.1501 35.6001V36.0101H41.2401C41.5101 36.0101 41.7001 36.0501 41.8201 36.1201C41.9401 36.1901 42.0301 36.3201 42.0901 36.5101C42.1201 36.6501 42.1501 37.0601 42.1701 37.7301C42.1901 38.4001 42.2101 39.2401 42.2101 40.2201C42.2101 41.0401 42.1701 41.6301 42.0801 41.9901C41.9901 42.3401 41.8401 42.6401 41.6201 42.8801C41.4001 43.1201 41.1401 43.3101 40.8301 43.4201C40.5201 43.5401 40.1601 43.6001 39.7501 43.6001C39.2101 43.6001 38.7401 43.4801 38.3601 43.2601C37.9701 43.0301 37.6801 42.7001 37.4801 42.2601C37.3801 42.0601 37.3201 41.8001 37.2801 41.4901C37.2401 41.1801 37.2201 40.7001 37.2201 40.0401V37.8301C37.2201 37.0401 37.2701 36.5401 37.3801 36.3301C37.4901 36.1201 37.7101 36.0201 38.0301 36.0201C38.0501 36.0201 38.0801 36.0201 38.1301 36.0201H38.2301V35.6101C37.9501 35.6201 37.6801 35.6401 37.4101 35.6501C37.1401 35.6501 36.8801 35.6601 36.6201 35.6601C36.4001 35.6601 36.1701 35.6601 35.9101 35.6501C35.6501 35.6501 35.3801 35.6301 35.0901 35.6101V36.0201H35.2001C35.5401 36.0201 35.7601 36.1001 35.8701 36.2701C35.9901 36.4301 36.0501 36.8601 36.0501 37.5601V37.7501C36.0501 38.1201 36.0501 38.6401 36.0401 39.3001C36.0401 39.9701 36.0301 40.4401 36.0301 40.7301C36.0301 41.4901 36.1001 42.0701 36.2501 42.4901C36.3901 42.9101 36.6301 43.2801 36.9601 43.5801C37.2701 43.8701 37.6401 44.1001 38.0801 44.2501C38.5201 44.4101 39.0001 44.4801 39.5201 44.4801C40.2701 44.4801 40.9201 44.3201 41.4701 44.0201C42.0201 43.7101 42.4201 43.2901 42.6401 42.7601C42.7401 42.5001 42.8301 42.2001 42.8701 41.8601C42.9201 41.5201 42.9401 41.0401 42.9401 40.3901V39.7801C42.9401 38.6701 42.9501 37.8601 42.9701 37.3601C42.9901 36.8601 43.0201 36.5501 43.0701 36.4301C43.1201 36.2901 43.2101 36.1901 43.3301 36.1301C43.4501 36.0601 43.6201 36.0301 43.8601 36.0301H43.9301V35.6201C43.9301 35.6201 43.8201 35.6201 43.7201 35.6201C43.1601 35.6501 42.7601 35.6601 42.5301 35.6601L42.5601 35.6401Z" fill="#93B278"/>
<path d="M54.4501 42.1501C54.3701 42.0301 54.3101 41.9401 54.2701 41.8701L53.1301 40.1601C53.6601 39.8801 54.0601 39.5601 54.3201 39.1801C54.5901 38.8001 54.7201 38.3601 54.7201 37.8701C54.7201 37.2101 54.4501 36.6701 53.9201 36.2201C53.3901 35.7901 52.7201 35.5701 51.8801 35.5701C51.7501 35.5701 51.4801 35.5701 51.0701 35.5901C50.6701 35.6101 50.3401 35.6201 50.0701 35.6201C49.8201 35.6201 49.5501 35.6201 49.2901 35.6101C49.0301 35.6101 48.7601 35.6001 48.4901 35.5701V36.0001H48.5301C48.8601 36.0001 49.0901 36.0601 49.2301 36.1901C49.3601 36.3201 49.4201 36.5601 49.4201 36.9201V38.0101C49.4201 38.3501 49.4201 38.6901 49.4201 39.0401L49.4001 40.7001C49.4001 40.9101 49.4001 41.2101 49.3901 41.5901C49.3901 43.1001 49.1101 43.8601 48.5701 43.8601H48.4501C48.4501 43.8601 48.4001 43.8601 48.3701 43.8501V44.2501C48.7101 44.2401 49.0201 44.2201 49.2901 44.2101C49.5601 44.2101 49.7701 44.2101 49.9201 44.2101C50.2001 44.2101 50.4801 44.2101 50.7701 44.2101C51.0501 44.2101 51.3401 44.2301 51.6201 44.2501V43.8501C51.6201 43.8501 51.6201 43.8501 51.6101 43.8501C51.6001 43.8501 51.5801 43.8501 51.5701 43.8501C51.5701 43.8501 51.5501 43.8501 51.5301 43.8501C51.5101 43.8501 51.4901 43.8501 51.4801 43.8501C51.1101 43.8501 50.8601 43.7701 50.7401 43.6101C50.6101 43.4501 50.5501 43.0601 50.5501 42.4601V40.6001H50.9201C51.1301 40.6001 51.3201 40.6001 51.5001 40.5901C51.6701 40.5901 51.8401 40.5801 51.9901 40.5601C52.4001 41.1401 52.8101 41.7801 53.2201 42.4501C53.6301 43.1201 53.8501 43.4801 53.8901 43.5301C54.1301 43.8601 54.3801 44.0801 54.6201 44.2001C54.8701 44.3101 55.2101 44.3701 55.6401 44.3701C55.7601 44.3701 55.9501 44.3601 56.2201 44.3301C56.3301 44.3201 56.4101 44.3101 56.4701 44.3101V43.9601H56.4101C55.9101 43.9601 55.2701 43.3601 54.4801 42.1601L54.4501 42.1501ZM52.3901 39.9801C52.2201 39.9901 52.0601 40.0101 51.9201 40.0201C51.7701 40.0201 51.6401 40.0201 51.5301 40.0201C51.4001 40.0201 51.2501 40.0201 51.0701 40.0101C50.8901 40.0001 50.7101 39.9901 50.5201 39.9701C50.5201 39.0701 50.5201 38.3501 50.5201 37.8201C50.5201 37.3001 50.5301 36.7801 50.5401 36.2801C50.7001 36.2501 50.8501 36.2301 51.0101 36.2101C51.1701 36.2001 51.3301 36.1901 51.5001 36.1901C52.1101 36.1901 52.6001 36.3601 52.9701 36.7001C53.3401 37.0401 53.5201 37.4901 53.5201 38.0501C53.5201 38.4801 53.4301 38.8501 53.2501 39.1601C53.0601 39.4701 52.7801 39.7401 52.3901 39.9801Z" fill="#93B278"/>
<path d="M76.3401 43.2801C76.0201 43.4701 75.3401 43.5701 74.3301 43.5701C74.0201 43.5701 73.7401 43.5701 73.4801 43.5601C73.2201 43.5501 72.9901 43.5301 72.7901 43.5001C72.7801 43.1201 72.7701 42.7701 72.7601 42.4901V40.9001C72.7601 40.5501 72.7601 40.2801 72.7601 40.0801H74.2801C75.0101 40.0801 75.4801 40.1401 75.6801 40.2701C75.8801 40.3901 75.9901 40.6201 75.9901 40.9701V41.0101H76.3801C76.3801 40.9401 76.3801 40.8401 76.3701 40.7201C76.3501 40.3701 76.3401 40.1401 76.3401 40.0401C76.3401 39.8601 76.3401 39.6601 76.3601 39.4401C76.3701 39.2301 76.3901 39.0001 76.4201 38.7401L76.0401 38.7001C76.0301 39.0001 75.9201 39.2001 75.7301 39.3101C75.5401 39.4201 75.1501 39.4701 74.5701 39.4701C74.4501 39.4701 74.2101 39.4701 73.8501 39.4701C73.4901 39.4701 73.1901 39.4701 72.9501 39.4701H72.7601C72.7601 39.2601 72.7701 38.8001 72.7901 38.1001C72.8101 37.4001 72.8201 36.8001 72.8301 36.3101C72.8901 36.3101 72.9701 36.3101 73.1001 36.3101C73.7001 36.3101 74.1201 36.3001 74.3401 36.3001C75.2201 36.3001 75.8001 36.3801 76.0701 36.5601C76.3401 36.7201 76.4901 37.0501 76.5201 37.5401L76.9201 37.5001C76.8901 37.1901 76.8701 36.8601 76.8501 36.5501C76.8301 36.2301 76.8101 35.9201 76.8101 35.6101C76.3301 35.6301 75.8701 35.6501 75.4101 35.6701C74.9501 35.6701 74.5001 35.6801 74.0501 35.6801C73.6501 35.6801 73.1601 35.6801 72.6101 35.6701C72.0501 35.6601 71.4201 35.6301 70.7101 35.6101V36.0201H70.7601C71.0901 36.0201 71.3201 36.0801 71.4501 36.2101C71.5801 36.3401 71.6401 36.5801 71.6401 36.9401V38.0301C71.6401 38.3701 71.6401 38.7101 71.6301 39.0601L71.6101 40.7201C71.6101 40.9301 71.6101 41.2301 71.6001 41.6101C71.6001 43.1201 71.3201 43.8801 70.7801 43.8801H70.6601C70.6601 43.8801 70.6101 43.8801 70.5801 43.8701V44.2701H70.8001C72.1401 44.2201 73.1101 44.2001 73.7201 44.2001C74.1601 44.2001 74.6601 44.2001 75.1901 44.2201C75.7401 44.2201 76.3301 44.2501 76.9601 44.2701C77.0301 43.9501 77.1101 43.6301 77.2101 43.3001C77.3001 42.9801 77.4001 42.6501 77.5301 42.3101L77.0901 42.1701C76.9001 42.7201 76.6501 43.1101 76.3301 43.3001L76.3401 43.2801Z" fill="#93B278"/>
<path d="M85.6801 35.53C85.5901 35.53 85.2801 35.54 84.7401 35.58C84.2001 35.61 83.7101 35.63 83.2701 35.63C83.1201 35.63 82.9301 35.63 82.7001 35.62C82.4701 35.61 82.2201 35.6 81.9601 35.58V36H82.0001C82.3301 36 82.5601 36.07 82.6901 36.2C82.8201 36.33 82.8801 36.57 82.8801 36.92V38.06C82.8801 38.39 82.8801 38.73 82.8801 39.07L82.8601 40.69C82.8601 40.91 82.8501 41.2 82.8501 41.58C82.8501 43.08 82.5701 43.83 82.0301 43.83H81.9001C81.9001 43.83 81.8501 43.83 81.8301 43.83V44.25C82.1101 44.24 82.3701 44.22 82.6101 44.21C82.8501 44.2 83.0501 44.21 83.2201 44.21C83.5701 44.21 84.0401 44.22 84.6001 44.25C85.1701 44.28 85.5601 44.3 85.7701 44.3C87.2201 44.3 88.3801 43.89 89.2501 43.07C90.1201 42.25 90.5501 41.15 90.5501 39.81C90.5501 38.47 90.1201 37.45 89.2501 36.69C88.3901 35.93 87.2001 35.55 85.7001 35.55L85.6801 35.53ZM88.3101 42.76C87.7001 43.39 86.8301 43.7 85.6901 43.7C85.4001 43.7 85.1101 43.69 84.8301 43.66C84.5501 43.63 84.2501 43.59 83.9601 43.52V41.87C83.9601 41.31 83.9601 40.6 83.9701 39.75C83.9701 38.9 83.9901 37.74 84.0201 36.26C84.2701 36.23 84.5301 36.2 84.7801 36.18C85.0301 36.17 85.2701 36.16 85.5101 36.16C86.6801 36.16 87.5901 36.51 88.2401 37.21C88.9001 37.91 89.2201 38.88 89.2201 40.11C89.2201 41.26 88.9201 42.15 88.3101 42.77V42.76Z" fill="#93B278"/>
<path d="M102.55 43.8201C102.33 43.8201 102.17 43.7801 102.05 43.6901C101.94 43.6001 101.8 43.3701 101.63 42.9801C101.36 42.3101 100.99 41.3201 100.52 39.9901C100.05 38.6701 99.5501 37.2001 99.0201 35.5901H97.9701C97.3301 37.3001 96.7301 38.8601 96.1501 40.2801C95.5701 41.7001 95.1701 42.6501 94.9501 43.1201C94.8201 43.3701 94.6701 43.5501 94.5101 43.6601C94.3401 43.7601 94.1101 43.8201 93.8301 43.8301V44.2401C94.1101 44.2301 94.3801 44.2101 94.6201 44.2001C94.8701 44.2001 95.0701 44.2001 95.2301 44.2001C95.4301 44.2001 95.6601 44.2001 95.9201 44.2001C96.1801 44.2001 96.4501 44.2201 96.7501 44.2401V43.8201H96.5901C96.3201 43.8201 96.1301 43.7801 96.0301 43.7001C95.9201 43.6301 95.8701 43.4801 95.8701 43.2901C95.8701 43.1501 95.9201 42.9101 96.0301 42.5801C96.1301 42.2401 96.3301 41.7201 96.6101 40.9901C96.8701 40.9901 97.1301 40.9801 97.3701 40.9801C97.6201 40.9801 97.8701 40.9801 98.1501 40.9801C98.2801 40.9801 98.6001 40.9801 99.0901 41.0001H99.7201L100.32 42.8601C100.36 42.9701 100.38 43.0601 100.39 43.1401C100.4 43.2101 100.41 43.2901 100.41 43.3601C100.41 43.5301 100.37 43.6601 100.25 43.7301C100.15 43.8001 99.9501 43.8301 99.6701 43.8301H99.5501V44.2501C99.8601 44.2401 100.14 44.2201 100.41 44.2101C100.69 44.2101 100.93 44.2101 101.16 44.2101C101.34 44.2101 101.56 44.2101 101.82 44.2101C102.08 44.2101 102.37 44.2301 102.69 44.2501V43.8301H102.56L102.55 43.8201ZM99.2301 40.3601C98.7001 40.3701 98.3301 40.3801 98.1401 40.3801C97.9701 40.3801 97.6601 40.3801 97.2001 40.3601C97.0501 40.3601 96.9401 40.3601 96.8601 40.3601L98.2501 36.7401L99.4901 40.3601C99.4301 40.3601 99.3401 40.3601 99.2201 40.3601H99.2301Z" fill="#93B278"/>
</g>
<defs>
<clipPath id="clip0_1513_103">
<rect width="113.47" height="44.45" fill="white"/>
</clipPath>
</defs>
</svg>
