<svg width="110" height="110" viewBox="0 0 110 110" fill="none" xmlns="http://www.w3.org/2000/svg">
<path d="M105.814 48.75C108.047 52.6175 108.047 57.3825 105.814 61.25L85.8198 95.8814C83.5868 99.7489 79.4603 102.131 74.9944 102.131L35.0055 102.131C30.5397 102.131 26.4131 99.7489 24.1802 95.8814L4.18579 61.25C1.95288 57.3825 1.95288 52.6175 4.18579 48.75L24.1802 14.1186C26.4131 10.2511 30.5397 7.8686 35.0056 7.8686L74.9944 7.8686C79.4603 7.8686 83.5869 10.2511 85.8198 14.1186L105.814 48.75Z" fill="#FFAD5A" fill-opacity="0.15" stroke="#FFAD5A"/>
<path d="M54.146 80.1861C53.9599 80.1595 53.7272 80.1396 53.4946 80.113C53.0028 80.0598 52.4977 80.0133 52.0125 79.9202L51.1285 79.7541C49.5334 79.4617 47.8852 79.1559 46.29 78.7771C41.8104 77.7203 36.9852 77.2152 31.1033 77.1886H30V63.0786H33.0307C34.0875 63.0786 35.1509 63.0786 36.2076 63.0653C36.6396 63.0653 37.0318 62.8792 37.2245 62.7728C37.6366 62.5469 38.042 62.3076 38.4541 62.0683C39.0456 61.7161 39.6571 61.3572 40.2818 61.0514C41.199 60.5928 42.1428 60.3602 43.0865 60.3602C44.0303 60.3602 45.0472 60.6061 46.0375 61.0847C46.3632 61.2442 46.6822 61.4103 47.0211 61.5831L47.8253 61.9952L48.038 61.7493C50.2911 59.1373 53.0693 57.6419 56.532 57.1634L56.9175 57.1102L56.8842 56.7247C56.5519 52.5508 55.0432 48.7957 52.4046 45.5722L52.1786 45.2997L51.8729 45.4792C50.8826 46.0641 49.9322 46.4097 48.9486 46.536C48.5963 46.5825 48.2441 46.6024 47.9117 46.6024C46.1239 46.6024 44.5554 45.971 43.246 44.7282C40.5011 42.1228 38.9525 38.9326 38.6468 35.2439C38.5471 33.9878 38.5671 32.7383 38.6003 31.4223C38.6069 30.9571 38.6202 30.4918 38.6202 30.0266C39.0257 30.0266 39.4311 30.0266 39.8365 30.0133C40.2818 30.0133 40.7271 30 41.1724 30C42.927 30 44.8079 30.0798 46.6224 30.6713C49.1679 31.4954 51.3612 32.8513 53.149 34.6923C55.4087 37.0251 55.7078 40.6407 53.8867 43.4853L53.7206 43.7445L53.92 43.9771C55.4885 45.8248 56.7048 47.8652 57.6353 50.2114L57.9875 51.102L58.486 50.0319C58.5458 49.9056 58.5923 49.8126 58.6322 49.7129C59.4896 47.6791 60.5862 45.858 61.8889 44.3095C62.2145 43.924 62.2411 43.5784 61.9886 43.153C60.3004 40.3283 60.7789 36.746 63.1517 34.453C66.209 31.5286 69.8843 30.0266 74.0715 30.0266H77.5342V30.9305C77.5342 31.861 77.5342 32.7715 77.5342 33.6887C77.5475 35.6028 77.182 37.5103 76.4575 39.3513C75.66 41.3851 74.4703 43.1796 72.9217 44.6684C71.6124 45.9311 69.8844 46.629 68.0566 46.629C66.8603 46.629 65.6706 46.3233 64.6271 45.7384L63.9957 45.3795L63.7764 45.5722C61.5632 47.4864 58.9379 53.9931 59.2503 56.8045L59.2835 57.1168L59.5959 57.17C64.8066 58.0141 68.3424 60.7856 70.4094 65.6307L70.5623 65.9963L70.9345 65.8501C71.8118 65.5111 72.6625 65.3449 73.5332 65.3449C73.7259 65.3449 73.912 65.3516 74.1047 65.3715C76.2581 65.551 77.9396 66.5014 79.249 68.276C79.4683 68.575 79.6876 68.8808 79.9003 69.1798L80 69.3194L79.9535 69.3526C79.6876 69.5387 79.4284 69.7182 79.1559 69.8976C78.1723 70.5556 77.1886 71.2136 76.2116 71.8782C73.9054 73.4335 71.526 75.0352 69.1466 76.5572C66.4815 78.2653 63.6236 79.362 60.6593 79.8338C60.0678 79.9269 59.4763 80.0066 58.8848 80.0864L58.0938 80.1927H54.1393L54.146 80.1861ZM32.1335 74.9688L33.9878 75.0618C35.0844 75.115 36.1611 75.1748 37.2378 75.2346C39.7501 75.3742 42.3023 75.7198 45.0472 76.2847C45.8049 76.4376 46.5559 76.6104 47.3069 76.7765C49.673 77.3083 52.1188 77.8599 54.6311 77.9729C55.1296 77.9928 55.6214 78.0061 56.1199 78.0061C59.7022 78.0061 62.7795 77.3614 65.5244 76.0388C67.9636 74.8624 70.2167 73.3338 72.3966 71.8517L73.0214 71.4263C73.799 70.8946 74.5833 70.3629 75.3742 69.8245L76.8895 68.7877L76.4176 68.4421C75.6733 67.9038 74.8691 67.598 73.9585 67.5249C73.8322 67.5116 73.7126 67.5116 73.5863 67.5116C72.3169 67.5116 71.2867 68.0699 70.4493 68.6149C66.2488 71.3532 61.8423 72.7356 57.3561 72.7356C55.7411 72.7356 54.0861 72.5562 52.4246 72.2039C51.5805 72.0245 50.763 71.7918 49.8923 71.5459C49.6331 71.4728 49.3673 71.3997 49.1081 71.3266L49.8059 69.2264C51.8796 69.9043 53.8003 70.3164 55.6746 70.4759C56.2395 70.5224 56.8045 70.549 57.3628 70.549C58.9379 70.549 60.5197 70.3496 62.055 69.9641L62.4605 69.8644L62.3541 69.459L62.3342 69.3726C62.3209 69.3061 62.3009 69.233 62.2544 69.1533C62.188 69.0403 62.1215 68.9273 62.0417 68.8276C61.0581 67.4718 59.7089 66.7672 58.0207 66.7407C57.1634 66.7274 56.2993 66.7207 55.442 66.7207C54.6378 66.7207 53.8336 66.7274 53.0294 66.7407H52.8965C51.6071 66.7407 50.3974 66.3552 49.2078 65.5709C47.925 64.7202 46.6157 63.9293 45.4792 63.2514C44.7082 62.7928 43.9107 62.5535 43.1198 62.5535C42.3289 62.5535 41.6044 62.7662 40.8667 63.1915C40.2685 63.5372 39.677 63.896 39.0855 64.255C38.6269 64.5341 38.1749 64.8132 37.7097 65.0857C37.5568 65.1721 37.3774 65.232 37.2312 65.232C36.5466 65.2386 35.8554 65.2452 35.1708 65.2452H32.1335V74.9621V74.9688ZM56.1598 64.574C56.8045 64.574 57.4492 64.574 58.0938 64.5806C60.2938 64.6006 62.1215 65.4845 63.5239 67.1993C63.7897 67.5183 64.0157 67.8838 64.255 68.276C64.3746 68.4687 64.5009 68.6681 64.6338 68.8675L64.8332 69.1732L68.5551 67.3122L68.482 66.9932C67.6047 63.258 63.8828 60.0611 59.6291 59.3965C59.1174 59.3168 58.5923 59.2769 58.0606 59.2769C54.9302 59.2769 51.6935 60.7391 50.0186 62.919L49.7727 63.2381L50.0851 63.4906C51.082 64.3015 51.833 64.5806 53.0693 64.5806H56.1531L56.1598 64.574ZM65.4646 43.6913L65.983 43.9439C66.641 44.2629 67.3388 44.4291 68.0633 44.4291C69.3726 44.4291 70.6221 43.8974 71.5792 42.927C73.1144 41.3718 74.1978 39.5108 74.8159 37.4106C75.2612 35.8953 75.4407 34.2869 75.3476 32.6319L75.3343 32.3528L75.0685 32.2597C74.9821 32.2265 74.9089 32.1999 74.8225 32.1933C74.6431 32.1933 74.4636 32.1866 74.2842 32.1866C70.5689 32.1866 67.3588 33.4561 64.7468 35.9617C63.896 36.7792 63.3843 37.7429 63.2248 38.8263C63.0719 39.8963 63.2248 40.8202 63.71 41.724L63.9758 42.2159L69.0735 37.0916L70.5822 38.5936L65.4646 43.698V43.6913ZM40.7072 32.5987C40.5742 36.7526 41.7905 40.109 44.4291 42.8672C45.3729 43.8509 46.516 44.3826 47.832 44.4357C47.9117 44.4357 47.9981 44.4357 48.0779 44.4357C48.8622 44.4357 49.5401 44.2563 50.2047 43.8774L50.6699 43.6116L45.559 38.5272L47.0411 37.0251L52.1188 42.1295L52.3847 41.6443C53.3351 39.8963 52.9297 37.5502 51.421 36.0681C48.9353 33.6289 45.8913 32.3328 42.3621 32.2066C42.2092 32.2066 42.0564 32.1999 41.9035 32.1999H40.7271L40.7138 32.6053L40.7072 32.5987Z" fill="#FFAD5A"/>
</svg>
