<svg width="157" height="62" viewBox="0 0 157 62" fill="none" xmlns="http://www.w3.org/2000/svg">
<g clip-path="url(#clip0_1509_41)">
<path d="M9.02124 0.677979H0V37.3994H3.56975V23.9229H9.02124C16.3129 23.9229 21.3493 20.0902 21.3493 11.5948C21.3493 4.66282 16.3129 0.677979 9.02124 0.677979ZM9.02124 23.1342H3.56975V1.46665H9.02124C14.4174 1.46665 17.7796 4.39993 17.7796 11.6916C17.7796 18.9833 14.3759 23.1204 9.02124 23.1204V23.1342Z" fill="#CE0E2D"/>
<path d="M27.1191 9.13184V9.9205C36.9843 9.9205 38.3956 14.4865 38.3956 21.1417V21.9857C36.7768 19.4675 32.9995 17.6826 29.8448 17.6826C24.4902 17.6826 21.5569 22.7744 21.5569 27.6032C21.5569 32.4321 24.4902 37.5238 29.8448 37.5238C32.9856 37.5238 36.7629 35.739 38.3956 33.2208V33.6358C38.7692 35.2132 40.1251 36.6245 41.4396 37.4131H41.9654V21.1417C41.9654 13.4349 38.1881 9.13184 27.1191 9.13184ZM38.3956 30.5365C38.3956 33.5805 34.3554 35.988 31.2146 35.988C27.3266 35.988 25.4449 32.3214 25.4449 27.5894C25.4449 22.8574 27.3266 19.1908 31.2146 19.1908C34.3554 19.1908 38.3956 21.5983 38.3956 24.6423V30.5227V30.5365Z" fill="#CE0E2D"/>
<path d="M50.5438 28.4889V10.9169H54.8884V8.99365H50.5438V2.93337C49.4369 2.31074 48.7589 2.08936 47.4998 2.08936H46.974V9.00748H45.0093V10.9307H46.974V25.6525C46.974 33.3593 46.974 37.3995 55.6217 37.3995V36.6108C50.8482 36.6108 50.5299 33.47 50.5299 28.4751L50.5438 28.4889Z" fill="#CE0E2D"/>
<path d="M62.1248 28.4889V10.9169H66.4694V8.99365H62.1248V2.93337C61.0179 2.31074 60.34 2.08936 59.0809 2.08936H58.5551V9.00748H56.5903V10.9307H58.5551V25.6525C58.5551 33.3593 58.5551 37.3995 67.2027 37.3995V36.6108C62.4292 36.6108 62.111 33.47 62.111 28.4751L62.1248 28.4889Z" fill="#CE0E2D"/>
<path d="M72.1698 0C71.1183 0 70.2881 1.2591 70.2881 2.57354C70.2881 4.30308 71.8101 5.56217 72.1698 5.56217C72.5849 5.56217 74.1069 4.30308 74.1069 2.57354C74.1069 1.2591 73.2214 0 72.1698 0V0Z" fill="#CE0E2D"/>
<path d="M70.385 37.3995H73.9548V9.07668C72.5435 8.28801 71.9623 8.23267 70.385 8.23267V37.3995Z" fill="#CE0E2D"/>
<path d="M83.1005 9.13184V9.9205C92.9658 9.9205 94.3771 14.4865 94.3771 21.1417V21.9857C92.7582 19.4675 88.9809 17.6826 85.8262 17.6826C80.4716 17.6826 77.5383 22.7744 77.5383 27.6032C77.5383 32.4321 80.4716 37.5238 85.8262 37.5238C88.9671 37.5238 92.7444 35.739 94.3771 33.2208V33.6358C94.7506 35.2132 96.1066 36.6245 97.421 37.4131H97.9468V21.1417C97.9468 13.4349 94.1695 9.13184 83.1005 9.13184ZM94.3771 30.5365C94.3771 33.5805 90.3369 35.988 87.196 35.988C83.308 35.988 81.4263 32.3214 81.4263 27.5894C81.4263 22.8574 83.308 19.1908 87.196 19.1908C90.3369 19.1908 94.3771 21.5983 94.3771 24.6423V30.5227V30.5365Z" fill="#CE0E2D"/>
<path d="M125.481 8.81371C121.911 8.81371 119.919 10.5432 119.075 13.0061C118.286 10.5432 116.294 8.81371 112.724 8.81371C109.625 8.81371 107.743 10.0728 106.747 11.9545V9.06276C105.695 8.48164 104.865 8.21875 103.758 8.21875H103.177V37.3994H106.747V15.7872C106.747 12.7986 108.117 10.4326 111.631 10.4326C115.145 10.4326 115.616 12.7986 115.616 15.7872V37.3994H119.545V15.7872C119.545 12.7986 120.86 10.4326 124.374 10.4326C127.889 10.4326 128.359 12.7986 128.359 15.7872V37.3994H132.288V15.7872C132.288 11.9545 130.296 8.81371 125.467 8.81371H125.481Z" fill="#CE0E2D"/>
<path d="M136.758 0.415026C135.872 0.359681 135.139 1.03766 135.028 1.93701C134.973 2.78103 135.554 3.56969 136.439 3.72189C136.495 3.87409 136.55 4.04012 136.55 4.19232C136.55 4.7181 136.232 5.29922 135.498 5.86651L135.706 6.18474C137.339 5.50677 138.376 3.87409 138.335 2.3521C138.335 1.20369 137.657 0.470371 136.758 0.415026Z" fill="#CE0E2D"/>
<path d="M143.565 14.2651C143.565 11.5394 144.45 9.11801 147.868 9.11801C151.493 9.11801 153.223 10.1696 154.689 13.4211L155.478 13.1582C153.845 9.58845 151.964 8.32935 148.242 8.32935C143.316 8.32935 139.843 10.474 139.843 14.4173C139.843 25.4863 153.693 20.9757 153.693 29.9416C153.693 32.9856 152.116 36.5968 147.661 36.5968C142.306 36.5968 141.254 33.29 140.632 31.0346L139.898 31.2975C141.157 35.6006 142.735 37.3855 147.19 37.3855C155.008 37.3855 157 31.8787 157 29.0422C157 17.7103 143.565 21.6398 143.565 14.2513V14.2651Z" fill="#CE0E2D"/>
<path d="M37.0119 55.1374C36.6384 54.0443 36.2786 52.9928 35.9189 51.9689C35.5591 50.945 35.2271 50.0457 34.895 49.257C34.812 49.0079 34.6044 48.8142 34.2724 48.7036C33.9403 48.579 33.5805 48.5237 33.1931 48.5237C32.9026 48.5237 32.5982 48.5652 32.3076 48.6344C32.0171 48.7174 31.7957 48.7866 31.6573 48.8558C31.4359 49.4369 31.173 50.101 30.8825 50.8758C30.5919 51.6507 30.2875 52.4532 29.9831 53.2834C29.6649 54.1135 29.3605 54.9437 29.0838 55.76C28.7932 56.5764 28.5303 57.3235 28.2951 58.0154C28.0599 58.7072 27.8523 59.3021 27.7001 59.7726C27.6448 59.9524 27.5894 60.1185 27.5479 60.2707C27.4926 60.4229 27.4788 60.5612 27.4788 60.6996C27.4788 61.004 27.5894 61.2392 27.8108 61.3914C28.0322 61.5436 28.3228 61.6266 28.6548 61.6266C28.8485 61.6266 29.0146 61.6128 29.1529 61.5713C29.2913 61.5298 29.4158 61.5021 29.5404 61.4606C29.5957 61.2392 29.6787 60.9625 29.7894 60.6442C29.9001 60.326 30.0108 59.9801 30.1353 59.6065C30.2598 59.2468 30.3705 58.887 30.4812 58.5273C30.5919 58.1814 30.6888 57.8632 30.7718 57.6003L30.9655 56.7563C31.2007 56.0644 31.4498 55.345 31.7265 54.5701C31.9894 53.7953 32.2523 53.0481 32.5152 52.3148C32.778 51.5815 32.9994 50.9589 33.1793 50.4192H33.29C33.4422 50.8758 33.6359 51.4293 33.8573 52.1073C34.0787 52.7852 34.3277 53.5047 34.5906 54.2796C34.8535 55.0544 35.1025 55.8292 35.3378 56.6179L35.573 57.6003L36.583 60.6719C36.6799 60.9901 36.8182 61.2392 36.9981 61.3914C37.178 61.5436 37.4409 61.6266 37.8006 61.6266C38.0635 61.6266 38.3125 61.5851 38.5201 61.4883C38.7276 61.3914 38.8937 61.2807 39.0044 61.1423C38.7415 60.2983 38.4371 59.3575 38.105 58.3198C37.7729 57.282 37.4132 56.2166 37.0396 55.1236L37.0119 55.1374Z" fill="#5AC0B1"/>
<path d="M49.0909 54.8608C48.9664 54.8054 48.8142 54.7778 48.6897 54.7363C49.3538 54.4457 49.8381 54.0721 50.1563 53.5878C50.4745 53.0897 50.6406 52.5363 50.6406 51.9275C50.6406 50.7514 50.184 49.8659 49.2846 49.2848C48.3853 48.7036 47.1123 48.4131 45.4658 48.4131C44.8155 48.4131 44.2067 48.4408 43.6118 48.4961C43.0168 48.5514 42.491 48.6621 42.0068 48.8143C41.7854 48.8697 41.6055 48.9665 41.4671 49.1049C41.3288 49.2433 41.2734 49.437 41.2734 49.6722V60.2016C41.2734 60.755 41.5917 61.1286 42.2143 61.3223C42.5602 61.4192 42.9338 61.5022 43.335 61.5575C43.7363 61.6129 44.1237 61.6682 44.5111 61.6821C44.8985 61.6959 45.286 61.7097 45.6457 61.7097C47.4029 61.7097 48.745 61.3915 49.6997 60.7689C50.6544 60.1462 51.1249 59.1639 51.1249 57.8632C51.1249 57.1991 50.9588 56.618 50.6129 56.0922C50.2808 55.5664 49.7689 55.1652 49.0909 54.8608ZM44.3589 50.2118C44.7048 50.1703 45.0784 50.1565 45.4797 50.1565C46.4482 50.1565 47.1815 50.3087 47.6658 50.6269C48.1501 50.9451 48.3991 51.4155 48.3991 52.0243C48.3991 52.6331 48.1916 53.1451 47.7626 53.491C47.3337 53.8369 46.6972 54.0029 45.8532 54.0029H43.4319V50.3225C43.6948 50.281 43.9992 50.2395 44.3451 50.2118H44.3589ZM48.0532 59.4267C47.4998 59.7727 46.7249 59.9525 45.7149 59.9525C45.3275 59.9525 44.9124 59.9387 44.5111 59.8972C44.096 59.8695 43.7363 59.8142 43.4457 59.745V55.7048H46.0193C46.9601 55.7048 47.6658 55.8847 48.1501 56.2582C48.6343 56.6318 48.8695 57.1438 48.8695 57.8079C48.8695 58.5412 48.5928 59.0808 48.0532 59.4267Z" fill="#5AC0B1"/>
<path d="M63.1625 48.5374C62.9549 48.5374 62.7474 48.5513 62.5675 48.5928C62.3876 48.6343 62.2354 48.662 62.1386 48.6896V54.0996H56.2028V49.5752C56.2028 49.1877 56.106 48.911 55.9123 48.7588C55.7185 48.6066 55.428 48.5374 55.0129 48.5374C54.8053 48.5374 54.5978 48.5513 54.4179 48.5928C54.2381 48.6343 54.0859 48.662 53.989 48.6896V60.5611C53.989 60.9209 54.0859 61.1838 54.2796 61.3498C54.4733 61.5158 54.7777 61.585 55.1928 61.585C55.4003 61.585 55.594 61.5712 55.7877 61.5297C55.9676 61.4882 56.106 61.4605 56.2028 61.419V55.8983H62.1386V60.5473C62.1386 60.907 62.2354 61.1699 62.4291 61.336C62.6228 61.502 62.9272 61.5712 63.3423 61.5712C63.5499 61.5712 63.7436 61.5574 63.9373 61.5158C64.1172 61.4743 64.2694 61.4467 64.38 61.4052V49.5475C64.38 49.1739 64.2832 48.8972 64.0895 48.745C63.8958 48.5928 63.5914 48.5098 63.1901 48.5098L63.1625 48.5374Z" fill="#5AC0B1"/>
<path d="M76.2793 48.5514C76.1409 48.5514 75.9749 48.5652 75.8089 48.6067C75.629 48.6482 75.4768 48.6897 75.3523 48.7589C75.0202 49.4645 74.6743 50.1425 74.3422 50.7928C74.0102 51.4431 73.6643 52.1073 73.3045 52.7853C72.9586 53.4632 72.5574 54.1689 72.1284 54.9299H72.0177C71.824 54.5978 71.6027 54.1965 71.3398 53.74C71.0907 53.2834 70.814 52.8129 70.5373 52.3148C70.2605 51.8167 69.9838 51.3324 69.7209 50.862C69.458 50.3916 69.2228 49.9627 69.0291 49.5891C68.8354 49.2293 68.6417 48.9664 68.4342 48.8004C68.2404 48.6344 67.9776 48.5514 67.6317 48.5514C67.3273 48.5514 67.0644 48.6344 66.8707 48.8004C66.677 48.9664 66.5386 49.1325 66.4556 49.3123C66.7185 49.8796 67.0367 50.4884 67.4103 51.1387C67.7839 51.8029 68.1851 52.467 68.6002 53.1588C69.0153 53.8506 69.4442 54.5148 69.8731 55.1789C70.2605 55.7739 70.6064 56.3135 70.9523 56.8393V60.5612C70.9523 60.9071 71.0492 61.17 71.2429 61.3222C71.4366 61.4883 71.741 61.5574 72.1561 61.5574C72.3498 61.5574 72.5435 61.5436 72.7372 61.5021C72.9309 61.4606 73.0693 61.4329 73.1523 61.3914V56.8531C73.7888 55.8707 74.3699 54.9575 74.868 54.1412C75.3938 53.2834 75.8366 52.5224 76.2101 51.8859C76.5699 51.2494 76.8466 50.7236 77.0403 50.3086C77.234 49.8935 77.3309 49.6167 77.3309 49.4507C77.3309 49.1602 77.234 48.9249 77.0403 48.7727C76.8466 48.6067 76.5975 48.5237 76.2793 48.5237V48.5514Z" fill="#5AC0B1"/>
<path d="M87.1269 55.1374C86.7534 54.0443 86.3936 52.9928 86.0339 51.9689C85.6741 50.945 85.342 50.0457 85.01 49.257C84.927 49.0079 84.7194 48.8142 84.3874 48.7036C84.0553 48.579 83.6955 48.5237 83.3081 48.5237C83.0176 48.5237 82.7132 48.5652 82.4226 48.6344C82.132 48.7174 81.9107 48.7866 81.7723 48.8558C81.5509 49.4369 81.288 50.101 80.9975 50.8758C80.7069 51.6507 80.4025 52.4532 80.0981 53.2834C79.7799 54.1135 79.4755 54.9437 79.1988 55.76C78.922 56.5764 78.6453 57.3235 78.4101 58.0154C78.1749 58.7072 77.9812 59.3021 77.8151 59.7726C77.7598 59.9524 77.7044 60.1185 77.6629 60.2707C77.6076 60.4229 77.5938 60.5612 77.5938 60.6996C77.5938 61.004 77.7044 61.2392 77.9258 61.3914C78.1472 61.5436 78.4378 61.6266 78.7698 61.6266C78.9635 61.6266 79.1296 61.6128 79.2679 61.5713C79.4063 61.5298 79.5308 61.5021 79.6553 61.4606C79.7107 61.2392 79.7937 60.9625 79.9044 60.6442C80.0151 60.326 80.1396 59.9801 80.2503 59.6065C80.361 59.2329 80.4855 58.887 80.5962 58.5273C80.7069 58.1814 80.8038 57.8632 80.8868 57.6003L81.0805 56.7563C81.3157 56.0644 81.5786 55.345 81.8415 54.5701C82.1044 53.7953 82.3673 53.0481 82.6301 52.3148C82.893 51.5815 83.1144 50.9589 83.2943 50.4192H83.405C83.5572 50.8758 83.7509 51.4293 83.9723 52.1073C84.1936 52.7852 84.4427 53.5047 84.6917 54.2796C84.9546 55.0544 85.2037 55.8292 85.4389 56.6179L85.6741 57.6003L86.6842 60.6719C86.781 60.9901 86.9194 61.2392 87.0993 61.3914C87.2791 61.5436 87.542 61.6266 87.9156 61.6266C88.1785 61.6266 88.4275 61.5851 88.6351 61.4883C88.8426 61.3914 89.0087 61.2807 89.1194 61.1423C88.8565 60.2983 88.5521 59.3575 88.22 58.3198C87.8879 57.282 87.5282 56.2166 87.1546 55.1236L87.1269 55.1374Z" fill="#5AC0B1"/>
<path d="M100.714 48.5376C100.506 48.5376 100.313 48.5514 100.119 48.5929C99.9253 48.6344 99.8008 48.6621 99.7039 48.6898V52.7161C99.7039 53.7677 99.7039 54.8608 99.7316 55.9953C99.7454 56.9915 99.8146 58.0016 99.9115 58.9978L99.8146 59.0255C99.6901 58.7488 99.5241 58.4167 99.3442 58.0431C99.1505 57.6695 98.9568 57.2683 98.7354 56.8532C98.514 56.4381 98.3065 56.0507 98.1128 55.7048L94.5707 49.603C94.3493 49.2017 94.0864 48.925 93.7959 48.7866C93.5053 48.6483 93.1594 48.5791 92.7858 48.5791C92.4952 48.5791 92.2185 48.6206 91.9556 48.7036C91.6927 48.7866 91.499 48.9112 91.3745 49.0634V60.6443C91.3745 60.9902 91.4714 61.2531 91.6512 61.4053C91.8311 61.5575 92.1355 61.6405 92.5506 61.6405C92.7443 61.6405 92.938 61.6267 93.1317 61.5852C93.3254 61.5437 93.4638 61.516 93.5468 61.4883V55.9262C93.5468 55.3727 93.5468 54.8054 93.533 54.1966C93.5191 53.5878 93.4915 52.9929 93.45 52.4117C93.4223 51.969 93.3808 51.5816 93.3393 51.1942L93.45 51.1665C93.5745 51.4432 93.7405 51.7753 93.9342 52.1627C94.1279 52.5501 94.3355 52.9514 94.5568 53.3526C94.7782 53.7539 94.9858 54.1413 95.1795 54.4872L98.6939 60.589C98.9153 61.0041 99.1782 61.2946 99.4687 61.433C99.7593 61.5714 100.105 61.6405 100.479 61.6405C100.783 61.6405 101.06 61.599 101.309 61.516C101.558 61.433 101.752 61.3223 101.89 61.1978V49.5615C101.89 49.2156 101.793 48.9527 101.6 48.8005C101.406 48.6483 101.115 48.5653 100.7 48.5653L100.714 48.5376Z" fill="#5AC0B1"/>
<path d="M114.855 54.3349H111.34C111.091 54.3349 110.884 54.4179 110.745 54.5701C110.593 54.7223 110.524 54.9576 110.524 55.262C110.524 55.428 110.552 55.594 110.607 55.7462C110.662 55.8984 110.718 56.023 110.773 56.1198H113.693V59.5097C113.485 59.6204 113.181 59.7172 112.779 59.8003C112.378 59.8833 111.949 59.9109 111.506 59.9109C110.635 59.9109 109.86 59.7449 109.168 59.399C108.476 59.0531 107.937 58.5273 107.535 57.8078C107.134 57.0883 106.94 56.1751 106.94 55.0682C106.94 53.9613 107.134 53.1173 107.535 52.3979C107.923 51.6645 108.462 51.1249 109.14 50.7513C109.818 50.3778 110.579 50.1979 111.423 50.1979C112.212 50.1979 112.862 50.3086 113.388 50.5161C113.914 50.7237 114.357 50.9589 114.73 51.2079C114.91 51.1111 115.062 50.9727 115.187 50.7928C115.311 50.613 115.381 50.4193 115.381 50.1979C115.381 49.8797 115.215 49.5753 114.869 49.2985C114.537 49.0218 114.052 48.8004 113.43 48.6206C112.807 48.4407 112.088 48.3577 111.257 48.3577C110.067 48.3577 108.961 48.6067 107.964 49.1048C106.954 49.6029 106.152 50.3501 105.557 51.3463C104.948 52.3425 104.657 53.5878 104.657 55.0682C104.657 56.5487 104.948 57.8632 105.529 58.8455C106.11 59.8279 106.913 60.5612 107.95 61.0317C108.988 61.5021 110.15 61.7373 111.479 61.7373C112.143 61.7373 112.793 61.6681 113.43 61.5436C114.08 61.4053 114.578 61.2531 114.952 61.0732C115.256 60.921 115.491 60.7411 115.63 60.5612C115.768 60.3814 115.851 60.1323 115.851 59.8279V55.3311C115.851 55.0267 115.754 54.7777 115.56 54.5978C115.367 54.4179 115.132 54.3349 114.827 54.3349H114.855Z" fill="#5AC0B1"/>
<path d="M128.622 58.3475C128.29 57.3098 127.93 56.2444 127.556 55.1513C127.183 54.0583 126.823 53.0067 126.463 51.9828C126.104 50.9589 125.771 50.0596 125.439 49.2709C125.356 49.0219 125.149 48.8282 124.817 48.7175C124.485 48.5929 124.125 48.5376 123.738 48.5376C123.447 48.5376 123.143 48.5791 122.852 48.6483C122.561 48.7313 122.34 48.8005 122.202 48.8697C121.98 49.4508 121.717 50.1149 121.427 50.8898C121.136 51.6646 120.832 52.4671 120.528 53.2973C120.209 54.1274 119.905 54.9576 119.628 55.774C119.338 56.5903 119.075 57.3375 118.84 58.0293C118.604 58.7211 118.397 59.316 118.245 59.7865C118.189 59.9663 118.134 60.1324 118.092 60.2846C118.037 60.4368 118.023 60.5751 118.023 60.7135C118.023 61.0179 118.134 61.2531 118.355 61.4053C118.577 61.5575 118.867 61.6405 119.199 61.6405C119.393 61.6405 119.559 61.6267 119.697 61.5852C119.836 61.5437 119.96 61.516 120.085 61.4745C120.14 61.2531 120.223 60.9764 120.334 60.6582C120.445 60.3399 120.555 59.994 120.68 59.6204C120.804 59.2607 120.915 58.901 121.026 58.5412C121.136 58.1953 121.233 57.8771 121.316 57.6142L121.51 56.7702C121.745 56.0784 121.994 55.3589 122.271 54.584C122.534 53.8092 122.797 53.0621 123.06 52.3287C123.322 51.5954 123.544 50.9728 123.724 50.4332H123.834C123.987 50.8898 124.18 51.4432 124.402 52.1212C124.623 52.7992 124.872 53.5186 125.135 54.2935C125.398 55.0683 125.647 55.8431 125.882 56.6318L126.117 57.6142L127.127 60.6858C127.224 61.0041 127.363 61.2531 127.543 61.4053C127.722 61.5575 127.985 61.6405 128.345 61.6405C128.608 61.6405 128.857 61.599 129.065 61.5022C129.272 61.4053 129.438 61.2946 129.549 61.1563C129.286 60.3123 128.982 59.3714 128.649 58.3337L128.622 58.3475Z" fill="#5AC0B1"/>
</g>
<defs>
<clipPath id="clip0_1509_41">
<rect width="157" height="61.7512" fill="white"/>
</clipPath>
</defs>
</svg>
