<svg width="157" height="66" viewBox="0 0 157 66" fill="none" xmlns="http://www.w3.org/2000/svg">
<g clip-path="url(#clip0_1511_18)">
<path d="M9.02124 0.677979H0V37.3441H3.56975V23.8814H9.02124C16.3129 23.8814 21.3493 20.0626 21.3493 11.5809C21.3493 4.66282 16.3129 0.677979 9.02124 0.677979ZM9.02124 23.0927H3.56975V1.46664H9.02124C14.4174 1.46664 17.7796 4.39993 17.7796 11.6778C17.7796 18.9557 14.3759 23.0927 9.02124 23.0927Z" fill="#CE0E2D"/>
<path d="M27.1191 9.11808V9.90675C36.9843 9.90675 38.3956 14.4589 38.3956 21.1141V21.9581C36.7768 19.4399 32.9995 17.6689 29.8448 17.6689C24.4902 17.6689 21.5569 22.7468 21.5569 27.5618C21.5569 32.3768 24.4902 37.4547 29.8448 37.4547C32.9856 37.4547 36.7629 35.6699 38.3956 33.1655V33.5806C38.7692 35.1579 40.1251 36.5692 41.4396 37.3579H41.9654V21.1003C41.9654 13.4073 38.1881 9.10425 27.1191 9.10425V9.11808ZM38.3956 30.4813C38.3956 33.5252 34.3554 35.9327 31.2146 35.9327C27.3266 35.9327 25.4449 32.2661 25.4449 27.548C25.4449 22.8298 27.3266 19.1632 31.2146 19.1632C34.3554 19.1632 38.3956 21.5707 38.3956 24.6147V30.4813V30.4813Z" fill="#CE0E2D"/>
<path d="M50.5438 28.4336V10.9031H54.8884V8.99365H50.5438V2.93337C49.4369 2.31074 48.7589 2.08936 47.4998 2.08936H46.974V8.99365H45.0093V10.9031H46.974V25.611C46.974 33.3039 46.974 37.3441 55.6217 37.3441V36.5555C50.8482 36.5555 50.5299 33.4146 50.5299 28.4336H50.5438Z" fill="#CE0E2D"/>
<path d="M62.1248 28.4336V10.9031H66.4694V8.99365H62.1248V2.93337C61.0179 2.31074 60.34 2.08936 59.0809 2.08936H58.5551V8.99365H56.5903V10.9031H58.5551V25.611C58.5551 33.3039 58.5551 37.3441 67.2027 37.3441V36.5555C62.4292 36.5555 62.111 33.4146 62.111 28.4336H62.1248Z" fill="#CE0E2D"/>
<path d="M72.1698 0C71.1183 0 70.2881 1.2591 70.2881 2.55971C70.2881 4.28924 71.8101 5.54834 72.1698 5.54834C72.5849 5.54834 74.1069 4.28924 74.1069 2.55971C74.1069 1.24526 73.2214 0 72.1698 0V0Z" fill="#CE0E2D"/>
<path d="M70.385 37.3441H73.9548V9.06276C72.5435 8.2741 71.9623 8.21875 70.385 8.21875V37.3441Z" fill="#CE0E2D"/>
<path d="M83.1005 9.11808V9.90675C92.9658 9.90675 94.3771 14.4589 94.3771 21.1141V21.9581C92.7582 19.4399 88.9809 17.6689 85.8262 17.6689C80.4716 17.6689 77.5383 22.7468 77.5383 27.5618C77.5383 32.3768 80.4716 37.4547 85.8262 37.4547C88.9671 37.4547 92.7444 35.6699 94.3771 33.1655V33.5806C94.7506 35.1579 96.1066 36.5692 97.421 37.3579H97.9468V21.1003C97.9468 13.4073 94.1695 9.10425 83.1005 9.10425V9.11808ZM94.3771 30.4813C94.3771 33.5252 90.3369 35.9327 87.196 35.9327C83.308 35.9327 81.4263 32.2661 81.4263 27.548C81.4263 22.8298 83.308 19.1632 87.196 19.1632C90.3369 19.1632 94.3771 21.5707 94.3771 24.6147V30.4813V30.4813Z" fill="#CE0E2D"/>
<path d="M125.481 8.79987C121.911 8.79987 119.919 10.5294 119.075 12.9923C118.286 10.5294 116.294 8.79987 112.724 8.79987C109.625 8.79987 107.743 10.059 106.747 11.9407V9.06276C105.695 8.48164 104.865 8.21875 103.758 8.21875H103.177V37.3441H106.747V15.7595C106.747 12.7709 108.117 10.4187 111.631 10.4187C115.145 10.4187 115.616 12.7709 115.616 15.7595V37.3302H119.545V15.7595C119.545 12.7709 120.86 10.4187 124.374 10.4187C127.889 10.4187 128.359 12.7709 128.359 15.7595V37.3302H132.288V15.7595C132.288 11.9407 130.296 8.79987 125.467 8.79987H125.481Z" fill="#CE0E2D"/>
<path d="M136.758 0.415026C135.872 0.359681 135.139 1.03766 135.028 1.93701C134.973 2.78103 135.554 3.55586 136.439 3.72189C136.495 3.87409 136.55 4.04013 136.55 4.19232C136.55 4.7181 136.232 5.28539 135.498 5.86651L135.706 6.18474C137.339 5.50677 138.376 3.87409 138.335 2.36594C138.335 1.21753 137.657 0.484207 136.758 0.428862V0.415026Z" fill="#CE0E2D"/>
<path d="M143.565 14.2513C143.565 11.5255 144.45 9.11801 147.868 9.11801C151.493 9.11801 153.223 10.1696 154.689 13.4073L155.478 13.1444C153.845 9.58845 151.964 8.32935 148.242 8.32935C143.316 8.32935 139.843 10.474 139.843 14.4035C139.843 25.4586 153.693 20.948 153.693 29.9001C153.693 32.944 152.116 36.5553 147.661 36.5553C142.306 36.5553 141.254 33.2623 140.632 31.007L139.898 31.2699C141.157 35.5591 142.735 37.344 147.19 37.344C155.008 37.344 157 31.851 157 29.0145C157 17.6965 143.565 21.626 143.565 14.2513V14.2513Z" fill="#CE0E2D"/>
<path d="M44.9365 54.7544C44.9531 55.3465 44.859 55.8501 44.6543 56.2651C44.4495 56.6857 44.1701 57.0399 43.8159 57.3276C43.4673 57.6099 43.0605 57.8395 42.5957 58.0166C42.1253 58.1882 41.6356 58.321 41.1265 58.415C40.6118 58.5036 40.0944 58.5617 39.5742 58.5894C39.054 58.617 38.5671 58.6309 38.1133 58.6309C37.654 58.6309 37.1421 58.617 36.5776 58.5894C36.0187 58.5672 35.4045 58.5285 34.7349 58.4731L34.3779 46.3872C34.9535 46.2821 35.5124 46.2046 36.0547 46.1548C36.597 46.0994 37.0812 46.0607 37.5073 46.0386C38.0054 46.0109 38.4757 46.0026 38.9185 46.0137C39.3446 46.0192 39.7679 46.0441 40.1885 46.0884C40.6146 46.1271 41.0213 46.1935 41.4087 46.2876C41.8016 46.3761 42.1668 46.5007 42.5044 46.6611C42.8364 46.8161 43.1297 47.0208 43.3843 47.2754C43.6333 47.5244 43.8298 47.826 43.9736 48.1802C44.1175 48.5288 44.1895 48.9411 44.1895 49.417C44.1895 50.0368 44.076 50.568 43.8491 51.0107C43.6222 51.4479 43.3262 51.8104 42.9609 52.0981C43.4036 52.2476 43.7578 52.4606 44.0234 52.7373C44.2946 53.0085 44.5049 53.3128 44.6543 53.6504C44.7982 53.9824 44.8923 54.3504 44.9365 54.7544ZM38.9517 47.5244C38.6971 47.5244 38.4149 47.5327 38.105 47.5493C37.8449 47.5604 37.5461 47.5825 37.2085 47.6157C36.8765 47.6489 36.5223 47.6932 36.146 47.7485L36.2788 51.9819C36.7547 51.9709 37.1864 51.957 37.5737 51.9404C37.9666 51.9183 38.3042 51.8989 38.5864 51.8823C38.7524 51.8713 38.9102 51.8602 39.0596 51.8491C39.209 51.8381 39.3473 51.827 39.4746 51.8159C39.8841 51.7938 40.2743 51.7274 40.645 51.6167C41.0213 51.5005 41.3478 51.3428 41.6245 51.1436C41.9012 50.9443 42.1143 50.7008 42.2637 50.4131C42.4186 50.1253 42.4767 49.7933 42.438 49.417C42.4048 49.1348 42.3301 48.8913 42.2139 48.6865C41.9814 48.2826 41.6273 47.9865 41.1514 47.7983C40.9355 47.7153 40.6976 47.6462 40.4375 47.5908C40.1885 47.5465 39.9367 47.5216 39.6821 47.5161C39.4276 47.505 39.1841 47.5078 38.9517 47.5244ZM40.5288 53.1523C40.4735 53.1579 40.3711 53.1662 40.2217 53.1772C40.0723 53.1883 39.9284 53.1994 39.79 53.2104C39.6517 53.2215 39.5687 53.2271 39.541 53.2271L38.5615 53.3018C38.2627 53.3239 37.9196 53.3488 37.5322 53.3765C37.1449 53.3986 36.7437 53.4207 36.3286 53.4429L36.4531 57.1201C36.5306 57.1257 36.6081 57.1312 36.6855 57.1367C36.763 57.1367 36.8377 57.1367 36.9097 57.1367H37.3496C37.4769 57.1367 37.6235 57.1367 37.7896 57.1367C37.9556 57.1367 38.1382 57.134 38.3374 57.1284C38.7303 57.1284 39.1426 57.109 39.5742 57.0703C40.0114 57.0316 40.4486 56.9679 40.8857 56.8794C41.3174 56.7853 41.7075 56.6525 42.0562 56.481C42.3993 56.3039 42.6732 56.0798 42.8779 55.8086C43.0882 55.5319 43.1851 55.186 43.1685 54.771C43.1187 54.4722 42.9914 54.2038 42.7866 53.9658C42.5708 53.7223 42.2775 53.5259 41.9067 53.3765C41.5415 53.2271 41.0822 53.1523 40.5288 53.1523ZM54.8809 58.7969L53.2539 58.5229L53.3701 57.3525C52.695 57.7842 52.0309 58.0968 51.3779 58.2905C50.7305 58.4842 50.1245 58.5811 49.5601 58.5811C49.1616 58.5811 48.7743 58.5285 48.3979 58.4233C48.0272 58.3237 47.7007 58.166 47.4185 57.9502C47.1307 57.7399 46.8983 57.4715 46.7212 57.145C46.5496 56.813 46.4639 56.4229 46.4639 55.9746C46.4639 55.5264 46.5303 55.1252 46.6631 54.771C46.7959 54.4168 46.9785 54.1042 47.2109 53.833C47.4434 53.5618 47.7173 53.3294 48.0327 53.1357C48.3481 52.9421 48.6885 52.7843 49.0537 52.6626C49.4134 52.5409 49.7925 52.4523 50.1909 52.397C50.5894 52.3361 50.985 52.3057 51.3779 52.3057C51.7432 52.3057 52.0835 52.3195 52.3989 52.3472C52.7144 52.3748 52.9938 52.4108 53.2373 52.4551C53.1377 52.0622 53.0021 51.6942 52.8306 51.3511C52.6646 51.008 52.4432 50.7313 52.1665 50.521C51.8953 50.3052 51.5439 50.1973 51.1123 50.1973C50.8965 50.1973 50.6502 50.2305 50.3735 50.2969C50.0968 50.3577 49.7925 50.4712 49.4604 50.6372C49.1284 50.8032 48.766 51.0329 48.373 51.3262C47.9801 51.6139 47.5596 51.9847 47.1113 52.4385L46.1069 51.2183C46.6382 50.7202 47.1473 50.3135 47.6343 49.998C48.1213 49.6826 48.5806 49.4336 49.0122 49.251C49.4383 49.0739 49.834 48.9521 50.1992 48.8857C50.57 48.8193 50.902 48.7861 51.1953 48.7861C51.71 48.7861 52.1637 48.8719 52.5566 49.0435C52.9551 49.215 53.3065 49.453 53.6108 49.7573C53.9152 50.0562 54.1698 50.4103 54.3745 50.8198C54.5737 51.2127 54.7425 51.6499 54.8809 52.1313C55.0137 52.6017 55.1077 53.0887 55.1631 53.5923C55.224 54.0959 55.2544 54.5967 55.2544 55.0947C55.2544 55.626 55.224 56.196 55.1631 56.8047C55.1022 57.4134 55.0081 58.0775 54.8809 58.7969ZM53.4863 55.5015C53.4974 55.2248 53.5057 54.9508 53.5112 54.6797C53.5168 54.4085 53.5029 54.1263 53.4697 53.833C53.1986 53.75 52.9136 53.6836 52.6147 53.6338C52.3159 53.584 52.0171 53.5591 51.7183 53.5591C51.2202 53.5591 50.736 53.6172 50.2656 53.7334C49.8008 53.8496 49.3996 54.0184 49.062 54.2397C48.7244 54.4611 48.4699 54.7323 48.2983 55.0532C48.1323 55.3742 48.0991 55.7394 48.1987 56.1489C48.2762 56.481 48.4256 56.7134 48.647 56.8462C48.8739 56.979 49.145 57.0454 49.4604 57.0454C49.87 57.0454 50.3293 56.9596 50.8384 56.7881C51.3475 56.611 51.8372 56.4007 52.3076 56.1572C52.7835 55.9137 53.1764 55.6951 53.4863 55.5015ZM57.5205 58.4233L57.3794 45.6235L59.1973 45.5571L59.1475 50.4546C59.4684 50.1447 59.8005 49.9067 60.1436 49.7407C60.4922 49.5692 60.8132 49.4447 61.1064 49.3672C61.4717 49.2676 61.8065 49.215 62.1108 49.2095C62.4927 49.2095 62.8662 49.262 63.2314 49.3672C63.9785 49.583 64.637 49.9731 65.207 50.5376C65.4837 50.8088 65.7244 51.1159 65.9292 51.459C66.1284 51.7965 66.2806 52.1646 66.3857 52.563C66.4909 52.9559 66.5379 53.3682 66.5269 53.7998C66.5103 54.2646 66.4383 54.7129 66.311 55.1445C66.0565 55.9801 65.647 56.6829 65.0825 57.2529C64.8114 57.5352 64.5181 57.7731 64.2026 57.9668C63.5607 58.3652 62.9022 58.5645 62.2271 58.5645C62.0555 58.5589 61.8812 58.5423 61.7041 58.5146C61.5326 58.487 61.3582 58.451 61.1812 58.4067C60.8713 58.3293 60.5309 58.2048 60.1602 58.0332C59.7894 57.8617 59.4242 57.6182 59.0645 57.3027V58.3901L57.5205 58.4233ZM64.7422 53.9575C64.7699 53.5425 64.7173 53.144 64.5845 52.7622C64.4572 52.3748 64.269 52.0345 64.02 51.7412C63.7655 51.4479 63.4583 51.2155 63.0986 51.0439C62.7445 50.8724 62.3571 50.7894 61.9365 50.7949C61.2669 50.806 60.6803 51.0107 60.1768 51.4092C59.6787 51.8021 59.3245 52.2891 59.1143 52.8701L59.0977 54.854C59.2913 55.5236 59.6372 56.0438 60.1353 56.4146C60.6333 56.7798 61.1839 56.9679 61.7871 56.979C62.1911 56.9901 62.5674 56.9181 62.916 56.7632C63.2702 56.6027 63.5801 56.3869 63.8457 56.1157C64.1058 55.839 64.3133 55.5181 64.4683 55.1528C64.6287 54.7821 64.7201 54.3836 64.7422 53.9575ZM73.8564 49.583L75.7075 49.5996C75.4142 50.4629 75.1458 51.2515 74.9023 51.9653C74.6644 52.6792 74.4486 53.3239 74.2549 53.8994C74.1553 54.1927 74.0446 54.5164 73.9229 54.8706C73.8066 55.2192 73.6932 55.5513 73.5825 55.8667C73.4774 56.1766 73.3916 56.4256 73.3252 56.6138C73.1868 57.0067 73.0651 57.3581 72.96 57.668C72.8548 57.9723 72.7635 58.2297 72.686 58.4399C72.6307 58.6004 72.5698 58.7664 72.5034 58.938C72.4425 59.1151 72.3761 59.2977 72.3042 59.4858C72.1548 59.8511 71.9722 60.2163 71.7563 60.5815C71.5461 60.9468 71.2998 61.3009 71.0176 61.644C70.7409 61.9705 70.4089 62.2749 70.0215 62.5571C69.6396 62.8228 69.2052 63.0413 68.7183 63.2129C68.2313 63.3844 67.6834 63.484 67.0747 63.5117L66.751 61.8931C67.0941 61.9318 67.4178 61.9235 67.7222 61.8682C68.3032 61.7409 68.8206 61.4753 69.2744 61.0713C69.4792 60.8887 69.6784 60.6839 69.8721 60.457C70.0492 60.2412 70.2069 60.0199 70.3452 59.793C70.4836 59.5716 70.6053 59.3641 70.7104 59.1704L67.2075 49.8735L69.1084 49.6162L71.5571 56.9292C71.6899 56.5197 71.8449 56.0382 72.022 55.4849C72.2046 54.9259 72.3983 54.3255 72.603 53.6836C72.8022 53.0417 73.0098 52.3721 73.2256 51.6748C73.4414 50.972 73.6517 50.2747 73.8564 49.583ZM92.666 54.8872L94.0107 55.8252C93.4463 56.6442 92.7186 57.2944 91.8276 57.7759C91.3905 58.0083 90.9256 58.1882 90.4331 58.3154C89.9461 58.4427 89.4398 58.5063 88.9141 58.5063C88.333 58.5063 87.7769 58.4316 87.2456 58.2822C86.1831 57.9779 85.259 57.4245 84.4731 56.6221C84.0968 56.2402 83.7703 55.8086 83.4937 55.3271C83.2225 54.8512 83.0122 54.3394 82.8628 53.7915C82.7134 53.2437 82.6387 52.6737 82.6387 52.0815C82.6387 51.4894 82.7134 50.9194 82.8628 50.3716C83.1616 49.2703 83.6984 48.3241 84.4731 47.5327C84.8494 47.1509 85.2728 46.8161 85.7432 46.5283C86.208 46.2516 86.7088 46.0386 87.2456 45.8892C87.7824 45.7342 88.3385 45.6567 88.9141 45.6567C89.4066 45.6567 89.8825 45.7121 90.3418 45.8228C90.8011 45.9334 91.2383 46.0911 91.6533 46.2959C92.4889 46.7054 93.2 47.2809 93.7866 48.0225L92.5166 49.0601C92.085 48.5233 91.5592 48.0972 90.9395 47.7817C90.3252 47.4663 89.6501 47.3086 88.9141 47.3086C88.2721 47.3086 87.6717 47.4359 87.1128 47.6904C86.5539 47.9395 86.0641 48.2798 85.6436 48.7114C85.223 49.1431 84.891 49.6494 84.6475 50.2305C84.4095 50.806 84.2905 51.423 84.2905 52.0815C84.2905 52.7401 84.4095 53.3599 84.6475 53.9409C84.891 54.522 85.223 55.0283 85.6436 55.46C86.0641 55.8916 86.5539 56.2347 87.1128 56.4893C87.6717 56.7383 88.2721 56.8628 88.9141 56.8628C89.3014 56.8628 89.675 56.8158 90.0347 56.7217C90.3944 56.6276 90.7347 56.4948 91.0557 56.3232C91.6976 55.9801 92.2344 55.5015 92.666 54.8872ZM103.739 58.7969L102.112 58.5229L102.229 57.3525C101.553 57.7842 100.889 58.0968 100.236 58.2905C99.5889 58.4842 98.9829 58.5811 98.4185 58.5811C98.02 58.5811 97.6326 58.5285 97.2563 58.4233C96.8856 58.3237 96.5591 58.166 96.2769 57.9502C95.9891 57.7399 95.7567 57.4715 95.5796 57.145C95.408 56.813 95.3223 56.4229 95.3223 55.9746C95.3223 55.5264 95.3887 55.1252 95.5215 54.771C95.6543 54.4168 95.8369 54.1042 96.0693 53.833C96.3018 53.5618 96.5757 53.3294 96.8911 53.1357C97.2065 52.9421 97.5469 52.7843 97.9121 52.6626C98.2718 52.5409 98.6509 52.4523 99.0493 52.397C99.4478 52.3361 99.8434 52.3057 100.236 52.3057C100.602 52.3057 100.942 52.3195 101.257 52.3472C101.573 52.3748 101.852 52.4108 102.096 52.4551C101.996 52.0622 101.861 51.6942 101.689 51.3511C101.523 51.008 101.302 50.7313 101.025 50.521C100.754 50.3052 100.402 50.1973 99.9707 50.1973C99.7549 50.1973 99.5086 50.2305 99.2319 50.2969C98.9552 50.3577 98.6509 50.4712 98.3188 50.6372C97.9868 50.8032 97.6243 51.0329 97.2314 51.3262C96.8385 51.6139 96.418 51.9847 95.9697 52.4385L94.9653 51.2183C95.4966 50.7202 96.0057 50.3135 96.4927 49.998C96.9797 49.6826 97.439 49.4336 97.8706 49.251C98.2967 49.0739 98.6924 48.9521 99.0576 48.8857C99.4284 48.8193 99.7604 48.7861 100.054 48.7861C100.568 48.7861 101.022 48.8719 101.415 49.0435C101.813 49.215 102.165 49.453 102.469 49.7573C102.774 50.0562 103.028 50.4103 103.233 50.8198C103.432 51.2127 103.601 51.6499 103.739 52.1313C103.872 52.6017 103.966 53.0887 104.021 53.5923C104.082 54.0959 104.113 54.5967 104.113 55.0947C104.113 55.626 104.082 56.196 104.021 56.8047C103.961 57.4134 103.867 58.0775 103.739 58.7969ZM102.345 55.5015C102.356 55.2248 102.364 54.9508 102.37 54.6797C102.375 54.4085 102.361 54.1263 102.328 53.833C102.057 53.75 101.772 53.6836 101.473 53.6338C101.174 53.584 100.875 53.5591 100.577 53.5591C100.079 53.5591 99.5944 53.6172 99.124 53.7334C98.6592 53.8496 98.258 54.0184 97.9204 54.2397C97.5828 54.4611 97.3283 54.7323 97.1567 55.0532C96.9907 55.3742 96.9575 55.7394 97.0571 56.1489C97.1346 56.481 97.284 56.7134 97.5054 56.8462C97.7323 56.979 98.0034 57.0454 98.3188 57.0454C98.7284 57.0454 99.1877 56.9596 99.6968 56.7881C100.206 56.611 100.696 56.4007 101.166 56.1572C101.642 55.9137 102.035 55.6951 102.345 55.5015ZM114.148 52.7124L112.513 53.3267C112.508 52.8563 112.441 52.4744 112.314 52.1812C112.192 51.8879 112.029 51.6665 111.824 51.5171C111.631 51.3732 111.412 51.3068 111.168 51.3179C111.008 51.3455 110.845 51.4092 110.679 51.5088C110.507 51.6139 110.327 51.7523 110.139 51.9238C109.957 52.0954 109.774 52.2863 109.591 52.4966C109.497 52.6017 109.406 52.7096 109.317 52.8203C109.229 52.931 109.14 53.0417 109.052 53.1523C108.88 53.3737 108.717 53.5978 108.562 53.8247C108.407 54.0461 108.269 54.248 108.147 54.4307C108.153 54.6576 108.158 54.9176 108.164 55.2109C108.169 55.4987 108.175 55.7837 108.18 56.0659C108.191 56.3426 108.2 56.5778 108.205 56.7715C108.216 57.1201 108.227 57.4355 108.238 57.7178C108.249 57.9945 108.263 58.2186 108.28 58.3901L106.495 58.6143L106.329 53.9575C106.318 53.6421 106.307 53.3045 106.296 52.9448C106.285 52.5796 106.274 52.2365 106.263 51.9155C106.252 51.589 106.243 51.3317 106.238 51.1436C106.216 50.3633 106.199 49.7767 106.188 49.3838L108.081 49.3506C108.086 49.5221 108.089 49.6937 108.089 49.8652C108.089 50.0312 108.092 50.2028 108.097 50.3799C108.097 50.557 108.097 50.7285 108.097 50.8945C108.097 51.055 108.1 51.2072 108.105 51.3511C108.111 51.5226 108.114 51.6942 108.114 51.8657C108.114 52.0317 108.114 52.195 108.114 52.3555C108.274 52.1009 108.471 51.8215 108.703 51.5171C108.936 51.2127 109.196 50.925 109.483 50.6538C109.777 50.3826 110.095 50.1475 110.438 49.9482C110.781 49.7435 111.149 49.6162 111.542 49.5664C111.974 49.5443 112.378 49.6383 112.754 49.8486C112.909 49.9372 113.061 50.0562 113.21 50.2056C113.365 50.3494 113.509 50.5348 113.642 50.7617C113.769 50.9941 113.877 51.2708 113.966 51.5918C114.054 51.9072 114.115 52.2808 114.148 52.7124ZM119.502 57.2363C120.117 57.2363 120.681 57.0537 121.196 56.6885C121.71 56.3177 122.045 55.8031 122.2 55.1445L123.802 55.4683C123.647 55.9718 123.429 56.4284 123.146 56.8379C122.864 57.2474 122.535 57.5988 122.159 57.8921C121.782 58.1854 121.367 58.4123 120.914 58.5728C120.465 58.7332 119.995 58.8135 119.502 58.8135C118.772 58.8135 118.125 58.7028 117.56 58.4814C116.996 58.2601 116.52 57.9474 116.132 57.5435C115.341 56.7189 114.945 55.5955 114.945 54.1733C114.945 53.4816 115.062 52.8369 115.294 52.2393C115.532 51.6361 115.856 51.1131 116.265 50.6704C116.675 50.2277 117.156 49.8791 117.709 49.6245C118.263 49.37 118.861 49.2427 119.502 49.2427C120.078 49.2427 120.62 49.3561 121.129 49.583C121.639 49.8044 122.09 50.1115 122.482 50.5044C122.875 50.9028 123.199 51.3704 123.454 51.9072C123.708 52.444 123.869 53.0251 123.935 53.6504L116.747 54.7212C116.785 55.1141 116.882 55.4683 117.037 55.7837C117.198 56.0936 117.397 56.3564 117.635 56.5723C118.127 57.015 118.75 57.2363 119.502 57.2363ZM116.796 53.1855L121.793 52.5796L121.744 52.4219C121.533 51.874 121.243 51.4451 120.872 51.1353C120.507 50.8254 120.05 50.6704 119.502 50.6704C119.27 50.6704 119.015 50.7119 118.739 50.7949C118.462 50.8724 118.194 51.008 117.934 51.2017C117.674 51.3953 117.438 51.6554 117.228 51.9819C117.023 52.3029 116.879 52.7041 116.796 53.1855Z" fill="#D15757"/>
</g>
<defs>
<clipPath id="clip0_1511_18">
<rect width="157" height="65.4317" fill="white"/>
</clipPath>
</defs>
</svg>
