<svg width="114" height="46" viewBox="0 0 114 46" fill="none" xmlns="http://www.w3.org/2000/svg">
<g clip-path="url(#clip0_1513_41)">
<path d="M6.52 1.44995H0V27.99H2.58V18.25H6.52C11.79 18.25 15.43 15.48 15.43 9.33995C15.43 4.32995 11.79 1.44995 6.52 1.44995ZM6.52 17.68H2.58V2.01995H6.52C10.42 2.01995 12.85 4.13995 12.85 9.40995C12.85 14.68 10.39 17.67 6.52 17.67V17.68Z" fill="#CE0E2D"/>
<path d="M19.6001 7.56006V8.13006C26.7301 8.13006 27.7501 11.4301 27.7501 16.2401V16.8501C26.5801 15.0301 23.8501 13.7401 21.5701 13.7401C17.7001 13.7401 15.5801 17.4201 15.5801 20.9101C15.5801 24.4001 17.7001 28.0801 21.5701 28.0801C23.8401 28.0801 26.5701 26.7901 27.7501 24.9701V25.2701C28.0201 26.4101 29.0001 27.4301 29.9501 28.0001H30.3301V16.2401C30.3301 10.6701 27.6001 7.56006 19.6001 7.56006ZM27.7501 23.0301C27.7501 25.2301 24.8301 26.9701 22.5601 26.9701C19.7501 26.9701 18.3901 24.3201 18.3901 20.9001C18.3901 17.4801 19.7501 14.8301 22.5601 14.8301C24.8301 14.8301 27.7501 16.5701 27.7501 18.7701V23.0201V23.0301Z" fill="#CE0E2D"/>
<path d="M36.53 21.55V8.84997H39.67V7.45997H36.53V3.07997C35.73 2.62997 35.24 2.46997 34.33 2.46997H33.95V7.46997H32.53V8.85997H33.95V19.5C33.95 25.07 33.95 27.99 40.2 27.99V27.42C36.75 27.42 36.52 25.15 36.52 21.54L36.53 21.55Z" fill="#CE0E2D"/>
<path d="M44.8999 21.55V8.84997H48.0399V7.45997H44.8999V3.07997C44.0999 2.62997 43.6099 2.46997 42.6999 2.46997H42.3199V7.46997H40.8999V8.85997H42.3199V19.5C42.3199 25.07 42.3199 27.99 48.5699 27.99V27.42C45.1199 27.42 44.8899 25.15 44.8899 21.54L44.8999 21.55Z" fill="#CE0E2D"/>
<path d="M52.16 0.959961C51.4 0.959961 50.8 1.86996 50.8 2.81996C50.8 4.06996 51.9 4.97996 52.16 4.97996C52.46 4.97996 53.5601 4.06996 53.5601 2.81996C53.5601 1.86996 52.92 0.959961 52.16 0.959961V0.959961Z" fill="#CE0E2D"/>
<path d="M50.8701 27.9899H53.4501V7.51991C52.4301 6.94991 52.0101 6.90991 50.8701 6.90991V27.9899Z" fill="#CE0E2D"/>
<path d="M60.06 7.56006V8.13006C67.19 8.13006 68.21 11.4301 68.21 16.2401V16.8501C67.04 15.0301 64.31 13.7401 62.03 13.7401C58.16 13.7401 56.04 17.4201 56.04 20.9101C56.04 24.4001 58.16 28.0801 62.03 28.0801C64.3 28.0801 67.03 26.7901 68.21 24.9701V25.2701C68.48 26.4101 69.46 27.4301 70.41 28.0001H70.79V16.2401C70.79 10.6701 68.06 7.56006 60.06 7.56006ZM68.21 23.0301C68.21 25.2301 65.29 26.9701 63.02 26.9701C60.21 26.9701 58.85 24.3201 58.85 20.9001C58.85 17.4801 60.21 14.8301 63.02 14.8301C65.29 14.8301 68.21 16.5701 68.21 18.7701V23.0201V23.0301Z" fill="#CE0E2D"/>
<path d="M90.6901 7.3299C88.1101 7.3299 86.6701 8.5799 86.0601 10.3599C85.4901 8.5799 84.0501 7.3299 81.4701 7.3299C79.2301 7.3299 77.8701 8.2399 77.1501 9.5999V7.5099C76.3901 7.0899 75.7901 6.8999 74.9901 6.8999H74.5701V27.9899H77.1501V12.3699C77.1501 10.2099 78.1401 8.4999 80.6801 8.4999C83.2201 8.4999 83.5601 10.2099 83.5601 12.3699V27.9899H86.4001V12.3699C86.4001 10.2099 87.3501 8.4999 89.8901 8.4999C92.4301 8.4999 92.7701 10.2099 92.7701 12.3699V27.9899H95.6101V12.3699C95.6101 9.5999 94.1701 7.3299 90.6801 7.3299H90.6901Z" fill="#CE0E2D"/>
<path d="M98.84 1.25985C98.2 1.21985 97.67 1.70985 97.59 2.35985C97.55 2.96985 97.97 3.53985 98.61 3.64985C98.65 3.75985 98.69 3.87985 98.69 3.98985C98.69 4.36985 98.46 4.78985 97.93 5.19985L98.08 5.42985C99.26 4.93985 100.01 3.75985 99.98 2.65985C99.98 1.82985 99.49 1.29985 98.84 1.25985Z" fill="#CE0E2D"/>
<path d="M103.76 11.27C103.76 9.29998 104.4 7.54998 106.87 7.54998C109.49 7.54998 110.74 8.30998 111.8 10.66L112.37 10.47C111.19 7.88998 109.83 6.97998 107.14 6.97998C103.58 6.97998 101.07 8.52998 101.07 11.38C101.07 19.38 111.08 16.12 111.08 22.6C111.08 24.8 109.94 27.41 106.72 27.41C102.85 27.41 102.09 25.02 101.64 23.39L101.11 23.58C102.02 26.69 103.16 27.98 106.38 27.98C112.03 27.98 113.47 24 113.47 21.95C113.47 13.76 103.76 16.6 103.76 11.26V11.27Z" fill="#CE0E2D"/>
<path d="M26.7501 40.81C26.4801 40.02 26.2201 39.26 25.9601 38.52C25.7001 37.78 25.4601 37.13 25.2201 36.56C25.1601 36.38 25.0101 36.24 24.7701 36.16C24.5301 36.07 24.2701 36.03 23.9901 36.03C23.7801 36.03 23.5601 36.06 23.3501 36.11C23.1401 36.17 22.9801 36.22 22.8801 36.27C22.7201 36.69 22.5301 37.17 22.3201 37.73C22.1101 38.29 21.8901 38.87 21.6701 39.47C21.4401 40.07 21.2201 40.67 21.0201 41.26C20.8101 41.85 20.6201 42.39 20.4501 42.89C20.2801 43.39 20.1301 43.82 20.0201 44.16C19.9801 44.29 19.9401 44.41 19.9101 44.52C19.8701 44.63 19.8601 44.73 19.8601 44.83C19.8601 45.05 19.9401 45.22 20.1001 45.33C20.2601 45.44 20.4701 45.5 20.7101 45.5C20.8501 45.5 20.9701 45.49 21.0701 45.46C21.1701 45.43 21.2601 45.41 21.3501 45.38C21.3901 45.22 21.4501 45.02 21.5301 44.79C21.6101 44.56 21.6901 44.31 21.7801 44.04C21.8701 43.78 21.9501 43.52 22.0301 43.26C22.1101 43.01 22.1801 42.78 22.2401 42.59L22.3801 41.98C22.5501 41.48 22.7301 40.96 22.9301 40.4C23.1201 39.84 23.3101 39.3 23.5001 38.77C23.6901 38.24 23.8501 37.79 23.9801 37.4H24.0601C24.1701 37.73 24.3101 38.13 24.4701 38.62C24.6301 39.11 24.8101 39.63 25.0001 40.19C25.1901 40.75 25.3701 41.31 25.5401 41.88L25.7101 42.59L26.4401 44.81C26.5101 45.04 26.6101 45.22 26.7401 45.33C26.8701 45.44 27.0601 45.5 27.3201 45.5C27.5101 45.5 27.6901 45.47 27.8401 45.4C27.9901 45.33 28.1101 45.25 28.1901 45.15C28.0001 44.54 27.7801 43.86 27.5401 43.11C27.3001 42.36 27.0401 41.59 26.7701 40.8L26.7501 40.81Z" fill="#5AC0B1"/>
<path d="M35.4801 40.61C35.3901 40.57 35.2801 40.55 35.1901 40.52C35.6701 40.31 36.0201 40.0399 36.2501 39.6899C36.4801 39.3299 36.6001 38.9299 36.6001 38.4899C36.6001 37.6399 36.2701 36.9999 35.6201 36.5799C34.9701 36.1599 34.0501 35.95 32.8601 35.95C32.3901 35.95 31.9501 35.9699 31.5201 36.0099C31.0901 36.0499 30.7101 36.1299 30.3601 36.2399C30.2001 36.2799 30.0701 36.35 29.9701 36.45C29.8701 36.55 29.8301 36.69 29.8301 36.86V44.4699C29.8301 44.8699 30.0601 45.1399 30.5101 45.2799C30.7601 45.3499 31.0301 45.41 31.3201 45.45C31.6101 45.49 31.8901 45.53 32.1701 45.54C32.4501 45.55 32.7301 45.5599 32.9901 45.5599C34.2601 45.5599 35.2301 45.3299 35.9201 44.8799C36.6101 44.4299 36.9501 43.7199 36.9501 42.7799C36.9501 42.2999 36.8301 41.88 36.5801 41.5C36.3401 41.12 35.9701 40.83 35.4801 40.61ZM32.0601 37.25C32.3101 37.22 32.5801 37.2099 32.8701 37.2099C33.5701 37.2099 34.1001 37.3199 34.4501 37.5499C34.8001 37.7799 34.9801 38.1199 34.9801 38.5599C34.9801 38.9999 34.8301 39.3699 34.5201 39.6199C34.2101 39.8699 33.7501 39.9899 33.1401 39.9899H31.3901V37.3299C31.5801 37.2999 31.8001 37.27 32.0501 37.25H32.0601ZM34.7301 43.91C34.3301 44.16 33.7701 44.29 33.0401 44.29C32.7601 44.29 32.4601 44.28 32.1701 44.25C31.8701 44.2299 31.6101 44.1899 31.4001 44.1399V41.2199H33.2601C33.9401 41.2199 34.4501 41.3499 34.8001 41.6199C35.1501 41.8899 35.3201 42.2599 35.3201 42.7399C35.3201 43.2699 35.1201 43.66 34.7301 43.91Z" fill="#5AC0B1"/>
<path d="M45.65 36.04C45.5 36.04 45.35 36.05 45.22 36.08C45.09 36.11 44.98 36.13 44.91 36.15V40.06H40.62V36.79C40.62 36.51 40.55 36.31 40.41 36.2C40.27 36.09 40.06 36.04 39.76 36.04C39.61 36.04 39.46 36.05 39.33 36.08C39.2 36.11 39.09 36.13 39.02 36.15V44.73C39.02 44.99 39.09 45.18 39.23 45.3C39.37 45.42 39.59 45.47 39.89 45.47C40.04 45.47 40.18 45.46 40.32 45.43C40.45 45.4 40.55 45.38 40.62 45.35V41.36H44.91V44.72C44.91 44.98 44.98 45.17 45.12 45.29C45.26 45.41 45.48 45.46 45.78 45.46C45.93 45.46 46.07 45.45 46.21 45.42C46.34 45.39 46.45 45.37 46.53 45.34V36.77C46.53 36.5 46.46 36.3 46.32 36.19C46.18 36.08 45.96 36.02 45.67 36.02L45.65 36.04Z" fill="#5AC0B1"/>
<path d="M55.13 36.05C55.03 36.05 54.91 36.06 54.79 36.09C54.66 36.12 54.55 36.15 54.46 36.2C54.22 36.71 53.97 37.2 53.73 37.67C53.49 38.14 53.24 38.62 52.98 39.11C52.73 39.6 52.44 40.11 52.13 40.66H52.05C51.91 40.42 51.75 40.13 51.56 39.8C51.38 39.47 51.18 39.13 50.98 38.77C50.78 38.41 50.58 38.06 50.39 37.72C50.2 37.38 50.03 37.07 49.89 36.8C49.75 36.54 49.61 36.35 49.46 36.23C49.32 36.11 49.13 36.05 48.88 36.05C48.66 36.05 48.47 36.11 48.33 36.23C48.19 36.35 48.09 36.47 48.03 36.6C48.22 37.01 48.45 37.45 48.72 37.92C48.99 38.4 49.28 38.88 49.58 39.38C49.88 39.88 50.19 40.36 50.5 40.84C50.78 41.27 51.03 41.66 51.28 42.04V44.73C51.28 44.98 51.35 45.17 51.49 45.28C51.63 45.4 51.85 45.45 52.15 45.45C52.29 45.45 52.43 45.44 52.57 45.41C52.71 45.38 52.81 45.36 52.87 45.33V42.05C53.33 41.34 53.75 40.68 54.11 40.09C54.49 39.47 54.81 38.92 55.08 38.46C55.34 38 55.54 37.62 55.68 37.32C55.82 37.02 55.89 36.82 55.89 36.7C55.89 36.49 55.82 36.32 55.68 36.21C55.54 36.09 55.36 36.03 55.13 36.03V36.05Z" fill="#5AC0B1"/>
<path d="M62.9701 40.81C62.7001 40.02 62.4401 39.26 62.1801 38.52C61.9201 37.78 61.6801 37.13 61.4401 36.56C61.3801 36.38 61.2301 36.24 60.9901 36.16C60.7501 36.07 60.4901 36.03 60.2101 36.03C60.0001 36.03 59.7801 36.06 59.5701 36.11C59.3601 36.17 59.2001 36.22 59.1001 36.27C58.9401 36.69 58.7501 37.17 58.5401 37.73C58.3301 38.29 58.1101 38.87 57.8901 39.47C57.6601 40.07 57.4401 40.67 57.2401 41.26C57.0401 41.85 56.8401 42.39 56.6701 42.89C56.5001 43.39 56.3601 43.82 56.2401 44.16C56.2001 44.29 56.1601 44.41 56.1301 44.52C56.0901 44.63 56.0801 44.73 56.0801 44.83C56.0801 45.05 56.1601 45.22 56.3201 45.33C56.4801 45.44 56.6901 45.5 56.9301 45.5C57.0701 45.5 57.1901 45.49 57.2901 45.46C57.3901 45.43 57.4801 45.41 57.5701 45.38C57.6101 45.22 57.6701 45.02 57.7501 44.79C57.8301 44.56 57.9201 44.31 58.0001 44.04C58.0801 43.77 58.1701 43.52 58.2501 43.26C58.3301 43.01 58.4001 42.78 58.4601 42.59L58.6001 41.98C58.7701 41.48 58.9601 40.96 59.1501 40.4C59.3401 39.84 59.5301 39.3 59.7201 38.77C59.9101 38.24 60.0701 37.79 60.2001 37.4H60.2801C60.3901 37.73 60.5301 38.13 60.6901 38.62C60.8501 39.11 61.0301 39.63 61.2101 40.19C61.4001 40.75 61.5801 41.31 61.7501 41.88L61.9201 42.59L62.6501 44.81C62.7201 45.04 62.8201 45.22 62.9501 45.33C63.0801 45.44 63.2701 45.5 63.5401 45.5C63.7301 45.5 63.9101 45.47 64.0601 45.4C64.2101 45.33 64.3301 45.25 64.4101 45.15C64.2201 44.54 64.0001 43.86 63.7601 43.11C63.5201 42.36 63.2601 41.59 62.9901 40.8L62.9701 40.81Z" fill="#5AC0B1"/>
<path d="M72.79 36.0398C72.64 36.0398 72.5 36.0498 72.36 36.0798C72.22 36.1098 72.13 36.1298 72.06 36.1498V39.0598C72.06 39.8198 72.06 40.6098 72.08 41.4298C72.09 42.1498 72.14 42.8798 72.21 43.5998L72.14 43.6198C72.05 43.4198 71.93 43.1798 71.8 42.9098C71.66 42.6398 71.52 42.3498 71.36 42.0498C71.2 41.7498 71.05 41.4698 70.91 41.2198L68.35 36.8098C68.19 36.5198 68 36.3198 67.79 36.2198C67.58 36.1198 67.33 36.0698 67.06 36.0698C66.85 36.0698 66.65 36.0998 66.46 36.1598C66.27 36.2198 66.13 36.3098 66.04 36.4198V44.7898C66.04 45.0398 66.11 45.2298 66.24 45.3398C66.37 45.4498 66.59 45.5098 66.89 45.5098C67.03 45.5098 67.17 45.4998 67.31 45.4698C67.45 45.4398 67.55 45.4198 67.61 45.3998V41.3798C67.61 40.9798 67.61 40.5698 67.6 40.1298C67.59 39.6898 67.57 39.2598 67.54 38.8398C67.52 38.5198 67.49 38.2398 67.46 37.9598L67.54 37.9398C67.63 38.1398 67.75 38.3798 67.89 38.6598C68.03 38.9398 68.18 39.2298 68.34 39.5198C68.5 39.8098 68.65 40.0898 68.79 40.3398L71.33 44.7498C71.49 45.0498 71.68 45.2598 71.89 45.3598C72.1 45.4598 72.35 45.5098 72.62 45.5098C72.84 45.5098 73.04 45.4798 73.22 45.4198C73.4 45.3598 73.54 45.2798 73.64 45.1898V36.7798C73.64 36.5298 73.57 36.3398 73.43 36.2298C73.29 36.1198 73.08 36.0598 72.78 36.0598L72.79 36.0398Z" fill="#5AC0B1"/>
<path d="M83.0101 40.2299H80.4701C80.2901 40.2299 80.1401 40.2899 80.0401 40.3999C79.9301 40.5099 79.8801 40.6799 79.8801 40.8999C79.8801 41.0199 79.9001 41.1399 79.9401 41.2499C79.9801 41.3599 80.0201 41.4499 80.0601 41.5199H82.1701V43.9699C82.0201 44.0499 81.8001 44.1199 81.5101 44.1799C81.2201 44.2399 80.9101 44.2599 80.5901 44.2599C79.9601 44.2599 79.4001 44.1399 78.9001 43.8899C78.4001 43.6399 78.0101 43.2599 77.7201 42.7399C77.4301 42.2199 77.2901 41.5599 77.2901 40.7599C77.2901 39.9599 77.4301 39.3499 77.7201 38.8299C78.0001 38.2999 78.3901 37.9099 78.8801 37.6399C79.3701 37.3699 79.9201 37.2399 80.5301 37.2399C81.1001 37.2399 81.5701 37.3199 81.9501 37.4699C82.3301 37.6199 82.6501 37.7899 82.9201 37.9699C83.0501 37.8999 83.1601 37.7999 83.2501 37.6699C83.3401 37.5399 83.3901 37.3999 83.3901 37.2399C83.3901 37.0099 83.2701 36.7899 83.0201 36.5899C82.7801 36.3899 82.4301 36.2299 81.9801 36.0999C81.5301 35.9699 81.0101 35.9099 80.4101 35.9099C79.5501 35.9099 78.7501 36.0899 78.0301 36.4499C77.3001 36.8099 76.7201 37.3499 76.2901 38.0699C75.8501 38.7899 75.6401 39.6899 75.6401 40.7599C75.6401 41.8299 75.8501 42.7799 76.2701 43.4899C76.6901 44.1999 77.2701 44.7299 78.0201 45.0699C78.7701 45.4099 79.6101 45.5799 80.5701 45.5799C81.0501 45.5799 81.5201 45.5299 81.9801 45.4399C82.4501 45.3399 82.8101 45.2299 83.0801 45.0999C83.3001 44.9899 83.4701 44.8599 83.5701 44.7299C83.6701 44.5999 83.7301 44.4199 83.7301 44.1999V40.9499C83.7301 40.7299 83.6601 40.5499 83.5201 40.4199C83.3801 40.2899 83.2101 40.2299 82.9901 40.2299H83.0101Z" fill="#5AC0B1"/>
<path d="M92.96 43.1298C92.72 42.3798 92.46 41.6098 92.19 40.8198C91.92 40.0298 91.66 39.2698 91.4 38.5298C91.14 37.7898 90.9 37.1398 90.66 36.5698C90.6 36.3898 90.45 36.2498 90.21 36.1698C89.97 36.0798 89.71 36.0398 89.43 36.0398C89.22 36.0398 89 36.0698 88.79 36.1198C88.58 36.1798 88.42 36.2298 88.32 36.2798C88.16 36.6998 87.97 37.1798 87.76 37.7398C87.55 38.2998 87.33 38.8798 87.11 39.4798C86.88 40.0798 86.66 40.6798 86.46 41.2698C86.25 41.8598 86.06 42.3998 85.89 42.8998C85.72 43.3998 85.57 43.8298 85.46 44.1698C85.42 44.2998 85.38 44.4198 85.35 44.5298C85.31 44.6398 85.3 44.7398 85.3 44.8398C85.3 45.0598 85.38 45.2298 85.54 45.3398C85.7 45.4498 85.91 45.5098 86.15 45.5098C86.29 45.5098 86.41 45.4998 86.51 45.4698C86.61 45.4398 86.7 45.4198 86.79 45.3898C86.83 45.2298 86.89 45.0298 86.97 44.7998C87.05 44.5698 87.13 44.3198 87.22 44.0498C87.31 43.7898 87.39 43.5298 87.47 43.2698C87.55 43.0198 87.62 42.7898 87.68 42.5998L87.82 41.9898C87.99 41.4898 88.17 40.9698 88.37 40.4098C88.56 39.8498 88.75 39.3098 88.94 38.7798C89.13 38.2498 89.29 37.7998 89.42 37.4098H89.5C89.61 37.7398 89.75 38.1398 89.91 38.6298C90.07 39.1198 90.25 39.6398 90.44 40.1998C90.63 40.7598 90.81 41.3198 90.98 41.8898L91.15 42.5998L91.88 44.8198C91.95 45.0498 92.05 45.2298 92.18 45.3398C92.31 45.4498 92.5 45.5098 92.76 45.5098C92.95 45.5098 93.13 45.4798 93.28 45.4098C93.43 45.3398 93.55 45.2598 93.63 45.1598C93.44 44.5498 93.22 43.8698 92.98 43.1198L92.96 43.1298Z" fill="#5AC0B1"/>
</g>
<defs>
<clipPath id="clip0_1513_41">
<rect width="113.47" height="44.63" fill="white" transform="translate(0 0.959961)"/>
</clipPath>
</defs>
</svg>
