<?xml version="1.0" encoding="utf-8"?>
<!-- Generator: Adobe Illustrator 24.0.0, SVG Export Plug-In . SVG Version: 6.00 Build 0)  -->
<svg version="1.1" id="Layer_1" xmlns="http://www.w3.org/2000/svg" xmlns:xlink="http://www.w3.org/1999/xlink" x="0px" y="0px"
	 viewBox="0 0 215.27 89.35" style="enable-background:new 0 0 215.27 89.35;" xml:space="preserve">
<style type="text/css">
	.st0{fill:#CE0E2D;}
	.st1{fill:#B68150;}
</style>
<g>
	<path class="st0" d="M23.02,11.3H12.03v44.72h4.34V39.6h6.64c8.88,0,15.01-4.66,15.01-15.01C38.03,16.16,31.9,11.3,23.02,11.3
		 M23.02,38.64h-6.64V12.26h6.64c6.58,0,10.67,3.58,10.67,12.46C33.69,33.66,29.54,38.64,23.02,38.64"/>
	<path class="st0" d="M45.06,21.59v0.96c12.01,0,13.74,5.56,13.74,13.67v1.02C56.81,34.17,52.21,32,48.38,32
		c-6.52,0-10.09,6.2-10.09,12.07s3.58,12.07,10.09,12.07c3.83,0,8.43-2.17,10.41-5.24v0.51c0.45,1.92,2.11,3.64,3.71,4.6h0.64v-19.8
		C63.14,26.83,58.54,21.59,45.06,21.59 M58.79,47.65c0,3.71-4.92,6.64-8.75,6.64c-4.73,0-7.03-4.47-7.03-10.22s2.3-10.22,7.03-10.22
		c3.83,0,8.75,2.94,8.75,6.64V47.65z"/>
	<path class="st0" d="M73.59,45.16V23.77h5.29v-2.34h-5.29v-7.39c-1.34-0.77-2.17-1.02-3.71-1.02h-0.64v8.41h-2.39v2.34h2.39v17.94
		c0,9.39,0,14.31,10.54,14.31v-0.96C73.98,55.06,73.59,51.23,73.59,45.16"/>
	<path class="st0" d="M87.7,45.16V23.77H93v-2.34H87.7v-7.39c-1.34-0.77-2.17-1.02-3.71-1.02h-0.64v8.41h-2.39v2.34h2.39v17.94
		c0,9.39,0,14.31,10.54,14.31v-0.96C88.09,55.06,87.7,51.23,87.7,45.16"/>
	<path class="st0" d="M99.92,10.47c-1.28,0-2.3,1.53-2.3,3.13c0,2.11,1.85,3.64,2.3,3.64c0.51,0,2.36-1.53,2.36-3.64
		C102.29,12,101.2,10.47,99.92,10.47"/>
	<path class="st0" d="M97.75,56.02h4.34v-34.5c-1.73-0.96-2.43-1.02-4.34-1.02V56.02z"/>
	<path class="st0" d="M113.25,21.59v0.96c12.01,0,13.74,5.56,13.74,13.67v1.02c-1.98-3.07-6.58-5.24-10.41-5.24
		c-6.52,0-10.09,6.2-10.09,12.07s3.58,12.07,10.09,12.07c3.83,0,8.43-2.17,10.41-5.24v0.51c0.45,1.92,2.11,3.64,3.71,4.6h0.64v-19.8
		C131.33,26.83,126.73,21.59,113.25,21.59 M126.99,47.65c0,3.71-4.92,6.64-8.75,6.64c-4.73,0-7.03-4.47-7.03-10.22
		s2.3-10.22,7.03-10.22c3.83,0,8.75,2.94,8.75,6.64V47.65z"/>
	<path class="st0" d="M164.86,21.2c-4.34,0-6.77,2.11-7.79,5.11c-0.96-3-3.39-5.11-7.73-5.11c-3.77,0-6.07,1.53-7.28,3.83v-3.52
		c-1.28-0.7-2.3-1.02-3.64-1.02h-0.7v35.52h4.34V29.7c0-3.64,1.66-6.52,5.94-6.52c4.28,0,4.86,2.87,4.86,6.52v26.32h4.79V29.7
		c0-3.64,1.6-6.52,5.88-6.52s4.86,2.87,4.86,6.52v26.32h4.79V29.7C173.17,25.04,170.74,21.2,164.86,21.2"/>
	<path class="st0" d="M178.6,10.98c-1.09-0.06-1.98,0.77-2.11,1.85c-0.06,1.02,0.64,1.98,1.73,2.17c0.06,0.19,0.13,0.38,0.13,0.58
		c0,0.64-0.38,1.34-1.28,2.04l0.26,0.38c1.98-0.83,3.26-2.81,3.2-4.66C180.52,11.94,179.69,11.05,178.6,10.98"/>
	<path class="st0" d="M186.89,27.85c0-3.32,1.09-6.26,5.24-6.26c4.41,0,6.52,1.28,8.3,5.24l0.96-0.32
		c-1.98-4.34-4.28-5.88-8.82-5.88c-6,0-10.22,2.62-10.22,7.41c0,13.48,16.87,7.99,16.87,18.91c0,3.71-1.92,8.11-7.35,8.11
		c-6.52,0-7.79-4.02-8.56-6.77l-0.89,0.32c1.53,5.24,3.45,7.41,8.88,7.41c9.52,0,11.95-6.71,11.95-10.16
		C203.24,32.06,186.89,36.86,186.89,27.85"/>
	<path class="st1" d="M23.27,78.78V70.2c0-0.43,0.07-0.8,0.2-1.09c0.13-0.29,0.31-0.53,0.52-0.7c0.22-0.17,0.46-0.29,0.73-0.37
		c0.27-0.07,0.54-0.11,0.8-0.11c0.4,0.01,0.86,0.02,1.37,0.02c0.51,0.01,1.04,0.02,1.6,0.04c0.56,0.02,1.09,0.05,1.61,0.1v1.21H25.9
		c-0.36,0-0.64,0.1-0.84,0.29c-0.2,0.2-0.29,0.48-0.29,0.85v2.52l4.69,0.09v1.15l-4.69,0.09v4.49H23.27z"/>
	<path class="st1" d="M34.96,78.87c-0.6,0-1.15-0.05-1.65-0.16c-0.5-0.11-0.93-0.29-1.3-0.55c-0.36-0.26-0.64-0.62-0.83-1.07
		c-0.19-0.45-0.29-1.02-0.29-1.71v-7.46h1.49v7.44c0,0.56,0.1,0.99,0.3,1.3c0.2,0.31,0.5,0.53,0.88,0.66
		c0.39,0.13,0.85,0.2,1.39,0.2c0.55,0,1.02-0.07,1.41-0.2c0.39-0.13,0.68-0.35,0.88-0.66c0.2-0.31,0.3-0.74,0.3-1.3v-7.44h1.49v7.46
		c0,0.69-0.1,1.26-0.29,1.71c-0.2,0.45-0.47,0.81-0.83,1.07c-0.36,0.26-0.79,0.44-1.29,0.55C36.12,78.82,35.57,78.87,34.96,78.87"/>
	<path class="st1" d="M39.85,78.78V67.93h4.35c0.37,0,0.73,0.04,1.08,0.13c0.35,0.09,0.66,0.25,0.94,0.49
		c0.27,0.24,0.49,0.57,0.65,0.99c0.16,0.43,0.23,0.99,0.23,1.67c0,0.56-0.06,1.03-0.18,1.4c-0.12,0.37-0.27,0.67-0.47,0.89
		c-0.19,0.22-0.4,0.39-0.63,0.5c-0.23,0.11-0.46,0.2-0.68,0.26l2.17,4.52h-1.5l-2-4.32c-0.15,0-0.33,0-0.54-0.01
		c-0.21-0.01-0.43-0.01-0.66-0.01c-0.23,0-0.46-0.01-0.68-0.02c-0.22-0.01-0.41-0.01-0.58-0.01v4.36H39.85z M41.34,73.27h2.62
		c0.24,0,0.45-0.03,0.65-0.08c0.2-0.06,0.37-0.16,0.52-0.31c0.15-0.15,0.27-0.36,0.36-0.63c0.09-0.27,0.13-0.62,0.13-1.04
		c0-0.41-0.04-0.75-0.13-1c-0.09-0.25-0.21-0.45-0.37-0.59c-0.16-0.14-0.33-0.23-0.53-0.29c-0.2-0.05-0.41-0.08-0.63-0.08h-2.62
		V73.27z"/>
	<rect x="63.41" y="67.93" class="st1" width="1.49" height="10.86"/>
	<rect x="47.84" y="67.92" class="st1" width="14.97" height="1.34"/>
	<polygon class="st1" points="68.7,78.78 68.7,69.25 65.46,69.25 65.46,67.93 73.43,67.93 73.43,69.25 70.19,69.25 70.19,78.78 	"/>
	<path class="st1" d="M78.02,78.87c-0.6,0-1.15-0.05-1.65-0.16s-0.93-0.29-1.3-0.55c-0.36-0.26-0.64-0.62-0.83-1.07
		c-0.19-0.45-0.29-1.02-0.29-1.71v-7.46h1.49v7.44c0,0.56,0.1,0.99,0.3,1.3c0.2,0.31,0.5,0.53,0.88,0.66
		c0.39,0.13,0.85,0.2,1.39,0.2c0.55,0,1.02-0.07,1.41-0.2c0.39-0.13,0.68-0.35,0.88-0.66c0.2-0.31,0.3-0.74,0.3-1.3v-7.44h1.49v7.46
		c0,0.69-0.1,1.26-0.29,1.71c-0.2,0.45-0.47,0.81-0.83,1.07s-0.79,0.44-1.29,0.55C79.19,78.82,78.63,78.87,78.02,78.87"/>
	<path class="st1" d="M82.8,78.78V67.93h4.35c0.37,0,0.73,0.04,1.08,0.13c0.35,0.09,0.66,0.25,0.94,0.49
		c0.27,0.24,0.49,0.57,0.65,0.99c0.16,0.43,0.23,0.99,0.23,1.67c0,0.56-0.06,1.03-0.18,1.4c-0.12,0.37-0.27,0.67-0.47,0.89
		c-0.19,0.22-0.4,0.39-0.63,0.5c-0.23,0.11-0.46,0.2-0.68,0.26l2.17,4.52h-1.5l-2-4.32c-0.15,0-0.33,0-0.54-0.01
		c-0.21-0.01-0.43-0.01-0.66-0.01c-0.23,0-0.46-0.01-0.68-0.02c-0.22-0.01-0.41-0.01-0.58-0.01v4.36H82.8z M84.29,73.27h2.62
		c0.24,0,0.45-0.03,0.65-0.08c0.2-0.06,0.37-0.16,0.52-0.31c0.15-0.15,0.27-0.36,0.36-0.63c0.09-0.27,0.13-0.62,0.13-1.04
		c0-0.41-0.04-0.75-0.13-1c-0.09-0.25-0.21-0.45-0.37-0.59c-0.16-0.14-0.33-0.23-0.53-0.29c-0.2-0.05-0.41-0.08-0.63-0.08h-2.62
		V73.27z"/>
	<path class="st1" d="M93.13,78.84c-0.25,0-0.51-0.02-0.78-0.07c-0.27-0.04-0.54-0.14-0.79-0.28c-0.25-0.14-0.45-0.36-0.61-0.66
		c-0.16-0.29-0.24-0.69-0.24-1.19v-6.45c0-0.43,0.07-0.8,0.2-1.09c0.13-0.29,0.31-0.53,0.52-0.7c0.22-0.17,0.46-0.29,0.73-0.37
		c0.27-0.07,0.54-0.11,0.8-0.11c0.64,0.01,1.23,0.02,1.76,0.04c0.53,0.02,1.03,0.03,1.49,0.05c0.46,0.02,0.9,0.04,1.33,0.06v1.22
		h-4.18c-0.36,0-0.65,0.09-0.85,0.28c-0.21,0.19-0.31,0.48-0.31,0.88v2.25l4.69,0.09v1.15l-4.69,0.1v2.22
		c0,0.34,0.06,0.58,0.17,0.75c0.11,0.17,0.26,0.28,0.44,0.34c0.18,0.06,0.38,0.09,0.58,0.09h4.16v1.22
		c-0.45,0.03-0.93,0.06-1.43,0.08c-0.5,0.02-1,0.05-1.51,0.06C94.1,78.84,93.61,78.84,93.13,78.84"/>
	<path class="st1" d="M101.9,78.87c-0.54,0-1.03-0.12-1.47-0.36c-0.44-0.24-0.78-0.58-1.02-1.02c-0.25-0.44-0.37-0.94-0.37-1.51
		c0-0.52,0.11-1.01,0.34-1.48s0.57-0.9,1.03-1.3l0.94-0.8l-0.25-0.37c-0.31-0.44-0.5-0.83-0.59-1.16c-0.09-0.33-0.13-0.63-0.13-0.91
		c0-0.49,0.12-0.89,0.35-1.19c0.24-0.3,0.55-0.51,0.94-0.64c0.39-0.13,0.83-0.19,1.3-0.19c0.38,0,0.74,0.01,1.06,0.04
		c0.32,0.03,0.61,0.05,0.87,0.09c0.26,0.04,0.49,0.07,0.69,0.11v1.08h-2.36c-0.41,0-0.74,0.08-0.99,0.23
		c-0.25,0.16-0.38,0.42-0.38,0.78c0,0.23,0.06,0.46,0.17,0.7s0.3,0.54,0.55,0.89l2.65,3.62l2.17-2l0.55,0.65l-1,1.41L106,76.47
		l1.72,2.31h-1.56l-1.12-1.46l-0.52,0.44c-0.44,0.4-0.87,0.69-1.28,0.85C102.84,78.79,102.39,78.87,101.9,78.87 M102.14,77.5
		c0.28,0,0.56-0.05,0.82-0.16c0.26-0.11,0.54-0.31,0.85-0.61l0.43-0.41l-2.15-2.9l-0.71,0.62c-0.34,0.29-0.58,0.59-0.71,0.88
		c-0.13,0.29-0.2,0.59-0.2,0.9c0,0.5,0.15,0.91,0.46,1.22C101.22,77.35,101.63,77.5,102.14,77.5"/>
	<polygon class="st1" points="111.07,78.78 111.07,67.93 112.56,67.93 112.56,72.8 117.58,72.8 117.58,67.93 119.06,67.93 
		119.06,78.78 117.58,78.78 117.58,74.13 112.56,74.13 112.56,78.78 	"/>
	<path class="st1" d="M124.07,78.87c-0.71,0-1.33-0.07-1.86-0.21c-0.54-0.14-0.98-0.39-1.34-0.77c-0.36-0.37-0.63-0.92-0.8-1.65
		c-0.18-0.73-0.27-1.68-0.27-2.86c0-1.18,0.09-2.14,0.27-2.87c0.18-0.73,0.45-1.29,0.81-1.68c0.36-0.39,0.81-0.65,1.34-0.8
		c0.53-0.14,1.15-0.21,1.86-0.21c0.73,0,1.36,0.07,1.89,0.21c0.54,0.14,0.98,0.41,1.33,0.8c0.35,0.39,0.62,0.95,0.8,1.68
		c0.18,0.73,0.26,1.69,0.26,2.87c0,1.18-0.09,2.13-0.26,2.86c-0.18,0.73-0.44,1.28-0.8,1.65c-0.36,0.37-0.81,0.63-1.34,0.77
		C125.41,78.8,124.78,78.87,124.07,78.87 M124.07,77.55c0.51,0,0.95-0.05,1.3-0.16c0.36-0.11,0.65-0.31,0.87-0.6
		s0.38-0.71,0.48-1.25c0.1-0.54,0.15-1.26,0.15-2.14c0-0.93-0.05-1.68-0.15-2.24c-0.1-0.56-0.26-0.98-0.48-1.27
		c-0.22-0.28-0.5-0.48-0.86-0.57c-0.36-0.1-0.79-0.15-1.3-0.15c-0.48,0-0.9,0.05-1.25,0.15c-0.35,0.1-0.64,0.29-0.87,0.57
		c-0.23,0.28-0.4,0.71-0.51,1.27c-0.11,0.56-0.17,1.31-0.17,2.24c0,0.88,0.05,1.6,0.14,2.14c0.09,0.55,0.25,0.96,0.47,1.25
		c0.22,0.29,0.51,0.49,0.87,0.6C123.11,77.49,123.55,77.55,124.07,77.55"/>
	<polygon class="st1" points="128.58,78.78 129.82,67.93 131.29,67.93 134.06,76.99 136.79,67.93 138.28,67.93 139.55,78.78 
		138.12,78.78 137.06,69.74 137.31,69.77 134.74,78.78 133.37,78.78 130.76,69.77 131.03,69.75 130.01,78.78 	"/>
	<path class="st1" d="M142.6,78.84c-0.25,0-0.51-0.02-0.78-0.07c-0.27-0.04-0.54-0.14-0.79-0.28c-0.25-0.14-0.45-0.36-0.61-0.66
		c-0.16-0.29-0.24-0.69-0.24-1.19v-6.45c0-0.43,0.07-0.8,0.2-1.09c0.13-0.29,0.31-0.53,0.52-0.7c0.22-0.17,0.46-0.29,0.73-0.37
		c0.27-0.07,0.54-0.11,0.8-0.11c0.64,0.01,1.23,0.02,1.76,0.04c0.53,0.02,1.03,0.03,1.49,0.05c0.46,0.02,0.9,0.04,1.33,0.06v1.22
		h-4.18c-0.36,0-0.65,0.09-0.85,0.28c-0.21,0.19-0.31,0.48-0.31,0.88v2.25l4.69,0.09v1.15l-4.69,0.1v2.22
		c0,0.34,0.06,0.58,0.17,0.75c0.11,0.17,0.26,0.28,0.44,0.34c0.18,0.06,0.38,0.09,0.58,0.09h4.16v1.22
		c-0.45,0.03-0.93,0.06-1.43,0.08c-0.5,0.02-1,0.05-1.51,0.06C143.57,78.84,143.08,78.84,142.6,78.84"/>
	<path class="st1" d="M151.47,78.78V67.93h4.39c0.68,0,1.25,0.12,1.71,0.37c0.46,0.25,0.84,0.6,1.12,1.07
		c0.28,0.47,0.49,1.04,0.62,1.71c0.13,0.67,0.19,1.44,0.19,2.29c0,1.16-0.13,2.14-0.4,2.95c-0.27,0.81-0.68,1.42-1.22,1.84
		c-0.54,0.42-1.21,0.63-2.02,0.63H151.47z M152.96,77.46h2.77c0.54,0,0.98-0.16,1.31-0.49c0.33-0.33,0.58-0.8,0.74-1.41
		c0.16-0.62,0.24-1.34,0.24-2.19c0-0.78-0.04-1.43-0.13-1.95c-0.09-0.53-0.23-0.95-0.41-1.27c-0.19-0.32-0.42-0.55-0.71-0.69
		c-0.29-0.14-0.63-0.21-1.02-0.21h-2.77V77.46z"/>
	<path class="st1" d="M162.54,78.84c-0.25,0-0.51-0.02-0.78-0.07c-0.27-0.04-0.54-0.14-0.79-0.28c-0.25-0.14-0.45-0.36-0.61-0.66
		c-0.16-0.29-0.24-0.69-0.24-1.19v-6.45c0-0.43,0.07-0.8,0.2-1.09c0.13-0.29,0.31-0.53,0.52-0.7c0.22-0.17,0.46-0.29,0.73-0.37
		c0.27-0.07,0.54-0.11,0.8-0.11c0.64,0.01,1.23,0.02,1.76,0.04c0.53,0.02,1.03,0.03,1.49,0.05c0.46,0.02,0.9,0.04,1.33,0.06v1.22
		h-4.18c-0.36,0-0.65,0.09-0.85,0.28c-0.21,0.19-0.31,0.48-0.31,0.88v2.25l4.69,0.09v1.15l-4.69,0.1v2.22
		c0,0.34,0.06,0.58,0.17,0.75c0.11,0.17,0.26,0.28,0.44,0.34c0.18,0.06,0.38,0.09,0.58,0.09h4.16v1.22
		c-0.45,0.03-0.93,0.06-1.43,0.08c-0.5,0.02-1,0.05-1.51,0.06C163.52,78.84,163.02,78.84,162.54,78.84"/>
	<path class="st1" d="M171.3,78.87c-0.65,0-1.21-0.07-1.7-0.22c-0.48-0.15-0.88-0.41-1.21-0.8c-0.33-0.39-0.57-0.95-0.72-1.68
		c-0.16-0.73-0.24-1.68-0.24-2.85c0-1.1,0.08-2.01,0.24-2.73c0.16-0.72,0.41-1.28,0.74-1.68c0.33-0.4,0.74-0.68,1.23-0.84
		c0.49-0.16,1.06-0.24,1.71-0.24c0.36,0,0.74,0.02,1.13,0.06c0.39,0.04,0.76,0.09,1.12,0.16c0.36,0.06,0.68,0.13,0.97,0.21v1.12
		c-0.18-0.03-0.42-0.06-0.72-0.1c-0.31-0.03-0.65-0.06-1.03-0.09c-0.38-0.03-0.78-0.04-1.19-0.04c-0.49,0-0.91,0.06-1.25,0.17
		c-0.34,0.11-0.62,0.32-0.84,0.62c-0.22,0.3-0.37,0.72-0.47,1.27c-0.1,0.55-0.15,1.25-0.15,2.11c0,0.87,0.05,1.59,0.14,2.14
		c0.09,0.55,0.24,0.98,0.45,1.28c0.21,0.3,0.48,0.51,0.83,0.62c0.34,0.11,0.77,0.17,1.28,0.17c0.74,0,1.34-0.02,1.81-0.06
		c0.47-0.04,0.85-0.08,1.15-0.12v1.13c-0.29,0.07-0.62,0.13-0.97,0.19c-0.35,0.06-0.72,0.1-1.11,0.13
		C172.1,78.86,171.71,78.87,171.3,78.87"/>
	<path class="st1" d="M179.51,78.87c-0.71,0-1.33-0.07-1.86-0.21c-0.54-0.14-0.98-0.39-1.34-0.77c-0.36-0.37-0.63-0.92-0.8-1.65
		c-0.18-0.73-0.27-1.68-0.27-2.86c0-1.18,0.09-2.14,0.27-2.87c0.18-0.73,0.45-1.29,0.81-1.68c0.36-0.39,0.81-0.65,1.34-0.8
		c0.53-0.14,1.15-0.21,1.86-0.21c0.73,0,1.36,0.07,1.89,0.21c0.54,0.14,0.98,0.41,1.33,0.8c0.35,0.39,0.62,0.95,0.8,1.68
		c0.18,0.73,0.26,1.69,0.26,2.87c0,1.18-0.09,2.13-0.26,2.86c-0.18,0.73-0.44,1.28-0.8,1.65c-0.36,0.37-0.81,0.63-1.34,0.77
		C180.85,78.8,180.22,78.87,179.51,78.87 M179.51,77.55c0.51,0,0.95-0.05,1.3-0.16c0.36-0.11,0.65-0.31,0.87-0.6
		c0.22-0.29,0.38-0.71,0.48-1.25c0.1-0.54,0.15-1.26,0.15-2.14c0-0.93-0.05-1.68-0.15-2.24c-0.1-0.56-0.26-0.98-0.48-1.27
		c-0.22-0.28-0.5-0.48-0.86-0.57c-0.36-0.1-0.79-0.15-1.3-0.15c-0.48,0-0.9,0.05-1.25,0.15c-0.35,0.1-0.64,0.29-0.87,0.57
		c-0.23,0.28-0.4,0.71-0.51,1.27c-0.11,0.56-0.17,1.31-0.17,2.24c0,0.88,0.05,1.6,0.14,2.14c0.09,0.55,0.25,0.96,0.47,1.25
		c0.22,0.29,0.51,0.49,0.87,0.6C178.55,77.49,178.99,77.55,179.51,77.55"/>
	<path class="st1" d="M184.54,78.78V67.93h4.35c0.37,0,0.73,0.04,1.08,0.13c0.35,0.09,0.66,0.25,0.94,0.49
		c0.27,0.24,0.49,0.57,0.65,0.99c0.16,0.43,0.24,0.99,0.24,1.67c0,0.56-0.06,1.03-0.18,1.4c-0.12,0.37-0.27,0.67-0.46,0.89
		c-0.19,0.22-0.4,0.39-0.63,0.5c-0.23,0.11-0.46,0.2-0.69,0.26l2.17,4.52h-1.5l-2-4.32c-0.15,0-0.33,0-0.54-0.01
		c-0.21-0.01-0.43-0.01-0.66-0.01s-0.46-0.01-0.68-0.02c-0.22-0.01-0.41-0.01-0.58-0.01v4.36H184.54z M186.03,73.27h2.62
		c0.24,0,0.45-0.03,0.65-0.08c0.2-0.06,0.37-0.16,0.52-0.31c0.15-0.15,0.27-0.36,0.36-0.63c0.09-0.27,0.13-0.62,0.13-1.04
		c0-0.41-0.04-0.75-0.13-1c-0.09-0.25-0.21-0.45-0.37-0.59c-0.16-0.14-0.33-0.23-0.53-0.29c-0.2-0.05-0.41-0.08-0.63-0.08h-2.62
		V73.27z"/>
	<path class="st1" d="M61.99,69.71c-0.2-0.45-0.48-0.81-0.83-1.07c-0.36-0.27-0.79-0.45-1.3-0.56c-0.44-0.09-0.92-0.15-1.45-0.15
		c-0.07-0.01-0.15-0.01-0.22-0.01h-5.73h-0.04c-0.6,0-1.15,0.06-1.63,0.16c-0.51,0.1-0.94,0.29-1.3,0.56
		c-0.36,0.25-0.64,0.61-0.83,1.07c-0.2,0.45-0.29,1.02-0.29,1.71v7.46h1.49v-7.44c0-0.56,0.09-1,0.3-1.31
		c0.2-0.3,0.49-0.53,0.88-0.66c0.37-0.13,0.83-0.2,1.38-0.2h0.04h0.22h5.29h0.22c0.55,0,1.03,0.07,1.41,0.2
		c0.39,0.13,0.68,0.36,0.88,0.66c0.21,0.31,0.3,0.75,0.3,1.31v7.44h1.49v-7.46C62.28,70.73,62.19,70.16,61.99,69.71"/>
</g>
</svg>
