<?xml version="1.0" encoding="utf-8"?>
<!-- Generator: Adobe Illustrator 24.0.0, SVG Export Plug-In . SVG Version: 6.00 Build 0)  -->
<svg version="1.1" id="Layer_1" xmlns="http://www.w3.org/2000/svg" xmlns:xlink="http://www.w3.org/1999/xlink" x="0px" y="0px"
	 viewBox="0 0 215.27 89.35" style="enable-background:new 0 0 215.27 89.35;" xml:space="preserve">
<style type="text/css">
	.st0{fill:#CE0E2D;}
	.st1{fill:#00AC69;}
</style>
<g>
	<path class="st0" d="M23.02,8.18H12.03V52.9h4.34V36.48h6.64c8.88,0,15.01-4.66,15.01-15.01C38.03,13.04,31.9,8.18,23.02,8.18
		 M23.02,35.52h-6.64V9.14h6.64c6.58,0,10.67,3.58,10.67,12.46C33.69,30.54,29.54,35.52,23.02,35.52"/>
	<path class="st0" d="M45.06,18.47v0.96c12.01,0,13.74,5.56,13.74,13.67v1.02c-1.98-3.07-6.58-5.24-10.41-5.24
		c-6.52,0-10.09,6.2-10.09,12.07c0,5.88,3.58,12.07,10.09,12.07c3.83,0,8.43-2.17,10.41-5.24v0.51c0.45,1.92,2.11,3.64,3.71,4.6
		h0.64V33.1C63.14,23.71,58.54,18.47,45.06,18.47 M58.79,44.53c0,3.71-4.92,6.64-8.75,6.64c-4.73,0-7.03-4.47-7.03-10.22
		s2.3-10.22,7.03-10.22c3.83,0,8.75,2.94,8.75,6.64V44.53z"/>
	<path class="st0" d="M73.59,42.04V20.65h5.29v-2.34h-5.29v-7.39c-1.34-0.77-2.17-1.02-3.71-1.02h-0.64v8.41h-2.39v2.34h2.39v17.94
		c0,9.39,0,14.31,10.54,14.31v-0.96C73.98,51.94,73.59,48.11,73.59,42.04"/>
	<path class="st0" d="M87.7,42.04V20.65H93v-2.34H87.7v-7.39c-1.34-0.77-2.17-1.02-3.71-1.02h-0.64v8.41h-2.39v2.34h2.39v17.94
		c0,9.39,0,14.31,10.54,14.31v-0.96C88.09,51.94,87.7,48.11,87.7,42.04"/>
	<path class="st0" d="M99.92,7.35c-1.28,0-2.3,1.53-2.3,3.13c0,2.11,1.85,3.64,2.3,3.64c0.51,0,2.36-1.53,2.36-3.64
		C102.29,8.88,101.2,7.35,99.92,7.35"/>
	<path class="st0" d="M97.75,52.9h4.34V18.4c-1.73-0.96-2.43-1.02-4.34-1.02V52.9z"/>
	<path class="st0" d="M113.25,18.47v0.96c12.01,0,13.74,5.56,13.74,13.67v1.02c-1.98-3.07-6.58-5.24-10.41-5.24
		c-6.52,0-10.09,6.2-10.09,12.07c0,5.88,3.58,12.07,10.09,12.07c3.83,0,8.43-2.17,10.41-5.24v0.51c0.45,1.92,2.11,3.64,3.71,4.6
		h0.64V33.1C131.33,23.71,126.73,18.47,113.25,18.47 M126.99,44.53c0,3.71-4.92,6.64-8.75,6.64c-4.73,0-7.03-4.47-7.03-10.22
		s2.3-10.22,7.03-10.22c3.83,0,8.75,2.94,8.75,6.64V44.53z"/>
	<path class="st0" d="M164.86,18.08c-4.34,0-6.77,2.11-7.79,5.11c-0.96-3-3.39-5.11-7.73-5.11c-3.77,0-6.07,1.53-7.28,3.83V18.4
		c-1.28-0.7-2.3-1.02-3.64-1.02h-0.7V52.9h4.34V26.58c0-3.64,1.66-6.52,5.94-6.52c4.28,0,4.86,2.87,4.86,6.52V52.9h4.79V26.58
		c0-3.64,1.6-6.52,5.88-6.52s4.86,2.87,4.86,6.52V52.9h4.79V26.58C173.17,21.92,170.74,18.08,164.86,18.08"/>
	<path class="st0" d="M178.6,7.86c-1.09-0.06-1.98,0.77-2.11,1.85c-0.06,1.02,0.64,1.98,1.73,2.17c0.06,0.19,0.13,0.38,0.13,0.58
		c0,0.64-0.38,1.34-1.28,2.04l0.26,0.38c1.98-0.83,3.26-2.81,3.2-4.66C180.52,8.82,179.69,7.93,178.6,7.86"/>
	<path class="st0" d="M186.89,24.73c0-3.32,1.09-6.26,5.24-6.26c4.41,0,6.52,1.28,8.3,5.24l0.96-0.32
		c-1.98-4.34-4.28-5.88-8.82-5.88c-6,0-10.22,2.62-10.22,7.41c0,13.48,16.87,7.99,16.87,18.91c0,3.71-1.92,8.11-7.35,8.11
		c-6.52,0-7.79-4.02-8.56-6.77l-0.89,0.32c1.53,5.24,3.45,7.41,8.88,7.41c9.52,0,11.95-6.71,11.95-10.16
		C203.24,28.94,186.89,33.74,186.89,24.73"/>
	<path class="st1" d="M118.88,75.38c-0.84-4.92-4.26-9.08-8.98-10.86c-0.26,0.82-0.48,1.68-0.59,2.56
		c-0.89,6.68,3.01,12.89,9.05,15.17c5.11-1.41,8.76-6.19,8.54-11.71c-0.04-0.73-0.14-1.44-0.3-2.13
		C123.04,69.39,120.18,72.01,118.88,75.38 M118.72,80.99c0.1-0.42,0.19-0.84,0.24-1.29c0.16-1.17,0.18-2.33,0.04-3.47
		c0.92-2.35,2.91-4.17,5.4-4.87c0.11,0.48,0.19,0.98,0.2,1.49C124.76,76.68,122.24,79.99,118.72,80.99"/>
	<path class="st1" d="M44.05,80.98c-0.19-0.15-0.43-0.54-0.71-1.2c-0.46-1.12-1.07-2.8-1.87-5.04c-0.79-2.23-1.64-4.7-2.52-7.41
		H37.2c-1.09,2.87-2.11,5.51-3.08,7.91c-0.97,2.39-1.65,4-2.03,4.79c-0.22,0.43-0.46,0.73-0.74,0.91c-0.28,0.18-0.67,0.28-1.15,0.29
		v0.69c0.48-0.03,0.92-0.05,1.32-0.06c0.42-0.01,0.76-0.01,1.02-0.01c0.34,0,0.73,0,1.16,0.01c0.44,0.01,0.91,0.04,1.4,0.06V81.2
		h-0.28c-0.45,0-0.77-0.06-0.95-0.2c-0.18-0.13-0.26-0.37-0.26-0.69c0-0.24,0.09-0.64,0.26-1.2c0.18-0.57,0.5-1.45,0.98-2.67
		c0.45-0.01,0.87-0.03,1.29-0.03c0.42-0.01,0.86-0.01,1.31-0.01c0.24,0,0.76,0.01,1.58,0.04h1.07l1,3.14
		c0.06,0.19,0.1,0.34,0.14,0.48c0.03,0.13,0.04,0.25,0.04,0.37c0,0.29-0.09,0.51-0.26,0.62c-0.18,0.11-0.52,0.16-1,0.16h-0.19v0.71
		c0.5-0.03,0.98-0.05,1.45-0.06c0.46-0.01,0.87-0.01,1.26-0.01c0.29,0,0.67,0,1.1,0.01c0.44,0.01,0.93,0.04,1.46,0.06V81.2h-0.2
		C44.54,81.2,44.25,81.13,44.05,80.98 M39.3,75.36c-0.88,0.03-1.5,0.04-1.84,0.04c-0.28,0-0.81-0.01-1.58-0.04
		c-0.25,0-0.43-0.01-0.57-0.01l2.35-6.1l2.09,6.1C39.65,75.35,39.5,75.36,39.3,75.36"/>
	<path class="st1" d="M61.71,67.41c-0.28,0-0.6-0.01-0.97-0.03c-0.37-0.01-0.76-0.04-1.17-0.06v0.71h0.18
		c0.38,0,0.64,0.04,0.82,0.11c0.16,0.09,0.24,0.2,0.24,0.37c0,0.16-0.28,0.73-0.83,1.7c-0.55,0.97-1.4,2.36-2.51,4.15l-2.47-4.4
		c-0.05-0.09-0.13-0.21-0.21-0.37c-0.33-0.57-0.51-0.93-0.51-1.1c0-0.15,0.1-0.26,0.3-0.35c0.2-0.08,0.48-0.11,0.86-0.11h0.14v-0.71
		c-0.45,0.03-0.91,0.05-1.32,0.06c-0.43,0.01-0.82,0.03-1.18,0.03c-0.34,0-0.73-0.01-1.17-0.03c-0.44-0.01-0.92-0.04-1.42-0.06
		l0.01,0.71c0.09-0.01,0.17-0.03,0.21-0.03c0.05-0.01,0.1-0.01,0.13-0.01c0.51,0,1.06,0.5,1.66,1.54c0.09,0.16,0.16,0.29,0.23,0.38
		l3.3,5.57l-0.04,3.63c-0.01,0.86-0.13,1.42-0.34,1.7c-0.22,0.26-0.61,0.4-1.2,0.4c-0.05,0-0.11,0-0.22-0.01
		c-0.09,0-0.16-0.01-0.21-0.01v0.72c0.59-0.03,1.15-0.05,1.65-0.06c0.52-0.01,0.93-0.01,1.27-0.01c0.4,0,0.86,0,1.36,0.01
		c0.52,0.01,1.05,0.04,1.61,0.06v-0.72h-0.35c-0.6,0-1.02-0.11-1.22-0.35c-0.2-0.23-0.32-0.82-0.33-1.77l-0.04-3.66l2.57-3.93
		c0.18-0.28,0.42-0.66,0.72-1.15c0.97-1.55,1.75-2.32,2.36-2.32h0.21c0.03,0,0.04,0.01,0.05,0.01v-0.71
		c-0.38,0.03-0.74,0.05-1.11,0.06C62.41,67.4,62.05,67.41,61.71,67.41"/>
	<path class="st1" d="M83.75,67.41c-0.4,0-1.07-0.03-2.02-0.08c-0.15,0-0.28-0.01-0.35-0.01v0.69h0.15c0.45,0,0.77,0.06,0.97,0.19
		c0.2,0.13,0.35,0.34,0.46,0.66c0.05,0.24,0.1,0.92,0.14,2.06c0.04,1.13,0.06,2.55,0.06,4.2c0,1.39-0.07,2.38-0.23,2.98
		c-0.15,0.59-0.4,1.1-0.78,1.5c-0.37,0.4-0.81,0.72-1.32,0.91c-0.52,0.2-1.12,0.3-1.81,0.3c-0.91,0-1.7-0.2-2.35-0.58
		c-0.66-0.39-1.15-0.95-1.47-1.69c-0.17-0.34-0.28-0.77-0.34-1.3c-0.08-0.52-0.1-1.34-0.1-2.45v-3.73c0-1.32,0.09-2.17,0.28-2.52
		c0.19-0.35,0.55-0.53,1.1-0.53c0.04,0,0.09,0,0.16,0.01h0.18v-0.69c-0.47,0.03-0.92,0.05-1.37,0.06c-0.45,0.01-0.9,0.03-1.32,0.03
		c-0.37,0-0.76-0.01-1.2-0.03c-0.44-0.01-0.89-0.04-1.39-0.06v0.69h0.19c0.57,0,0.95,0.14,1.14,0.42c0.2,0.26,0.3,1,0.3,2.17v0.32
		c0,0.63-0.01,1.5-0.03,2.61c-0.01,1.12-0.03,1.92-0.03,2.41c0,1.27,0.13,2.26,0.37,2.96c0.24,0.71,0.64,1.32,1.2,1.84
		c0.52,0.49,1.15,0.87,1.89,1.12c0.74,0.26,1.55,0.39,2.43,0.39c1.26,0,2.36-0.27,3.29-0.78c0.93-0.52,1.6-1.22,1.98-2.13
		c0.18-0.44,0.32-0.95,0.39-1.51c0.09-0.57,0.13-1.39,0.13-2.47v-1.02c0-1.88,0.03-3.24,0.05-4.09c0.04-0.84,0.09-1.36,0.16-1.56
		c0.09-0.24,0.24-0.4,0.44-0.51c0.2-0.11,0.49-0.16,0.89-0.16h0.13v-0.69c-0.08,0-0.19,0.01-0.35,0.01
		C84.81,67.38,84.15,67.41,83.75,67.41"/>
	<path class="st1" d="M103.79,78.38c-0.14-0.2-0.24-0.35-0.3-0.47l-1.92-2.89c0.89-0.47,1.56-1.01,2-1.65
		c0.46-0.64,0.68-1.39,0.68-2.21c0-1.11-0.45-2.03-1.35-2.77c-0.89-0.73-2.03-1.1-3.43-1.1c-0.23,0-0.68,0.01-1.36,0.04
		c-0.67,0.04-1.24,0.05-1.69,0.05c-0.43,0-0.87,0-1.31-0.03c-0.44-0.01-0.89-0.03-1.35-0.06v0.72h0.08c0.55,0,0.95,0.1,1.17,0.33
		c0.21,0.23,0.32,0.63,0.32,1.22v1.84c0,0.57-0.01,1.15-0.01,1.74l-0.04,2.8c-0.01,0.35-0.01,0.86-0.03,1.5
		c-0.01,2.55-0.48,3.82-1.37,3.82h-0.2c-0.05-0.01-0.09-0.01-0.14-0.03v0.67c0.58-0.03,1.1-0.05,1.55-0.06
		c0.45-0.01,0.81-0.01,1.06-0.01c0.48,0,0.95,0,1.43,0.01c0.48,0.01,0.96,0.04,1.44,0.06v-0.67c0,0-0.01-0.01-0.03-0.01
		c-0.03-0.01-0.05-0.01-0.08-0.01c-0.01,0-0.04,0-0.08,0.01c-0.04,0-0.06,0.01-0.09,0.01c-0.62,0-1.05-0.14-1.25-0.4
		c-0.21-0.28-0.33-0.92-0.33-1.94v-3.14h0.62c0.35,0,0.68,0,0.97-0.03c0.29-0.01,0.57-0.03,0.83-0.05c0.69,0.98,1.39,2.05,2.07,3.18
		c0.68,1.12,1.06,1.73,1.13,1.82c0.4,0.55,0.82,0.93,1.24,1.13c0.42,0.19,1,0.29,1.71,0.29c0.2,0,0.53-0.03,0.97-0.06
		c0.19-0.03,0.33-0.04,0.43-0.04v-0.59h-0.1C106.2,81.41,105.11,80.4,103.79,78.38 M100.32,74.72c-0.29,0.03-0.55,0.05-0.79,0.06
		c-0.25,0-0.47,0.01-0.66,0.01c-0.23,0-0.48-0.01-0.77-0.03c-0.29-0.01-0.6-0.04-0.93-0.06c0-1.51,0.01-2.72,0.01-3.62
		c0.01-0.88,0.03-1.75,0.04-2.6c0.26-0.05,0.53-0.09,0.8-0.11s0.54-0.04,0.82-0.04c1.03,0,1.85,0.29,2.47,0.86
		c0.62,0.58,0.92,1.34,0.92,2.28c0,0.72-0.15,1.35-0.46,1.87C101.46,73.86,100.98,74.33,100.32,74.72"/>
	<path class="st1" d="M140.67,80.28c-0.54,0.33-1.68,0.49-3.38,0.49c-0.52,0-1-0.01-1.43-0.03c-0.44-0.03-0.82-0.05-1.16-0.1
		c-0.03-0.64-0.04-1.22-0.05-1.7v-2.69c0.01-0.59,0.01-1.05,0.01-1.39h2.56c1.24,0,2.03,0.1,2.36,0.32c0.34,0.2,0.52,0.59,0.52,1.17
		v0.08l0.66-0.01c0-0.11-0.01-0.28-0.03-0.48c-0.04-0.59-0.05-0.97-0.05-1.15c0-0.3,0.01-0.64,0.04-1.01
		c0.03-0.35,0.05-0.74,0.1-1.17l-0.64-0.06c-0.03,0.51-0.2,0.85-0.52,1.02c-0.32,0.19-0.97,0.28-1.95,0.28c-0.2,0-0.61,0-1.21-0.01
		c-0.6-0.01-1.11-0.01-1.51-0.01h-0.32c0.01-0.35,0.03-1.12,0.05-2.31c0.03-1.19,0.05-2.19,0.06-3.01c0.1,0,0.24,0,0.45-0.01
		c1.01-0.01,1.72-0.03,2.09-0.03c1.49,0,2.46,0.14,2.91,0.44c0.45,0.28,0.71,0.83,0.76,1.65l0.68-0.06
		c-0.05-0.53-0.09-1.07-0.11-1.6c-0.04-0.54-0.06-1.06-0.06-1.58c-0.81,0.04-1.59,0.08-2.36,0.1c-0.78,0.01-1.54,0.03-2.3,0.03
		c-0.68,0-1.5-0.01-2.43-0.03c-0.95-0.03-2.01-0.06-3.2-0.1v0.69h0.09c0.55,0,0.95,0.1,1.16,0.33c0.21,0.23,0.33,0.63,0.33,1.22
		v1.84c-0.01,0.57-0.01,1.15-0.03,1.74l-0.04,2.8c0,0.35-0.01,0.86-0.03,1.5c-0.01,2.55-0.47,3.82-1.37,3.82h-0.2
		c-0.04-0.01-0.09-0.01-0.14-0.03v0.67l0.37-0.01c2.26-0.08,3.9-0.11,4.92-0.11c0.74,0,1.58,0.01,2.48,0.04
		c0.92,0.01,1.92,0.05,2.99,0.09c0.11-0.54,0.25-1.07,0.42-1.63c0.15-0.54,0.33-1.1,0.54-1.66l-0.74-0.24
		C141.64,79.31,141.21,79.95,140.67,80.28"/>
	<path class="st1" d="M156.42,67.23c-0.15,0-0.68,0.03-1.59,0.09c-0.91,0.05-1.73,0.09-2.48,0.09c-0.25,0-0.58-0.01-0.96-0.03
		c-0.39-0.03-0.81-0.04-1.25-0.06v0.71h0.08c0.55,0,0.95,0.11,1.16,0.34c0.23,0.23,0.33,0.63,0.33,1.21v1.92
		c0,0.55-0.01,1.12-0.01,1.7l-0.04,2.72c-0.01,0.37-0.03,0.86-0.03,1.5c-0.01,2.53-0.48,3.79-1.38,3.79h-0.21
		c-0.05-0.01-0.09-0.01-0.13-0.01v0.71c0.48-0.03,0.91-0.05,1.31-0.06c0.4-0.01,0.74-0.01,1.02-0.01c0.59,0,1.37,0.03,2.32,0.08
		c0.96,0.05,1.61,0.09,1.98,0.09c2.45,0,4.4-0.69,5.86-2.08s2.19-3.23,2.19-5.5c0-2.22-0.73-3.97-2.19-5.26
		C160.96,67.88,158.96,67.23,156.42,67.23 M160.86,79.41c-1.02,1.06-2.5,1.58-4.41,1.58c-0.49,0-0.97-0.03-1.45-0.08
		c-0.48-0.05-0.97-0.12-1.46-0.24v-2.79c0-0.95,0-2.14,0.03-3.57c0.01-1.44,0.04-3.39,0.09-5.88c0.43-0.05,0.86-0.1,1.27-0.14
		c0.42-0.03,0.82-0.04,1.22-0.04c1.97,0,3.51,0.59,4.6,1.76c1.11,1.19,1.65,2.81,1.65,4.89C162.4,76.87,161.89,78.37,160.86,79.41"
		/>
	<path class="st1" d="M184.85,81.2c-0.37,0-0.64-0.08-0.84-0.23c-0.19-0.15-0.43-0.54-0.71-1.2c-0.45-1.12-1.09-2.8-1.87-5.04
		c-0.79-2.23-1.64-4.7-2.52-7.41h-1.77c-1.07,2.87-2.09,5.51-3.06,7.91c-0.97,2.39-1.65,4-2.03,4.79c-0.22,0.43-0.47,0.73-0.74,0.91
		c-0.29,0.18-0.67,0.28-1.15,0.29v0.69c0.48-0.03,0.92-0.05,1.32-0.06c0.42-0.01,0.76-0.01,1.02-0.01c0.34,0,0.73,0,1.16,0.01
		c0.44,0.01,0.9,0.04,1.4,0.06V81.2h-0.28c-0.45,0-0.77-0.06-0.95-0.2c-0.19-0.13-0.28-0.37-0.28-0.69c0-0.24,0.09-0.64,0.28-1.2
		c0.18-0.57,0.5-1.45,0.98-2.67c0.44-0.01,0.87-0.03,1.29-0.03c0.42-0.01,0.84-0.01,1.31-0.01c0.23,0,0.76,0.01,1.58,0.04h1.06
		l1.01,3.14c0.06,0.19,0.1,0.34,0.13,0.48c0.03,0.13,0.04,0.25,0.04,0.37c0,0.29-0.08,0.51-0.27,0.62c-0.18,0.11-0.5,0.16-0.98,0.16
		h-0.2v0.71c0.52-0.03,1-0.05,1.45-0.06c0.47-0.01,0.88-0.01,1.26-0.01c0.3,0,0.67,0,1.11,0.01c0.44,0.01,0.93,0.04,1.46,0.06V81.2
		H184.85z M179.26,75.36c-0.89,0.03-1.51,0.04-1.84,0.04c-0.29,0-0.81-0.01-1.58-0.04c-0.25,0-0.44-0.01-0.57-0.01l2.35-6.1
		l2.09,6.1C179.61,75.35,179.46,75.36,179.26,75.36"/>
</g>
</svg>
