<svg width="110" height="110" viewBox="0 0 110 110" fill="none" xmlns="http://www.w3.org/2000/svg">
<path d="M105.814 48.75C108.047 52.6175 108.047 57.3825 105.814 61.25L85.8198 95.8814C83.5868 99.7489 79.4603 102.131 74.9944 102.131L35.0055 102.131C30.5397 102.131 26.4131 99.7489 24.1802 95.8814L4.18579 61.25C1.95288 57.3825 1.95288 52.6175 4.18579 48.75L24.1802 14.1186C26.4131 10.2511 30.5397 7.8686 35.0056 7.8686L74.9944 7.8686C79.4603 7.8686 83.5869 10.2511 85.8198 14.1186L105.814 48.75Z" fill="#5AC0B1" fill-opacity="0.1" stroke="#5AC0B1"/>
<path d="M80 71.9906C79.8697 72.4598 79.7719 72.9356 79.609 73.3918C78.6575 76.1159 76.0898 77.9472 73.2092 77.9472C61.068 77.9472 48.9333 77.9472 36.7921 77.9472C33.0773 77.9472 30.0078 74.8972 30.0209 71.189C30.0209 70.0225 29.9883 68.8364 30.1903 67.6959C30.5227 65.8125 31.6371 64.3918 33.2729 63.323C33.123 63.2057 33.0057 63.1144 32.8818 63.0167C31.0114 61.6155 30.0143 59.7712 30.0209 57.425C30.0209 56.1282 29.8905 54.8313 30.2815 53.5539C31.1744 50.6343 33.7942 48.6661 36.8312 48.6596C40.3308 48.6596 43.8305 48.6596 47.3236 48.6596H47.9427C47.291 48.2491 46.7045 47.9167 46.1636 47.5191C43.8565 45.8443 42.1816 43.7132 41.4843 40.8978C41.4322 40.6958 41.3866 40.4873 41.354 40.2787C41.2432 39.5814 41.4517 39.2099 42.11 38.9427C43.1657 38.5256 44.2671 38.3432 45.3945 38.3171C45.6683 38.3171 45.942 38.3171 46.131 38.3171C46.2287 37.1375 46.3004 35.997 46.4242 34.8631C46.4633 34.4981 46.6067 34.1397 46.7371 33.7943C46.9651 33.1686 47.3757 32.9471 48.0405 33.0578C49.3243 33.2794 50.4974 33.7747 51.5597 34.5242C51.879 34.7458 52.1853 34.9934 52.5242 35.2541C52.7849 34.9282 53.039 34.5763 53.3258 34.257C53.6321 33.9246 53.9579 33.5988 54.3033 33.3055C54.7856 32.9014 55.2483 32.8884 55.7045 33.325C56.3236 33.9181 56.8906 34.5633 57.4771 35.1824C58.1353 34.7653 58.8001 34.2374 59.5495 33.8855C60.3186 33.5206 61.1527 33.2794 61.9804 33.0644C62.6191 32.8949 63.0687 33.1686 63.2577 33.8073C63.4728 34.5372 63.6683 35.2802 63.753 36.0296C63.8377 36.766 63.7726 37.5155 63.7726 38.2454C64.6068 38.3236 65.4605 38.3757 66.3077 38.5061C66.8291 38.5843 67.3504 38.7537 67.8522 38.9297C68.5626 39.1839 68.7646 39.5879 68.6278 40.3374C68.3345 41.9471 67.6698 43.3939 66.6987 44.7103C65.5648 46.2353 64.1571 47.4409 62.4952 48.3598C62.3714 48.425 62.2541 48.5032 61.9999 48.6531H62.6451C66.1122 48.6531 69.5793 48.6531 73.0398 48.6531C76.5004 48.6531 79.2505 50.9341 79.8827 54.336C79.9022 54.4272 79.9413 54.5184 79.9739 54.6097V58.4156C79.9413 58.4873 79.8892 58.5525 79.8762 58.6242C79.6481 59.9341 79.0876 61.0876 78.1752 62.0521C77.7451 62.5083 77.2498 62.8928 76.7741 63.3164C76.7741 63.3164 76.7741 63.336 76.7741 63.3425C76.8914 63.4337 77.0087 63.5185 77.126 63.6032C78.4164 64.5416 79.2766 65.7799 79.7263 67.3114C79.811 67.5981 79.8892 67.8914 79.9674 68.1782V71.9841L80 71.9906ZM72.0883 62.3128C72.5575 62.3128 72.9616 62.3324 73.3657 62.3128C75.4511 62.1825 77.1846 60.9247 77.7647 58.9631C78.2534 57.3208 78.2534 55.6068 77.7647 53.9645C77.126 51.8595 75.2491 50.6147 72.916 50.6147C60.9768 50.6147 49.0376 50.6147 37.0918 50.6147C36.9615 50.6147 36.8312 50.6147 36.7008 50.6213C34.6023 50.7255 32.8362 51.9898 32.2497 53.971C31.7609 55.6133 31.7544 57.3273 32.2497 58.9696C32.8884 61.0941 34.7653 62.3324 37.1375 62.3324C47.5517 62.3324 57.9594 62.3324 68.3736 62.3324C68.5039 62.3324 68.6343 62.3324 68.7646 62.3324C70.068 62.2216 70.9022 61.0159 70.5242 59.7972C70.2635 58.9565 69.4945 58.4352 68.4909 58.4352C65.5126 58.4352 62.5343 58.4352 59.5626 58.4352C58.8457 58.4352 58.4286 58.0702 58.4286 57.4576C58.4286 56.845 58.8457 56.4866 59.5691 56.4801C62.6125 56.4801 65.656 56.4801 68.6929 56.4801C70.4069 56.4801 71.8733 57.5554 72.4011 59.1912C72.74 60.2469 72.6162 61.2701 72.0883 62.3259V62.3128ZM72.0883 75.979C72.5575 75.979 72.9616 75.9986 73.3657 75.979C75.4511 75.8487 77.1781 74.5909 77.7647 72.6293C78.2534 71 78.2469 69.3056 77.7777 67.6763C77.1651 65.5648 75.2686 64.281 72.9616 64.281C60.9898 64.281 49.0115 64.281 37.0397 64.281C36.9289 64.281 36.8116 64.281 36.7008 64.2875C34.5697 64.3983 32.7124 65.7864 32.191 67.7806C31.8065 69.2404 31.813 70.7589 32.1324 72.2252C32.6472 74.5583 34.6023 75.9921 37.0984 75.9986C47.5256 75.9986 57.9594 75.9986 68.3866 75.9986C68.4974 75.9986 68.6147 75.9986 68.7255 75.9986C69.5923 75.9399 70.3026 75.386 70.5307 74.5974C70.7588 73.7893 70.5112 72.9226 69.7943 72.5055C69.3837 72.2643 68.8559 72.1144 68.3801 72.1144C58.7154 72.0949 49.0506 72.1014 39.3858 72.0949C37.8804 72.0949 36.577 70.9283 36.4597 69.4946C36.3293 67.8979 37.3395 66.5424 38.8775 66.2687C39.1447 66.223 39.438 66.223 39.6987 66.2882C40.1353 66.3925 40.396 66.8356 40.3634 67.3049C40.3243 67.7741 39.9854 68.113 39.4771 68.1847C38.7863 68.2824 38.3757 68.6865 38.4213 69.2274C38.4669 69.7813 38.9166 70.1333 39.6009 70.1398C39.7312 70.1398 39.8616 70.1398 39.9919 70.1398C49.5589 70.1398 59.1259 70.1398 68.6929 70.1398C70.4395 70.1398 71.9449 71.2737 72.4337 72.9421C72.7335 73.9718 72.6097 74.9624 72.0883 75.9856V75.979ZM66.5619 40.4938C65.7733 40.4286 65.0238 40.2852 64.2744 40.3113C61.4004 40.4156 58.9956 41.6147 56.9362 43.5829C56.2519 44.2346 55.8413 44.9384 55.9782 45.929C56.0564 46.4699 55.9912 47.0304 55.9912 47.5843C55.9912 47.7081 56.0173 47.832 56.0303 47.9428C60.4163 48.3664 65.7016 44.6777 66.5684 40.4938H66.5619ZM54.0361 47.9297C54.0361 47.0108 54.0166 46.118 54.0492 45.2317C54.0622 44.8211 53.9319 44.5278 53.6712 44.228C51.8399 42.123 49.5654 40.8196 46.8087 40.3895C45.7008 40.2201 44.5799 40.2396 43.4916 40.5785C44.3583 44.6386 49.3764 48.2947 54.0361 47.9297ZM56.278 41.4779C56.4148 41.3736 56.5191 41.3019 56.6234 41.2237C57.8747 40.2135 59.2498 39.3989 60.7943 38.9623C61.5047 38.7603 61.811 38.4474 61.8305 37.724C61.8501 36.8638 61.8826 36.0166 61.6285 35.1628C61.5242 35.1954 61.4655 35.2085 61.4069 35.228C58.9239 36.1274 57.3533 37.9521 56.2715 40.2787C56.089 40.6763 56.0434 41.0412 56.2845 41.4713L56.278 41.4779ZM53.0651 38.9558C51.8985 37.1636 50.4583 35.808 48.3989 35.1563C48.0861 36.2773 48.1056 37.3721 48.3337 38.4605C48.3598 38.5843 48.5553 38.7081 48.6987 38.7668C49.2852 38.9949 49.8978 39.1708 50.4713 39.425C51.0448 39.6726 51.5857 39.9855 52.1788 40.2918C52.0941 39.5944 52.3482 39.1448 53.0651 38.9558ZM56.0629 36.7465L55.0007 35.2867L53.9449 36.74L55.0137 38.3171L56.0629 36.7465Z" fill="#5AC0B1"/>
<path d="M44.8601 58.4221C42.9897 58.4221 41.1193 58.4352 39.2489 58.4221C37.6588 58.4091 36.4205 57.0275 36.4596 55.3461C36.4922 53.8407 37.8478 52.5373 39.3597 52.5698C39.9332 52.5829 40.3373 52.9478 40.3633 53.4822C40.3894 54.0297 40.044 54.4402 39.4835 54.5184C38.7862 54.6162 38.3822 55.0137 38.4213 55.5546C38.4669 56.1216 38.9231 56.4735 39.6465 56.4735C43.2569 56.4735 46.8673 56.4735 50.4843 56.4735C51.1099 56.4735 51.514 56.7733 51.5922 57.2751C51.6965 57.9268 51.2468 58.4156 50.5299 58.4221C48.64 58.4221 46.7566 58.4221 44.8666 58.4221H44.8601Z" fill="#5AC0B1"/>
<path d="M55.9845 57.4381C55.9845 57.9985 55.5609 58.4222 55.0005 58.4156C54.44 58.4156 54.0229 57.9855 54.0359 57.4185C54.0425 56.8776 54.453 56.4736 54.9939 56.4605C55.5544 56.454 55.9845 56.8711 55.9845 57.4316V57.4381Z" fill="#5AC0B1"/>
</svg>
