<svg width="114" height="45" viewBox="0 0 114 45" fill="none" xmlns="http://www.w3.org/2000/svg">
<g clip-path="url(#clip0_1513_85)">
<path d="M6.52 0.939941H0V27.4799H2.58V17.7399H6.52C11.79 17.7399 15.43 14.9699 15.43 8.82994C15.43 3.81994 11.79 0.939941 6.52 0.939941ZM6.52 17.1699H2.58V1.50994H6.52C10.42 1.50994 12.85 3.62994 12.85 8.89994C12.85 14.1699 10.39 17.1599 6.52 17.1599V17.1699Z" fill="#CE0E2D"/>
<path d="M19.6001 7.04993V7.61993C26.7301 7.61993 27.7501 10.9199 27.7501 15.7299V16.3399C26.5801 14.5199 23.8501 13.2299 21.5701 13.2299C17.7001 13.2299 15.5801 16.9099 15.5801 20.3999C15.5801 23.8899 17.7001 27.5699 21.5701 27.5699C23.8401 27.5699 26.5701 26.2799 27.7501 24.4599V24.7599C28.0201 25.8999 29.0001 26.9199 29.9501 27.4899H30.3301V15.7299C30.3301 10.1599 27.6001 7.04993 19.6001 7.04993ZM27.7501 22.5199C27.7501 24.7199 24.8301 26.4599 22.5601 26.4599C19.7501 26.4599 18.3901 23.8099 18.3901 20.3899C18.3901 16.9699 19.7501 14.3199 22.5601 14.3199C24.8301 14.3199 27.7501 16.0599 27.7501 18.2599V22.5099V22.5199Z" fill="#CE0E2D"/>
<path d="M36.53 21.04V8.33996H39.67V6.94996H36.53V2.56996C35.73 2.11996 35.24 1.95996 34.33 1.95996H33.95V6.95996H32.53V8.34996H33.95V18.99C33.95 24.56 33.95 27.48 40.2 27.48V26.91C36.75 26.91 36.52 24.64 36.52 21.03L36.53 21.04Z" fill="#CE0E2D"/>
<path d="M44.8999 21.04V8.33996H48.0399V6.94996H44.8999V2.56996C44.0999 2.11996 43.6099 1.95996 42.6999 1.95996H42.3199V6.95996H40.8999V8.34996H42.3199V18.99C42.3199 24.56 42.3199 27.48 48.5699 27.48V26.91C45.1199 26.91 44.8899 24.64 44.8899 21.03L44.8999 21.04Z" fill="#CE0E2D"/>
<path d="M52.16 0.449951C51.4 0.449951 50.8 1.35995 50.8 2.30995C50.8 3.55995 51.9 4.46995 52.16 4.46995C52.46 4.46995 53.5601 3.55995 53.5601 2.30995C53.5601 1.35995 52.92 0.449951 52.16 0.449951V0.449951Z" fill="#CE0E2D"/>
<path d="M50.8701 27.4799H53.4501V7.0099C52.4301 6.4399 52.0101 6.3999 50.8701 6.3999V27.4799Z" fill="#CE0E2D"/>
<path d="M60.06 7.04993V7.61993C67.19 7.61993 68.21 10.9199 68.21 15.7299V16.3399C67.04 14.5199 64.31 13.2299 62.03 13.2299C58.16 13.2299 56.04 16.9099 56.04 20.3999C56.04 23.8899 58.16 27.5699 62.03 27.5699C64.3 27.5699 67.03 26.2799 68.21 24.4599V24.7599C68.48 25.8999 69.46 26.9199 70.41 27.4899H70.79V15.7299C70.79 10.1599 68.06 7.04993 60.06 7.04993ZM68.21 22.5199C68.21 24.7199 65.29 26.4599 63.02 26.4599C60.21 26.4599 58.85 23.8099 58.85 20.3899C58.85 16.9699 60.21 14.3199 63.02 14.3199C65.29 14.3199 68.21 16.0599 68.21 18.2599V22.5099V22.5199Z" fill="#CE0E2D"/>
<path d="M90.6901 6.81989C88.1101 6.81989 86.6701 8.06989 86.0601 9.84989C85.4901 8.06989 84.0501 6.81989 81.4701 6.81989C79.2301 6.81989 77.8701 7.72989 77.1501 9.08989V6.99989C76.3901 6.57989 75.7901 6.38989 74.9901 6.38989H74.5701V27.4799H77.1501V11.8599C77.1501 9.69989 78.1401 7.98989 80.6801 7.98989C83.2201 7.98989 83.5601 9.69989 83.5601 11.8599V27.4799H86.4001V11.8599C86.4001 9.69989 87.3501 7.98989 89.8901 7.98989C92.4301 7.98989 92.7701 9.69989 92.7701 11.8599V27.4799H95.6101V11.8599C95.6101 9.08989 94.1701 6.81989 90.6801 6.81989H90.6901Z" fill="#CE0E2D"/>
<path d="M98.84 0.749965C98.2 0.709965 97.67 1.19997 97.59 1.84997C97.55 2.45997 97.97 3.02997 98.61 3.13997C98.65 3.24996 98.69 3.36997 98.69 3.47996C98.69 3.85996 98.46 4.27996 97.93 4.68996L98.08 4.91996C99.26 4.42996 100.01 3.24997 99.98 2.14997C99.98 1.31997 99.49 0.789965 98.84 0.749965Z" fill="#CE0E2D"/>
<path d="M103.76 10.76C103.76 8.78997 104.4 7.03997 106.87 7.03997C109.49 7.03997 110.74 7.79997 111.8 10.15L112.37 9.95997C111.19 7.37997 109.83 6.46997 107.14 6.46997C103.58 6.46997 101.07 8.01997 101.07 10.87C101.07 18.87 111.08 15.61 111.08 22.09C111.08 24.29 109.94 26.9 106.72 26.9C102.85 26.9 102.09 24.51 101.64 22.88L101.11 23.07C102.02 26.18 103.16 27.47 106.38 27.47C112.03 27.47 113.47 23.49 113.47 21.44C113.47 13.25 103.76 16.09 103.76 10.75V10.76Z" fill="#CE0E2D"/>
<path d="M41.5699 35.83H36.4199C36.2599 35.83 36.1299 35.88 36.0299 35.98C35.9299 36.08 35.8799 36.21 35.8799 36.37V44.15C35.8799 44.31 35.9299 44.44 36.0299 44.54C36.1299 44.64 36.2599 44.69 36.4199 44.69H37.0099C37.1699 44.69 37.2999 44.64 37.3999 44.54C37.4999 44.44 37.5499 44.31 37.5499 44.15V40.98H40.3699C40.5299 40.98 40.6599 40.93 40.7599 40.83C40.8599 40.73 40.9099 40.6 40.9099 40.44V39.98C40.9099 39.82 40.8599 39.69 40.7599 39.59C40.6599 39.49 40.5299 39.44 40.3699 39.44H37.5499V37.4H41.5599C41.7199 37.4 41.8499 37.35 41.9499 37.25C42.0499 37.15 42.0999 37.02 42.0999 36.86V36.39C42.0999 36.23 42.0499 36.1 41.9499 36C41.8499 35.9 41.7199 35.85 41.5599 35.85L41.5699 35.83Z" fill="#FFAD5A"/>
<path d="M46.8399 35.83C45.5799 35.83 44.5199 36.25 43.6799 37.1C42.8299 37.95 42.4099 39 42.4099 40.26C42.4099 41.52 42.8299 42.57 43.6799 43.42C44.5299 44.27 45.5799 44.69 46.8399 44.69C48.0999 44.69 49.1599 44.27 49.9999 43.42C50.8499 42.57 51.2699 41.52 51.2699 40.26C51.2699 39 50.8499 37.95 49.9999 37.1C49.1499 36.25 48.0999 35.83 46.8399 35.83ZM48.8299 42.32C48.3199 42.87 47.6599 43.15 46.8399 43.15C46.0199 43.15 45.3499 42.87 44.8399 42.32C44.3299 41.77 44.0799 41.09 44.0799 40.27C44.0799 40.21 44.0899 40.15 44.0899 40.09C44.1899 40.22 44.2899 40.35 44.4199 40.47C45.0599 41.1 45.8499 41.42 46.7799 41.42C47.7099 41.42 48.5099 41.1 49.1499 40.47C49.3099 40.31 49.4399 40.14 49.5599 39.96C49.5599 40.06 49.5799 40.16 49.5799 40.27C49.5799 41.09 49.3299 41.77 48.8199 42.32H48.8299Z" fill="#FFAD5A"/>
<path d="M56.5699 35.83C55.3099 35.83 54.2499 36.25 53.4099 37.1C52.5599 37.95 52.1399 39 52.1399 40.26C52.1399 41.52 52.5599 42.57 53.4099 43.42C54.2599 44.27 55.3099 44.69 56.5699 44.69C57.8299 44.69 58.8899 44.27 59.7299 43.42C60.5799 42.57 60.9999 41.52 60.9999 40.26C60.9999 39 60.5799 37.95 59.7299 37.1C58.8799 36.25 57.8299 35.83 56.5699 35.83ZM58.5599 42.32C58.0499 42.87 57.3899 43.15 56.5699 43.15C55.7499 43.15 55.0799 42.87 54.5699 42.32C54.0599 41.77 53.8099 41.09 53.8099 40.27C53.8099 40.25 53.8099 40.22 53.8099 40.2C53.8799 40.29 53.9599 40.38 54.0499 40.47C54.6899 41.1 55.4799 41.42 56.4099 41.42C57.3399 41.42 58.1399 41.1 58.7799 40.47C58.9799 40.27 59.1399 40.06 59.2799 39.83C59.2999 39.97 59.3199 40.12 59.3199 40.27C59.3199 41.09 59.0699 41.77 58.5599 42.32Z" fill="#FFAD5A"/>
<path d="M65.7398 35.8199H62.8698C62.7098 35.8199 62.5798 35.8699 62.4798 35.9699C62.3798 36.0699 62.3298 36.1999 62.3298 36.3599V44.1499C62.3298 44.3099 62.3798 44.4399 62.4798 44.5399C62.5798 44.6399 62.7098 44.6899 62.8698 44.6899H65.7398C68.4998 44.6899 69.8798 43.2099 69.8798 40.2599C69.8798 37.3099 68.4998 35.8199 65.7398 35.8199ZM65.7398 43.0199H64.0098V37.4999H65.7398C67.3798 37.4999 68.2098 38.4199 68.2098 40.2499C68.2098 42.0799 67.3898 43.0099 65.7398 43.0099V43.0199Z" fill="#FFAD5A"/>
<path d="M76.69 40.1599C76.11 39.7699 75.43 39.5299 74.64 39.4199C73.92 39.3199 73.44 39.1399 73.22 38.8599C73 38.5899 73 38.2799 73.22 37.9199C73.43 37.5599 73.91 37.3799 74.66 37.3799C75.18 37.3799 75.62 37.5099 75.98 37.7599C76.09 37.8399 76.21 37.8799 76.34 37.8799C76.47 37.8799 76.58 37.8299 76.68 37.7299L77.03 37.3899C77.15 37.2699 77.21 37.1299 77.2 36.9699C77.2 36.8099 77.12 36.6699 76.98 36.5599C76.72 36.3699 76.47 36.2199 76.22 36.1199C75.75 35.9199 75.1 35.8199 74.29 35.8199C73.57 35.8199 72.88 36.0599 72.22 36.5299C71.55 37.0099 71.22 37.6299 71.22 38.3899C71.22 39.2499 71.51 39.8599 72.09 40.2099C72.7 40.5699 73.35 40.7799 74.05 40.8499C74.88 40.9399 75.4 41.1599 75.6 41.5099C75.8 41.8599 75.81 42.2199 75.6 42.5899C75.37 42.9899 74.85 43.1699 74.04 43.1299C73.37 43.0999 72.81 42.9299 72.36 42.6199C72.1 42.4399 71.86 42.4499 71.66 42.6499L71.32 42.9899C71.19 43.1099 71.13 43.2499 71.14 43.4199C71.15 43.5899 71.22 43.7199 71.36 43.8299C71.65 44.0399 71.95 44.2099 72.26 44.3399C72.81 44.5799 73.5 44.6899 74.34 44.6899C75.18 44.6899 75.96 44.4299 76.62 43.9199C77.27 43.4199 77.6 42.8099 77.6 42.1199C77.6 41.2199 77.3 40.5599 76.7 40.1599H76.69Z" fill="#FFAD5A"/>
</g>
<defs>
<clipPath id="clip0_1513_85">
<rect width="113.47" height="44.24" fill="white" transform="translate(0 0.449951)"/>
</clipPath>
</defs>
</svg>
