<svg width="110" height="142" viewBox="0 0 110 142" fill="none" xmlns="http://www.w3.org/2000/svg">
<path d="M13.488 136.098C12.5827 136.098 11.7473 135.888 10.982 135.468C10.226 135.039 9.624 134.446 9.176 133.69C8.73733 132.925 8.518 132.066 8.518 131.114C8.518 130.162 8.73733 129.308 9.176 128.552C9.624 127.796 10.226 127.208 10.982 126.788C11.7473 126.359 12.5827 126.144 13.488 126.144C14.4027 126.144 15.238 126.359 15.994 126.788C16.7593 127.208 17.3613 127.796 17.8 128.552C18.2387 129.308 18.458 130.162 18.458 131.114C18.458 132.066 18.2387 132.925 17.8 133.69C17.3613 134.446 16.7593 135.039 15.994 135.468C15.238 135.888 14.4027 136.098 13.488 136.098ZM13.488 134.712C14.132 134.712 14.706 134.567 15.21 134.278C15.714 133.979 16.106 133.559 16.386 133.018C16.6753 132.467 16.82 131.833 16.82 131.114C16.82 130.395 16.6753 129.765 16.386 129.224C16.106 128.683 15.714 128.267 15.21 127.978C14.706 127.689 14.132 127.544 13.488 127.544C12.844 127.544 12.27 127.689 11.766 127.978C11.262 128.267 10.8653 128.683 10.576 129.224C10.296 129.765 10.156 130.395 10.156 131.114C10.156 131.833 10.296 132.467 10.576 133.018C10.8653 133.559 11.262 133.979 11.766 134.278C12.27 134.567 12.844 134.712 13.488 134.712ZM21.6245 129.406C21.8578 129.014 22.1658 128.711 22.5485 128.496C22.9405 128.272 23.4025 128.16 23.9345 128.16V129.812H23.5285C22.9032 129.812 22.4272 129.971 22.1005 130.288C21.7832 130.605 21.6245 131.156 21.6245 131.94V136H20.0285V128.286H21.6245V129.406ZM28.5096 128.16C29.1069 128.16 29.6342 128.281 30.0916 128.524C30.5582 128.757 30.9222 129.051 31.1836 129.406V128.286H32.7936V136.126C32.7936 136.835 32.6442 137.465 32.3456 138.016C32.0469 138.576 31.6129 139.015 31.0436 139.332C30.4836 139.649 29.8116 139.808 29.0276 139.808C27.9822 139.808 27.1142 139.561 26.4236 139.066C25.7329 138.581 25.3409 137.918 25.2476 137.078H26.8296C26.9509 137.479 27.2076 137.801 27.5996 138.044C28.0009 138.296 28.4769 138.422 29.0276 138.422C29.6716 138.422 30.1896 138.226 30.5816 137.834C30.9829 137.442 31.1836 136.873 31.1836 136.126V134.838C30.9129 135.202 30.5442 135.51 30.0776 135.762C29.6202 136.005 29.0976 136.126 28.5096 136.126C27.8376 136.126 27.2216 135.958 26.6616 135.622C26.1109 135.277 25.6722 134.801 25.3456 134.194C25.0282 133.578 24.8696 132.883 24.8696 132.108C24.8696 131.333 25.0282 130.647 25.3456 130.05C25.6722 129.453 26.1109 128.991 26.6616 128.664C27.2216 128.328 27.8376 128.16 28.5096 128.16ZM31.1836 132.136C31.1836 131.604 31.0716 131.142 30.8476 130.75C30.6329 130.358 30.3482 130.059 29.9936 129.854C29.6389 129.649 29.2562 129.546 28.8456 129.546C28.4349 129.546 28.0522 129.649 27.6976 129.854C27.3429 130.05 27.0536 130.344 26.8296 130.736C26.6149 131.119 26.5076 131.576 26.5076 132.108C26.5076 132.64 26.6149 133.107 26.8296 133.508C27.0536 133.909 27.3429 134.217 27.6976 134.432C28.0616 134.637 28.4442 134.74 28.8456 134.74C29.2562 134.74 29.6389 134.637 29.9936 134.432C30.3482 134.227 30.6329 133.928 30.8476 133.536C31.0716 133.135 31.1836 132.668 31.1836 132.136ZM34.3578 132.108C34.3578 131.333 34.5165 130.647 34.8338 130.05C35.1605 129.453 35.5992 128.991 36.1498 128.664C36.7098 128.328 37.3258 128.16 37.9978 128.16C38.6045 128.16 39.1318 128.281 39.5798 128.524C40.0372 128.757 40.4012 129.051 40.6718 129.406V128.286H42.2818V136H40.6718V134.852C40.4012 135.216 40.0325 135.519 39.5658 135.762C39.0992 136.005 38.5672 136.126 37.9698 136.126C37.3072 136.126 36.7005 135.958 36.1498 135.622C35.5992 135.277 35.1605 134.801 34.8338 134.194C34.5165 133.578 34.3578 132.883 34.3578 132.108ZM40.6718 132.136C40.6718 131.604 40.5598 131.142 40.3358 130.75C40.1212 130.358 39.8365 130.059 39.4818 129.854C39.1272 129.649 38.7445 129.546 38.3338 129.546C37.9232 129.546 37.5405 129.649 37.1858 129.854C36.8312 130.05 36.5418 130.344 36.3178 130.736C36.1032 131.119 35.9958 131.576 35.9958 132.108C35.9958 132.64 36.1032 133.107 36.3178 133.508C36.5418 133.909 36.8312 134.217 37.1858 134.432C37.5498 134.637 37.9325 134.74 38.3338 134.74C38.7445 134.74 39.1272 134.637 39.4818 134.432C39.8365 134.227 40.1212 133.928 40.3358 133.536C40.5598 133.135 40.6718 132.668 40.6718 132.136ZM48.2701 128.16C48.8768 128.16 49.4181 128.286 49.8941 128.538C50.3795 128.79 50.7575 129.163 51.0281 129.658C51.2988 130.153 51.4341 130.75 51.4341 131.45V136H49.8521V131.688C49.8521 130.997 49.6795 130.47 49.3341 130.106C48.9888 129.733 48.5175 129.546 47.9201 129.546C47.3228 129.546 46.8468 129.733 46.4921 130.106C46.1468 130.47 45.9741 130.997 45.9741 131.688V136H44.3781V128.286H45.9741V129.168C46.2355 128.851 46.5668 128.603 46.9681 128.426C47.3788 128.249 47.8128 128.16 48.2701 128.16ZM54.2819 127.264C53.9926 127.264 53.7499 127.166 53.5539 126.97C53.3579 126.774 53.2599 126.531 53.2599 126.242C53.2599 125.953 53.3579 125.71 53.5539 125.514C53.7499 125.318 53.9926 125.22 54.2819 125.22C54.5619 125.22 54.7999 125.318 54.9959 125.514C55.1919 125.71 55.2899 125.953 55.2899 126.242C55.2899 126.531 55.1919 126.774 54.9959 126.97C54.7999 127.166 54.5619 127.264 54.2819 127.264ZM55.0659 128.286V136H53.4699V128.286H55.0659ZM56.6293 132.136C56.6293 131.343 56.788 130.647 57.1053 130.05C57.432 129.443 57.88 128.977 58.4493 128.65C59.0187 128.323 59.672 128.16 60.4093 128.16C61.3427 128.16 62.1127 128.384 62.7193 128.832C63.3353 129.271 63.7507 129.901 63.9653 130.722H62.2433C62.1033 130.339 61.8793 130.041 61.5713 129.826C61.2633 129.611 60.876 129.504 60.4093 129.504C59.756 129.504 59.2333 129.737 58.8413 130.204C58.4587 130.661 58.2673 131.305 58.2673 132.136C58.2673 132.967 58.4587 133.615 58.8413 134.082C59.2333 134.549 59.756 134.782 60.4093 134.782C61.3333 134.782 61.9447 134.376 62.2433 133.564H63.9653C63.7413 134.348 63.3213 134.973 62.7053 135.44C62.0893 135.897 61.324 136.126 60.4093 136.126C59.672 136.126 59.0187 135.963 58.4493 135.636C57.88 135.3 57.432 134.833 57.1053 134.236C56.788 133.629 56.6293 132.929 56.6293 132.136ZM74.9186 126.27V127.572H70.7886V130.442H74.0086V131.744H70.7886V136H69.1926V126.27H74.9186ZM79.7437 136.126C79.0157 136.126 78.3577 135.963 77.7697 135.636C77.1817 135.3 76.7197 134.833 76.3837 134.236C76.0477 133.629 75.8797 132.929 75.8797 132.136C75.8797 131.352 76.0523 130.657 76.3977 130.05C76.743 129.443 77.2143 128.977 77.8117 128.65C78.409 128.323 79.0763 128.16 79.8137 128.16C80.551 128.16 81.2183 128.323 81.8157 128.65C82.413 128.977 82.8843 129.443 83.2297 130.05C83.575 130.657 83.7477 131.352 83.7477 132.136C83.7477 132.92 83.5703 133.615 83.2157 134.222C82.861 134.829 82.3757 135.3 81.7597 135.636C81.153 135.963 80.481 136.126 79.7437 136.126ZM79.7437 134.74C80.1543 134.74 80.537 134.642 80.8917 134.446C81.2557 134.25 81.5497 133.956 81.7737 133.564C81.9977 133.172 82.1097 132.696 82.1097 132.136C82.1097 131.576 82.0023 131.105 81.7877 130.722C81.573 130.33 81.2883 130.036 80.9337 129.84C80.579 129.644 80.1963 129.546 79.7857 129.546C79.375 129.546 78.9923 129.644 78.6377 129.84C78.2923 130.036 78.017 130.33 77.8117 130.722C77.6063 131.105 77.5037 131.576 77.5037 132.136C77.5037 132.967 77.7137 133.611 78.1337 134.068C78.563 134.516 79.0997 134.74 79.7437 134.74ZM88.6714 136.126C87.9434 136.126 87.2854 135.963 86.6974 135.636C86.1094 135.3 85.6474 134.833 85.3114 134.236C84.9754 133.629 84.8074 132.929 84.8074 132.136C84.8074 131.352 84.9801 130.657 85.3254 130.05C85.6707 129.443 86.1421 128.977 86.7394 128.65C87.3367 128.323 88.0041 128.16 88.7414 128.16C89.4787 128.16 90.1461 128.323 90.7434 128.65C91.3407 128.977 91.8121 129.443 92.1574 130.05C92.5027 130.657 92.6754 131.352 92.6754 132.136C92.6754 132.92 92.4981 133.615 92.1434 134.222C91.7887 134.829 91.3034 135.3 90.6874 135.636C90.0807 135.963 89.4087 136.126 88.6714 136.126ZM88.6714 134.74C89.0821 134.74 89.4647 134.642 89.8194 134.446C90.1834 134.25 90.4774 133.956 90.7014 133.564C90.9254 133.172 91.0374 132.696 91.0374 132.136C91.0374 131.576 90.9301 131.105 90.7154 130.722C90.5007 130.33 90.2161 130.036 89.8614 129.84C89.5067 129.644 89.1241 129.546 88.7134 129.546C88.3027 129.546 87.9201 129.644 87.5654 129.84C87.2201 130.036 86.9447 130.33 86.7394 130.722C86.5341 131.105 86.4314 131.576 86.4314 132.136C86.4314 132.967 86.6414 133.611 87.0614 134.068C87.4907 134.516 88.0274 134.74 88.6714 134.74ZM93.7211 132.108C93.7211 131.333 93.8798 130.647 94.1971 130.05C94.5238 129.453 94.9625 128.991 95.5131 128.664C96.0731 128.328 96.6938 128.16 97.3751 128.16C97.8791 128.16 98.3738 128.272 98.8591 128.496C99.3538 128.711 99.7458 129 100.035 129.364V125.64H101.645V136H100.035V134.838C99.7738 135.211 99.4098 135.519 98.9431 135.762C98.4858 136.005 97.9585 136.126 97.3611 136.126C96.6891 136.126 96.0731 135.958 95.5131 135.622C94.9625 135.277 94.5238 134.801 94.1971 134.194C93.8798 133.578 93.7211 132.883 93.7211 132.108ZM100.035 132.136C100.035 131.604 99.9231 131.142 99.6991 130.75C99.4845 130.358 99.1998 130.059 98.8451 129.854C98.4905 129.649 98.1078 129.546 97.6971 129.546C97.2865 129.546 96.9038 129.649 96.5491 129.854C96.1945 130.05 95.9051 130.344 95.6811 130.736C95.4665 131.119 95.3591 131.576 95.3591 132.108C95.3591 132.64 95.4665 133.107 95.6811 133.508C95.9051 133.909 96.1945 134.217 96.5491 134.432C96.9131 134.637 97.2958 134.74 97.6971 134.74C98.1078 134.74 98.4905 134.637 98.8451 134.432C99.1998 134.227 99.4845 133.928 99.6991 133.536C99.9231 133.135 100.035 132.668 100.035 132.136Z" fill="#2F294D"/>
<path d="M105.814 61.25L85.8198 95.8814C83.5868 99.7489 79.4603 102.131 74.9944 102.131L35.0055 102.131C30.5397 102.131 26.4131 99.7489 24.1802 95.8814L4.18579 61.25C1.95288 57.3825 1.95288 52.6175 4.18579 48.75L24.1802 14.1186C26.4131 10.2511 30.5397 7.8686 35.0056 7.8686L74.9944 7.8686C79.4603 7.8686 83.5869 10.2511 85.8198 14.1186L105.814 48.75C108.047 52.6175 108.047 57.3825 105.814 61.25Z" fill="#FFAD5A" fill-opacity="0.15" stroke="#FFAD5A"/>
<path d="M54.146 80.1861C53.9599 80.1595 53.7272 80.1396 53.4946 80.113C53.0028 80.0598 52.4977 80.0133 52.0125 79.9202L51.1285 79.7541C49.5334 79.4616 47.8852 79.1559 46.29 78.7771C41.8104 77.7203 36.9852 77.2152 31.1033 77.1886H30V63.0786H33.0307C34.0875 63.0786 35.1509 63.0786 36.2076 63.0653C36.6396 63.0653 37.0318 62.8792 37.2245 62.7728C37.6366 62.5469 38.042 62.3076 38.4541 62.0683C39.0456 61.7161 39.6571 61.3572 40.2818 61.0514C41.199 60.5928 42.1428 60.3602 43.0865 60.3602C44.0303 60.3602 45.0472 60.6061 46.0375 61.0847C46.3632 61.2442 46.6822 61.4103 47.0211 61.5831L47.8253 61.9952L48.038 61.7493C50.2911 59.1373 53.0693 57.6419 56.532 57.1634L56.9175 57.1102L56.8842 56.7247C56.5519 52.5508 55.0432 48.7957 52.4046 45.5722L52.1787 45.2997L51.8729 45.4792C50.8826 46.0641 49.9322 46.4097 48.9486 46.536C48.5963 46.5825 48.2441 46.6024 47.9117 46.6024C46.1239 46.6024 44.5554 45.971 43.246 44.7282C40.5011 42.1228 38.9525 38.9326 38.6468 35.2439C38.5471 33.9878 38.5671 32.7383 38.6003 31.4223C38.6069 30.9571 38.6202 30.4918 38.6202 30.0266C39.0257 30.0266 39.4311 30.0266 39.8365 30.0133C40.2818 30.0133 40.7271 30 41.1724 30C42.927 30 44.8079 30.0798 46.6224 30.6713C49.1679 31.4954 51.3612 32.8513 53.149 34.6923C55.4087 37.0251 55.7078 40.6407 53.8867 43.4853L53.7206 43.7445L53.92 43.9771C55.4885 45.8248 56.7048 47.8652 57.6353 50.2114L57.9875 51.102L58.486 50.0319C58.5458 49.9056 58.5923 49.8126 58.6322 49.7129C59.4896 47.6791 60.5862 45.858 61.8889 44.3095C62.2145 43.924 62.2411 43.5784 61.9886 43.153C60.3004 40.3283 60.7789 36.746 63.1517 34.453C66.209 31.5286 69.8844 30.0266 74.0715 30.0266H77.5342V30.9305C77.5342 31.861 77.5342 32.7715 77.5342 33.6887C77.5475 35.6028 77.182 37.5103 76.4575 39.3513C75.66 41.3851 74.4703 43.1796 72.9217 44.6684C71.6124 45.9311 69.8844 46.629 68.0566 46.629C66.8603 46.629 65.6706 46.3233 64.6271 45.7384L63.9957 45.3795L63.7764 45.5722C61.5632 47.4864 58.9379 53.9931 59.2503 56.8045L59.2835 57.1168L59.5959 57.17C64.8066 58.0141 68.3424 60.7856 70.4094 65.6307L70.5623 65.9963L70.9345 65.8501C71.8118 65.5111 72.6625 65.3449 73.5332 65.3449C73.7259 65.3449 73.912 65.3516 74.1047 65.3715C76.2581 65.551 77.9396 66.5014 79.249 68.276C79.4683 68.575 79.6876 68.8808 79.9003 69.1798L80 69.3194L79.9535 69.3526C79.6876 69.5387 79.4284 69.7182 79.1559 69.8976C78.1723 70.5556 77.1886 71.2136 76.2116 71.8782C73.9054 73.4335 71.526 75.0352 69.1466 76.5572C66.4815 78.2653 63.6236 79.362 60.6593 79.8338C60.0678 79.9269 59.4763 80.0066 58.8848 80.0864L58.0938 80.1927H54.1393L54.146 80.1861ZM32.1335 74.9688L33.9878 75.0618C35.0844 75.115 36.1611 75.1748 37.2378 75.2346C39.7501 75.3742 42.3023 75.7198 45.0472 76.2847C45.8049 76.4376 46.5559 76.6104 47.3069 76.7765C49.673 77.3083 52.1188 77.8599 54.6311 77.9729C55.1296 77.9928 55.6214 78.0061 56.1199 78.0061C59.7022 78.0061 62.7795 77.3614 65.5244 76.0388C67.9636 74.8624 70.2167 73.3338 72.3966 71.8517L73.0214 71.4263C73.799 70.8946 74.5833 70.3629 75.3742 69.8245L76.8895 68.7877L76.4176 68.4421C75.6733 67.9038 74.8691 67.598 73.9585 67.5249C73.8322 67.5116 73.7126 67.5116 73.5863 67.5116C72.3169 67.5116 71.2867 68.0699 70.4493 68.6149C66.2488 71.3532 61.8423 72.7356 57.3561 72.7356C55.7411 72.7356 54.0861 72.5562 52.4246 72.2039C51.5805 72.0245 50.763 71.7918 49.8923 71.5459C49.6331 71.4728 49.3673 71.3997 49.1081 71.3266L49.8059 69.2264C51.8796 69.9043 53.8003 70.3164 55.6746 70.4759C56.2395 70.5224 56.8045 70.549 57.3628 70.549C58.9379 70.549 60.5197 70.3496 62.055 69.9641L62.4605 69.8644L62.3541 69.459L62.3342 69.3726C62.3209 69.3061 62.3009 69.233 62.2544 69.1533C62.188 69.0403 62.1215 68.9273 62.0417 68.8276C61.0581 67.4718 59.7089 66.7672 58.0207 66.7407C57.1634 66.7274 56.2993 66.7207 55.442 66.7207C54.6378 66.7207 53.8336 66.7274 53.0294 66.7407H52.8965C51.6071 66.7407 50.3974 66.3552 49.2078 65.5709C47.925 64.7202 46.6157 63.9293 45.4792 63.2514C44.7082 62.7928 43.9107 62.5535 43.1198 62.5535C42.3289 62.5535 41.6044 62.7662 40.8667 63.1915C40.2685 63.5372 39.677 63.8961 39.0855 64.255C38.6269 64.5341 38.1749 64.8132 37.7097 65.0857C37.5568 65.1721 37.3774 65.232 37.2312 65.232C36.5466 65.2386 35.8554 65.2452 35.1708 65.2452H32.1335V74.9621V74.9688ZM56.1598 64.574C56.8045 64.574 57.4492 64.574 58.0938 64.5806C60.2938 64.6006 62.1215 65.4845 63.5239 67.1993C63.7897 67.5183 64.0157 67.8838 64.255 68.276C64.3746 68.4687 64.5009 68.6681 64.6338 68.8675L64.8332 69.1732L68.5551 67.3122L68.482 66.9932C67.6047 63.258 63.8828 60.0611 59.6291 59.3965C59.1174 59.3168 58.5923 59.2769 58.0606 59.2769C54.9302 59.2769 51.6935 60.7391 50.0186 62.919L49.7727 63.2381L50.0851 63.4906C51.082 64.3015 51.833 64.5806 53.0693 64.5806H56.1531L56.1598 64.574ZM65.4646 43.6913L65.983 43.9439C66.641 44.2629 67.3388 44.4291 68.0633 44.4291C69.3726 44.4291 70.6221 43.8974 71.5792 42.927C73.1144 41.3718 74.1978 39.5108 74.8159 37.4106C75.2612 35.8953 75.4406 34.2869 75.3476 32.6319L75.3343 32.3528L75.0685 32.2597C74.9821 32.2265 74.9089 32.1999 74.8225 32.1933C74.6431 32.1933 74.4636 32.1866 74.2842 32.1866C70.5689 32.1866 67.3588 33.4561 64.7468 35.9617C63.896 36.7792 63.3843 37.7429 63.2248 38.8263C63.0719 39.8963 63.2248 40.8202 63.71 41.724L63.9758 42.2159L69.0735 37.0916L70.5822 38.5936L65.4646 43.698V43.6913ZM40.7072 32.5987C40.5742 36.7526 41.7905 40.109 44.4291 42.8672C45.3729 43.8509 46.516 44.3826 47.832 44.4357C47.9117 44.4357 47.9981 44.4357 48.0779 44.4357C48.8622 44.4357 49.5401 44.2563 50.2047 43.8774L50.6699 43.6116L45.559 38.5272L47.0411 37.0251L52.1188 42.1295L52.3847 41.6443C53.3351 39.8963 52.9297 37.5502 51.421 36.0681C48.9353 33.6289 45.8913 32.3328 42.3621 32.2066C42.2092 32.2066 42.0564 32.1999 41.9035 32.1999H40.7271L40.7138 32.6053L40.7072 32.5987Z" fill="#FFAD5A"/>
</svg>
