<svg width="151" height="36" viewBox="0 0 151 36" fill="none" xmlns="http://www.w3.org/2000/svg">
<g clip-path="url(#clip0_1224_700)">
<path d="M8.65873 0.657623H0V35.9004H3.42762V22.9571H8.6687C15.6634 22.9571 20.496 19.2804 20.496 11.1298C20.496 4.48381 15.6634 0.657623 8.65873 0.657623ZM8.65873 22.2098H3.42762V1.41489H8.6687C13.85 1.41489 17.0783 4.23471 17.0783 11.2294C17.0783 18.2242 13.8101 22.2098 8.6687 22.2098H8.65873Z" fill="#CE0E2D"/>
<path d="M26.026 8.75838V9.51564C35.4918 9.51564 36.8469 13.8998 36.8469 20.2867V21.0938C35.2826 18.6726 31.6657 16.9687 28.6366 16.9687C23.5051 16.9687 20.6853 21.8511 20.6853 26.4844C20.6853 31.1176 23.5051 36 28.6366 36C31.6557 36 35.2826 34.2862 36.8469 31.8749V32.2735C37.1957 33.788 38.5109 35.1431 39.7664 35.9004H40.2746V20.2967C40.2746 12.8934 36.6477 8.76834 26.026 8.76834V8.75838ZM36.8469 29.3042C36.8469 32.2236 32.9709 34.5353 29.9518 34.5353C26.2253 34.5353 24.4118 31.008 24.4118 26.4844C24.4118 21.9607 26.2253 18.4334 29.9518 18.4334C32.9709 18.4334 36.8469 20.7451 36.8469 23.6745V29.3141V29.3042Z" fill="#CE0E2D"/>
<path d="M48.5147 27.3413V10.4821H52.6897V8.6388H48.5147V2.81981C47.4585 2.21201 46.8009 2.01273 45.5953 2.01273H45.0971V8.6388H43.2139V10.4821H45.0971V24.6211C45.0971 32.0243 45.0971 35.9004 53.4071 35.9004V35.1431C48.8236 35.1431 48.5247 32.124 48.5247 27.3413H48.5147Z" fill="#CE0E2D"/>
<path d="M59.6346 27.3413V10.4821H63.8095V8.6388H59.6346V2.81981C58.5784 2.21201 57.9208 2.01273 56.7151 2.01273H56.2169V8.6388H54.3337V10.4821H56.2169V24.6211C56.2169 32.0243 56.2169 35.9004 64.5269 35.9004V35.1431C59.9435 35.1431 59.6446 32.124 59.6446 27.3413H59.6346Z" fill="#CE0E2D"/>
<path d="M69.2697 0C68.2634 0 67.4563 1.20565 67.4563 2.47108C67.4563 4.13507 68.921 5.34071 69.2697 5.34071C69.6683 5.34071 71.133 4.13507 71.133 2.47108C71.133 1.21561 70.2761 0 69.2697 0V0Z" fill="#CE0E2D"/>
<path d="M67.5562 35.9003H70.9838V8.70854C69.6287 7.95128 69.0707 7.90146 67.5562 7.90146V35.9003Z" fill="#CE0E2D"/>
<path d="M79.7719 8.75838V9.51564C89.2377 9.51564 90.5928 13.8998 90.5928 20.2867V21.0938C89.0284 18.6726 85.4115 16.9687 82.3824 16.9687C77.251 16.9687 74.4312 21.8511 74.4312 26.4844C74.4312 31.1176 77.251 36 82.3824 36C85.4015 36 89.0284 34.2862 90.5928 31.8749V32.2735C90.9415 33.788 92.2568 35.1431 93.5122 35.9004H94.0204V20.2967C94.0204 12.8934 90.3935 8.76834 79.7719 8.76834V8.75838ZM90.5928 29.3042C90.5928 32.2236 86.7168 34.5353 83.6977 34.5353C79.9711 34.5353 78.1577 31.008 78.1577 26.4844C78.1577 21.9607 79.9711 18.4334 83.6977 18.4334C86.7168 18.4334 90.5928 20.7451 90.5928 23.6745V29.3141V29.3042Z" fill="#CE0E2D"/>
<path d="M120.445 8.45944C117.017 8.45944 115.104 10.1234 114.297 12.4849C113.54 10.1234 111.627 8.45944 108.209 8.45944C105.24 8.45944 103.426 9.66509 102.47 11.4785V8.70854C101.463 8.15056 100.656 7.90146 99.6002 7.90146H99.0422V35.9003H102.47V15.1553C102.47 12.2856 103.775 10.0238 107.153 10.0238C110.531 10.0238 110.979 12.2856 110.979 15.1553V35.9003H114.755V15.1553C114.755 12.2856 116.011 10.0238 119.389 10.0238C122.767 10.0238 123.215 12.2856 123.215 15.1553V35.9003H126.991V15.1553C126.991 11.4785 125.078 8.45944 120.445 8.45944Z" fill="#CE0E2D"/>
<path d="M131.276 0.398559C130.419 0.348738 129.712 1.00636 129.612 1.86327C129.562 2.67035 130.11 3.42762 130.967 3.57708C131.017 3.72654 131.067 3.876 131.067 4.02546C131.067 4.53363 130.768 5.08165 130.06 5.63963L130.26 5.93855C131.824 5.28093 132.83 3.72654 132.781 2.26183C132.781 1.15582 132.123 0.448379 131.266 0.398559H131.276Z" fill="#CE0E2D"/>
<path d="M137.802 13.6906C137.802 11.07 138.659 8.75836 141.928 8.75836C145.405 8.75836 147.059 9.76473 148.474 12.8835L149.231 12.6344C147.667 9.20675 145.853 8.0011 142.286 8.0011C137.553 8.0011 134.235 10.0637 134.235 13.84C134.235 24.4617 147.527 20.1373 147.527 28.7462C147.527 31.6656 146.013 35.1431 141.738 35.1431C136.607 35.1431 135.59 31.9745 134.993 29.8024L134.285 30.0515C135.491 34.1766 137.005 35.8904 141.28 35.8904C148.783 35.8904 150.696 30.5995 150.696 27.8893C150.696 17.0185 137.802 20.7949 137.802 13.6906Z" fill="#CE0E2D"/>
</g>
<defs>
<clipPath id="clip0_1224_700">
<rect width="150.696" height="36" fill="white"/>
</clipPath>
</defs>
</svg>
