<svg width="158" height="65" viewBox="0 0 158 65" fill="none" xmlns="http://www.w3.org/2000/svg">
<path d="M33.376 51.233C33.5144 50.6239 33.5144 50.1809 33.4175 49.8902C33.3068 49.5995 33.0022 49.4473 32.4901 49.4473H32.1855L32.2686 49.032H37.0306C40.3806 49.032 41.8341 50.0702 41.3911 52.1467C41.2665 52.7004 40.962 53.2126 40.4636 53.6694C39.9653 54.1262 39.287 54.4861 38.4287 54.7353C39.5085 54.8876 40.2144 55.206 40.5605 55.6905C40.9066 56.175 40.9897 56.7979 40.8235 57.5731C40.5605 58.7913 39.8961 59.6219 38.8163 60.0925C37.7366 60.5632 36.4768 60.7985 35.0233 60.7985H31.2996L33.376 51.2192V51.233ZM37.5151 59.525C38.1934 59.0958 38.6087 58.4729 38.7886 57.67C38.9686 56.8671 38.8163 56.2442 38.3318 55.8289C37.8611 55.3998 37.0582 55.1921 35.9646 55.1921H34.345L33.3206 59.9403C33.8744 60.0925 34.3865 60.1756 34.8849 60.1756C35.9646 60.1756 36.8368 59.9679 37.5151 59.5388V59.525ZM36.1308 54.4446C36.9198 54.4446 37.6258 54.2369 38.2626 53.8355C38.8994 53.4341 39.3008 52.8388 39.4669 52.0774C39.633 51.2745 39.4531 50.6793 38.8994 50.2917C38.3456 49.8903 37.6673 49.6964 36.8368 49.6964C36.4215 49.6964 35.9785 49.7518 35.5078 49.8764L34.5111 54.4584H36.1308V54.4446Z" fill="#8681D3"/>
<path d="M43.5506 60.4108C43.0522 60.0232 42.72 59.4972 42.5539 58.8466C42.3878 58.1821 42.4016 57.4484 42.5816 56.6317C42.7615 55.7873 43.0799 55.0398 43.5368 54.3753C43.9936 53.7108 44.5334 53.1987 45.1841 52.8249C45.8347 52.4511 46.513 52.2573 47.2605 52.2573C48.4649 52.2573 49.3093 52.5896 49.8076 53.254C50.306 53.9185 50.4167 54.8598 50.1537 56.0918L49.9322 56.9086H44.4227C44.2012 57.9468 44.2289 58.7635 44.5196 59.3588C44.8103 59.954 45.3087 60.2586 46.0423 60.2586C46.6099 60.2586 47.1221 60.134 47.5789 59.8987C48.0357 59.6495 48.4787 59.2895 48.9217 58.8189L49.2539 59.1234C48.7417 59.7464 48.188 60.217 47.5789 60.5216C46.9698 60.84 46.2915 60.9922 45.544 60.9922C44.7273 60.9922 44.0628 60.7984 43.5506 60.4108ZM48.2295 56.161C48.6863 54.0431 48.3126 52.991 47.1082 52.991C46.5822 52.991 46.0977 53.2817 45.627 53.8493C45.1564 54.4307 44.8242 55.192 44.6027 56.161H48.2295Z" fill="#8681D3"/>
<path d="M51.4129 60.3832C50.9561 59.9679 50.8038 59.3588 50.9976 58.5144C51.1914 57.6284 51.7451 56.9778 52.6588 56.5763C53.5724 56.1749 54.7629 55.9811 56.258 55.9811H56.7286C56.9778 54.846 56.9916 54.0708 56.7701 53.6416C56.5487 53.2125 56.1334 52.991 55.5243 52.991C54.9982 52.991 54.5553 53.1017 54.1815 53.3371C53.8077 53.5724 53.5032 53.9738 53.2402 54.5414H52.3681C52.4511 54.14 52.548 53.8077 52.6588 53.5586C52.7557 53.3094 52.9356 53.0879 53.1848 52.8803C53.4478 52.6726 53.8354 52.5065 54.3476 52.4096C54.8598 52.3127 55.4274 52.2573 56.0365 52.2573C57.0747 52.2573 57.8361 52.5342 58.3067 53.0741C58.7774 53.6139 58.8604 54.5968 58.5559 55.9949L57.5177 60.8123H56.4518L55.9949 60.0094H55.898C55.6212 60.2862 55.2613 60.5216 54.8044 60.7015C54.3476 60.8953 53.8216 60.9922 53.2402 60.9922C52.5065 60.9922 51.8974 60.7846 51.4406 60.3832H51.4129ZM56.0503 59.0681L56.5625 56.7148H56.0918C55.192 56.7148 54.4722 56.867 53.9323 57.1854C53.3786 57.5038 53.0464 57.9468 52.9218 58.5144C52.811 59.0542 52.8664 59.4557 53.1018 59.7464C53.3371 60.0371 53.6832 60.1755 54.14 60.1755C54.846 60.1755 55.4827 59.8018 56.0503 59.0681Z" fill="#8681D3"/>
<path d="M60.5773 57.7667L61.2556 54.6244C61.394 54.0153 61.394 53.5723 61.2971 53.2816C61.1864 52.9909 60.8818 52.8386 60.3697 52.8386H60.1897L60.2728 52.4233H61.9201C62.363 52.4233 62.6814 52.4787 62.8752 52.6033C63.0829 52.714 63.1936 52.9355 63.2213 53.2401C63.249 53.5446 63.2075 54.0014 63.069 54.6105L62.3907 57.7529C62.2108 58.5973 62.2523 59.2064 62.5015 59.594C62.7645 59.9816 63.1659 60.1754 63.7335 60.1754C64.3703 60.1754 65.0347 59.8432 65.7269 59.1787L67.1943 52.4233H69.0077L67.1943 60.7984H66.1283L65.6577 60.0647H65.5608C65.2424 60.3277 64.8548 60.5492 64.4257 60.7153C63.9965 60.8814 63.5259 60.9783 63.0275 60.9783C60.9234 60.9783 60.1066 59.8986 60.5635 57.7529L60.5773 57.7667Z" fill="#8681D3"/>
<path d="M70.7242 60.397C70.4058 59.9955 70.3227 59.4003 70.5027 58.5974L71.6793 53.1571H70.4611L70.6134 52.4234H71.8316L72.1777 50.8176L73.3128 49.7517H74.2403L73.6589 52.4234H75.7907L75.6384 53.1571H73.5066L72.3161 58.6112C72.1915 59.1649 72.2054 59.5802 72.3438 59.8571C72.4822 60.1201 72.7452 60.2585 73.1467 60.2585C73.4374 60.2585 73.7004 60.217 73.908 60.1478C74.1295 60.0786 74.3649 59.9817 74.6002 59.8571L74.7109 60.2447C74.0049 60.7292 73.1882 60.9784 72.2607 60.9784C71.5409 60.9784 71.0287 60.7846 70.6965 60.3831L70.7242 60.397Z" fill="#8681D3"/>
<path d="M76.4 63.8301C77.0091 63.8301 77.5352 63.7055 77.9782 63.4425C78.435 63.1794 78.8641 62.6949 79.2794 62.0028L79.8608 61.0199L78.3796 54.0431C78.2135 53.1848 77.6736 52.7141 76.76 52.6172L76.843 52.2573H78.4073C78.9472 52.2573 79.3624 52.3819 79.6947 52.6311C80.0131 52.8803 80.2346 53.2263 80.3315 53.6832L81.3558 58.5005L84.9412 52.4373H85.8687L80.2207 61.9751C79.667 62.9026 79.141 63.5394 78.6426 63.8716C78.1443 64.2177 77.549 64.3838 76.8707 64.3838H76.2893L76.4139 63.8301H76.4Z" fill="#8681D3"/>
<path d="M92.6098 60.3693C91.8623 59.8294 91.3501 59.1096 91.0871 58.1821C90.8241 57.2546 90.8102 56.2302 91.0594 55.1089C91.3086 53.9323 91.8069 52.8525 92.5268 51.8697C93.2466 50.8868 94.1049 50.1116 95.1154 49.544C96.1121 48.9765 97.1365 48.6858 98.1747 48.6858C99.2129 48.6858 100.002 48.8242 100.68 49.0872C101.359 49.3502 101.829 49.6963 102.078 50.1116C102.231 50.3608 102.286 50.693 102.245 51.0945C102.203 51.4959 102.106 52.0635 101.94 52.811H101.539C101.58 50.5546 100.583 49.4195 98.5485 49.4195C97.2611 49.4195 96.1398 49.8624 95.1708 50.7622C94.2018 51.6482 93.4958 53.1017 93.0666 55.1089C92.859 56.0503 92.8175 56.9224 92.942 57.7253C93.0666 58.5282 93.385 59.1926 93.9249 59.691C94.4648 60.1893 95.1985 60.4385 96.1675 60.4385C97.8702 60.4385 99.4206 59.5941 100.805 57.9191L101.179 58.2374C100.376 59.2895 99.5313 60.037 98.6177 60.48C97.704 60.9368 96.652 61.1583 95.4892 61.1583C94.3264 61.1583 93.385 60.8953 92.6375 60.3554L92.6098 60.3693Z" fill="#8681D3"/>
<path d="M102.937 60.3832C102.48 59.9679 102.328 59.3588 102.522 58.5144C102.716 57.6284 103.269 56.9778 104.183 56.5763C105.097 56.1749 106.287 55.9811 107.782 55.9811H108.253C108.502 54.846 108.516 54.0708 108.294 53.6416C108.073 53.2125 107.658 52.991 107.048 52.991C106.522 52.991 106.079 53.1017 105.706 53.3371C105.332 53.5724 105.027 53.9738 104.764 54.5414H103.892C103.975 54.14 104.072 53.8077 104.183 53.5586C104.28 53.3094 104.46 53.0879 104.709 52.8803C104.972 52.6726 105.36 52.5065 105.872 52.4096C106.384 52.3127 106.952 52.2573 107.561 52.2573C108.599 52.2573 109.36 52.5342 109.831 53.0741C110.302 53.6139 110.385 54.5968 110.08 55.9949L109.042 60.8123H107.976L107.519 60.0094H107.422C107.145 60.2862 106.785 60.5216 106.329 60.7015C105.872 60.8953 105.346 60.9922 104.764 60.9922C104.031 60.9922 103.422 60.7846 102.965 60.3832H102.937ZM107.574 59.0681L108.087 56.7148H107.616C106.716 56.7148 105.996 56.867 105.457 57.1854C104.903 57.5038 104.571 57.9468 104.446 58.5144C104.335 59.0542 104.391 59.4557 104.626 59.7464C104.861 60.0371 105.207 60.1755 105.664 60.1755C106.37 60.1755 107.007 59.8018 107.574 59.0681Z" fill="#8681D3"/>
<path d="M112.904 54.6246C113.042 54.0155 113.042 53.5725 112.945 53.2818C112.834 52.9911 112.53 52.8388 112.018 52.8388H111.838L111.921 52.4235H113.471C113.914 52.4235 114.246 52.4789 114.454 52.6035C114.662 52.7142 114.8 52.9219 114.842 53.1849C115.146 52.9357 115.52 52.7143 115.949 52.5204C116.392 52.3266 116.835 52.2297 117.306 52.2297C117.776 52.2297 118.15 52.3266 118.385 52.5204C118.496 52.6312 118.579 52.7419 118.648 52.8527C118.718 52.9773 118.773 53.1295 118.842 53.3095L117.929 53.9047C117.832 53.7248 117.679 53.5864 117.444 53.4756C117.209 53.3649 116.96 53.3095 116.655 53.3095C116.295 53.3095 115.949 53.3787 115.617 53.5171C115.285 53.6556 115.008 53.8632 114.772 54.1124C114.759 54.2508 114.717 54.4585 114.662 54.7353L113.347 60.7847H111.533L112.876 54.5969L112.904 54.6246Z" fill="#8681D3"/>
<path d="M119.936 60.4108C119.437 60.0232 119.105 59.4972 118.939 58.8466C118.773 58.1821 118.787 57.4484 118.967 56.6317C119.147 55.7873 119.465 55.0398 119.922 54.3753C120.379 53.7108 120.918 53.1987 121.569 52.8249C122.22 52.4511 122.898 52.2573 123.646 52.2573C124.85 52.2573 125.694 52.5896 126.193 53.254C126.691 53.9185 126.802 54.8598 126.539 56.0918L126.317 56.9086H120.808C120.586 57.9468 120.614 58.7635 120.905 59.3588C121.195 59.954 121.694 60.2586 122.427 60.2586C122.995 60.2586 123.507 60.134 123.964 59.8987C124.421 59.6495 124.864 59.2895 125.307 58.8189L125.639 59.1234C125.127 59.7464 124.573 60.217 123.964 60.5216C123.355 60.84 122.677 60.9922 121.929 60.9922C121.112 60.9922 120.448 60.7984 119.936 60.4108ZM124.615 56.161C125.071 54.0431 124.698 52.991 123.493 52.991C122.967 52.991 122.469 53.2817 122.012 53.8493C121.541 54.4307 121.209 55.192 120.988 56.161H124.615Z" fill="#8681D3"/>
<path d="M9.02587 0.678223H0.000244141V37.3621H3.57174V23.8929H9.02587C16.3211 23.8929 21.36 20.0723 21.36 11.5865C21.36 4.66501 16.3211 0.692079 9.02587 0.692079V0.678223ZM9.02587 23.1039H3.57174V1.46728H9.02587C14.4246 1.46728 17.7885 4.402 17.7885 11.6834C17.7885 18.9648 14.3831 23.1039 9.02587 23.1039Z" fill="#CE0E2D"/>
<path d="M27.1325 9.10864V9.89768C37.0026 9.89768 38.4145 14.452 38.4145 21.1105V21.9549C36.7949 19.4355 33.0158 17.6636 29.8596 17.6636C24.5023 17.6636 21.5676 22.744 21.5676 27.5613C21.5676 32.3787 24.5023 37.4591 29.8596 37.4591C33.0019 37.4591 36.7811 35.6733 38.4145 33.1677V33.583C38.7883 35.1611 40.1449 36.5731 41.46 37.3622H41.986V21.1243C41.986 13.4276 38.2069 9.12248 27.1325 9.12248V9.10864ZM38.4145 30.4822C38.4145 33.5277 34.3724 35.9363 31.23 35.9363C27.3402 35.9363 25.4575 32.268 25.4575 27.5475C25.4575 22.827 27.3402 19.1586 31.23 19.1586C34.3724 19.1586 38.4145 21.5673 38.4145 24.6128V30.4822Z" fill="#CE0E2D"/>
<path d="M50.5687 28.4474V10.9083H54.9154V8.99799H50.5687V2.93476C49.4613 2.31182 48.7829 2.09033 47.5232 2.09033H46.9972V8.98413H45.0315V10.8945H46.9972V25.6096C46.9972 33.3063 46.9972 37.3484 55.6491 37.3484V36.5594C50.8732 36.5594 50.5548 33.417 50.5548 28.4335L50.5687 28.4474Z" fill="#CE0E2D"/>
<path d="M62.1554 28.4474V10.9083H66.5021V8.99799H62.1554V2.93476C61.0479 2.31182 60.3696 2.09033 59.1099 2.09033H58.5839V8.98413H56.6182V10.8945H58.5839V25.6096C58.5839 33.3063 58.5839 37.3484 67.2357 37.3484V36.5594C62.4599 36.5594 62.1415 33.417 62.1415 28.4335L62.1554 28.4474Z" fill="#CE0E2D"/>
<path d="M72.2054 0C71.1533 0 70.3228 1.2597 70.3228 2.56094C70.3228 4.29131 71.8455 5.55103 72.2054 5.55103C72.6207 5.55103 74.1434 4.29131 74.1434 2.56094C74.1434 1.24586 73.2575 0 72.2054 0Z" fill="#CE0E2D"/>
<path d="M70.4197 37.3482H73.9912V9.05316C72.5792 8.26411 71.9978 8.20874 70.4197 8.20874V37.3344V37.3482Z" fill="#CE0E2D"/>
<path d="M83.1415 9.10864V9.89768C93.0116 9.89768 94.4236 14.452 94.4236 21.1105V21.9549C92.8039 19.4355 89.0248 17.6636 85.8686 17.6636C80.5114 17.6636 77.5767 22.744 77.5767 27.5613C77.5767 32.3787 80.5114 37.4591 85.8686 37.4591C89.011 37.4591 92.7901 35.6733 94.4236 33.1677V33.583C94.7973 35.1611 96.154 36.5731 97.469 37.3622H97.9951V21.1243C97.9951 13.4276 94.2159 9.12248 83.1415 9.12248V9.10864ZM94.4236 30.4822C94.4236 33.5277 90.3814 35.9363 87.2391 35.9363C83.3492 35.9363 81.4665 32.268 81.4665 27.5475C81.4665 22.827 83.3492 19.1586 87.2391 19.1586C90.3814 19.1586 94.4236 21.5673 94.4236 24.6128V30.4822Z" fill="#CE0E2D"/>
<path d="M125.542 8.80406C121.971 8.80406 119.977 10.5344 119.133 12.9985C118.344 10.5344 116.35 8.80406 112.779 8.80406C109.678 8.80406 107.795 10.0638 106.799 11.9464V9.06708C105.747 8.48567 104.916 8.22266 103.809 8.22266H103.227V37.3483H106.799V15.7671C106.799 12.777 108.169 10.4237 111.685 10.4237C115.201 10.4237 115.672 12.777 115.672 15.7671V37.3483H119.604V15.7671C119.604 12.777 120.919 10.4237 124.435 10.4237C127.951 10.4237 128.422 12.777 128.422 15.7671V37.3483H132.353V15.7671C132.353 11.9464 130.36 8.80406 125.528 8.80406H125.542Z" fill="#CE0E2D"/>
<path d="M136.824 0.415272C135.938 0.3599 135.205 1.03819 135.094 1.93799C135.039 2.78241 135.62 3.55763 136.506 3.72375C136.561 3.87602 136.617 4.04213 136.617 4.1944C136.617 4.72044 136.298 5.28799 135.565 5.86939L135.772 6.1878C137.406 5.50949 138.444 3.876 138.402 2.36712C138.402 1.21815 137.724 0.484479 136.824 0.429107V0.415272Z" fill="#CE0E2D"/>
<path d="M143.635 14.2444C143.635 11.5173 144.521 9.10864 147.941 9.10864C151.567 9.10864 153.298 10.1607 154.765 13.4L155.554 13.1369C153.921 9.57929 152.038 8.31958 148.314 8.31958C143.386 8.31958 139.912 10.4652 139.912 14.3967C139.912 25.4572 153.768 20.9444 153.768 29.9008C153.768 32.9463 152.19 36.5593 147.733 36.5593C142.376 36.5593 141.324 33.2646 140.701 31.0082L139.967 31.2713C141.227 35.5626 142.805 37.3483 147.262 37.3483C155.084 37.3483 157.077 31.8527 157.077 29.0148C157.077 17.6913 143.635 21.6227 143.635 14.2444Z" fill="#CE0E2D"/>
</svg>
