<svg width="110" height="163" viewBox="0 0 110 163" fill="none" xmlns="http://www.w3.org/2000/svg">
<path d="M22.7487 126.27V127.572H18.6187V130.442H21.8387V131.744H18.6187V136H17.0227V126.27H22.7487ZM31.2137 128.286V136H29.6177V135.09C29.3657 135.407 29.0344 135.659 28.6237 135.846C28.2224 136.023 27.7931 136.112 27.3357 136.112C26.7291 136.112 26.1831 135.986 25.6977 135.734C25.2217 135.482 24.8437 135.109 24.5637 134.614C24.2931 134.119 24.1577 133.522 24.1577 132.822V128.286H25.7397V132.584C25.7397 133.275 25.9124 133.807 26.2577 134.18C26.6031 134.544 27.0744 134.726 27.6717 134.726C28.2691 134.726 28.7404 134.544 29.0857 134.18C29.4404 133.807 29.6177 133.275 29.6177 132.584V128.286H31.2137ZM34.9155 129.406C35.1489 129.014 35.4569 128.711 35.8395 128.496C36.2315 128.272 36.6935 128.16 37.2255 128.16V129.812H36.8195C36.1942 129.812 35.7182 129.971 35.3915 130.288C35.0742 130.605 34.9155 131.156 34.9155 131.94V136H33.3195V128.286H34.9155V129.406ZM42.5846 128.16C43.1912 128.16 43.7326 128.286 44.2086 128.538C44.6939 128.79 45.0719 129.163 45.3426 129.658C45.6132 130.153 45.7486 130.75 45.7486 131.45V136H44.1666V131.688C44.1666 130.997 43.9939 130.47 43.6486 130.106C43.3032 129.733 42.8319 129.546 42.2346 129.546C41.6372 129.546 41.1612 129.733 40.8066 130.106C40.4612 130.47 40.2886 130.997 40.2886 131.688V136H38.6926V128.286H40.2886V129.168C40.5499 128.851 40.8812 128.603 41.2826 128.426C41.6932 128.249 42.1272 128.16 42.5846 128.16ZM48.5964 127.264C48.307 127.264 48.0644 127.166 47.8684 126.97C47.6724 126.774 47.5744 126.531 47.5744 126.242C47.5744 125.953 47.6724 125.71 47.8684 125.514C48.0644 125.318 48.307 125.22 48.5964 125.22C48.8764 125.22 49.1144 125.318 49.3104 125.514C49.5064 125.71 49.6044 125.953 49.6044 126.242C49.6044 126.531 49.5064 126.774 49.3104 126.97C49.1144 127.166 48.8764 127.264 48.5964 127.264ZM49.3804 128.286V136H47.7844V128.286H49.3804ZM53.3378 129.588V133.858C53.3378 134.147 53.4031 134.357 53.5338 134.488C53.6738 134.609 53.9071 134.67 54.2338 134.67H55.2138V136H53.9538C53.2351 136 52.6844 135.832 52.3018 135.496C51.9191 135.16 51.7278 134.614 51.7278 133.858V129.588H50.8178V128.286H51.7278V126.368H53.3378V128.286H55.2138V129.588H53.3378ZM63.6708 128.286V136H62.0748V135.09C61.8228 135.407 61.4914 135.659 61.0808 135.846C60.6794 136.023 60.2501 136.112 59.7928 136.112C59.1861 136.112 58.6401 135.986 58.1548 135.734C57.6788 135.482 57.3008 135.109 57.0208 134.614C56.7501 134.119 56.6148 133.522 56.6148 132.822V128.286H58.1968V132.584C58.1968 133.275 58.3694 133.807 58.7148 134.18C59.0601 134.544 59.5314 134.726 60.1288 134.726C60.7261 134.726 61.1974 134.544 61.5428 134.18C61.8974 133.807 62.0748 133.275 62.0748 132.584V128.286H63.6708ZM67.3726 129.406C67.6059 129.014 67.9139 128.711 68.2966 128.496C68.6886 128.272 69.1506 128.16 69.6826 128.16V129.812H69.2766C68.6512 129.812 68.1752 129.971 67.8486 130.288C67.5312 130.605 67.3726 131.156 67.3726 131.94V136H65.7766V128.286H67.3726V129.406ZM78.2196 131.954C78.2196 132.243 78.2009 132.505 78.1636 132.738H72.2696C72.3163 133.354 72.5449 133.849 72.9556 134.222C73.3663 134.595 73.8703 134.782 74.4676 134.782C75.3263 134.782 75.9329 134.423 76.2876 133.704H78.0096C77.7763 134.413 77.3516 134.997 76.7356 135.454C76.1289 135.902 75.3729 136.126 74.4676 136.126C73.7303 136.126 73.0676 135.963 72.4796 135.636C71.9009 135.3 71.4436 134.833 71.1076 134.236C70.7809 133.629 70.6176 132.929 70.6176 132.136C70.6176 131.343 70.7763 130.647 71.0936 130.05C71.4203 129.443 71.8729 128.977 72.4516 128.65C73.0396 128.323 73.7116 128.16 74.4676 128.16C75.1956 128.16 75.8443 128.319 76.4136 128.636C76.9829 128.953 77.4263 129.401 77.7436 129.98C78.0609 130.549 78.2196 131.207 78.2196 131.954ZM76.5536 131.45C76.5443 130.862 76.3343 130.391 75.9236 130.036C75.5129 129.681 75.0043 129.504 74.3976 129.504C73.8469 129.504 73.3756 129.681 72.9836 130.036C72.5916 130.381 72.3583 130.853 72.2836 131.45H76.5536ZM90.945 136L89.741 134.796C89.2743 135.263 88.7656 135.613 88.215 135.846C87.6643 136.07 87.0483 136.182 86.367 136.182C85.6763 136.182 85.065 136.061 84.533 135.818C84.001 135.575 83.5903 135.23 83.301 134.782C83.0116 134.325 82.867 133.797 82.867 133.2C82.867 132.528 83.0583 131.931 83.441 131.408C83.8236 130.876 84.393 130.456 85.149 130.148C84.8783 129.821 84.687 129.518 84.575 129.238C84.463 128.949 84.407 128.631 84.407 128.286C84.407 127.857 84.5143 127.474 84.729 127.138C84.953 126.802 85.2703 126.536 85.681 126.34C86.0916 126.144 86.5676 126.046 87.109 126.046C87.6596 126.046 88.1263 126.153 88.509 126.368C88.901 126.573 89.1903 126.858 89.377 127.222C89.573 127.586 89.6523 127.992 89.615 128.44H88.019C88.0283 128.095 87.9443 127.829 87.767 127.642C87.5896 127.446 87.347 127.348 87.039 127.348C86.731 127.348 86.479 127.441 86.283 127.628C86.0963 127.805 86.003 128.025 86.003 128.286C86.003 128.538 86.073 128.79 86.213 129.042C86.3623 129.285 86.619 129.602 86.983 129.994L89.559 132.556L90.553 130.918H92.275L91.015 133.074L90.665 133.648L93.031 136H90.945ZM86.367 134.824C87.2443 134.824 88.019 134.465 88.691 133.746L86.115 131.156C85.0136 131.595 84.463 132.257 84.463 133.144C84.463 133.62 84.6403 134.021 84.995 134.348C85.3496 134.665 85.807 134.824 86.367 134.824ZM19.8776 147.27V157H18.2816V152.744H13.7036V157H12.1076V147.27H13.7036V151.442H18.2816V147.27H19.8776ZM25.3247 157.126C24.5967 157.126 23.9387 156.963 23.3507 156.636C22.7627 156.3 22.3007 155.833 21.9647 155.236C21.6287 154.629 21.4607 153.929 21.4607 153.136C21.4607 152.352 21.6334 151.657 21.9787 151.05C22.324 150.443 22.7954 149.977 23.3927 149.65C23.99 149.323 24.6574 149.16 25.3947 149.16C26.132 149.16 26.7994 149.323 27.3967 149.65C27.994 149.977 28.4654 150.443 28.8107 151.05C29.156 151.657 29.3287 152.352 29.3287 153.136C29.3287 153.92 29.1514 154.615 28.7967 155.222C28.442 155.829 27.9567 156.3 27.3407 156.636C26.734 156.963 26.062 157.126 25.3247 157.126ZM25.3247 155.74C25.7354 155.74 26.118 155.642 26.4727 155.446C26.8367 155.25 27.1307 154.956 27.3547 154.564C27.5787 154.172 27.6907 153.696 27.6907 153.136C27.6907 152.576 27.5834 152.105 27.3687 151.722C27.154 151.33 26.8694 151.036 26.5147 150.84C26.16 150.644 25.7774 150.546 25.3667 150.546C24.956 150.546 24.5734 150.644 24.2187 150.84C23.8734 151.036 23.598 151.33 23.3927 151.722C23.1874 152.105 23.0847 152.576 23.0847 153.136C23.0847 153.967 23.2947 154.611 23.7147 155.068C24.144 155.516 24.6807 155.74 25.3247 155.74ZM40.2444 149.16C40.8511 149.16 41.3924 149.286 41.8684 149.538C42.3538 149.79 42.7318 150.163 43.0024 150.658C43.2824 151.153 43.4224 151.75 43.4224 152.45V157H41.8404V152.688C41.8404 151.997 41.6678 151.47 41.3224 151.106C40.9771 150.733 40.5058 150.546 39.9084 150.546C39.3111 150.546 38.8351 150.733 38.4804 151.106C38.1351 151.47 37.9624 151.997 37.9624 152.688V157H36.3804V152.688C36.3804 151.997 36.2078 151.47 35.8624 151.106C35.5171 150.733 35.0458 150.546 34.4484 150.546C33.8511 150.546 33.3751 150.733 33.0204 151.106C32.6751 151.47 32.5024 151.997 32.5024 152.688V157H30.9064V149.286H32.5024V150.168C32.7638 149.851 33.0951 149.603 33.4964 149.426C33.8978 149.249 34.3271 149.16 34.7844 149.16C35.4004 149.16 35.9511 149.291 36.4364 149.552C36.9218 149.813 37.2951 150.191 37.5564 150.686C37.7898 150.219 38.1538 149.851 38.6484 149.58C39.1431 149.3 39.6751 149.16 40.2444 149.16ZM52.5233 152.954C52.5233 153.243 52.5047 153.505 52.4673 153.738H46.5733C46.62 154.354 46.8487 154.849 47.2593 155.222C47.67 155.595 48.174 155.782 48.7713 155.782C49.63 155.782 50.2367 155.423 50.5913 154.704H52.3133C52.08 155.413 51.6553 155.997 51.0393 156.454C50.4327 156.902 49.6767 157.126 48.7713 157.126C48.034 157.126 47.3713 156.963 46.7833 156.636C46.2047 156.3 45.7473 155.833 45.4113 155.236C45.0847 154.629 44.9213 153.929 44.9213 153.136C44.9213 152.343 45.08 151.647 45.3973 151.05C45.724 150.443 46.1767 149.977 46.7553 149.65C47.3433 149.323 48.0153 149.16 48.7713 149.16C49.4993 149.16 50.148 149.319 50.7173 149.636C51.2867 149.953 51.73 150.401 52.0473 150.98C52.3647 151.549 52.5233 152.207 52.5233 152.954ZM50.8573 152.45C50.848 151.862 50.638 151.391 50.2273 151.036C49.8167 150.681 49.308 150.504 48.7013 150.504C48.1507 150.504 47.6793 150.681 47.2873 151.036C46.8953 151.381 46.662 151.853 46.5873 152.45H50.8573ZM60.9087 147.27C61.9447 147.27 62.85 147.471 63.6247 147.872C64.4087 148.264 65.0107 148.833 65.4307 149.58C65.86 150.317 66.0747 151.181 66.0747 152.17C66.0747 153.159 65.86 154.018 65.4307 154.746C65.0107 155.474 64.4087 156.034 63.6247 156.426C62.85 156.809 61.9447 157 60.9087 157H57.7307V147.27H60.9087ZM60.9087 155.698C62.0473 155.698 62.92 155.39 63.5267 154.774C64.1333 154.158 64.4367 153.29 64.4367 152.17C64.4367 151.041 64.1333 150.159 63.5267 149.524C62.92 148.889 62.0473 148.572 60.9087 148.572H59.3267V155.698H60.9087ZM74.7264 152.954C74.7264 153.243 74.7078 153.505 74.6704 153.738H68.7764C68.8231 154.354 69.0518 154.849 69.4624 155.222C69.8731 155.595 70.3771 155.782 70.9744 155.782C71.8331 155.782 72.4398 155.423 72.7944 154.704H74.5164C74.2831 155.413 73.8584 155.997 73.2424 156.454C72.6358 156.902 71.8798 157.126 70.9744 157.126C70.2371 157.126 69.5744 156.963 68.9864 156.636C68.4078 156.3 67.9504 155.833 67.6144 155.236C67.2878 154.629 67.1244 153.929 67.1244 153.136C67.1244 152.343 67.2831 151.647 67.6004 151.05C67.9271 150.443 68.3798 149.977 68.9584 149.65C69.5464 149.323 70.2184 149.16 70.9744 149.16C71.7024 149.16 72.3511 149.319 72.9204 149.636C73.4898 149.953 73.9331 150.401 74.2504 150.98C74.5678 151.549 74.7264 152.207 74.7264 152.954ZM73.0604 152.45C73.0511 151.862 72.8411 151.391 72.4304 151.036C72.0198 150.681 71.5111 150.504 70.9044 150.504C70.3538 150.504 69.8824 150.681 69.4904 151.036C69.0984 151.381 68.8651 151.853 68.7904 152.45H73.0604ZM75.7651 153.136C75.7651 152.343 75.9237 151.647 76.2411 151.05C76.5677 150.443 77.0157 149.977 77.5851 149.65C78.1544 149.323 78.8077 149.16 79.5451 149.16C80.4784 149.16 81.2484 149.384 81.8551 149.832C82.4711 150.271 82.8864 150.901 83.1011 151.722H81.3791C81.2391 151.339 81.0151 151.041 80.7071 150.826C80.3991 150.611 80.0117 150.504 79.5451 150.504C78.8917 150.504 78.3691 150.737 77.9771 151.204C77.5944 151.661 77.4031 152.305 77.4031 153.136C77.4031 153.967 77.5944 154.615 77.9771 155.082C78.3691 155.549 78.8917 155.782 79.5451 155.782C80.4691 155.782 81.0804 155.376 81.3791 154.564H83.1011C82.8771 155.348 82.4571 155.973 81.8411 156.44C81.2251 156.897 80.4597 157.126 79.5451 157.126C78.8077 157.126 78.1544 156.963 77.5851 156.636C77.0157 156.3 76.5677 155.833 76.2411 155.236C75.9237 154.629 75.7651 153.929 75.7651 153.136ZM88.0376 157.126C87.3096 157.126 86.6516 156.963 86.0636 156.636C85.4756 156.3 85.0136 155.833 84.6776 155.236C84.3416 154.629 84.1736 153.929 84.1736 153.136C84.1736 152.352 84.3463 151.657 84.6916 151.05C85.0369 150.443 85.5083 149.977 86.1056 149.65C86.7029 149.323 87.3703 149.16 88.1076 149.16C88.8449 149.16 89.5123 149.323 90.1096 149.65C90.7069 149.977 91.1783 150.443 91.5236 151.05C91.8689 151.657 92.0416 152.352 92.0416 153.136C92.0416 153.92 91.8643 154.615 91.5096 155.222C91.1549 155.829 90.6696 156.3 90.0536 156.636C89.4469 156.963 88.7749 157.126 88.0376 157.126ZM88.0376 155.74C88.4483 155.74 88.8309 155.642 89.1856 155.446C89.5496 155.25 89.8436 154.956 90.0676 154.564C90.2916 154.172 90.4036 153.696 90.4036 153.136C90.4036 152.576 90.2963 152.105 90.0816 151.722C89.8669 151.33 89.5823 151.036 89.2276 150.84C88.8729 150.644 88.4903 150.546 88.0796 150.546C87.6689 150.546 87.2863 150.644 86.9316 150.84C86.5863 151.036 86.3109 151.33 86.1056 151.722C85.9003 152.105 85.7976 152.576 85.7976 153.136C85.7976 153.967 86.0076 154.611 86.4276 155.068C86.8569 155.516 87.3936 155.74 88.0376 155.74ZM95.2153 150.406C95.4487 150.014 95.7567 149.711 96.1393 149.496C96.5313 149.272 96.9933 149.16 97.5253 149.16V150.812H97.1193C96.494 150.812 96.018 150.971 95.6913 151.288C95.374 151.605 95.2153 152.156 95.2153 152.94V157H93.6193V149.286H95.2153V150.406Z" fill="#2F294D"/>
<path d="M105.814 61.25L85.8198 95.8814C83.5868 99.7489 79.4603 102.131 74.9944 102.131L35.0055 102.131C30.5397 102.131 26.4131 99.7489 24.1802 95.8814L4.18579 61.25C1.95288 57.3825 1.95288 52.6175 4.18579 48.75L24.1802 14.1186C26.4131 10.2511 30.5397 7.8686 35.0056 7.8686L74.9944 7.8686C79.4603 7.8686 83.5869 10.2511 85.8198 14.1186L105.814 48.75C108.047 52.6175 108.047 57.3825 105.814 61.25Z" fill="#CDA36D" fill-opacity="0.15" stroke="#CDA36D"/>
<path d="M79.9936 52.4669C79.7128 53.1179 79.5213 53.8199 79.132 54.4007C78.2066 55.7856 76.86 56.5514 75.1943 56.7046C74.7795 56.7429 74.3519 56.6599 73.8285 56.628C73.7711 57.0939 73.6179 57.5726 73.6626 58.0385C73.8413 59.9595 74.0008 61.8869 74.3136 63.7887C74.505 64.9375 74.5306 65.9778 73.9498 67.0244C73.4392 67.9434 72.8521 68.7667 71.8756 69.2071C71.365 69.4369 70.8098 69.5581 70.2163 69.7496C70.2163 70.7005 70.2226 71.7089 70.2163 72.7172C70.2099 73.4129 69.9035 73.8341 69.3547 73.9618C68.7675 74.0958 68.2251 73.7894 68.091 73.2023C68.0144 72.8768 68.0081 72.5258 68.0081 72.1875C67.9953 71.3642 68.0081 70.5346 68.0081 69.6921H42.0011C42.0011 70.7197 42.0075 71.728 42.0011 72.73C41.9947 73.4193 41.6883 73.8405 41.1267 73.9618C40.5396 74.0894 39.9843 73.7767 39.8758 73.1895C39.7929 72.7492 39.7993 72.2896 39.7929 71.8365C39.7801 71.1409 39.7929 70.4388 39.7929 69.7496C39.2376 69.5773 38.676 69.456 38.1718 69.2326C36.9337 68.671 36.3338 67.5733 35.7722 66.4054C35.2616 65.3396 35.7083 64.344 35.8168 63.3164C36.0083 61.5295 36.1934 59.7361 36.3402 57.9427C36.3721 57.5215 36.238 57.0875 36.1742 56.6025C35.0382 56.8259 34.0107 56.7301 33.0279 56.2515C29.1731 54.3751 29.1795 49.9077 32.0259 47.8016C33.2066 46.9272 34.5915 46.6273 36.0466 46.7996C36.5827 46.8634 36.8188 46.7358 37.0741 46.2444C39.1738 42.1407 42.4989 39.3836 46.711 37.6285C49.9978 36.2564 53.4378 35.7905 56.9671 36.0841C61.8047 36.4862 66.1828 38.0817 69.8525 41.3493C71.4352 42.7597 72.7053 44.4191 73.5924 46.3529C73.7456 46.6847 73.9243 46.7741 74.2944 46.7613C76.9621 46.6783 79.3299 47.9548 79.9234 50.9224C79.9362 50.9862 79.9745 51.0437 80 51.1011V52.4669H79.9936ZM71.7033 47.4697C71.6459 47.3421 71.6076 47.2527 71.5629 47.1634C69.9099 43.8383 67.255 41.5791 63.9299 40.0793C59.9922 38.305 55.863 37.7753 51.5997 38.5029C47.1833 39.256 43.4434 41.2536 40.5842 44.7573C39.8439 45.6636 39.2312 46.6464 38.7973 47.6612C39.5184 48.2866 40.2396 48.8227 40.8523 49.4609C42.7924 51.4777 43.4881 54.0305 43.8519 56.7046C43.9923 57.7449 44.0689 58.7979 44.171 59.851H65.7871C65.9722 58.3958 66.119 56.9726 66.3423 55.5622C66.6551 53.5774 67.3316 51.733 68.5633 50.1183C69.4057 49.0142 70.4843 48.1909 71.7097 47.4633L71.7033 47.4697ZM54.9503 67.4776C59.8518 67.4776 64.7468 67.4648 69.6483 67.4903C70.8034 67.4967 71.531 67.0053 72.0415 65.9969C72.3479 65.3842 72.2649 64.8162 72.15 64.2035C71.748 62.0783 71.3969 59.9403 71.5182 57.7704C71.5565 57.1003 71.6841 56.411 71.9075 55.7792C72.2649 54.7581 73.0882 54.2986 74.1668 54.4262C74.8241 54.5092 75.456 54.5411 76.0686 54.2347C77.0642 53.7369 77.7854 53.0094 77.8109 51.8478C77.8365 50.8075 77.4025 49.9268 76.4707 49.4099C75.373 48.8036 74.1859 48.7078 73.0435 49.2376C71.7097 49.8566 70.6183 50.8076 69.8461 52.084C68.742 53.9092 68.3846 55.9515 68.1868 58.0321C68.091 59.0532 68.0783 60.0743 67.9889 61.0955C67.9379 61.6571 67.5422 61.989 66.9806 62.0336C66.8657 62.04 66.7508 62.04 66.6359 62.04C58.8753 62.04 51.1083 62.04 43.3477 62.04C43.2009 62.04 43.0541 62.0464 42.9073 62.0209C42.4351 61.9315 42.0904 61.6699 42.0202 61.1784C41.9564 60.7636 41.9692 60.336 41.9245 59.9148C41.7649 58.4278 41.6756 56.9344 41.4075 55.4665C40.9608 53.0094 39.8312 50.9543 37.623 49.5886C36.6018 48.9567 35.5552 48.778 34.4064 49.0461C32.9194 49.3907 31.9557 50.8203 32.2492 52.2627C32.5173 53.5965 34.0745 54.6496 35.4531 54.439C37.023 54.2028 37.9229 54.7964 38.3186 56.3536C38.408 56.6982 38.459 57.0556 38.4845 57.4066C38.6441 59.551 38.3058 61.6507 37.9548 63.7504C37.8655 64.2737 37.6613 64.829 37.7506 65.3268C37.9931 66.7372 38.9632 67.4584 40.4055 67.4584C45.2559 67.4584 50.1063 67.4584 54.9567 67.4584L54.9503 67.4776Z" fill="#CDA36D"/>
</svg>
