<?xml version="1.0" encoding="utf-8"?>
<!-- Generator: Adobe Illustrator 24.0.0, SVG Export Plug-In . SVG Version: 6.00 Build 0)  -->
<svg version="1.1" id="Layer_1" xmlns="http://www.w3.org/2000/svg" xmlns:xlink="http://www.w3.org/1999/xlink" x="0px" y="0px"
	 viewBox="0 0 215.27 89.35" style="enable-background:new 0 0 215.27 89.35;" xml:space="preserve">
<style type="text/css">
	.st0{fill:#CE0E2D;}
	.st1{fill:#592C82;}
</style>
<g>
	<path class="st0" d="M23.02,8.33H12.03v44.65h4.34V36.58h6.64c8.88,0,15.01-4.66,15.01-14.99C38.03,13.17,31.9,8.33,23.02,8.33
		 M23.02,35.63h-6.64V9.28h6.64c6.58,0,10.67,3.57,10.67,12.44C33.69,30.65,29.54,35.63,23.02,35.63"/>
	<path class="st0" d="M45.06,18.6v0.96c12.01,0,13.74,5.55,13.74,13.65v1.02c-1.98-3.06-6.58-5.23-10.41-5.23
		c-6.52,0-10.09,6.19-10.09,12.05c0,5.87,3.58,12.06,10.09,12.06c3.83,0,8.43-2.17,10.41-5.23v0.51c0.45,1.91,2.11,3.64,3.71,4.59
		h0.64V33.2C63.14,23.83,58.54,18.6,45.06,18.6 M58.79,44.62c0,3.7-4.92,6.63-8.75,6.63c-4.73,0-7.03-4.46-7.03-10.21
		c0-5.74,2.3-10.21,7.03-10.21c3.83,0,8.75,2.94,8.75,6.63V44.62z"/>
	<path class="st0" d="M73.59,42.13V20.78h5.29v-2.33h-5.29v-7.38c-1.34-0.77-2.17-1.02-3.71-1.02h-0.64v8.4h-2.39v2.33h2.39v17.91
		c0,9.38,0,14.29,10.54,14.29v-0.96C73.98,52.02,73.59,48.19,73.59,42.13"/>
	<path class="st0" d="M87.7,42.13V20.78H93v-2.33H87.7v-7.38c-1.34-0.77-2.17-1.02-3.71-1.02h-0.64v8.4h-2.39v2.33h2.39v17.91
		c0,9.38,0,14.29,10.54,14.29v-0.96C88.09,52.02,87.7,48.19,87.7,42.13"/>
	<path class="st0" d="M99.92,7.5c-1.28,0-2.3,1.53-2.3,3.13c0,2.1,1.85,3.63,2.3,3.63c0.51,0,2.36-1.53,2.36-3.63
		C102.29,9.03,101.2,7.5,99.92,7.5"/>
	<path class="st0" d="M97.75,52.98h4.34V18.53c-1.73-0.96-2.43-1.02-4.34-1.02V52.98z"/>
	<path class="st0" d="M113.25,18.6v0.96c12.01,0,13.74,5.55,13.74,13.65v1.02c-1.98-3.06-6.58-5.23-10.41-5.23
		c-6.52,0-10.09,6.19-10.09,12.05c0,5.87,3.58,12.06,10.09,12.06c3.83,0,8.43-2.17,10.41-5.23v0.51c0.45,1.91,2.11,3.64,3.71,4.59
		h0.64V33.2C131.33,23.83,126.73,18.6,113.25,18.6 M126.99,44.62c0,3.7-4.92,6.63-8.75,6.63c-4.73,0-7.03-4.46-7.03-10.21
		c0-5.74,2.3-10.21,7.03-10.21c3.83,0,8.75,2.94,8.75,6.63V44.62z"/>
	<path class="st0" d="M164.86,18.21c-4.34,0-6.77,2.1-7.79,5.1c-0.96-3-3.39-5.1-7.73-5.1c-3.77,0-6.07,1.53-7.28,3.83v-3.51
		c-1.28-0.7-2.3-1.02-3.64-1.02h-0.7v35.46h4.34V26.7c0-3.63,1.66-6.51,5.94-6.51c4.28,0,4.86,2.87,4.86,6.51v26.28h4.79V26.7
		c0-3.63,1.6-6.51,5.88-6.51s4.86,2.87,4.86,6.51v26.28h4.79V26.7C173.17,22.04,170.74,18.21,164.86,18.21"/>
	<path class="st0" d="M178.6,8.01c-1.09-0.06-1.98,0.77-2.11,1.85c-0.06,1.02,0.64,1.98,1.73,2.17c0.06,0.19,0.13,0.38,0.13,0.57
		c0,0.64-0.38,1.34-1.28,2.04l0.26,0.38c1.98-0.83,3.26-2.81,3.2-4.66C180.52,8.96,179.69,8.07,178.6,8.01"/>
	<path class="st0" d="M186.89,24.85c0-3.32,1.09-6.25,5.24-6.25c4.41,0,6.52,1.28,8.3,5.23l0.96-0.32
		c-1.98-4.34-4.28-5.87-8.82-5.87c-6,0-10.22,2.62-10.22,7.4c0,13.46,16.87,7.97,16.87,18.88c0,3.7-1.92,8.1-7.35,8.1
		c-6.52,0-7.79-4.02-8.56-6.76l-0.89,0.32c1.53,5.23,3.45,7.4,8.88,7.4c9.52,0,11.95-6.7,11.95-10.14
		C203.24,29.06,186.89,33.84,186.89,24.85"/>
	<path class="st1" d="M52.44,75.07c-0.27-0.28-0.55-0.5-0.85-0.65c-0.3-0.15-0.58-0.26-0.85-0.33c0.39-0.11,0.74-0.3,1.05-0.59
		c0.31-0.29,0.56-0.66,0.75-1.11c0.19-0.45,0.28-0.99,0.28-1.6c0-1.27-0.32-2.21-0.95-2.84C51.23,67.32,50.28,67,49.01,67h-5.33
		v14.72h5.53c0.86,0,1.59-0.12,2.2-0.37c0.62-0.25,1.09-0.67,1.42-1.26c0.33-0.59,0.5-1.41,0.5-2.45c0-0.59-0.08-1.09-0.25-1.52
		C52.92,75.7,52.71,75.35,52.44,75.07 M45.29,68.45h3.73c0.68,0,1.24,0.19,1.68,0.57c0.43,0.38,0.64,1.04,0.61,1.99
		c-0.01,0.77-0.22,1.39-0.63,1.84c-0.41,0.45-0.92,0.68-1.55,0.68h-3.83V68.45z M51.49,79.18c-0.22,0.42-0.53,0.71-0.92,0.88
		c-0.39,0.17-0.86,0.25-1.39,0.25h-3.89v-5.52h3.89c0.5,0,0.94,0.1,1.34,0.31c0.4,0.21,0.72,0.5,0.95,0.89
		c0.23,0.39,0.35,0.85,0.35,1.4C51.82,78.16,51.71,78.76,51.49,79.18"/>
	<path class="st1" d="M61,67.06c-0.71-0.02-1.48-0.04-2.3-0.05c-0.35,0-0.69,0.05-1.04,0.15c-0.35,0.1-0.66,0.26-0.94,0.48
		c-0.28,0.22-0.51,0.52-0.67,0.9c-0.17,0.38-0.25,0.86-0.25,1.43v8.98c0,0.65,0.1,1.17,0.3,1.55c0.2,0.38,0.46,0.66,0.78,0.85
		c0.32,0.19,0.66,0.31,1.02,0.37c0.36,0.06,0.7,0.09,1.02,0.09c0.65-0.01,1.32-0.03,1.99-0.04c0.67-0.01,1.35-0.03,2.02-0.06
		c0.68-0.03,1.32-0.06,1.93-0.1v-1.28h-5.69c-0.29,0-0.58-0.04-0.86-0.12c-0.28-0.08-0.51-0.25-0.67-0.5
		c-0.17-0.25-0.25-0.63-0.25-1.12v-3.46l6.59-0.1v-1.22l-6.59-0.1v-3.48c0-0.61,0.15-1.06,0.46-1.34c0.31-0.28,0.72-0.42,1.24-0.42
		h5.77v-1.28c-0.6-0.03-1.22-0.05-1.85-0.07C62.38,67.09,61.71,67.08,61,67.06"/>
	<path class="st1" d="M71.99,67.01l-5.05,14.72h1.64l1.44-4.2h5.93l1.48,4.2h1.64l-5.05-14.72H71.99z M70.43,76.09l2.59-7.68
		l2.54,7.68H70.43z"/>
	<path class="st1" d="M90.01,77.17c0,0.84-0.15,1.49-0.45,1.96c-0.3,0.47-0.74,0.8-1.31,0.99c-0.57,0.19-1.26,0.29-2.06,0.29
		c-0.8,0-1.49-0.1-2.06-0.29c-0.58-0.19-1.01-0.52-1.31-0.99c-0.3-0.47-0.45-1.12-0.45-1.96V67.01h-1.6v10.16
		c0,0.91,0.13,1.66,0.38,2.27c0.25,0.61,0.62,1.09,1.09,1.44c0.47,0.35,1.04,0.6,1.71,0.75c0.67,0.15,1.42,0.22,2.24,0.22
		c0.83,0,1.58-0.07,2.24-0.22c0.67-0.15,1.24-0.4,1.71-0.75c0.48-0.35,0.84-0.83,1.09-1.44c0.25-0.61,0.38-1.36,0.38-2.27V67.01
		h-1.6V77.17z"/>
	<polygon class="st1" points="93.74,68.45 98.29,68.45 98.29,81.73 99.89,81.73 99.89,68.45 104.44,68.45 104.44,67.01 93.74,67.01 
			"/>
	<polygon class="st1" points="111.61,75.25 107.76,67.01 106.1,67.01 110.79,76.85 110.79,81.73 112.39,81.73 112.39,76.85 
		117.06,67.01 115.46,67.01 	"/>
	<path class="st1" d="M131.06,66.97c-0.51-0.05-0.97-0.08-1.38-0.08c-0.91,0-1.7,0.11-2.36,0.33c-0.67,0.22-1.22,0.6-1.65,1.15
		c-0.43,0.55-0.76,1.3-0.97,2.27c-0.21,0.97-0.32,2.2-0.32,3.69c0,1.59,0.1,2.87,0.31,3.86c0.21,0.99,0.52,1.74,0.95,2.27
		c0.43,0.53,0.97,0.89,1.62,1.09c0.65,0.2,1.42,0.3,2.3,0.3c0.49,0,1-0.02,1.51-0.06c0.51-0.04,1.02-0.1,1.5-0.17
		c0.49-0.07,0.93-0.16,1.33-0.25v-1.2c-0.4,0.07-0.92,0.13-1.56,0.18c-0.64,0.05-1.46,0.08-2.46,0.08c-0.73,0-1.35-0.08-1.84-0.24
		c-0.5-0.16-0.89-0.45-1.2-0.88c-0.31-0.43-0.53-1.04-0.67-1.85c-0.14-0.81-0.21-1.84-0.21-3.11c0-1.25,0.07-2.27,0.22-3.06
		c0.15-0.79,0.38-1.4,0.69-1.83c0.31-0.43,0.72-0.73,1.23-0.89c0.51-0.16,1.11-0.24,1.82-0.24c0.55,0,1.09,0.02,1.61,0.05
		c0.53,0.03,1,0.07,1.41,0.11c0.41,0.04,0.74,0.08,0.96,0.12v-1.18c-0.4-0.11-0.85-0.2-1.34-0.27
		C132.07,67.08,131.57,67.02,131.06,66.97"/>
	<path class="st1" d="M140.98,67.01l-5.05,14.72h1.64l1.44-4.2h5.93l1.48,4.2h1.64l-5.05-14.72H140.98z M139.42,76.09l2.59-7.68
		l2.54,7.68H139.42z"/>
	<path class="st1" d="M158.12,75.2c0.33-0.14,0.63-0.36,0.91-0.66c0.28-0.3,0.51-0.71,0.68-1.22c0.17-0.51,0.26-1.17,0.26-1.97
		c0-0.92-0.11-1.66-0.32-2.23c-0.21-0.57-0.51-1-0.87-1.31c-0.37-0.31-0.78-0.52-1.23-0.63c-0.45-0.11-0.92-0.17-1.4-0.17h-5.81
		v14.72h1.6v-6.1c0.25,0,0.55,0.01,0.89,0.02c0.34,0.01,0.69,0.02,1.05,0.02c0.36,0,0.7,0.01,1.02,0.02
		c0.32,0.01,0.59,0.02,0.8,0.02l2.87,6.02h1.62l-3.02-6.24C157.48,75.43,157.79,75.34,158.12,75.2 M155.91,74.41h-3.97v-5.96h3.97
		c0.33,0,0.65,0.04,0.94,0.11c0.29,0.07,0.56,0.21,0.79,0.42c0.23,0.21,0.42,0.5,0.55,0.88c0.13,0.38,0.2,0.88,0.2,1.49
		c0,0.64-0.07,1.16-0.2,1.56c-0.13,0.4-0.31,0.71-0.54,0.93c-0.23,0.22-0.49,0.37-0.78,0.45C156.57,74.37,156.25,74.41,155.91,74.41
		"/>
	<path class="st1" d="M164.58,68.89c0.31-0.28,0.72-0.42,1.24-0.42h5.77v-1.28c-0.6-0.03-1.22-0.05-1.85-0.07
		c-0.64-0.02-1.31-0.04-2.01-0.06c-0.71-0.02-1.48-0.04-2.31-0.05c-0.35,0-0.69,0.05-1.04,0.15c-0.35,0.1-0.66,0.26-0.94,0.48
		c-0.28,0.22-0.5,0.52-0.67,0.9c-0.17,0.38-0.25,0.86-0.25,1.43v8.98c0,0.65,0.1,1.17,0.3,1.55c0.2,0.38,0.46,0.66,0.78,0.85
		c0.32,0.19,0.66,0.31,1.02,0.37c0.36,0.06,0.7,0.09,1.02,0.09c0.66-0.01,1.32-0.03,1.99-0.04c0.68-0.01,1.35-0.03,2.02-0.06
		s1.32-0.06,1.93-0.1v-1.28h-5.69c-0.29,0-0.58-0.04-0.86-0.12c-0.28-0.08-0.51-0.25-0.67-0.5c-0.17-0.25-0.25-0.63-0.25-1.12v-3.46
		l6.59-0.1v-1.22l-6.59-0.1v-3.48C164.12,69.61,164.27,69.17,164.58,68.89"/>
	<path class="st1" d="M86.2,77.84c1.1,0,2.08-0.7,2.45-1.73c0.07-0.2-0.03-0.43-0.24-0.5c-0.2-0.07-0.43,0.03-0.5,0.24
		c-0.26,0.72-0.95,1.21-1.72,1.21c-0.79,0-1.47-0.48-1.71-1.2c-0.07-0.2-0.29-0.31-0.49-0.25c-0.2,0.07-0.32,0.29-0.25,0.49
		C84.09,77.14,85.08,77.84,86.2,77.84"/>
</g>
</svg>
