<svg width="158" height="57" viewBox="0 0 158 57" fill="none" xmlns="http://www.w3.org/2000/svg">
<path d="M9.02587 0.678223H0.000244141V37.4175H3.57174V23.9344H9.02587C16.3211 23.9344 21.36 20.0999 21.36 11.6003C21.36 4.67882 16.3211 0.678223 9.02587 0.678223ZM9.02587 23.1454H3.57174V1.46726H9.02587C14.4246 1.46726 17.7885 4.40198 17.7885 11.6972C17.7885 18.9925 14.3831 23.1316 9.02587 23.1316V23.1454Z" fill="#CE0E2D"/>
<path d="M27.1325 9.12256V9.91162C37.0026 9.91162 38.4145 14.4798 38.4145 21.1383V21.9827C36.7949 19.4632 33.0158 17.6775 29.8596 17.6775C24.5023 17.6775 21.5676 22.7718 21.5676 27.603C21.5676 32.4342 24.5023 37.5284 29.8596 37.5284C33.0019 37.5284 36.7811 35.7426 38.4145 33.2232V33.6385C38.7883 35.2166 40.1449 36.6286 41.46 37.4176H41.986V21.1521C41.986 13.4416 38.2069 9.13637 27.1325 9.13637V9.12256ZM38.4145 30.5377C38.4145 33.5831 34.3724 35.9918 31.23 35.9918C27.3402 35.9918 25.4575 32.3234 25.4575 27.5891C25.4575 22.8548 27.3402 19.1864 31.23 19.1864C34.3724 19.1864 38.4145 21.5951 38.4145 24.6405V30.5238V30.5377Z" fill="#CE0E2D"/>
<path d="M50.5687 28.4889V10.9221H54.9154V8.99799H50.5687V2.93476C49.4613 2.31182 48.7829 2.09033 47.5232 2.09033H46.9972V8.99799H45.0315V10.9221H46.9972V25.6511C46.9972 33.3617 46.9972 37.4038 55.6491 37.4038V36.6147C50.8732 36.6147 50.5548 33.4724 50.5548 28.475L50.5687 28.4889Z" fill="#CE0E2D"/>
<path d="M62.1554 28.4889V10.9221H66.5021V8.99799H62.1554V2.93476C61.0479 2.31182 60.3696 2.09033 59.1099 2.09033H58.5839V8.99799H56.6182V10.9221H58.5839V25.6511C58.5839 33.3617 58.5839 37.4038 67.2357 37.4038V36.6147C62.4599 36.6147 62.1415 33.4724 62.1415 28.475L62.1554 28.4889Z" fill="#CE0E2D"/>
<path d="M72.2054 0C71.1533 0 70.3228 1.25971 70.3228 2.5748C70.3228 4.30517 71.8455 5.56489 72.2054 5.56489C72.6207 5.56489 74.1434 4.30517 74.1434 2.5748C74.1434 1.25971 73.2575 0 72.2054 0Z" fill="#CE0E2D"/>
<path d="M70.4197 37.4176H73.9912V9.08102C72.5792 8.29197 71.9978 8.23657 70.4197 8.23657V37.4176Z" fill="#CE0E2D"/>
<path d="M83.1415 9.12256V9.91162C93.0116 9.91162 94.4236 14.4798 94.4236 21.1383V21.9827C92.8039 19.4632 89.0248 17.6775 85.8686 17.6775C80.5114 17.6775 77.5767 22.7718 77.5767 27.603C77.5767 32.4342 80.5114 37.5284 85.8686 37.5284C89.011 37.5284 92.7901 35.7426 94.4236 33.2232V33.6385C94.7973 35.2166 96.154 36.6286 97.469 37.4176H97.9951V21.1521C97.9951 13.4416 94.2159 9.13637 83.1415 9.13637V9.12256ZM94.4236 30.5377C94.4236 33.5831 90.3814 35.9918 87.2391 35.9918C83.3492 35.9918 81.4665 32.3234 81.4665 27.5891C81.4665 22.8548 83.3492 19.1864 87.2391 19.1864C90.3814 19.1864 94.4236 21.5951 94.4236 24.6405V30.5238V30.5377Z" fill="#CE0E2D"/>
<path d="M125.542 8.81814C121.971 8.81814 119.977 10.5485 119.133 13.0126C118.344 10.5485 116.35 8.81814 112.779 8.81814C109.678 8.81814 107.795 10.0778 106.799 11.9605V9.0673C105.747 8.4859 104.916 8.2229 103.809 8.2229H103.227V37.4039H106.799V15.7812C106.799 12.7911 108.169 10.4239 111.685 10.4239C115.201 10.4239 115.672 12.7911 115.672 15.7812V37.4039H119.604V15.7812C119.604 12.7911 120.919 10.4239 124.435 10.4239C127.951 10.4239 128.422 12.7911 128.422 15.7812V37.4039H132.353V15.7812C132.353 11.9467 130.36 8.80428 125.528 8.80428L125.542 8.81814Z" fill="#CE0E2D"/>
<path d="M136.824 0.415516C135.938 0.360144 135.205 1.03846 135.094 1.93825C135.039 2.78268 135.62 3.57172 136.506 3.72399C136.561 3.87626 136.617 4.04237 136.617 4.19465C136.617 4.72068 136.298 5.30209 135.565 5.86966L135.772 6.18806C137.406 5.50975 138.444 3.87625 138.402 2.35353C138.402 1.20456 137.724 0.470888 136.824 0.415516Z" fill="#CE0E2D"/>
<path d="M143.635 14.2722C143.635 11.5451 144.521 9.12256 147.941 9.12256C151.567 9.12256 153.298 10.1746 154.765 13.4277L155.554 13.1647C153.921 9.59319 152.038 8.3335 148.314 8.3335C143.386 8.3335 139.912 10.4792 139.912 14.4244C139.912 25.4988 153.768 20.986 153.768 29.9562C153.768 33.0017 152.19 36.6147 147.733 36.6147C142.376 36.6147 141.324 33.3063 140.701 31.0498L139.967 31.3129C141.227 35.618 142.805 37.4038 147.262 37.4038C155.084 37.4038 157.077 31.8943 157.077 29.0565C157.077 17.719 143.635 21.6505 143.635 14.2583V14.2722Z" fill="#CE0E2D"/>
<path d="M9.2334 56.1191V49.0592C9.2334 48.6993 9.28877 48.4085 9.39951 48.1594C9.51026 47.924 9.64869 47.7302 9.82865 47.578C10.0086 47.4257 10.2024 47.3426 10.4239 47.2734C10.6454 47.2181 10.8669 47.1765 11.0884 47.1765C11.4206 47.1765 11.7944 47.1904 12.2096 47.1904C12.6249 47.1904 13.0679 47.2042 13.5247 47.218C13.9815 47.2319 14.4245 47.2596 14.8537 47.3011V48.2978H11.3929C11.0884 48.2978 10.8669 48.3809 10.7008 48.5331C10.5346 48.6993 10.4654 48.9346 10.4654 49.2391V51.3156L14.3138 51.3848V52.3261L10.4654 52.3953V56.0914H9.24724L9.2334 56.1191Z" fill="#CDA36D"/>
<path d="M18.8406 56.1885C18.3422 56.1885 17.8992 56.1469 17.4839 56.05C17.0687 55.967 16.7226 55.8147 16.418 55.5932C16.1135 55.3717 15.892 55.081 15.7397 54.7211C15.5875 54.3474 15.5044 53.8767 15.5044 53.323V47.2043H16.7226V53.323C16.7226 53.7798 16.8056 54.1397 16.9718 54.3889C17.1379 54.638 17.3732 54.818 17.6916 54.9288C18.01 55.0395 18.3976 55.0949 18.8406 55.0949C19.2835 55.0949 19.6711 55.0395 20.0034 54.9288C20.3218 54.818 20.5571 54.638 20.7232 54.3889C20.8893 54.1397 20.9724 53.7798 20.9724 53.323V47.2043H22.1906V53.323C22.1906 53.8905 22.1075 54.3612 21.9414 54.7211C21.7753 55.0949 21.5538 55.3856 21.2631 55.5932C20.9724 55.8009 20.6125 55.9531 20.1972 56.05C19.7819 56.1331 19.3251 56.1885 18.8267 56.1885H18.8406Z" fill="#CDA36D"/>
<path d="M22.855 56.1192V47.2043H26.4265C26.731 47.2043 27.0356 47.2459 27.3124 47.3151C27.5893 47.3843 27.8523 47.5228 28.0876 47.7166C28.3091 47.9104 28.4891 48.1872 28.6137 48.5333C28.7383 48.8794 28.8075 49.3362 28.8075 49.9037C28.8075 50.3606 28.7659 50.7481 28.669 51.0527C28.5721 51.3572 28.4475 51.6065 28.2814 51.7864C28.1292 51.9664 27.9492 52.1048 27.7554 52.2017C27.5616 52.2986 27.3816 52.3678 27.1878 52.4093L28.9736 56.1192H27.7416L26.0942 52.5754C25.9697 52.5754 25.8312 52.5754 25.6513 52.5754C25.4713 52.5754 25.2913 52.5754 25.1114 52.5754C24.9314 52.5754 24.7376 52.5754 24.5577 52.5754C24.3777 52.5754 24.2116 52.5754 24.0732 52.5754V56.1608H22.855V56.1192ZM24.0732 51.5926H26.2327C26.4265 51.5926 26.6064 51.5649 26.7587 51.5234C26.911 51.4819 27.0632 51.3988 27.1878 51.2742C27.3124 51.1496 27.4093 50.9697 27.4785 50.7482C27.5478 50.5267 27.5893 50.236 27.5893 49.8899C27.5893 49.5438 27.5478 49.2808 27.4785 49.0732C27.4093 48.8655 27.2986 48.6994 27.174 48.5886C27.0494 48.4779 26.8971 48.3949 26.7449 48.3533C26.5787 48.3118 26.4126 48.2841 26.2188 48.2841H24.0593V51.5926H24.0732Z" fill="#CDA36D"/>
<path d="M42.2073 56.1192V47.2043H43.4255V56.1192H42.2073Z" fill="#CDA36D"/>
<path d="M29.4165 47.1907H41.7091V48.2981H29.4165V47.1907Z" fill="#CDA36D"/>
<path d="M46.5539 56.1194V48.2842H43.896V47.1907H50.4437V48.2842H47.7859V56.1194H46.5677H46.5539Z" fill="#CDA36D"/>
<path d="M54.2092 56.1885C53.7109 56.1885 53.2679 56.1469 52.8526 56.05C52.4373 55.967 52.0912 55.8147 51.7867 55.5932C51.4821 55.3717 51.2606 55.081 51.1084 54.7211C50.9561 54.3474 50.873 53.8767 50.873 53.323V47.2043H52.0912V53.323C52.0912 53.7798 52.1743 54.1397 52.3404 54.3889C52.5065 54.638 52.7419 54.818 53.0602 54.9288C53.3786 55.0395 53.7662 55.0949 54.2092 55.0949C54.6522 55.0949 55.0398 55.0395 55.372 54.9288C55.6904 54.818 55.9257 54.638 56.0919 54.3889C56.258 54.1397 56.341 53.7798 56.341 53.323V47.2043H57.5592V53.323C57.5592 53.8905 57.4762 54.3612 57.31 54.7211C57.1439 55.0949 56.9224 55.3856 56.6317 55.5932C56.341 55.8009 55.9811 55.9531 55.5658 56.05C55.1505 56.1331 54.6937 56.1885 54.1954 56.1885H54.2092Z" fill="#CDA36D"/>
<path d="M58.1406 56.1192V47.2043H61.7121C62.0167 47.2043 62.3212 47.2459 62.5981 47.3151C62.8749 47.3843 63.1379 47.5228 63.3733 47.7166C63.5948 47.9104 63.7747 48.1872 63.8993 48.5333C64.0239 48.8794 64.0931 49.3362 64.0931 49.9037C64.0931 50.3606 64.0516 50.7481 63.9547 51.0527C63.8578 51.3572 63.7332 51.6065 63.5671 51.7864C63.4148 51.9664 63.2348 52.1048 63.041 52.2017C62.8472 52.2986 62.6673 52.3678 62.4735 52.4093L64.2592 56.1192H63.0272L61.3799 52.5754C61.2553 52.5754 61.1169 52.5754 60.9369 52.5754C60.757 52.5754 60.577 52.5754 60.397 52.5754C60.2171 52.5754 60.0233 52.5754 59.8433 52.5754C59.6634 52.5754 59.4972 52.5754 59.3588 52.5754V56.1608H58.1406V56.1192ZM59.3588 51.5926H61.5183C61.7121 51.5926 61.8921 51.5649 62.0443 51.5234C62.1966 51.4819 62.3489 51.3988 62.4735 51.2742C62.5981 51.1496 62.695 50.9697 62.7642 50.7482C62.8334 50.5267 62.8749 50.236 62.8749 49.8899C62.8749 49.5438 62.8334 49.2808 62.7642 49.0732C62.695 48.8655 62.5842 48.6994 62.4596 48.5886C62.335 48.4779 62.1828 48.3949 62.0305 48.3533C61.8644 48.3118 61.6983 48.2841 61.5045 48.2841H59.345V51.5926H59.3588Z" fill="#CDA36D"/>
<path d="M66.6128 56.161C66.4052 56.161 66.1976 56.1472 65.9761 56.1057C65.7546 56.0642 65.5331 55.9949 65.3255 55.8703C65.1178 55.7458 64.9517 55.5797 64.8271 55.3305C64.7025 55.0813 64.6333 54.7629 64.6333 54.3476V49.0458C64.6333 48.6858 64.6887 48.3951 64.7994 48.146C64.9102 47.9106 65.0486 47.7168 65.2285 47.5645C65.4085 47.4123 65.6023 47.3292 65.8238 47.26C66.0453 47.2046 66.2668 47.1631 66.4883 47.1631C67.0143 47.1631 67.4988 47.177 67.9279 47.1908C68.3571 47.2046 68.7724 47.2185 69.16 47.2323C69.5337 47.2462 69.9075 47.26 70.2536 47.2739V48.2844H66.8205C66.5159 48.2844 66.2945 48.3674 66.1145 48.5197C65.9345 48.672 65.8653 48.9211 65.8653 49.2395V51.0945L69.7137 51.1637V52.105L65.8653 52.1881V54.0154C65.8653 54.2922 65.9069 54.4999 66.0038 54.6383C66.1007 54.7768 66.2114 54.8736 66.3637 54.9152C66.5159 54.9567 66.6682 54.9844 66.8482 54.9844H70.2674V55.9949C69.8936 56.0226 69.506 56.0365 69.0907 56.0642C68.6755 56.078 68.2602 56.1057 67.8449 56.1195C67.4296 56.1333 67.0281 56.1334 66.6267 56.1334L66.6128 56.161Z" fill="#CDA36D"/>
<path d="M73.825 56.1886C73.382 56.1886 72.9806 56.0917 72.6206 55.8979C72.2607 55.7041 71.9839 55.4272 71.7762 55.0673C71.5686 54.7074 71.4717 54.2921 71.4717 53.8214C71.4717 53.3923 71.5686 52.9909 71.7485 52.6033C71.9285 52.2157 72.2192 51.8696 72.593 51.5373L73.3682 50.8867L73.1605 50.5822C72.9113 50.2222 72.7452 49.9038 72.676 49.627C72.6068 49.3501 72.5653 49.1148 72.5653 48.8795C72.5653 48.4781 72.6622 48.1458 72.856 47.9105C73.0498 47.6751 73.3128 47.4952 73.6312 47.3844C73.9496 47.2737 74.3095 47.2322 74.6971 47.2322C75.0155 47.2322 75.3062 47.2322 75.5692 47.2598C75.8322 47.2737 76.0676 47.3014 76.289 47.3291C76.4967 47.3568 76.6905 47.3844 76.8566 47.426V48.3119H74.9186C74.5863 48.3119 74.3095 48.3811 74.1018 48.5057C73.8942 48.6303 73.7973 48.8518 73.7973 49.1425C73.7973 49.3225 73.8388 49.5163 73.9357 49.7239C74.0326 49.9315 74.1849 50.1669 74.3926 50.4576L76.5659 53.4338L78.3516 51.7865L78.7946 52.3264L77.9779 53.4892L77.1888 54.2367L78.6008 56.1332H77.3134L76.3998 54.9289L75.9707 55.2888C75.6107 55.621 75.2647 55.8563 74.9186 55.9948C74.5863 56.1332 74.2126 56.2024 73.8111 56.2024L73.825 56.1886ZM74.0188 55.0673C74.2541 55.0673 74.4756 55.0258 74.6971 54.9289C74.9047 54.8458 75.1401 54.6797 75.3892 54.4305L75.7353 54.0983L73.9634 51.7173L73.382 52.2295C73.1051 52.4787 72.8975 52.714 72.8006 52.9493C72.6899 53.1985 72.6345 53.4338 72.6345 53.683C72.6345 54.0983 72.7591 54.4305 73.0083 54.6797C73.2574 54.9289 73.5897 55.0673 74.0188 55.0673Z" fill="#CDA36D"/>
<path d="M81.3555 56.1192V47.2043H82.5737V51.205H86.6989V47.2043H87.9032V56.1192H86.6989V52.2986H82.5737V56.1192H81.3555Z" fill="#CDA36D"/>
<path d="M92.0285 56.1888C91.4471 56.1888 90.9349 56.1334 90.4919 56.0227C90.049 55.9119 89.689 55.7043 89.3845 55.3997C89.0938 55.0952 88.8723 54.6383 88.72 54.0431C88.5677 53.4478 88.4985 52.6588 88.4985 51.6898C88.4985 50.7208 88.5677 49.9317 88.72 49.3365C88.8723 48.7412 89.0799 48.2706 89.3845 47.9522C89.689 47.6338 90.049 47.4123 90.4919 47.3015C90.9211 47.1908 91.4333 47.1216 92.0147 47.1216C92.5961 47.1216 93.1359 47.177 93.5651 47.3015C94.008 47.4123 94.368 47.6338 94.6587 47.9522C94.9494 48.2706 95.1709 48.7274 95.3093 49.3365C95.4477 49.9456 95.5308 50.7208 95.5308 51.6898C95.5308 52.6588 95.4616 53.434 95.3093 54.0431C95.157 54.6522 94.9494 55.0952 94.6448 55.3997C94.3403 55.7043 93.9804 55.9119 93.5374 56.0227C93.0944 56.1334 92.5822 56.1888 92.0008 56.1888H92.0285ZM92.0285 55.0952C92.4438 55.0952 92.8037 55.0536 93.0944 54.9567C93.3851 54.8737 93.6204 54.7075 93.8142 54.4722C94.008 54.2369 94.1326 53.8908 94.2019 53.4478C94.2849 53.0049 94.3264 52.4096 94.3264 51.6898C94.3264 50.9284 94.2849 50.3055 94.2019 49.8487C94.1188 49.3918 93.9804 49.0458 93.8142 48.8104C93.6343 48.5751 93.399 48.4228 93.1083 48.3398C92.8176 48.2567 92.4576 48.2152 92.0423 48.2152C91.6409 48.2152 91.3087 48.2567 91.018 48.3398C90.7273 48.4228 90.4919 48.5751 90.2981 48.8104C90.1043 49.0458 89.9797 49.3918 89.8828 49.8487C89.7859 50.3055 89.7444 50.9284 89.7444 51.6898C89.7444 52.4096 89.7859 53.0049 89.8552 53.4478C89.9244 53.8908 90.0628 54.2369 90.2428 54.4722C90.4227 54.7075 90.658 54.8737 90.9626 54.9567C91.2533 55.0398 91.6132 55.0952 92.0423 55.0952H92.0285Z" fill="#CDA36D"/>
<path d="M95.7382 56.1192L96.7487 47.2043H97.9531L100.223 54.6519L102.466 47.2043H103.684L104.722 56.1192H103.546L102.674 48.6856L102.881 48.7133L100.777 56.1192H99.6558L97.5101 48.7133H97.7316L96.901 56.1192H95.7244H95.7382Z" fill="#CDA36D"/>
<path d="M107.255 56.161C107.048 56.161 106.84 56.1472 106.619 56.1057C106.397 56.0642 106.176 55.9949 105.968 55.8703C105.76 55.7458 105.594 55.5797 105.47 55.3305C105.345 55.0813 105.276 54.7629 105.276 54.3476V49.0458C105.276 48.6858 105.331 48.3951 105.442 48.146C105.553 47.9106 105.691 47.7168 105.871 47.5645C106.051 47.4123 106.245 47.3292 106.466 47.26C106.688 47.2046 106.909 47.1631 107.131 47.1631C107.657 47.1631 108.141 47.177 108.571 47.1908C109 47.2046 109.415 47.2185 109.803 47.2323C110.176 47.2462 110.55 47.26 110.896 47.2739V48.2844H107.463C107.159 48.2844 106.937 48.3674 106.757 48.5197C106.577 48.672 106.508 48.9211 106.508 49.2395V51.0945L110.356 51.1637V52.105L106.508 52.1881V54.0154C106.508 54.2922 106.549 54.4999 106.646 54.6383C106.743 54.7768 106.854 54.8736 107.006 54.9152C107.159 54.9567 107.311 54.9844 107.491 54.9844H110.91V55.9949C110.536 56.0226 110.149 56.0365 109.733 56.0642C109.318 56.078 108.903 56.1057 108.487 56.1195C108.072 56.1333 107.671 56.1334 107.269 56.1334L107.255 56.161Z" fill="#CDA36D"/>
<path d="M114.551 56.1192V47.2043H118.164C118.718 47.2043 119.188 47.3012 119.562 47.5089C119.936 47.7165 120.254 48.0072 120.476 48.381C120.711 48.7686 120.877 49.2393 120.988 49.7792C121.099 50.319 121.14 50.9558 121.14 51.6618C121.14 52.617 121.029 53.4198 120.808 54.0843C120.586 54.7488 120.254 55.2472 119.811 55.5932C119.368 55.9393 118.815 56.1192 118.15 56.1192H114.537H114.551ZM115.769 55.0257H118.039C118.482 55.0257 118.842 54.8872 119.119 54.6242C119.396 54.3474 119.59 53.9736 119.728 53.4614C119.867 52.9492 119.922 52.3539 119.922 51.6618C119.922 51.025 119.881 50.4852 119.811 50.056C119.742 49.6269 119.631 49.2808 119.479 49.0178C119.327 48.7548 119.133 48.5748 118.898 48.4502C118.662 48.3395 118.385 48.2841 118.053 48.2841H115.783V55.0257H115.769Z" fill="#CDA36D"/>
<path d="M123.632 56.161C123.424 56.161 123.216 56.1472 122.995 56.1057C122.773 56.0642 122.552 55.9949 122.344 55.8703C122.137 55.7458 121.97 55.5797 121.846 55.3305C121.721 55.0813 121.652 54.7629 121.652 54.3476V49.0458C121.652 48.6858 121.707 48.3951 121.818 48.146C121.929 47.9106 122.067 47.7168 122.247 47.5645C122.427 47.4123 122.621 47.3292 122.843 47.26C123.064 47.2046 123.286 47.1631 123.507 47.1631C124.033 47.1631 124.518 47.177 124.947 47.1908C125.376 47.2046 125.791 47.2185 126.179 47.2323C126.553 47.2462 126.926 47.26 127.272 47.2739V48.2844H123.839C123.535 48.2844 123.313 48.3674 123.133 48.5197C122.953 48.672 122.884 48.9211 122.884 49.2395V51.0945L126.732 51.1637V52.105L122.884 52.1881V54.0154C122.884 54.2922 122.926 54.4999 123.023 54.6383C123.119 54.7768 123.23 54.8736 123.382 54.9152C123.535 54.9567 123.687 54.9844 123.867 54.9844H127.286V55.9949C126.912 56.0226 126.525 56.0365 126.11 56.0642C125.694 56.078 125.279 56.1057 124.864 56.1195C124.448 56.1333 124.047 56.1334 123.645 56.1334L123.632 56.161Z" fill="#CDA36D"/>
<path d="M130.831 56.1887C130.305 56.1887 129.834 56.1333 129.432 56.0087C129.031 55.8841 128.713 55.6626 128.436 55.3442C128.173 55.0258 127.965 54.569 127.841 53.9599C127.716 53.3647 127.647 52.5756 127.647 51.6205C127.647 50.7207 127.716 49.9731 127.841 49.3779C127.979 48.7826 128.173 48.3258 128.45 47.9936C128.726 47.6614 129.059 47.426 129.46 47.3014C129.862 47.1769 130.332 47.1077 130.858 47.1077C131.163 47.1077 131.467 47.1215 131.786 47.163C132.104 47.1907 132.409 47.2323 132.699 47.2876C132.99 47.343 133.253 47.3983 133.488 47.4676V48.3812C133.35 48.3535 133.142 48.3258 132.893 48.2981C132.644 48.2705 132.367 48.2428 132.049 48.2289C131.73 48.2151 131.412 48.2012 131.066 48.2012C130.665 48.2012 130.318 48.2428 130.042 48.3397C129.765 48.4366 129.529 48.6027 129.349 48.8519C129.169 49.101 129.045 49.4471 128.962 49.8901C128.879 50.3331 128.837 50.9145 128.837 51.6205C128.837 52.3264 128.879 52.9217 128.948 53.3785C129.017 53.8354 129.142 54.1814 129.322 54.4306C129.502 54.6798 129.723 54.8459 130 54.9428C130.277 55.0397 130.637 55.0812 131.052 55.0812C131.661 55.0812 132.16 55.0674 132.547 55.0397C132.935 55.012 133.253 54.9705 133.488 54.9428V55.8703C133.239 55.9256 132.976 55.981 132.686 56.0226C132.395 56.0641 132.09 56.1056 131.772 56.1333C131.454 56.161 131.135 56.1748 130.803 56.1748L130.831 56.1887Z" fill="#CDA36D"/>
<path d="M137.571 56.1888C136.99 56.1888 136.478 56.1334 136.035 56.0227C135.592 55.9119 135.232 55.7043 134.927 55.3997C134.637 55.0952 134.415 54.6383 134.263 54.0431C134.111 53.4478 134.042 52.6588 134.042 51.6898C134.042 50.7208 134.111 49.9317 134.263 49.3365C134.415 48.7412 134.623 48.2706 134.927 47.9522C135.232 47.6338 135.592 47.4123 136.035 47.3015C136.464 47.1908 136.976 47.1216 137.558 47.1216C138.139 47.1216 138.679 47.177 139.108 47.3015C139.551 47.4123 139.911 47.6338 140.202 47.9522C140.492 48.2706 140.714 48.7274 140.852 49.3365C140.991 49.9456 141.074 50.7208 141.074 51.6898C141.074 52.6588 141.005 53.434 140.852 54.0431C140.7 54.6522 140.492 55.0952 140.188 55.3997C139.897 55.7043 139.523 55.9119 139.08 56.0227C138.637 56.1334 138.125 56.1888 137.544 56.1888H137.571ZM137.571 55.0952C137.987 55.0952 138.347 55.0536 138.637 54.9567C138.928 54.8737 139.163 54.7075 139.357 54.4722C139.551 54.2369 139.676 53.8908 139.745 53.4478C139.828 53.0049 139.869 52.4096 139.869 51.6898C139.869 50.9284 139.828 50.3055 139.745 49.8487C139.662 49.3918 139.523 49.0458 139.357 48.8104C139.177 48.5751 138.942 48.4228 138.651 48.3398C138.361 48.2567 138.001 48.2152 137.585 48.2152C137.184 48.2152 136.852 48.2567 136.561 48.3398C136.27 48.4228 136.035 48.5751 135.841 48.8104C135.647 49.0458 135.523 49.3918 135.426 49.8487C135.329 50.3055 135.287 50.9284 135.287 51.6898C135.287 52.4096 135.329 53.0049 135.398 53.4478C135.467 53.8908 135.606 54.2369 135.786 54.4722C135.966 54.7075 136.201 54.8737 136.506 54.9567C136.796 55.0398 137.156 55.0952 137.585 55.0952H137.571Z" fill="#CDA36D"/>
<path d="M141.711 56.1195V47.2046H145.283C145.587 47.2046 145.892 47.2461 146.169 47.3154C146.445 47.3846 146.708 47.523 146.944 47.7168C147.165 47.9106 147.345 48.1875 147.47 48.5335C147.594 48.8796 147.664 49.3364 147.664 49.904C147.664 50.3608 147.622 50.7484 147.511 51.0529C147.414 51.3575 147.29 51.6067 147.124 51.7867C146.971 51.9666 146.791 52.105 146.598 52.2019C146.404 52.2988 146.224 52.368 146.03 52.4096L147.816 56.1195H146.584L144.937 52.5757C144.812 52.5757 144.674 52.5757 144.494 52.5757C144.314 52.5757 144.134 52.5757 143.954 52.5757C143.774 52.5757 143.58 52.5757 143.4 52.5757C143.22 52.5757 143.054 52.5757 142.915 52.5757V56.161H141.697L141.711 56.1195ZM142.929 51.5928H145.089C145.283 51.5928 145.463 51.5652 145.615 51.5236C145.767 51.4821 145.919 51.399 146.044 51.2744C146.169 51.1498 146.265 50.9699 146.335 50.7484C146.404 50.5269 146.445 50.2362 146.445 49.8901C146.445 49.5441 146.404 49.281 146.335 49.0734C146.265 48.8658 146.155 48.6996 146.03 48.5889C145.906 48.4781 145.753 48.3951 145.601 48.3536C145.435 48.3121 145.269 48.2843 145.075 48.2843H142.915V51.5928H142.929Z" fill="#CDA36D"/>
<path d="M41.0448 48.6579C40.8787 48.2841 40.6572 47.9934 40.3665 47.7858C40.0758 47.5643 39.7159 47.412 39.3006 47.329C38.9407 47.2598 38.5531 47.2043 38.1101 47.2043C38.0547 47.2043 37.9855 47.2043 37.9302 47.2043H33.1959C32.6975 47.2043 32.2545 47.2459 31.8531 47.3428C31.4378 47.4258 31.0779 47.5781 30.7872 47.7996C30.4965 48.0073 30.2611 48.298 30.1089 48.6717C29.9566 49.0455 29.8735 49.5023 29.8735 50.0837V56.2023H31.1056V50.0837C31.1056 49.6269 31.1748 49.267 31.3547 49.004C31.5209 48.7548 31.7562 48.561 32.0746 48.4641C32.3791 48.3533 32.7529 48.298 33.2097 48.298H37.944C38.4008 48.298 38.7884 48.3533 39.1068 48.4641C39.4252 48.5748 39.6744 48.7548 39.8266 49.004C39.9928 49.267 40.0758 49.6269 40.0758 50.0837V56.2023H41.3078V50.0837C41.3078 49.5161 41.2386 49.0455 41.0725 48.6717L41.0448 48.6579Z" fill="#CDA36D"/>
</svg>
