<svg width="158" height="62" viewBox="0 0 158 62" fill="none" xmlns="http://www.w3.org/2000/svg">
<path d="M9.02587 0.678223H0.000244141V37.4175H3.57174V23.9344H9.02587C16.3211 23.9344 21.36 20.0999 21.36 11.6003C21.36 4.665 16.3211 0.678223 9.02587 0.678223ZM9.02587 23.1454H3.57174V1.46727H9.02587C14.4246 1.46727 17.7885 4.40199 17.7885 11.6972C17.7885 18.9925 14.3831 23.1315 9.02587 23.1315V23.1454Z" fill="#CE0E2D"/>
<path d="M27.1325 9.13635V9.9254C37.0026 9.9254 38.4145 14.4936 38.4145 21.1521V21.9965C36.7949 19.4771 33.0158 17.6913 29.8596 17.6913C24.5023 17.6913 21.5676 22.7855 21.5676 27.6167C21.5676 32.4479 24.5023 37.5422 29.8596 37.5422C33.0019 37.5422 36.7811 35.7564 38.4145 33.237V33.6523C38.7883 35.2304 40.1449 36.6424 41.46 37.4314H41.986V21.1521C41.986 13.4415 38.2069 9.13635 27.1325 9.13635ZM38.4145 30.5515C38.4145 33.5969 34.3724 36.0056 31.23 36.0056C27.3402 36.0056 25.4575 32.3372 25.4575 27.6029C25.4575 22.8686 27.3402 19.2002 31.23 19.2002C34.3724 19.2002 38.4145 21.6089 38.4145 24.6543V30.5376V30.5515Z" fill="#CE0E2D"/>
<path d="M50.5687 28.5028V10.9222H54.9154V8.99798H50.5687V2.93475C49.4613 2.31182 48.7829 2.09033 47.5232 2.09033H46.9972V9.01183H45.0315V10.936H46.9972V25.6649C46.9972 33.3755 46.9972 37.4176 55.6491 37.4176V36.6286C50.8732 36.6286 50.5548 33.4862 50.5548 28.4889L50.5687 28.5028Z" fill="#CE0E2D"/>
<path d="M62.1554 28.5028V10.9222H66.5021V8.99798H62.1554V2.93475C61.0479 2.31182 60.3696 2.09033 59.1099 2.09033H58.5839V9.01183H56.6182V10.936H58.5839V25.6649C58.5839 33.3755 58.5839 37.4176 67.2357 37.4176V36.6286C62.4599 36.6286 62.1415 33.4862 62.1415 28.4889L62.1554 28.5028Z" fill="#CE0E2D"/>
<path d="M72.2054 0C71.1533 0 70.3228 1.25971 70.3228 2.5748C70.3228 4.30517 71.8455 5.56488 72.2054 5.56488C72.6207 5.56488 74.1434 4.30517 74.1434 2.5748C74.1434 1.25971 73.2575 0 72.2054 0V0Z" fill="#CE0E2D"/>
<path d="M70.4197 37.4176H73.9912V9.08099C72.5792 8.29194 71.9978 8.23657 70.4197 8.23657V37.4176Z" fill="#CE0E2D"/>
<path d="M83.1415 9.13635V9.9254C93.0116 9.9254 94.4236 14.4936 94.4236 21.1521V21.9965C92.8039 19.4771 89.0248 17.6913 85.8686 17.6913C80.5114 17.6913 77.5767 22.7855 77.5767 27.6167C77.5767 32.4479 80.5114 37.5422 85.8686 37.5422C89.011 37.5422 92.7901 35.7564 94.4236 33.237V33.6523C94.7973 35.2304 96.154 36.6424 97.469 37.4314H97.9951V21.1521C97.9951 13.4415 94.2159 9.13635 83.1415 9.13635ZM94.4236 30.5515C94.4236 33.5969 90.3814 36.0056 87.2391 36.0056C83.3492 36.0056 81.4665 32.3372 81.4665 27.6029C81.4665 22.8686 83.3492 19.2002 87.2391 19.2002C90.3814 19.2002 94.4236 21.6089 94.4236 24.6543V30.5376V30.5515Z" fill="#CE0E2D"/>
<path d="M125.542 8.81803C121.971 8.81803 119.977 10.5484 119.133 13.0125C118.344 10.5484 116.35 8.81803 112.779 8.81803C109.678 8.81803 107.795 10.0777 106.799 11.9604V9.0672C105.747 8.4858 104.916 8.22278 103.809 8.22278H103.227V37.4176H106.799V15.7949C106.799 12.8048 108.169 10.4377 111.685 10.4377C115.201 10.4377 115.672 12.8048 115.672 15.7949V37.4176H119.604V15.7949C119.604 12.8048 120.919 10.4377 124.435 10.4377C127.951 10.4377 128.422 12.8048 128.422 15.7949V37.4176H132.353V15.7949C132.353 11.9604 130.36 8.81803 125.528 8.81803H125.542Z" fill="#CE0E2D"/>
<path d="M136.824 0.415272C135.938 0.3599 135.205 1.03821 135.094 1.938C135.039 2.78242 135.62 3.57147 136.506 3.72375C136.561 3.87602 136.617 4.04213 136.617 4.19441C136.617 4.72044 136.298 5.30185 135.565 5.86941L135.772 6.1878C137.406 5.50949 138.444 3.87602 138.402 2.35329C138.402 1.20432 137.724 0.470644 136.824 0.415272Z" fill="#CE0E2D"/>
<path d="M143.635 14.2721C143.635 11.5451 144.521 9.12255 147.941 9.12255C151.567 9.12255 153.298 10.1746 154.765 13.4277L155.554 13.1647C153.921 9.59321 152.038 8.3335 148.314 8.3335C143.386 8.3335 139.912 10.4792 139.912 14.4244C139.912 25.4988 153.768 20.986 153.768 29.9562C153.768 33.0017 152.19 36.6147 147.733 36.6147C142.376 36.6147 141.324 33.3062 140.701 31.0498L139.967 31.3129C141.227 35.618 142.805 37.4038 147.262 37.4038C155.084 37.4038 157.077 31.8943 157.077 29.0564C157.077 17.719 143.635 21.6505 143.635 14.2583V14.2721Z" fill="#CE0E2D"/>
<path d="M87.7785 55.8841C87.0864 51.842 84.2762 48.4228 80.4002 46.9692C80.1787 47.6475 80.0126 48.3535 79.9157 49.0734C79.182 54.569 82.3936 59.6633 87.3494 61.5321C91.5438 60.3693 94.5477 56.4517 94.3678 51.9112C94.3401 51.3159 94.257 50.7345 94.1186 50.167C91.1977 50.9699 88.8444 53.1294 87.7785 55.898V55.8841ZM87.6401 60.4938C87.7231 60.1478 87.7924 59.8017 87.8339 59.4418C87.9723 58.4728 87.9723 57.5314 87.8616 56.5901C88.6229 54.6659 90.2564 53.1571 92.2913 52.5895C92.3882 52.9771 92.4436 53.3924 92.4574 53.8077C92.5959 56.95 90.5194 59.6633 87.6262 60.4938H87.6401Z" fill="#93B278"/>
<path d="M26.3015 60.48C26.1493 60.3554 25.9555 60.0371 25.7201 59.4972C25.3464 58.5697 24.8342 57.1992 24.1836 55.3581C23.5329 53.5309 22.8408 51.4959 22.1071 49.2672H20.6674C19.7815 51.6344 18.9371 53.7939 18.1342 55.7596C17.3313 57.7253 16.7776 59.0404 16.473 59.691C16.2931 60.0371 16.0993 60.2862 15.8639 60.4385C15.6424 60.5769 15.3102 60.66 14.9226 60.6738V61.2414C15.3102 61.2276 15.684 61.1999 16.0162 61.186C16.3623 61.186 16.6391 61.186 16.8606 61.186C17.1375 61.186 17.4559 61.186 17.8158 61.186C18.1757 61.186 18.5633 61.2137 18.9648 61.2414V60.66H18.7433C18.3695 60.66 18.1065 60.6046 17.9681 60.4939C17.8296 60.397 17.7466 60.1893 17.7466 59.9263C17.7466 59.7325 17.8158 59.4003 17.9681 58.9435C18.1065 58.4728 18.3834 57.753 18.771 56.7424C19.1447 56.7424 19.4908 56.7286 19.823 56.7286C20.1691 56.7286 20.529 56.7286 20.9028 56.7286C21.0966 56.7286 21.5257 56.7286 22.204 56.7563H23.09L23.9067 59.3311C23.9621 59.4833 23.9898 59.6079 24.0175 59.7187C24.0313 59.8156 24.0451 59.9263 24.0451 60.0232C24.0451 60.2585 23.9759 60.4385 23.8236 60.5354C23.6852 60.6323 23.3945 60.6738 23.0069 60.6738H22.8546V61.2552C23.2699 61.2414 23.6575 61.2137 24.0451 61.1999C24.4189 61.1999 24.765 61.1999 25.0834 61.1999C25.3187 61.1999 25.6371 61.1999 25.9832 61.1999C26.3431 61.1999 26.7445 61.2276 27.1875 61.2552V60.6738H27.0214C26.7168 60.6738 26.4815 60.6185 26.3154 60.4939L26.3015 60.48ZM22.3978 55.8703C21.678 55.8842 21.1658 55.898 20.8889 55.898C20.6674 55.898 20.2245 55.898 19.5877 55.8703C19.38 55.8703 19.2416 55.8703 19.117 55.8703L21.0412 50.8592L22.7577 55.8703C22.6747 55.8703 22.5501 55.8703 22.384 55.8703H22.3978Z" fill="#93B278"/>
<path d="M40.8087 49.3364C40.5872 49.3364 40.3104 49.3364 40.0058 49.3226C39.7013 49.3226 39.3829 49.2949 39.0368 49.2672V49.8486H39.1753C39.4798 49.8486 39.7013 49.8763 39.8536 49.9455C39.992 50.0147 40.0474 50.1116 40.0474 50.2501C40.0474 50.3885 39.8259 50.8453 39.3691 51.6482C38.9122 52.4511 38.2201 53.5862 37.3065 55.0536L35.2715 51.4406C35.23 51.3713 35.1746 51.2606 35.0916 51.136C34.8286 50.6654 34.6763 50.3747 34.6763 50.2362C34.6763 50.1116 34.7594 50.0147 34.9255 49.9455C35.0916 49.8901 35.3131 49.8486 35.6315 49.8486H35.7422V49.2672C35.3684 49.2811 34.9947 49.3087 34.6486 49.3226C34.3025 49.3226 33.9703 49.3364 33.6796 49.3364C33.4027 49.3364 33.0843 49.3364 32.7106 49.3226C32.3507 49.3226 31.9492 49.2949 31.5339 49.2672V49.8486C31.617 49.8486 31.6724 49.8348 31.7139 49.8348C31.7554 49.8348 31.797 49.8348 31.8108 49.8348C32.2261 49.8348 32.6829 50.2501 33.1812 51.0945C33.2505 51.2329 33.3197 51.3298 33.3612 51.399L36.0744 55.9811L36.0468 58.9573C36.0468 59.6633 35.9498 60.134 35.7699 60.3554C35.5899 60.5769 35.2715 60.6877 34.787 60.6877C34.7455 60.6877 34.6901 60.6877 34.6071 60.6877C34.5379 60.6877 34.4686 60.6877 34.4271 60.6877V61.2829C34.9116 61.2691 35.3684 61.2414 35.7837 61.2276C36.2129 61.2276 36.5451 61.2276 36.8358 61.2276C37.168 61.2276 37.5418 61.2276 37.9571 61.2276C38.3862 61.2276 38.8153 61.2552 39.286 61.2829V60.6877H38.9953C38.497 60.6877 38.1509 60.5908 37.9848 60.397C37.8187 60.217 37.7218 59.7187 37.7218 58.9435L37.6941 55.9395L39.812 52.7141C39.9505 52.4926 40.1581 52.1742 40.4073 51.7728C41.2102 50.4992 41.847 49.8625 42.3453 49.8625H42.5253C42.5253 49.8625 42.553 49.8625 42.5668 49.8625V49.2811C42.2623 49.2949 41.9577 49.3226 41.6532 49.3364C41.3486 49.3364 41.0579 49.3503 40.781 49.3503L40.8087 49.3364Z" fill="#93B278"/>
<path d="M58.9157 49.3365C58.5834 49.3365 58.0297 49.3227 57.2545 49.2811C57.1299 49.2811 57.033 49.2811 56.9638 49.2811V49.8487H57.0884C57.4622 49.8487 57.7252 49.9041 57.8913 50.001C58.0574 50.0979 58.182 50.2778 58.265 50.5408C58.3066 50.7346 58.3481 51.3022 58.3758 52.2297C58.4035 53.1572 58.4312 54.32 58.4312 55.6766C58.4312 56.8117 58.3758 57.6285 58.2512 58.1268C58.1266 58.6113 57.919 59.0266 57.6144 59.3588C57.3099 59.6911 56.95 59.9541 56.5208 60.1063C56.0917 60.2725 55.5933 60.3555 55.0258 60.3555C54.2783 60.3555 53.6276 60.1894 53.1016 59.8849C52.5617 59.5665 52.1603 59.1096 51.8834 58.5006C51.745 58.2237 51.6619 57.8638 51.6066 57.4347C51.5512 57.0055 51.5235 56.3411 51.5235 55.4274V52.3681C51.5235 51.2745 51.5927 50.5824 51.745 50.2917C51.8973 50.001 52.2018 49.8625 52.6448 49.8625C52.6725 49.8625 52.714 49.8625 52.7832 49.8625H52.9216V49.295C52.534 49.3088 52.1603 49.3365 51.7865 49.3503C51.4128 49.3503 51.0528 49.3642 50.6929 49.3642C50.3884 49.3642 50.07 49.3642 49.7101 49.3503C49.3502 49.3503 48.9764 49.3227 48.575 49.295V49.8625H48.7272C49.1979 49.8625 49.5024 49.9733 49.6547 50.2086C49.8208 50.4301 49.9039 51.0253 49.9039 51.9944V52.2574C49.9039 52.7696 49.9039 53.4894 49.89 54.403C49.89 55.3305 49.8762 55.9811 49.8762 56.3826C49.8762 57.4347 49.9731 58.2375 50.1807 58.819C50.3745 59.4004 50.7068 59.9125 51.1636 60.3278C51.5927 60.7293 52.1049 61.0477 52.714 61.2553C53.3231 61.4768 53.9876 61.5737 54.7074 61.5737C55.7456 61.5737 56.6454 61.3522 57.4068 60.9369C58.1681 60.5078 58.7219 59.9264 59.0264 59.1927C59.1648 58.8328 59.2894 58.4175 59.3448 57.9468C59.414 57.4762 59.4417 56.8117 59.4417 55.9119V55.0675C59.4417 53.5309 59.4555 52.4096 59.4832 51.7175C59.5109 51.0253 59.5524 50.5962 59.6217 50.4301C59.6909 50.2363 59.8155 50.0979 59.9816 50.0148C60.1477 49.9179 60.383 49.8764 60.7153 49.8764H60.8122V49.3088C60.8122 49.3088 60.6599 49.3088 60.5215 49.3088C59.7462 49.3503 59.1925 49.3642 58.8741 49.3642L58.9157 49.3365Z" fill="#93B278"/>
<path d="M75.375 58.3482C75.2643 58.1821 75.1812 58.0575 75.1259 57.9606L73.5478 55.5934C74.2814 55.2058 74.8352 54.7629 75.1951 54.2368C75.5688 53.7108 75.7488 53.1017 75.7488 52.4234C75.7488 51.5098 75.375 50.7622 74.6414 50.1393C73.9077 49.544 72.9802 49.2395 71.8174 49.2395C71.6374 49.2395 71.2637 49.2395 70.6961 49.2672C70.1424 49.2949 69.6856 49.3087 69.3118 49.3087C68.9657 49.3087 68.592 49.3087 68.2321 49.2949C67.8721 49.2949 67.4984 49.281 67.1246 49.2395V49.8348H67.18C67.6368 49.8348 67.9552 49.9178 68.149 50.0978C68.329 50.2777 68.412 50.61 68.412 51.1083V52.6172C68.412 53.0879 68.412 53.5585 68.412 54.043L68.3843 56.341C68.3843 56.6317 68.3843 57.0469 68.3705 57.573C68.3705 59.6633 67.9829 60.7153 67.2354 60.7153H67.0692C67.0692 60.7153 67 60.7153 66.9585 60.7015V61.2552C67.4292 61.2414 67.8583 61.2137 68.2321 61.1998C68.6058 61.1998 68.8965 61.1998 69.1042 61.1998C69.4918 61.1998 69.8794 61.1998 70.2808 61.1998C70.6684 61.1998 71.0699 61.2275 71.4575 61.2552V60.7015C71.4575 60.7015 71.4575 60.7015 71.4436 60.7015C71.4298 60.7015 71.4021 60.7015 71.3883 60.7015C71.3883 60.7015 71.3606 60.7015 71.3329 60.7015C71.3052 60.7015 71.2775 60.7015 71.2637 60.7015C70.7515 60.7015 70.4054 60.5908 70.2393 60.3693C70.0593 60.1478 69.9763 59.6079 69.9763 58.7773V56.2025H70.4885C70.7792 56.2025 71.0422 56.2025 71.2914 56.1887C71.5267 56.1887 71.762 56.1748 71.9697 56.1472C72.5372 56.95 73.1048 57.836 73.6723 58.7635C74.2399 59.691 74.5445 60.1893 74.5998 60.2585C74.9321 60.7153 75.2781 61.0199 75.6104 61.186C75.9564 61.3383 76.4271 61.4213 77.0224 61.4213C77.1885 61.4213 77.4515 61.4075 77.8252 61.366C77.9775 61.3521 78.0883 61.3383 78.1713 61.3383V60.8538H78.0883C77.3961 60.8538 76.5102 60.0232 75.4166 58.362L75.375 58.3482ZM72.5234 55.3443C72.288 55.3581 72.0666 55.3858 71.8728 55.3996C71.6651 55.3996 71.4852 55.3996 71.3329 55.3996C71.1529 55.3996 70.9453 55.3996 70.6961 55.3858C70.4469 55.3719 70.1978 55.3581 69.9347 55.3304C69.9347 54.0846 69.9347 53.0879 69.9347 52.3542C69.9347 51.6343 69.9486 50.9145 69.9624 50.2224C70.1839 50.1808 70.3916 50.1531 70.613 50.1255C70.8345 50.1116 71.056 50.0978 71.2914 50.0978C72.1358 50.0978 72.8141 50.3331 73.3263 50.8038C73.8385 51.2744 74.0876 51.8974 74.0876 52.6726C74.0876 53.2678 73.963 53.78 73.7139 54.2091C73.4509 54.6383 73.0633 55.012 72.5234 55.3443Z" fill="#93B278"/>
<path d="M105.677 59.9124C105.234 60.1754 104.293 60.3138 102.895 60.3138C102.466 60.3138 102.078 60.3138 101.718 60.3C101.358 60.2861 101.04 60.2584 100.763 60.2169C100.749 59.6909 100.735 59.2064 100.722 58.8188V56.6177C100.722 56.1332 100.722 55.7595 100.722 55.4826H102.826C103.836 55.4826 104.487 55.5657 104.764 55.7456C105.041 55.9117 105.193 56.2301 105.193 56.7146V56.77H105.733C105.733 56.6731 105.733 56.5347 105.719 56.3686C105.691 55.8841 105.677 55.5657 105.677 55.4272C105.677 55.1781 105.677 54.9012 105.705 54.5967C105.719 54.306 105.747 53.9876 105.788 53.6277L105.262 53.5723C105.248 53.9876 105.096 54.2644 104.833 54.4167C104.57 54.569 104.03 54.6382 103.227 54.6382C103.061 54.6382 102.729 54.6382 102.231 54.6382C101.732 54.6382 101.317 54.6382 100.985 54.6382H100.722C100.722 54.3475 100.735 53.7107 100.763 52.7417C100.791 51.7727 100.805 50.9421 100.819 50.2638C100.902 50.2638 101.012 50.2638 101.192 50.2638C102.023 50.2638 102.604 50.25 102.909 50.25C104.127 50.25 104.93 50.3607 105.304 50.6099C105.677 50.8314 105.885 51.2882 105.927 51.9665L106.48 51.9111C106.439 51.482 106.411 51.0252 106.383 50.596C106.356 50.1531 106.328 49.7239 106.328 49.2948C105.664 49.3225 105.027 49.3502 104.39 49.3779C103.753 49.3779 103.13 49.3917 102.507 49.3917C101.954 49.3917 101.275 49.3917 100.514 49.3779C99.7388 49.364 98.8667 49.3225 97.8838 49.2948V49.8624H97.953C98.4099 49.8624 98.7282 49.9454 98.9082 50.1254C99.0881 50.3053 99.1712 50.6376 99.1712 51.1359V52.6448C99.1712 53.1155 99.1712 53.5861 99.1574 54.0706L99.1297 56.3686C99.1297 56.6593 99.1297 57.0746 99.1158 57.6006C99.1158 59.6909 98.7282 60.743 97.9807 60.743H97.8146C97.8146 60.743 97.7454 60.743 97.7039 60.7291V61.2828H98.0084C99.8634 61.2136 101.206 61.1859 102.051 61.1859C102.66 61.1859 103.352 61.1859 104.085 61.2136C104.847 61.2136 105.664 61.2551 106.536 61.2828C106.633 60.8399 106.743 60.3969 106.882 59.9401C107.006 59.4971 107.145 59.0403 107.325 58.5696L106.716 58.3758C106.453 59.1372 106.107 59.677 105.664 59.9401L105.677 59.9124Z" fill="#93B278"/>
<path d="M118.607 49.1841C118.482 49.1841 118.053 49.1979 117.305 49.2533C116.558 49.2948 115.88 49.3225 115.27 49.3225C115.063 49.3225 114.8 49.3225 114.481 49.3087C114.163 49.2948 113.817 49.281 113.457 49.2533V49.8347H113.512C113.969 49.8347 114.288 49.9316 114.468 50.1116C114.648 50.2915 114.731 50.6238 114.731 51.1083V52.6864C114.731 53.1432 114.731 53.6138 114.731 54.0845L114.703 56.3271C114.703 56.6316 114.689 57.0331 114.689 57.5591C114.689 59.6355 114.301 60.6738 113.554 60.6738H113.374C113.374 60.6738 113.305 60.6738 113.277 60.6738V61.2552C113.665 61.2413 114.025 61.2136 114.357 61.1998C114.689 61.186 114.966 61.1998 115.201 61.1998C115.686 61.1998 116.336 61.2136 117.112 61.2552C117.901 61.2967 118.441 61.3244 118.731 61.3244C120.738 61.3244 122.344 60.7568 123.549 59.6217C124.753 58.4866 125.348 56.9638 125.348 55.1089C125.348 53.2539 124.753 51.8419 123.549 50.7899C122.358 49.7378 120.711 49.2118 118.634 49.2118L118.607 49.1841ZM122.247 59.1926C121.403 60.0647 120.199 60.4938 118.62 60.4938C118.219 60.4938 117.818 60.48 117.43 60.4384C117.042 60.3969 116.627 60.3415 116.226 60.2446V57.9605C116.226 57.1853 116.226 56.2025 116.239 55.0258C116.239 53.8492 116.267 52.2434 116.309 50.1946C116.655 50.1531 117.015 50.1116 117.361 50.0839C117.707 50.07 118.039 50.0562 118.371 50.0562C119.991 50.0562 121.251 50.5407 122.15 51.5097C123.064 52.4787 123.507 53.8215 123.507 55.5242C123.507 57.1161 123.092 58.3481 122.247 59.2064V59.1926Z" fill="#93B278"/>
<path d="M141.96 60.66C141.655 60.66 141.433 60.6046 141.267 60.48C141.115 60.3554 140.921 60.0371 140.686 59.4972C140.312 58.5697 139.8 57.1992 139.149 55.3581C138.499 53.5309 137.807 51.4959 137.073 49.2672H135.619C134.733 51.6344 133.903 53.7939 133.1 55.7596C132.297 57.7253 131.743 59.0404 131.439 59.691C131.259 60.0371 131.051 60.2862 130.83 60.4385C130.594 60.5769 130.276 60.66 129.888 60.6738V61.2414C130.276 61.2276 130.65 61.1999 130.982 61.186C131.328 61.186 131.605 61.186 131.826 61.186C132.103 61.186 132.422 61.186 132.782 61.186C133.142 61.186 133.515 61.2137 133.931 61.2414V60.66H133.709C133.335 60.66 133.072 60.6046 132.934 60.4939C132.782 60.397 132.712 60.1893 132.712 59.9263C132.712 59.7325 132.782 59.4003 132.934 58.9435C133.072 58.4728 133.349 57.753 133.737 56.7424C134.097 56.7424 134.457 56.7286 134.789 56.7286C135.135 56.7286 135.481 56.7286 135.869 56.7286C136.049 56.7286 136.492 56.7286 137.17 56.7563H138.042L138.873 59.3311C138.928 59.4833 138.956 59.6079 138.969 59.7187C138.983 59.8156 138.997 59.9263 138.997 60.0232C138.997 60.2585 138.942 60.4385 138.776 60.5354C138.637 60.6323 138.36 60.6738 137.973 60.6738H137.807V61.2552C138.236 61.2414 138.623 61.2137 138.997 61.1999C139.385 61.1999 139.717 61.1999 140.035 61.1999C140.285 61.1999 140.589 61.1999 140.949 61.1999C141.309 61.1999 141.71 61.2276 142.153 61.2552V60.6738H141.973L141.96 60.66ZM137.364 55.8703C136.63 55.8842 136.118 55.898 135.855 55.898C135.619 55.898 135.19 55.898 134.554 55.8703C134.346 55.8703 134.194 55.8703 134.083 55.8703L136.007 50.8592L137.724 55.8703C137.64 55.8703 137.516 55.8703 137.35 55.8703H137.364Z" fill="#93B278"/>
</svg>
