<svg width="114" height="45" viewBox="0 0 114 45" fill="none" xmlns="http://www.w3.org/2000/svg">
<g clip-path="url(#clip0_1513_62)">
<path d="M6.52 1.17993H0V27.7199H2.58V17.9799H6.52C11.79 17.9799 15.43 15.2099 15.43 9.06993C15.43 4.05993 11.79 1.17993 6.52 1.17993ZM6.52 17.4099H2.58V1.74993H6.52C10.42 1.74993 12.85 3.86993 12.85 9.13993C12.85 14.4099 10.39 17.3999 6.52 17.3999V17.4099Z" fill="#CE0E2D"/>
<path d="M19.6001 7.29004V7.86004C26.7301 7.86004 27.7501 11.16 27.7501 15.97V16.58C26.5801 14.76 23.8501 13.47 21.5701 13.47C17.7001 13.47 15.5801 17.15 15.5801 20.64C15.5801 24.13 17.7001 27.81 21.5701 27.81C23.8401 27.81 26.5701 26.52 27.7501 24.7V25C28.0201 26.14 29.0001 27.16 29.9501 27.73H30.3301V15.97C30.3301 10.4 27.6001 7.29004 19.6001 7.29004ZM27.7501 22.76C27.7501 24.96 24.8301 26.7 22.5601 26.7C19.7501 26.7 18.3901 24.05 18.3901 20.63C18.3901 17.21 19.7501 14.56 22.5601 14.56C24.8301 14.56 27.7501 16.3 27.7501 18.5V22.75V22.76Z" fill="#CE0E2D"/>
<path d="M36.53 21.28V8.57995H39.67V7.18995H36.53V2.80995C35.73 2.35995 35.24 2.19995 34.33 2.19995H33.95V7.19995H32.53V8.58995H33.95V19.23C33.95 24.8 33.95 27.72 40.2 27.72V27.15C36.75 27.15 36.52 24.88 36.52 21.27L36.53 21.28Z" fill="#CE0E2D"/>
<path d="M44.8999 21.28V8.57995H48.0399V7.18995H44.8999V2.80995C44.0999 2.35995 43.6099 2.19995 42.6999 2.19995H42.3199V7.19995H40.8999V8.58995H42.3199V19.23C42.3199 24.8 42.3199 27.72 48.5699 27.72V27.15C45.1199 27.15 44.8899 24.88 44.8899 21.27L44.8999 21.28Z" fill="#CE0E2D"/>
<path d="M52.16 0.689941C51.4 0.689941 50.8 1.59994 50.8 2.54994C50.8 3.79994 51.9 4.70994 52.16 4.70994C52.46 4.70994 53.5601 3.79994 53.5601 2.54994C53.5601 1.59994 52.92 0.689941 52.16 0.689941V0.689941Z" fill="#CE0E2D"/>
<path d="M50.8701 27.7199H53.4501V7.24989C52.4301 6.67989 52.0101 6.63989 50.8701 6.63989V27.7199Z" fill="#CE0E2D"/>
<path d="M60.06 7.29004V7.86004C67.19 7.86004 68.21 11.16 68.21 15.97V16.58C67.04 14.76 64.31 13.47 62.03 13.47C58.16 13.47 56.04 17.15 56.04 20.64C56.04 24.13 58.16 27.81 62.03 27.81C64.3 27.81 67.03 26.52 68.21 24.7V25C68.48 26.14 69.46 27.16 70.41 27.73H70.79V15.97C70.79 10.4 68.06 7.29004 60.06 7.29004ZM68.21 22.76C68.21 24.96 65.29 26.7 63.02 26.7C60.21 26.7 58.85 24.05 58.85 20.63C58.85 17.21 60.21 14.56 63.02 14.56C65.29 14.56 68.21 16.3 68.21 18.5V22.75V22.76Z" fill="#CE0E2D"/>
<path d="M90.6901 7.05988C88.1101 7.05988 86.6701 8.30988 86.0601 10.0899C85.4901 8.30988 84.0501 7.05988 81.4701 7.05988C79.2301 7.05988 77.8701 7.96988 77.1501 9.32988V7.23988C76.3901 6.81988 75.7901 6.62988 74.9901 6.62988H74.5701V27.7199H77.1501V12.0999C77.1501 9.93988 78.1401 8.22988 80.6801 8.22988C83.2201 8.22988 83.5601 9.93988 83.5601 12.0999V27.7199H86.4001V12.0999C86.4001 9.93988 87.3501 8.22988 89.8901 8.22988C92.4301 8.22988 92.7701 9.93988 92.7701 12.0999V27.7199H95.6101V12.0999C95.6101 9.32988 94.1701 7.05988 90.6801 7.05988H90.6901Z" fill="#CE0E2D"/>
<path d="M98.84 0.989833C98.2 0.949833 97.67 1.43983 97.59 2.08983C97.55 2.69983 97.97 3.26983 98.61 3.37983C98.65 3.48983 98.69 3.60983 98.69 3.71983C98.69 4.09983 98.46 4.51983 97.93 4.92983L98.08 5.15983C99.26 4.66983 100.01 3.48983 99.98 2.38983C99.98 1.55983 99.49 1.02983 98.84 0.989833Z" fill="#CE0E2D"/>
<path d="M103.76 11C103.76 9.02996 104.4 7.27996 106.87 7.27996C109.49 7.27996 110.74 8.03996 111.8 10.39L112.37 10.2C111.19 7.61996 109.83 6.70996 107.14 6.70996C103.58 6.70996 101.07 8.25996 101.07 11.11C101.07 19.11 111.08 15.85 111.08 22.33C111.08 24.53 109.94 27.14 106.72 27.14C102.85 27.14 102.09 24.75 101.64 23.12L101.11 23.31C102.02 26.42 103.16 27.71 106.38 27.71C112.03 27.71 113.47 23.73 113.47 21.68C113.47 13.49 103.76 16.33 103.76 10.99V11Z" fill="#CE0E2D"/>
<path d="M21.5 44.8899V37.9799C21.5 37.6299 21.55 37.3399 21.66 37.0999C21.77 36.8599 21.91 36.6799 22.08 36.5399C22.25 36.3999 22.45 36.2999 22.67 36.2399C22.89 36.1799 23.1 36.1499 23.32 36.1499C23.64 36.1499 24.01 36.1599 24.42 36.1699C24.83 36.1699 25.26 36.1799 25.71 36.1999C26.16 36.2199 26.59 36.2399 27.01 36.2799V37.2499H23.62C23.33 37.2499 23.1 37.3299 22.94 37.4899C22.78 37.6499 22.7 37.8799 22.7 38.1799V40.2099L26.47 40.2799V41.1999L22.7 41.2699V44.8799H21.5V44.8899Z" fill="#CDA36D"/>
<path d="M31.8999 44.9599C31.4199 44.9599 30.9799 44.9199 30.5699 44.8299C30.1699 44.7399 29.8199 44.5899 29.5299 44.3899C29.2399 44.1899 29.0099 43.8899 28.8599 43.5299C28.7099 43.1699 28.6299 42.7099 28.6299 42.1499V36.1499H29.8299V42.1299C29.8299 42.5799 29.9099 42.9299 30.0699 43.1799C30.2299 43.4299 30.4699 43.6099 30.7799 43.7099C31.0899 43.8199 31.4699 43.8699 31.8999 43.8699C32.3299 43.8699 32.7199 43.8199 33.0299 43.7099C33.3399 43.5999 33.5799 43.4299 33.7399 43.1799C33.8999 42.9299 33.9799 42.5799 33.9799 42.1299V36.1499H35.1799V42.1499C35.1799 42.6999 35.0999 43.1599 34.9399 43.5299C34.7799 43.8899 34.5599 44.1799 34.2699 44.3899C33.9799 44.5999 33.6399 44.7499 33.2299 44.8299C32.8299 44.9199 32.3799 44.9599 31.8899 44.9599H31.8999Z" fill="#CDA36D"/>
<path d="M36.8401 44.8899V36.1499H40.3401C40.6401 36.1499 40.9301 36.1899 41.2101 36.2599C41.4901 36.3299 41.7401 36.4599 41.9601 36.6499C42.1801 36.8399 42.3601 37.1099 42.4801 37.4499C42.6001 37.7899 42.6701 38.2399 42.6701 38.7999C42.6701 39.2499 42.6201 39.6299 42.5301 39.9299C42.4301 40.2299 42.3101 40.4699 42.1601 40.6499C42.0101 40.8299 41.8401 40.9599 41.6501 41.0499C41.4601 41.1399 41.2801 41.2099 41.1001 41.2599L42.8401 44.8999H41.6301L40.0201 41.4299C39.9001 41.4299 39.7601 41.4299 39.5901 41.4299C39.4201 41.4299 39.2401 41.4299 39.0601 41.4299C38.8801 41.4299 38.6901 41.4299 38.5101 41.4199C38.3301 41.4199 38.1801 41.4099 38.0401 41.4099V44.9199H36.8401V44.8899ZM38.0401 40.4599H40.1501C40.3401 40.4599 40.5101 40.4399 40.6701 40.3899C40.8301 40.3399 40.9701 40.2599 41.0901 40.1399C41.2101 40.0199 41.3101 39.8499 41.3801 39.6299C41.4501 39.4099 41.4901 39.1299 41.4901 38.7899C41.4901 38.4499 41.4501 38.1899 41.3801 37.9799C41.3101 37.7699 41.2101 37.6199 41.0801 37.5099C40.9501 37.3999 40.8101 37.3199 40.6501 37.2799C40.4901 37.2399 40.3201 37.2199 40.1401 37.2199H38.0301V40.4599H38.0401Z" fill="#CDA36D"/>
<path d="M60.5 44.8899V36.1499H61.7V44.8899H60.5Z" fill="#CDA36D"/>
<path d="M44.27 36.1599H59.02V37.2399H44.27V36.1599Z" fill="#CDA36D"/>
<path d="M65.7599 44.8899V37.2199H63.1499V36.1499H69.5599V37.2199H66.9499V44.8899H65.7499H65.7599Z" fill="#CDA36D"/>
<path d="M74.26 44.9599C73.78 44.9599 73.34 44.9199 72.93 44.8299C72.53 44.7399 72.18 44.5899 71.89 44.3899C71.6 44.1899 71.37 43.8899 71.22 43.5299C71.07 43.1699 70.99 42.7099 70.99 42.1499V36.1499H72.19V42.1299C72.19 42.5799 72.27 42.9299 72.43 43.1799C72.59 43.4299 72.83 43.6099 73.14 43.7099C73.45 43.8199 73.83 43.8699 74.26 43.8699C74.69 43.8699 75.08 43.8199 75.39 43.7099C75.7 43.5999 75.94 43.4299 76.1 43.1799C76.26 42.9299 76.34 42.5799 76.34 42.1299V36.1499H77.54V42.1499C77.54 42.6999 77.46 43.1599 77.3 43.5299C77.14 43.8899 76.92 44.1799 76.63 44.3899C76.34 44.5999 76 44.7499 75.59 44.8299C75.19 44.9199 74.74 44.9599 74.25 44.9599H74.26Z" fill="#CDA36D"/>
<path d="M79.1001 44.8899V36.1499H82.6001C82.9001 36.1499 83.1901 36.1899 83.4701 36.2599C83.7501 36.3299 84.0001 36.4599 84.2201 36.6499C84.4401 36.8399 84.6201 37.1099 84.7401 37.4499C84.8601 37.7899 84.9301 38.2399 84.9301 38.7999C84.9301 39.2499 84.8801 39.6299 84.7901 39.9299C84.6901 40.2299 84.5701 40.4699 84.4201 40.6499C84.2701 40.8299 84.1001 40.9599 83.9101 41.0499C83.7201 41.1399 83.5401 41.2099 83.3601 41.2599L85.1001 44.8999H83.8901L82.2801 41.4299C82.1601 41.4299 82.0201 41.4299 81.8501 41.4299C81.6801 41.4299 81.5001 41.4299 81.3201 41.4299C81.1401 41.4299 80.9501 41.4299 80.7701 41.4199C80.5901 41.4199 80.4401 41.4099 80.3001 41.4099V44.9199H79.1001V44.8899ZM80.3001 40.4599H82.4101C82.6001 40.4599 82.7701 40.4399 82.9301 40.3899C83.0901 40.3399 83.2301 40.2599 83.3501 40.1399C83.4701 40.0199 83.5701 39.8499 83.6401 39.6299C83.7101 39.4099 83.7501 39.1299 83.7501 38.7899C83.7501 38.4499 83.7101 38.1899 83.6401 37.9799C83.5701 37.7699 83.4701 37.6199 83.3401 37.5099C83.2101 37.3999 83.0701 37.3199 82.9101 37.2799C82.7501 37.2399 82.5801 37.2199 82.4001 37.2199H80.2901V40.4599H80.3001Z" fill="#CDA36D"/>
<path d="M88.41 44.9399C88.21 44.9399 88 44.9199 87.78 44.8899C87.56 44.8499 87.35 44.7799 87.15 44.6699C86.95 44.5599 86.78 44.3799 86.66 44.1399C86.54 43.8999 86.47 43.5799 86.47 43.1799V37.9899C86.47 37.6399 86.52 37.3499 86.63 37.1099C86.74 36.8699 86.88 36.6899 87.05 36.5499C87.22 36.4099 87.42 36.3099 87.64 36.2499C87.86 36.1899 88.07 36.1599 88.29 36.1599C88.8 36.1599 89.28 36.1799 89.71 36.1899C90.14 36.1999 90.54 36.2199 90.91 36.2299C91.28 36.2499 91.64 36.2599 91.98 36.2799V37.2599H88.61C88.32 37.2599 88.09 37.3299 87.92 37.4799C87.75 37.6299 87.67 37.8699 87.67 38.1899V39.9999L91.44 40.0699V40.9899L87.67 41.0699V42.8599C87.67 43.1299 87.72 43.3299 87.81 43.4599C87.9 43.5899 88.02 43.6899 88.17 43.7299C88.32 43.7799 88.47 43.7999 88.64 43.7999H91.98V44.7799C91.62 44.7999 91.23 44.8299 90.83 44.8399C90.43 44.8599 90.02 44.8799 89.62 44.8899C89.22 44.8999 88.82 44.9099 88.43 44.9099L88.41 44.9399Z" fill="#CDA36D"/>
<path d="M58.36 37.5899C58.2 37.2299 57.98 36.9399 57.69 36.7299C57.4 36.5199 57.06 36.3699 56.65 36.2799C56.3 36.2099 55.91 36.1599 55.49 36.1599C55.43 36.1599 55.37 36.1599 55.31 36.1599H47.96C47.48 36.1599 47.04 36.2099 46.65 36.2899C46.24 36.3699 45.9 36.5199 45.61 36.7399C45.32 36.9399 45.1 37.2299 44.94 37.5999C44.78 37.9699 44.71 38.4199 44.71 38.9799V44.9799H45.91V38.9899C45.91 38.5399 45.98 38.1899 46.15 37.9399C46.31 37.6999 46.54 37.5099 46.86 37.4099C47.16 37.3099 47.53 37.2499 47.97 37.2499H55.32C55.77 37.2499 56.15 37.3099 56.46 37.4099C56.78 37.5099 57.01 37.6999 57.17 37.9399C57.34 38.1899 57.41 38.5499 57.41 38.9899V44.9799H58.61V38.9799C58.61 38.4199 58.54 37.9599 58.38 37.5999L58.36 37.5899Z" fill="#CDA36D"/>
</g>
<defs>
<clipPath id="clip0_1513_62">
<rect width="113.47" height="44.27" fill="white" transform="translate(0 0.689941)"/>
</clipPath>
</defs>
</svg>
