<svg width="114" height="48" viewBox="0 0 114 48" fill="none" xmlns="http://www.w3.org/2000/svg">
<g clip-path="url(#clip0_1513_18)">
<path d="M23.08 35.5798H19.26L19.19 35.9098H19.44C19.85 35.9098 20.09 36.0298 20.18 36.2598C20.27 36.4898 20.26 36.8498 20.15 37.3398L18.48 45.0198H21.47C22.64 45.0198 23.65 44.8298 24.51 44.4598C25.37 44.0798 25.91 43.4098 26.12 42.4398C26.25 41.8198 26.18 41.3198 25.91 40.9298C25.63 40.5498 25.06 40.2898 24.2 40.1698C24.89 39.9698 25.43 39.6898 25.83 39.3198C26.23 38.9498 26.48 38.5398 26.58 38.0998C26.94 36.4298 25.78 35.5998 23.09 35.5998L23.08 35.5798ZM24.49 42.4998C24.35 43.1498 24.01 43.6498 23.47 43.9898C22.93 44.3298 22.23 44.5098 21.36 44.5098C20.96 44.5098 20.54 44.4498 20.1 44.3198L20.93 40.5098H22.23C23.11 40.5098 23.75 40.6798 24.13 41.0198C24.51 41.3598 24.64 41.8498 24.49 42.4998ZM25.03 38.0098C24.9 38.6198 24.58 39.0898 24.07 39.4198C23.56 39.7498 22.99 39.9098 22.36 39.9098H21.06L21.86 36.2298C22.24 36.1298 22.6 36.0898 22.93 36.0898C23.59 36.0898 24.14 36.2498 24.58 36.5698C25.02 36.8898 25.17 37.3698 25.03 38.0098Z" fill="#8681D3"/>
<path d="M31.29 38.1499C30.7 38.1499 30.14 38.2999 29.63 38.5999C29.11 38.8999 28.67 39.3199 28.31 39.8399C27.95 40.3699 27.69 40.9699 27.55 41.6499C27.41 42.3099 27.4 42.8999 27.53 43.4299C27.66 43.9599 27.92 44.3799 28.33 44.6899C28.73 44.9999 29.27 45.1599 29.93 45.1599C30.53 45.1599 31.08 45.0299 31.56 44.7799C32.05 44.5299 32.5 44.1499 32.9 43.6599L32.63 43.4199C32.27 43.7999 31.92 44.0899 31.55 44.2899C31.19 44.4899 30.78 44.5799 30.32 44.5799C29.74 44.5799 29.33 44.3399 29.1 43.8599C28.87 43.3799 28.84 42.7199 29.02 41.8899H33.44L33.61 41.2299C33.82 40.2499 33.73 39.4899 33.33 38.9499C32.93 38.4199 32.25 38.1499 31.29 38.1499ZM32.07 41.2799H29.16C29.33 40.5099 29.6 39.8899 29.98 39.4299C30.36 38.9699 30.75 38.7399 31.17 38.7399C32.14 38.7399 32.44 39.5899 32.07 41.2899V41.2799Z" fill="#8681D3"/>
<path d="M38.33 38.1499C37.83 38.1499 37.38 38.1899 36.97 38.2699C36.56 38.3499 36.25 38.4799 36.04 38.6499C35.84 38.8099 35.7 38.9899 35.62 39.1899C35.54 39.3899 35.46 39.6499 35.39 39.9799H36.09C36.3 39.5199 36.55 39.1999 36.85 39.0099C37.15 38.8199 37.51 38.7299 37.92 38.7299C38.41 38.7299 38.74 38.8999 38.91 39.2499C39.08 39.5999 39.08 40.2199 38.88 41.1299H38.5C37.3 41.1299 36.34 41.2899 35.61 41.6099C34.88 41.9299 34.44 42.4499 34.28 43.1599C34.14 43.8299 34.25 44.3299 34.62 44.6599C34.99 44.9899 35.47 45.1499 36.06 45.1499C36.54 45.1499 36.96 45.0699 37.32 44.9199C37.68 44.7699 37.98 44.5799 38.2 44.3599H38.27L38.64 44.9999H39.5L40.34 41.1399C40.58 40.0099 40.52 39.2299 40.14 38.7899C39.76 38.3499 39.16 38.1299 38.32 38.1299L38.33 38.1499ZM38.33 43.6099C37.87 44.1999 37.36 44.4999 36.8 44.4999C36.43 44.4999 36.15 44.3899 35.96 44.1599C35.77 43.9299 35.72 43.5999 35.82 43.1699C35.92 42.7099 36.19 42.3599 36.63 42.1099C37.07 41.8599 37.65 41.7299 38.37 41.7299H38.75L38.34 43.6199L38.33 43.6099Z" fill="#8681D3"/>
<path d="M46.1199 43.7198C45.5599 44.2598 45.0199 44.5198 44.5199 44.5198C44.0699 44.5198 43.7399 44.3598 43.5399 44.0598C43.3299 43.7498 43.2999 43.2598 43.4499 42.5798L43.9999 40.0598C44.1099 39.5698 44.1499 39.2098 44.1199 38.9598C44.0999 38.7098 43.9999 38.5398 43.8399 38.4498C43.6799 38.3498 43.4199 38.3098 43.0699 38.3098H41.7399L41.6699 38.6398H41.8199C42.2299 38.6398 42.4699 38.7598 42.5599 38.9898C42.6499 39.2198 42.6399 39.5798 42.5299 40.0698L41.9799 42.5898C41.5999 44.3198 42.2599 45.1798 43.9499 45.1798C44.3499 45.1798 44.7199 45.1098 45.0699 44.9698C45.4199 44.8298 45.7299 44.6598 45.9799 44.4498H46.0499L46.4299 45.0398H47.2899L48.7499 38.3198H47.2899L46.1099 43.7398L46.1199 43.7198Z" fill="#8681D3"/>
<path d="M52.9399 36.1499H52.1999L51.2899 37.0099L51.0099 38.2999H50.0299L49.8999 38.8899H50.8799L49.9299 43.2499C49.7899 43.8899 49.8499 44.3699 50.1099 44.6899C50.3699 45.0099 50.7899 45.1699 51.3599 45.1699C52.0999 45.1699 52.7499 44.9699 53.3199 44.5799L53.2299 44.2699C53.0299 44.3699 52.8499 44.4399 52.6699 44.4999C52.4899 44.5599 52.2899 44.5899 52.0499 44.5899C51.7299 44.5899 51.5099 44.4799 51.4099 44.2699C51.2999 44.0499 51.2999 43.7199 51.3899 43.2699L52.3399 38.8899H54.0399L54.1699 38.2999H52.4699L52.9399 36.1499Z" fill="#8681D3"/>
<path d="M58.6301 43.1599L57.8101 39.2999C57.7201 38.9399 57.5501 38.6599 57.2901 38.4599C57.0301 38.2599 56.6901 38.1599 56.2601 38.1599H55.0101L54.9501 38.4499C55.6801 38.5299 56.1101 38.9099 56.2501 39.5899L57.4401 45.1799L56.9801 45.9699C56.6401 46.5299 56.2901 46.9199 55.9301 47.1299C55.5701 47.3399 55.1501 47.4399 54.6601 47.4399L54.5601 47.8799H55.0301C55.5701 47.8799 56.0501 47.7399 56.4501 47.4699C56.8501 47.1999 57.2801 46.6899 57.7201 45.9499L62.2501 38.2999H61.5101L58.6301 43.1599Z" fill="#8681D3"/>
<path d="M74.1299 35.6098C73.5899 35.3998 72.9199 35.2898 72.1199 35.2898C71.2799 35.2898 70.4599 35.5198 69.6599 35.9798C68.8599 36.4398 68.1599 37.0598 67.5899 37.8498C67.0099 38.6398 66.6199 39.4998 66.4099 40.4498C66.2099 41.3598 66.2199 42.1798 66.4399 42.9198C66.6499 43.6598 67.0599 44.2398 67.6599 44.6698C68.2599 45.0998 69.0199 45.3098 69.9499 45.3098C70.8799 45.3098 71.7299 45.1298 72.4599 44.7698C73.1899 44.4098 73.8799 43.8098 74.5199 42.9698L74.2299 42.7098C73.1199 44.0498 71.8799 44.7298 70.5099 44.7298C69.7399 44.7298 69.1399 44.5298 68.7199 44.1298C68.2899 43.7298 68.0299 43.2098 67.9299 42.5598C67.8299 41.9098 67.8699 41.2098 68.0299 40.4598C68.3799 38.8498 68.9399 37.6798 69.7199 36.9698C70.4999 36.2598 71.3999 35.8998 72.4299 35.8998C74.0599 35.8998 74.8599 36.8098 74.8299 38.6198H75.1499C75.2799 38.0298 75.3599 37.5698 75.3899 37.2498C75.4199 36.9298 75.3799 36.6598 75.2499 36.4598C75.0399 36.1298 74.6599 35.8498 74.1199 35.6398L74.1299 35.6098Z" fill="#8681D3"/>
<path d="M79.6601 38.1499C79.1601 38.1499 78.7101 38.1899 78.3001 38.2699C77.8901 38.3499 77.5801 38.4799 77.3701 38.6499C77.1701 38.8099 77.0301 38.9899 76.9501 39.1899C76.8701 39.3899 76.7901 39.6499 76.7201 39.9799H77.4201C77.6301 39.5199 77.8801 39.1999 78.1801 39.0099C78.4801 38.8199 78.8401 38.7299 79.2501 38.7299C79.7401 38.7299 80.0701 38.8999 80.2401 39.2499C80.4101 39.5999 80.4101 40.2199 80.2101 41.1299H79.8301C78.6301 41.1299 77.6701 41.2899 76.9401 41.6099C76.2101 41.9299 75.7701 42.4499 75.6101 43.1599C75.4701 43.8299 75.5801 44.3299 75.9501 44.6599C76.3201 44.9899 76.8001 45.1499 77.3901 45.1499C77.8701 45.1499 78.2901 45.0699 78.6501 44.9199C79.0101 44.7699 79.3101 44.5799 79.5301 44.3599H79.6001L79.9701 44.9999H80.8301L81.6701 41.1399C81.9101 40.0099 81.8501 39.2299 81.4701 38.7899C81.0901 38.3499 80.4901 38.1299 79.6501 38.1299L79.6601 38.1499ZM79.6601 43.6099C79.2001 44.1999 78.6901 44.4999 78.1301 44.4999C77.7601 44.4999 77.4801 44.3899 77.2901 44.1599C77.1001 43.9299 77.0501 43.5999 77.1501 43.1699C77.2501 42.7099 77.5201 42.3599 77.9601 42.1099C78.4001 41.8599 78.9801 41.7299 79.7001 41.7299H80.0801L79.6701 43.6199L79.6601 43.6099Z" fill="#8681D3"/>
<path d="M88.5699 38.6499C88.5199 38.5499 88.4499 38.4599 88.3599 38.3799C88.1699 38.2299 87.8799 38.1499 87.4899 38.1499C87.0999 38.1499 86.7499 38.2299 86.3999 38.3799C86.0499 38.5299 85.7499 38.7099 85.5099 38.9099C85.4699 38.6899 85.3699 38.5299 85.1999 38.4399C85.0299 38.3399 84.7699 38.2999 84.4099 38.2999H83.1699L83.0999 38.6299H83.2499C83.6599 38.6299 83.8999 38.7499 83.9899 38.9799C84.0699 39.2099 84.0599 39.5699 83.9599 40.0599L82.8799 45.0199H84.3399L85.3899 40.1699C85.4399 39.9499 85.4699 39.7899 85.4799 39.6699C85.6699 39.4699 85.8999 39.3099 86.1599 39.1999C86.4199 39.0899 86.6999 39.0299 86.9899 39.0299C87.2299 39.0299 87.4399 39.0699 87.6199 39.1599C87.7999 39.2499 87.9299 39.3599 87.9999 39.4999L88.7299 39.0299C88.6799 38.8799 88.6199 38.7499 88.5699 38.6599V38.6499Z" fill="#8681D3"/>
<path d="M94.59 38.9499C94.19 38.4199 93.5101 38.1499 92.5501 38.1499C91.9601 38.1499 91.4 38.2999 90.89 38.5999C90.37 38.8999 89.93 39.3199 89.57 39.8399C89.21 40.3699 88.95 40.9699 88.81 41.6499C88.67 42.3099 88.6601 42.8999 88.7901 43.4299C88.9201 43.9599 89.18 44.3799 89.59 44.6899C89.99 44.9999 90.5301 45.1599 91.1901 45.1599C91.7901 45.1599 92.34 45.0299 92.82 44.7799C93.31 44.5299 93.7601 44.1499 94.1601 43.6599L93.89 43.4199C93.53 43.7999 93.18 44.0899 92.81 44.2899C92.45 44.4899 92.0401 44.5799 91.5801 44.5799C91.0001 44.5799 90.59 44.3399 90.36 43.8599C90.13 43.3799 90.1 42.7199 90.28 41.8899H94.7L94.8701 41.2299C95.0801 40.2499 94.99 39.4899 94.59 38.9499ZM93.3301 41.2799H90.42C90.59 40.5099 90.86 39.8899 91.24 39.4299C91.62 38.9699 92.01 38.7399 92.43 38.7399C93.4 38.7399 93.7001 39.5899 93.3301 41.2899V41.2799Z" fill="#8681D3"/>
<path d="M6.52 1.07983H0V27.5798H2.58V17.8498H6.52C11.79 17.8498 15.43 15.0898 15.43 8.95983C15.43 3.95983 11.79 1.07983 6.52 1.07983ZM6.52 17.2798H2.58V1.64983H6.52C10.42 1.64983 12.85 3.76983 12.85 9.02983C12.85 14.2898 10.39 17.2798 6.52 17.2798Z" fill="#CE0E2D"/>
<path d="M19.6001 7.17992V7.74992C26.7301 7.74992 27.7501 11.0399 27.7501 15.8499V16.4599C26.5801 14.6399 23.8501 13.3599 21.5701 13.3599C17.7001 13.3599 15.5801 17.0299 15.5801 20.5099C15.5801 23.9899 17.7001 27.6599 21.5701 27.6599C23.8401 27.6599 26.5701 26.3699 27.7501 24.5599V24.8599C28.0201 25.9999 29.0001 27.0199 29.9501 27.5899H30.3301V15.8399C30.3301 10.2799 27.6001 7.16992 19.6001 7.16992V7.17992ZM27.7501 22.6199C27.7501 24.8199 24.8301 26.5599 22.5601 26.5599C19.7501 26.5599 18.3901 23.9099 18.3901 20.4999C18.3901 17.0899 19.7501 14.4399 22.5601 14.4399C24.8301 14.4399 27.7501 16.1799 27.7501 18.3799V22.6199Z" fill="#CE0E2D"/>
<path d="M36.53 21.1399V8.46985H39.67V7.08985H36.53V2.70985C35.73 2.25985 35.24 2.09985 34.33 2.09985H33.95V7.08985H32.53V8.46985H33.95V19.0999C33.95 24.6599 33.95 27.5799 40.2 27.5799V27.0099C36.75 27.0099 36.52 24.7399 36.52 21.1399H36.53Z" fill="#CE0E2D"/>
<path d="M44.8999 21.1399V8.46985H48.0399V7.08985H44.8999V2.70985C44.0999 2.25985 43.6099 2.09985 42.6999 2.09985H42.3199V7.08985H40.8999V8.46985H42.3199V19.0999C42.3199 24.6599 42.3199 27.5799 48.5699 27.5799V27.0099C45.1199 27.0099 44.8899 24.7399 44.8899 21.1399H44.8999Z" fill="#CE0E2D"/>
<path d="M52.16 0.589844C51.4 0.589844 50.8 1.49984 50.8 2.43984C50.8 3.68984 51.9 4.59984 52.16 4.59984C52.46 4.59984 53.5601 3.68984 53.5601 2.43984C53.5601 1.48984 52.92 0.589844 52.16 0.589844V0.589844Z" fill="#CE0E2D"/>
<path d="M50.8701 27.5798H53.4501V7.13979C52.4301 6.56979 52.0101 6.52979 50.8701 6.52979V27.5798Z" fill="#CE0E2D"/>
<path d="M60.06 7.17992V7.74992C67.19 7.74992 68.21 11.0399 68.21 15.8499V16.4599C67.04 14.6399 64.31 13.3599 62.03 13.3599C58.16 13.3599 56.04 17.0299 56.04 20.5099C56.04 23.9899 58.16 27.6599 62.03 27.6599C64.3 27.6599 67.03 26.3699 68.21 24.5599V24.8599C68.48 25.9999 69.46 27.0199 70.41 27.5899H70.79V15.8399C70.79 10.2799 68.06 7.16992 60.06 7.16992V7.17992ZM68.21 22.6199C68.21 24.8199 65.29 26.5599 63.02 26.5599C60.21 26.5599 58.85 23.9099 58.85 20.4999C58.85 17.0899 60.21 14.4399 63.02 14.4399C65.29 14.4399 68.21 16.1799 68.21 18.3799V22.6199Z" fill="#CE0E2D"/>
<path d="M90.6901 6.94979C88.1101 6.94979 86.6701 8.19979 86.0601 9.97979C85.4901 8.19979 84.0501 6.94979 81.4701 6.94979C79.2301 6.94979 77.8701 7.85979 77.1501 9.21979V7.13979C76.3901 6.71979 75.7901 6.52979 74.9901 6.52979H74.5701V27.5798H77.1501V11.9798C77.1501 9.81979 78.1401 8.11979 80.6801 8.11979C83.2201 8.11979 83.5601 9.81979 83.5601 11.9798V27.5698H86.4001V11.9798C86.4001 9.81979 87.3501 8.11979 89.8901 8.11979C92.4301 8.11979 92.7701 9.81979 92.7701 11.9798V27.5698H95.6101V11.9798C95.6101 9.21979 94.1701 6.94979 90.6801 6.94979H90.6901Z" fill="#CE0E2D"/>
<path d="M98.84 0.889736C98.2 0.849736 97.67 1.33974 97.59 1.98974C97.55 2.59974 97.97 3.15974 98.61 3.27974C98.65 3.38974 98.69 3.50974 98.69 3.61974C98.69 3.99974 98.46 4.40974 97.93 4.82974L98.08 5.05974C99.26 4.56974 100.01 3.38974 99.98 2.29974C99.98 1.46974 99.49 0.939736 98.84 0.899736V0.889736Z" fill="#CE0E2D"/>
<path d="M103.76 10.8899C103.76 8.91986 104.4 7.17986 106.87 7.17986C109.49 7.17986 110.74 7.93986 111.8 10.2799L112.37 10.0899C111.19 7.51986 109.83 6.60986 107.14 6.60986C103.58 6.60986 101.07 8.15986 101.07 10.9999C101.07 18.9899 111.08 15.7299 111.08 22.1999C111.08 24.3999 109.94 27.0099 106.72 27.0099C102.85 27.0099 102.09 24.6299 101.64 22.9999L101.11 23.1899C102.02 26.2899 103.16 27.5799 106.38 27.5799C112.03 27.5799 113.47 23.6099 113.47 21.5599C113.47 13.3799 103.76 16.2199 103.76 10.8899Z" fill="#CE0E2D"/>
</g>
<defs>
<clipPath id="clip0_1513_18">
<rect width="113.47" height="47.29" fill="white" transform="translate(0 0.589844)"/>
</clipPath>
</defs>
</svg>
