<svg width="158" height="62" viewBox="0 0 158 62" fill="none" xmlns="http://www.w3.org/2000/svg">
<path d="M9.02587 0.692139H0.000244141V37.4314H3.57174V23.9484H9.02587C16.3211 23.9484 21.36 20.1138 21.36 11.6143C21.36 4.69276 16.3211 0.692139 9.02587 0.692139ZM9.02587 23.1593H3.57174V1.48119H9.02587C14.4246 1.48119 17.7885 4.4159 17.7885 11.7112C17.7885 19.0064 14.3831 23.1455 9.02587 23.1455V23.1593Z" fill="#CE0E2D"/>
<path d="M27.1325 9.13623V9.92528C37.0026 9.92528 38.4145 14.4935 38.4145 21.1519V21.9964C36.7949 19.4769 33.0158 17.6912 29.8596 17.6912C24.5023 17.6912 21.5676 22.7854 21.5676 27.6166C21.5676 32.4478 24.5023 37.542 29.8596 37.542C33.0019 37.542 36.7811 35.7563 38.4145 33.2369V33.6522C38.7883 35.2303 40.1449 36.6423 41.46 37.4313H41.986V21.1658C41.986 13.4552 38.2069 9.15008 27.1325 9.15008V9.13623ZM38.4145 30.5513C38.4145 33.5968 34.3724 36.0055 31.23 36.0055C27.3402 36.0055 25.4575 32.3371 25.4575 27.6028C25.4575 22.8685 27.3402 19.2001 31.23 19.2001C34.3724 19.2001 38.4145 21.6088 38.4145 24.6542V30.5375V30.5513Z" fill="#CE0E2D"/>
<path d="M50.5687 28.5026V10.9358H54.9154V9.01165H50.5687V2.94843C49.4613 2.32549 48.7829 2.104 47.5232 2.104H46.9972V9.01165H45.0315V10.9358H46.9972V25.6648C46.9972 33.3753 46.9972 37.4175 55.6491 37.4175V36.6284C50.8732 36.6284 50.5548 33.4861 50.5548 28.4887L50.5687 28.5026Z" fill="#CE0E2D"/>
<path d="M62.1554 28.5026V10.9358H66.5021V9.01165H62.1554V2.94843C61.0479 2.32549 60.3696 2.104 59.1099 2.104H58.5839V9.01165H56.6182V10.9358H58.5839V25.6648C58.5839 33.3753 58.5839 37.4175 67.2357 37.4175V36.6284C62.4599 36.6284 62.1415 33.4861 62.1415 28.4887L62.1554 28.5026Z" fill="#CE0E2D"/>
<path d="M72.2054 0C71.1533 0 70.3228 1.25971 70.3228 2.5748C70.3228 4.30517 71.8455 5.56489 72.2054 5.56489C72.6207 5.56489 74.1434 4.30517 74.1434 2.5748C74.1434 1.25971 73.2575 0 72.2054 0Z" fill="#CE0E2D"/>
<path d="M70.4197 37.4176H73.9912V9.08098C72.5792 8.29193 71.9978 8.23657 70.4197 8.23657V37.4176Z" fill="#CE0E2D"/>
<path d="M83.1415 9.13623V9.92528C93.0116 9.92528 94.4236 14.4935 94.4236 21.1519V21.9964C92.8039 19.4769 89.0248 17.6912 85.8686 17.6912C80.5114 17.6912 77.5767 22.7854 77.5767 27.6166C77.5767 32.4478 80.5114 37.542 85.8686 37.542C89.011 37.542 92.7901 35.7563 94.4236 33.2369V33.6522C94.7973 35.2303 96.154 36.6423 97.469 37.4313H97.9951V21.1658C97.9951 13.4552 94.2159 9.15008 83.1415 9.15008V9.13623ZM94.4236 30.5513C94.4236 33.5968 90.3814 36.0055 87.2391 36.0055C83.3492 36.0055 81.4665 32.3371 81.4665 27.6028C81.4665 22.8685 83.3492 19.2001 87.2391 19.2001C90.3814 19.2001 94.4236 21.6088 94.4236 24.6542V30.5375V30.5513Z" fill="#CE0E2D"/>
<path d="M125.542 8.81791C121.971 8.81791 119.977 10.5483 119.133 13.0123C118.344 10.5483 116.35 8.81791 112.779 8.81791C109.678 8.81791 107.795 10.0776 106.799 11.9603V9.06708C105.747 8.48567 104.916 8.22266 103.809 8.22266H103.227V37.4037H106.799V15.7809C106.799 12.7908 108.169 10.4237 111.685 10.4237C115.201 10.4237 115.672 12.7908 115.672 15.7809V37.4037H119.604V15.7809C119.604 12.7908 120.919 10.4237 124.435 10.4237C127.951 10.4237 128.422 12.7908 128.422 15.7809V37.4037H132.353V15.7809C132.353 11.9464 130.36 8.80406 125.528 8.80406L125.542 8.81791Z" fill="#CE0E2D"/>
<path d="M136.824 0.429188C135.938 0.373816 135.205 1.05213 135.094 1.95192C135.039 2.79635 135.62 3.5854 136.506 3.73767C136.561 3.88994 136.617 4.05606 136.617 4.20833C136.617 4.73436 136.298 5.31577 135.565 5.88333L135.772 6.20172C137.406 5.52342 138.444 3.88994 138.402 2.36721C138.402 1.21824 137.724 0.48456 136.824 0.429188Z" fill="#CE0E2D"/>
<path d="M143.635 14.2861C143.635 11.559 144.521 9.13646 147.941 9.13646C151.567 9.13646 153.298 10.1885 154.765 13.4416L155.554 13.1786C153.921 9.60713 152.038 8.34741 148.314 8.34741C143.386 8.34741 139.912 10.4931 139.912 14.4383C139.912 25.5127 153.768 20.9999 153.768 29.9702C153.768 33.0156 152.19 36.6286 147.733 36.6286C142.376 36.6286 141.324 33.3202 140.701 31.0638L139.967 31.3268C141.227 35.632 142.805 37.4177 147.262 37.4177C155.084 37.4177 157.077 31.9082 157.077 29.0704C157.077 17.733 143.635 21.6644 143.635 14.2722V14.2861Z" fill="#CE0E2D"/>
<path d="M12.0297 48.9763C10.2854 48.9763 8.81809 49.5577 7.65528 50.7344C6.47862 51.911 5.89722 53.3645 5.89722 55.1088C5.89722 56.853 6.47862 58.3065 7.65528 59.4831C8.83193 60.6598 10.2854 61.2412 12.0297 61.2412C13.7739 61.2412 15.2412 60.6598 16.404 59.4831C17.5807 58.3065 18.1621 56.853 18.1621 55.1088C18.1621 53.3645 17.5807 51.911 16.404 50.7344C15.2274 49.5577 13.7739 48.9763 12.0297 48.9763ZM14.7844 57.9604C14.0784 58.7218 13.1648 59.1094 12.0297 59.1094C10.8945 59.1094 9.96706 58.7218 9.26106 57.9604C8.55507 57.1991 8.209 56.2577 8.209 55.1226C8.209 54.9565 8.23668 54.818 8.25052 54.6658C8.41664 54.9288 8.61044 55.178 8.83193 55.3995C9.71788 56.2716 10.8115 56.7145 12.0989 56.7145C13.3863 56.7145 14.4937 56.2716 15.3797 55.3995C15.5319 55.2472 15.6842 55.0811 15.8088 54.9011C15.8088 54.9703 15.8226 55.0395 15.8226 55.1226C15.8226 56.2577 15.4766 57.1991 14.7706 57.9604H14.7844Z" fill="#FFAD5A"/>
<path d="M25.4156 49.0457H20.8059C20.5844 49.0457 20.4044 49.1149 20.266 49.2533C20.1276 49.3917 20.0583 49.5717 20.0583 49.7932V60.4938C20.0583 60.7153 20.1276 60.8953 20.266 61.0337C20.4044 61.1721 20.5844 61.2413 20.8059 61.2413H21.761C21.9825 61.2413 22.1625 61.1721 22.3009 61.0337C22.4393 60.8953 22.5086 60.7153 22.5086 60.4938V56.687H24.6958L27.0214 60.9229C27.146 61.1444 27.3259 61.2552 27.5889 61.2552H28.5164C28.9317 61.2552 29.2224 61.1029 29.3885 60.7845C29.5546 60.4661 29.5408 60.1477 29.3055 59.7878L27.2013 56.5624C28.9317 55.8702 29.79 54.6521 29.79 52.9217V52.894C29.79 51.7727 29.4577 50.8868 28.7933 50.2362C28.0042 49.4471 26.8691 49.0595 25.3741 49.0595L25.4156 49.0457ZM27.3398 53.0601C27.3398 53.6 27.1598 54.0291 26.786 54.3475C26.4123 54.6659 25.9001 54.832 25.2356 54.832H22.4947V51.2467H25.1941C25.8724 51.2467 26.3984 51.399 26.7722 51.6897C27.146 51.9942 27.3398 52.4372 27.3398 53.0186V53.0463V53.0601Z" fill="#FFAD5A"/>
<path d="M41.0446 53.9599H38.0961C37.8746 53.9599 37.6946 54.0292 37.5562 54.1676C37.4177 54.306 37.3485 54.486 37.3485 54.7075V55.3581C37.3485 55.5796 37.4177 55.7595 37.57 55.9118C37.7223 56.0641 37.9023 56.1194 38.1099 56.1194H39.4942V58.362C38.9543 58.7496 38.2345 58.9296 37.3347 58.9296C36.1996 58.9296 35.2721 58.5835 34.5661 57.8913C33.8601 57.1854 33.5002 56.244 33.5002 55.0812C33.5002 53.9738 33.8463 53.0601 34.5522 52.368C35.2582 51.662 36.1857 51.3021 37.3208 51.3021C38.1791 51.3021 38.982 51.4959 39.7295 51.9389C39.8818 52.0358 40.0479 52.0634 40.214 52.0496C40.3801 52.0358 40.5186 51.9527 40.6432 51.8281L41.1969 51.219C41.363 51.0391 41.4322 50.8314 41.4045 50.6099C41.3768 50.3884 41.2661 50.2085 41.0723 50.0701C39.951 49.3502 38.7051 49.0042 37.3208 49.0042C35.5766 49.0042 34.1231 49.5994 32.9465 50.7761C31.7698 51.9665 31.1746 53.4062 31.1746 55.1227C31.1746 56.8808 31.756 58.3482 32.9326 59.5248C34.1231 60.7015 35.5905 61.2829 37.3208 61.2829C38.9405 61.2829 40.3525 60.8122 41.5845 59.857C41.7368 59.7325 41.8198 59.5663 41.8198 59.3725V54.749C41.8198 54.5275 41.7506 54.3475 41.6122 54.2091C41.4737 54.0707 41.2938 54.0015 41.0723 54.0015L41.0446 53.9599Z" fill="#FFAD5A"/>
<path d="M50.5963 49.4609C50.4855 49.1841 50.2779 49.0457 49.9872 49.0457H48.5752C48.2707 49.0457 48.0769 49.1841 47.9661 49.4609L43.4672 60.037C43.3426 60.3415 43.3564 60.6322 43.5225 60.8814C43.6886 61.1306 43.9378 61.2552 44.27 61.2552H44.9899C45.2944 61.2552 45.5021 61.1167 45.6128 60.8399L46.6787 58.1959H51.8145L52.8942 60.8399C52.9496 60.9645 53.0327 61.0614 53.1434 61.1444C53.2541 61.2275 53.3787 61.2552 53.5172 61.2552H54.2924C54.6246 61.2552 54.8876 61.1306 55.0399 60.8814C55.206 60.6322 55.2198 60.3554 55.0953 60.037L50.5963 49.4609ZM47.537 56.0502L49.2258 51.2328L50.9285 56.0502H47.537Z" fill="#FFAD5A"/>
<path d="M66.8476 48.9766H66.0308C65.8093 48.9766 65.6294 49.0458 65.4909 49.1842C65.3525 49.3226 65.2833 49.5026 65.2833 49.7241V56.8947L57.5312 49.1565C57.4066 49.0319 57.2682 48.9766 57.1021 48.9766H57.0052C56.8944 48.9766 56.8114 49.0458 56.7422 49.1842C56.673 49.3226 56.6453 49.5026 56.6453 49.7241V60.4939C56.6453 60.7154 56.7145 60.8954 56.8529 61.0338C56.9913 61.1722 57.1713 61.2415 57.3928 61.2415H58.2095C58.431 61.2415 58.611 61.1722 58.7494 61.0338C58.8878 60.8954 58.957 60.7154 58.957 60.4939V53.4063L66.6261 61.0615C66.7507 61.1861 66.8891 61.2415 67.0552 61.2415C67.2075 61.2415 67.3459 61.1722 67.4428 61.0338C67.5397 60.8954 67.5951 60.7154 67.5951 60.4939V49.7241C67.5951 49.5026 67.5259 49.3226 67.3874 49.1842C67.249 49.0458 67.069 48.9766 66.8476 48.9766Z" fill="#FFAD5A"/>
<path d="M71.8037 48.9626H70.9731C70.7516 48.9626 70.5717 49.0319 70.4332 49.1703C70.2948 49.3087 70.2256 49.4887 70.2256 49.7102V60.4939C70.2256 60.7153 70.2948 60.8953 70.4332 61.0337C70.5717 61.1722 70.7516 61.2414 70.9731 61.2414H71.8037C72.0252 61.2414 72.2051 61.1722 72.3436 61.0337C72.482 60.8953 72.5512 60.7153 72.5512 60.4939V49.7102C72.5512 49.4887 72.482 49.3087 72.3436 49.1703C72.2051 49.0319 72.0252 48.9626 71.8037 48.9626Z" fill="#FFAD5A"/>
<path d="M80.5663 51.2883C81.4107 51.2883 82.2136 51.4821 82.9611 51.9251C83.1134 52.022 83.2795 52.0497 83.4456 52.0359C83.6118 52.022 83.7502 51.939 83.8609 51.8144L84.4147 51.2053C84.5808 51.0253 84.6638 50.8177 84.6361 50.5823C84.6223 50.347 84.4977 50.1671 84.2901 50.0425C83.1549 49.3365 81.9091 48.9766 80.5386 48.9766C78.7944 48.9766 77.3409 49.5718 76.1642 50.7485C74.9876 51.9251 74.4062 53.3786 74.3923 55.0952C74.3923 56.8532 74.9737 58.3206 76.1504 59.4972C77.3409 60.6739 78.8082 61.2553 80.5386 61.2553C81.9229 61.2553 83.1826 60.8954 84.2901 60.1894C84.4977 60.0648 84.6085 59.8848 84.6223 59.6495C84.6361 59.428 84.5669 59.2204 84.4008 59.0404L83.8471 58.4313C83.5841 58.1545 83.2795 58.1129 82.9335 58.3206C82.2275 58.7359 81.4246 58.9435 80.5525 58.9435C79.4173 58.9435 78.4899 58.5974 77.7839 57.9053C77.0779 57.1993 76.718 56.258 76.718 55.0952C76.718 53.9877 77.064 53.0879 77.77 52.3819C78.476 51.6759 79.4035 51.316 80.5525 51.316L80.5663 51.2883Z" fill="#FFAD5A"/>
<path d="M101.303 48.9766H94.174C93.9525 48.9766 93.7726 49.0458 93.6342 49.1842C93.4957 49.3226 93.4265 49.5026 93.4265 49.7241V60.4939C93.4265 60.7154 93.4957 60.8954 93.6342 61.0338C93.7726 61.1722 93.9525 61.2415 94.174 61.2415H94.9908C95.2123 61.2415 95.3922 61.1722 95.5307 61.0338C95.6691 60.8954 95.7383 60.7154 95.7383 60.4939V56.1057H99.642C99.8635 56.1057 100.043 56.0365 100.182 55.8981C100.32 55.7596 100.39 55.5797 100.39 55.3582V54.7214C100.39 54.4999 100.32 54.3199 100.182 54.1815C100.043 54.0431 99.8635 53.9739 99.642 53.9739H95.7383V51.1499H101.289C101.511 51.1499 101.691 51.0807 101.829 50.9423C101.968 50.8038 102.037 50.6239 102.037 50.4024V49.7518C102.037 49.5303 101.968 49.3503 101.829 49.2119C101.691 49.0735 101.511 49.0042 101.289 49.0042L101.303 48.9766Z" fill="#FFAD5A"/>
<path d="M108.612 48.9766C106.868 48.9766 105.4 49.558 104.238 50.7346C103.061 51.9113 102.479 53.3648 102.479 55.109C102.479 56.8532 103.061 58.3067 104.238 59.4834C105.414 60.66 106.868 61.2415 108.612 61.2415C110.356 61.2415 111.824 60.66 112.986 59.4834C114.163 58.3067 114.744 56.8532 114.744 55.109C114.744 53.3648 114.163 51.9113 112.986 50.7346C111.81 49.558 110.356 48.9766 108.612 48.9766ZM111.367 57.9607C110.661 58.722 109.747 59.1096 108.612 59.1096C107.477 59.1096 106.549 58.722 105.843 57.9607C105.137 57.1993 104.791 56.258 104.791 55.1228C104.791 55.0398 104.805 54.9567 104.805 54.8737C104.944 55.0536 105.082 55.2336 105.262 55.3997C106.148 56.2718 107.241 56.7148 108.529 56.7148C109.816 56.7148 110.924 56.2718 111.81 55.3997C112.031 55.1782 112.211 54.9429 112.377 54.6937C112.377 54.8321 112.405 54.9706 112.405 55.1228C112.405 56.258 112.059 57.1993 111.353 57.9607H111.367Z" fill="#FFAD5A"/>
<path d="M122.081 48.9766C120.337 48.9766 118.87 49.558 117.707 50.7346C116.53 51.9113 115.949 53.3648 115.949 55.109C115.949 56.8532 116.53 58.3067 117.707 59.4834C118.884 60.66 120.337 61.2415 122.081 61.2415C123.826 61.2415 125.293 60.66 126.456 59.4834C127.632 58.3067 128.214 56.8532 128.214 55.109C128.214 53.3648 127.632 51.9113 126.456 50.7346C125.279 49.558 123.826 48.9766 122.081 48.9766ZM124.836 57.9607C124.13 58.722 123.217 59.1096 122.081 59.1096C120.946 59.1096 120.019 58.722 119.313 57.9607C118.607 57.1993 118.261 56.258 118.261 55.1228C118.261 55.0952 118.261 55.0536 118.261 55.0259C118.358 55.1505 118.468 55.2751 118.593 55.3997C119.479 56.2718 120.573 56.7148 121.86 56.7148C123.147 56.7148 124.255 56.2718 125.141 55.3997C125.418 55.1228 125.639 54.8321 125.833 54.5138C125.861 54.7076 125.888 54.9152 125.888 55.1228C125.888 56.258 125.542 57.1993 124.836 57.9607Z" fill="#FFAD5A"/>
<path d="M134.776 48.9626H130.803C130.581 48.9626 130.401 49.0319 130.263 49.1703C130.124 49.3087 130.055 49.4887 130.055 49.7102V60.4939C130.055 60.7153 130.124 60.8953 130.263 61.0337C130.401 61.1722 130.581 61.2414 130.803 61.2414H134.776C138.596 61.2414 140.507 59.1926 140.507 55.1089C140.507 51.0252 138.596 48.9626 134.776 48.9626ZM134.776 58.9296H132.381V51.2883H134.776C137.046 51.2883 138.195 52.5618 138.195 55.0951C138.195 57.6284 137.06 58.9157 134.776 58.9157V58.9296Z" fill="#FFAD5A"/>
<path d="M149.934 54.9705C149.131 54.4306 148.19 54.0984 147.096 53.9461C146.099 53.8077 145.435 53.5585 145.13 53.1709C144.826 52.7972 144.826 52.368 145.13 51.8697C145.421 51.3713 146.085 51.1221 147.124 51.1221C147.844 51.1221 148.453 51.3021 148.951 51.6482C149.103 51.7589 149.269 51.8143 149.449 51.8143C149.629 51.8143 149.782 51.7451 149.92 51.6067L150.405 51.136C150.571 50.9699 150.654 50.7761 150.64 50.5546C150.64 50.3331 150.529 50.1393 150.335 49.987C149.975 49.724 149.629 49.5164 149.283 49.3779C148.633 49.1011 147.733 48.9626 146.612 48.9626C145.615 48.9626 144.66 49.2949 143.746 49.9455C142.819 50.61 142.362 51.4682 142.362 52.5203C142.362 53.7108 142.763 54.5552 143.566 55.0397C144.41 55.5381 145.31 55.8288 146.279 55.9257C147.428 56.0503 148.148 56.3548 148.425 56.8393C148.702 57.3238 148.716 57.8222 148.425 58.3343C148.107 58.8881 147.387 59.1372 146.265 59.0819C145.338 59.0403 144.563 58.805 143.94 58.3759C143.58 58.1267 143.248 58.1406 142.971 58.4174L142.5 58.8881C142.32 59.0542 142.237 59.248 142.251 59.4833C142.265 59.7186 142.362 59.8986 142.556 60.0509C142.957 60.3416 143.372 60.5769 143.801 60.7569C144.563 61.0891 145.518 61.2414 146.681 61.2414C147.844 61.2414 148.923 60.8815 149.837 60.1755C150.737 59.4833 151.194 58.6389 151.194 57.6837C151.194 56.4379 150.778 55.5242 149.948 54.9705H149.934Z" fill="#FFAD5A"/>
</svg>
