<svg width="110" height="142" viewBox="0 0 110 142" fill="none" xmlns="http://www.w3.org/2000/svg">
<path d="M27.916 134.012H23.842L23.142 136H21.476L24.962 126.256H26.81L30.296 136H28.616L27.916 134.012ZM27.468 132.71L25.886 128.188L24.29 132.71H27.468ZM38.7557 128.286L34.0237 139.626H32.3717L33.9397 135.874L30.9017 128.286H32.6797L34.8497 134.166L37.1037 128.286H38.7557ZM46.9462 128.286V136H45.3502V135.09C45.0982 135.407 44.7668 135.659 44.3562 135.846C43.9548 136.023 43.5255 136.112 43.0682 136.112C42.4615 136.112 41.9155 135.986 41.4302 135.734C40.9542 135.482 40.5762 135.109 40.2962 134.614C40.0255 134.119 39.8902 133.522 39.8902 132.822V128.286H41.4722V132.584C41.4722 133.275 41.6448 133.807 41.9902 134.18C42.3355 134.544 42.8068 134.726 43.4042 134.726C44.0015 134.726 44.4728 134.544 44.8182 134.18C45.1728 133.807 45.3502 133.275 45.3502 132.584V128.286H46.9462ZM50.648 129.406C50.8813 129.014 51.1893 128.711 51.572 128.496C51.964 128.272 52.426 128.16 52.958 128.16V129.812H52.552C51.9266 129.812 51.4506 129.971 51.124 130.288C50.8066 130.605 50.648 131.156 50.648 131.94V136H49.052V128.286H50.648V129.406ZM57.407 134.572L59.591 128.286H61.285L58.345 136H56.441L53.515 128.286H55.223L57.407 134.572ZM69.5614 131.954C69.5614 132.243 69.5427 132.505 69.5054 132.738H63.6114C63.6581 133.354 63.8867 133.849 64.2974 134.222C64.7081 134.595 65.2121 134.782 65.8094 134.782C66.6681 134.782 67.2747 134.423 67.6294 133.704H69.3514C69.1181 134.413 68.6934 134.997 68.0774 135.454C67.4707 135.902 66.7147 136.126 65.8094 136.126C65.0721 136.126 64.4094 135.963 63.8214 135.636C63.2427 135.3 62.7854 134.833 62.4494 134.236C62.1227 133.629 61.9594 132.929 61.9594 132.136C61.9594 131.343 62.1181 130.647 62.4354 130.05C62.7621 129.443 63.2147 128.977 63.7934 128.65C64.3814 128.323 65.0534 128.16 65.8094 128.16C66.5374 128.16 67.1861 128.319 67.7554 128.636C68.3247 128.953 68.7681 129.401 69.0854 129.98C69.4027 130.549 69.5614 131.207 69.5614 131.954ZM67.8954 131.45C67.8861 130.862 67.6761 130.391 67.2654 130.036C66.8547 129.681 66.3461 129.504 65.7394 129.504C65.1887 129.504 64.7174 129.681 64.3254 130.036C63.9334 130.381 63.7001 130.853 63.6254 131.45H67.8954ZM70.6 132.108C70.6 131.333 70.7587 130.647 71.076 130.05C71.4027 129.453 71.8414 128.991 72.392 128.664C72.952 128.328 73.5727 128.16 74.254 128.16C74.758 128.16 75.2527 128.272 75.738 128.496C76.2327 128.711 76.6247 129 76.914 129.364V125.64H78.524V136H76.914V134.838C76.6527 135.211 76.2887 135.519 75.822 135.762C75.3647 136.005 74.8374 136.126 74.24 136.126C73.568 136.126 72.952 135.958 72.392 135.622C71.8414 135.277 71.4027 134.801 71.076 134.194C70.7587 133.578 70.6 132.883 70.6 132.108ZM76.914 132.136C76.914 131.604 76.802 131.142 76.578 130.75C76.3634 130.358 76.0787 130.059 75.724 129.854C75.3694 129.649 74.9867 129.546 74.576 129.546C74.1654 129.546 73.7827 129.649 73.428 129.854C73.0734 130.05 72.784 130.344 72.56 130.736C72.3454 131.119 72.238 131.576 72.238 132.108C72.238 132.64 72.3454 133.107 72.56 133.508C72.784 133.909 73.0734 134.217 73.428 134.432C73.792 134.637 74.1747 134.74 74.576 134.74C74.9867 134.74 75.3694 134.637 75.724 134.432C76.0787 134.227 76.3634 133.928 76.578 133.536C76.802 133.135 76.914 132.668 76.914 132.136ZM80.0883 132.108C80.0883 131.333 80.247 130.647 80.5643 130.05C80.891 129.453 81.3296 128.991 81.8803 128.664C82.4403 128.328 83.0563 128.16 83.7283 128.16C84.335 128.16 84.8623 128.281 85.3103 128.524C85.7676 128.757 86.1316 129.051 86.4023 129.406V128.286H88.0123V136H86.4023V134.852C86.1316 135.216 85.763 135.519 85.2963 135.762C84.8296 136.005 84.2976 136.126 83.7003 136.126C83.0376 136.126 82.431 135.958 81.8803 135.622C81.3296 135.277 80.891 134.801 80.5643 134.194C80.247 133.578 80.0883 132.883 80.0883 132.108ZM86.4023 132.136C86.4023 131.604 86.2903 131.142 86.0663 130.75C85.8516 130.358 85.567 130.059 85.2123 129.854C84.8576 129.649 84.475 129.546 84.0643 129.546C83.6536 129.546 83.271 129.649 82.9163 129.854C82.5616 130.05 82.2723 130.344 82.0483 130.736C81.8336 131.119 81.7263 131.576 81.7263 132.108C81.7263 132.64 81.8336 133.107 82.0483 133.508C82.2723 133.909 82.5616 134.217 82.9163 134.432C83.2803 134.637 83.663 134.74 84.0643 134.74C84.475 134.74 84.8576 134.637 85.2123 134.432C85.567 134.227 85.8516 133.928 86.0663 133.536C86.2903 133.135 86.4023 132.668 86.4023 132.136Z" fill="#2F294D"/>
<path d="M105.814 61.25L85.8198 95.8814C83.5868 99.7489 79.4603 102.131 74.9944 102.131L35.0055 102.131C30.5397 102.131 26.4131 99.7489 24.1802 95.8814L4.18579 61.25C1.95288 57.3825 1.95288 52.6175 4.18579 48.75L24.1802 14.1186C26.4131 10.2511 30.5397 7.8686 35.0056 7.8686L74.9944 7.8686C79.4603 7.8686 83.5869 10.2511 85.8198 14.1186L105.814 48.75C108.047 52.6175 108.047 57.3825 105.814 61.25Z" fill="#93B278" stroke="#93B278"/>
<path d="M58.2648 77.4571C51.1787 77.4571 44.0859 77.4571 36.9998 77.4439C36.9402 77.4439 36.8409 77.4042 36.8078 77.3777C36.5561 76.9273 36.2713 76.4373 35.9932 75.9538C34.6289 73.5962 33.2117 71.1525 32.172 68.5896C31.0395 65.8015 30.3839 62.8875 30.2183 59.9339C30.1521 58.7683 30.119 57.5829 30.0925 56.4306C30.0793 55.9802 30.066 55.5299 30.0528 55.0796H39.6687L38.5694 53.7352C38.2051 53.2915 37.8674 52.8743 37.523 52.457C37.3508 52.2517 37.1786 52.0398 37.0131 51.8345C36.1852 50.8146 35.3309 49.7617 34.1323 49.0398C33.8276 48.8544 33.5164 48.6822 33.2117 48.5034L32.7945 48.265C30.6885 47.0729 29.6157 44.6689 30.1256 42.2914C30.6157 40 32.5693 38.2517 34.8806 38.0331C35.119 38.0133 35.3574 38 35.5958 38C37.6554 38 39.2184 38.8874 40.1124 40.5563C41.331 42.8345 43.1455 44.4173 44.8939 45.8411C48.4634 48.7484 52.0727 51.7418 55.4436 54.5498C55.8873 54.914 56.3178 55.0796 56.841 55.0796H56.9138C57.3575 55.0663 57.8012 55.0597 58.2516 55.0597H60.9469L60.4569 54.2849C60.3906 54.1789 60.3377 54.0928 60.2847 54.0133C58.8012 51.9339 57.8939 49.8941 57.5032 47.7683C56.9403 44.6755 57.4436 41.6027 58.9999 38.6424C60.1721 36.4106 61.6953 34.5166 63.5297 33.0199L63.5562 33C66.3046 35.3113 68.1788 38.0994 69.2781 41.5166L69.4238 41.9735L69.8543 41.755C72.5165 40.3908 75.3311 39.702 78.2185 39.702C78.7814 39.702 79.351 39.7285 79.9205 39.7815L80 40.1325V42.8279C79.9603 43.0729 79.9205 43.3179 79.8874 43.5563C79.8013 44.0928 79.7219 44.6292 79.6159 45.159C78.8212 49.0398 77.0728 51.9802 74.2583 54.1392C74.1788 54.1988 74.1258 54.2716 74.0794 54.3312L74.0265 54.4041L73.49 55.0729H80V58.6293L79.9404 59.1789C79.894 59.6028 79.8477 60.0332 79.8146 60.4571C79.5232 64.3114 78.3709 68.126 76.3841 71.8081C75.7881 72.9141 75.1722 74.0068 74.5496 75.1061C74.1324 75.8479 73.7086 76.5962 73.298 77.3379C73.245 77.4373 73.2318 77.4571 73.0728 77.4571H58.2781H58.2648ZM36.523 72.4571C36.9203 73.1459 37.2912 73.7949 37.6356 74.4638C37.927 75.02 38.3177 75.2585 38.9535 75.2585C46.0992 75.2452 53.2383 75.2452 60.3774 75.2452H71.0861C71.0861 75.2452 71.2781 75.2518 71.3245 75.2518C71.4238 75.2518 71.5099 75.2386 71.5894 75.2187C71.8808 75.1393 72.0794 75.0068 72.1854 74.828C72.6622 74.0068 73.1324 73.1724 73.6159 72.3114L74.3775 70.9671H35.6753C35.6753 70.9671 36.3574 72.1657 36.523 72.4571V72.4571ZM32.2978 57.6425C32.0528 60.3445 33.1919 65.8478 34.5561 68.5432L34.6687 68.7684H74.6291C74.7086 68.775 74.7483 68.7816 74.7881 68.7816C74.8874 68.7816 74.9801 68.7617 75.0596 68.722L75.1258 68.6889C75.298 68.6028 75.5298 68.4902 75.6424 68.2518C77.0066 65.1525 77.7086 61.7021 77.7748 57.6955V57.2783H32.3375L32.3044 57.6557L32.2978 57.6425ZM38.5826 50.3246L39.5164 51.4637C40.4104 52.5498 41.3111 53.6425 42.225 54.7219C42.4435 54.9802 42.8277 55.0729 43.0926 55.0729C44.5826 55.0796 46.0727 55.0796 47.5562 55.0796H51.0264C51.1191 55.0796 51.2052 55.0663 51.3244 55.0531L51.4966 55.0332L52.4701 54.9272L42.3376 46.5696L38.5892 50.3312L38.5826 50.3246ZM76.894 41.9603C76.6026 41.9868 76.3311 42.0133 76.0662 42.053C73.9139 42.3444 72.0397 42.9802 70.3311 44.0067C69.9271 44.2517 69.7549 44.5696 69.7748 45.0464C69.8543 46.8875 69.5496 48.5961 68.8874 50.1391C68.4768 51.0862 67.9867 52.0266 67.5099 52.9272C67.298 53.3378 67.0794 53.7418 66.8741 54.1524L66.4966 54.8941L67.3112 54.7418C70.6887 54.1127 73.2053 52.669 74.9934 50.3246C76.6291 48.1789 77.5364 45.5762 77.7616 42.3577L77.7947 41.8676L76.8874 41.9603H76.894ZM63.2052 36.3444C60.4701 39.5961 59.2847 42.6689 59.4767 46.0265C59.6423 48.861 60.8277 51.4637 63.2118 54.2054L63.5165 54.5564L63.8277 54.212C68.8476 48.616 68.8476 42.106 63.8277 36.3444L63.5099 35.9801L63.1986 36.3444H63.2052ZM35.5429 40.1722C35.3442 40.1722 35.1521 40.1921 34.9601 40.2252C33.5428 40.5033 32.5097 41.4967 32.2581 42.8279C31.9932 44.2318 32.5693 45.5696 33.768 46.3179L37.1919 48.4438L40.4435 45.1921L39.6886 43.9603C39.2316 43.2186 38.7747 42.4702 38.3111 41.7285C37.7084 40.7682 36.6488 40.1722 35.5362 40.1722H35.5429Z" fill="white"/>
</svg>
