<svg width="25" height="25" viewBox="0 0 25 25" fill="none" xmlns="http://www.w3.org/2000/svg">
<path fill-rule="evenodd" clip-rule="evenodd" d="M11.5029 4.5C7.63694 4.5 4.50293 7.63401 4.50293 11.5C4.50293 15.366 7.63694 18.5 11.5029 18.5C15.3689 18.5 18.5029 15.366 18.5029 11.5C18.5029 7.63401 15.3689 4.5 11.5029 4.5ZM2.50293 11.5C2.50293 6.52944 6.53237 2.5 11.5029 2.5C16.4735 2.5 20.5029 6.52944 20.5029 11.5C20.5029 16.4706 16.4735 20.5 11.5029 20.5C6.53237 20.5 2.50293 16.4706 2.50293 11.5Z" fill="white"/>
<path fill-rule="evenodd" clip-rule="evenodd" d="M16.4457 16.4429C16.8362 16.0524 17.4694 16.0524 17.8599 16.4429L22.2099 20.7929C22.6005 21.1834 22.6005 21.8166 22.2099 22.2071C21.8194 22.5976 21.1862 22.5976 20.7957 22.2071L16.4457 17.8571C16.0552 17.4666 16.0552 16.8334 16.4457 16.4429Z" fill="white"/>
</svg>
