<svg width="25" height="24" viewBox="0 0 25 24" fill="none" xmlns="http://www.w3.org/2000/svg">
<g clip-path="url(#clip0_1224_731)">
<path fill-rule="evenodd" clip-rule="evenodd" d="M7.00293 21C7.00293 19.8954 7.89836 19 9.00293 19C10.1075 19 11.0029 19.8954 11.0029 21C11.0029 22.1046 10.1075 23 9.00293 23C7.89836 23 7.00293 22.1046 7.00293 21Z" fill="#2F294D"/>
<path fill-rule="evenodd" clip-rule="evenodd" d="M18.0029 21C18.0029 19.8954 18.8984 19 20.0029 19C21.1075 19 22.0029 19.8954 22.0029 21C22.0029 22.1046 21.1075 23 20.0029 23C18.8984 23 18.0029 22.1046 18.0029 21Z" fill="#2F294D"/>
<path fill-rule="evenodd" clip-rule="evenodd" d="M0.00292969 1C0.00292969 0.447715 0.450645 0 1.00293 0H5.00293C5.47956 0 5.88994 0.336385 5.98348 0.803743L6.82336 5H23.0029C23.301 5 23.5835 5.13293 23.7734 5.36256C23.9634 5.59218 24.0411 5.89458 23.9852 6.18733L22.3838 14.5848C22.2466 15.2754 21.8709 15.8958 21.3225 16.3373C20.7767 16.7766 20.0946 17.011 19.3943 17H9.69157C8.9913 17.011 8.30913 16.7766 7.76341 16.3373C7.21518 15.8959 6.83956 15.2759 6.70226 14.5857C6.7022 14.5854 6.70231 14.5859 6.70226 14.5857L5.03172 6.2392C5.02494 6.21159 5.01931 6.18353 5.01488 6.15508L4.18325 2H1.00293C0.450645 2 0.00292969 1.55228 0.00292969 1ZM7.22366 7L8.66377 14.1952C8.70949 14.4254 8.83472 14.6322 9.01754 14.7793C9.20036 14.9265 9.42912 15.0047 9.66377 15.0002L9.68293 15H19.4029L19.4221 15.0002C19.6567 15.0047 19.8855 14.9265 20.0683 14.7793C20.2503 14.6328 20.3752 14.4273 20.4214 14.1984L21.7942 7H7.22366Z" fill="#2F294D"/>
</g>
<defs>
<clipPath id="clip0_1224_731">
<rect width="24" height="24" fill="white" transform="translate(0.00292969)"/>
</clipPath>
</defs>
</svg>
