<svg width="25" height="25" viewBox="0 0 25 25" fill="none" xmlns="http://www.w3.org/2000/svg">
<g clip-path="url(#clip0_1224_725)">
<path fill-rule="evenodd" clip-rule="evenodd" d="M4.95369 2.98104C5.73162 2.65802 6.56566 2.49174 7.40799 2.49174C8.25032 2.49174 9.08437 2.65802 9.8623 2.98104C10.6402 3.30407 11.3467 3.77747 11.9413 4.37413L11.9447 4.37747L12.003 4.43658L12.0613 4.37747L12.0647 4.37413C12.6592 3.77748 13.3658 3.30407 14.1437 2.98104C14.9216 2.65802 15.7557 2.49174 16.598 2.49174C17.4403 2.49174 18.2744 2.65802 19.0523 2.98104C19.83 3.30395 20.5363 3.77715 21.1307 4.37351C23.6757 6.9192 23.7323 11.1284 20.7166 14.2005L20.7101 14.2071L12.7101 22.2071C12.5226 22.3946 12.2682 22.5 12.003 22.5C11.7378 22.5 11.4834 22.3946 11.2959 22.2071L3.28933 14.2006C0.273628 11.1284 0.330249 6.91919 2.87528 4.3735C3.46973 3.77715 4.17602 3.30395 4.95369 2.98104ZM7.40799 4.49174C6.82889 4.49174 6.25548 4.60606 5.72066 4.82814C5.18583 5.05022 4.7001 5.37568 4.29133 5.78588L4.2901 5.78711C2.59649 7.48072 2.39275 10.4293 4.71351 12.7963L12.003 20.0858L19.2925 12.7963C21.6132 10.4293 21.4095 7.48073 19.7159 5.78711L19.7147 5.78588C19.3059 5.37568 18.8202 5.05022 18.2853 4.82814C17.7505 4.60606 17.1771 4.49174 16.598 4.49174C16.0189 4.49174 15.4455 4.60606 14.9107 4.82814C14.3765 5.04992 13.8914 5.37483 13.4829 5.78426C13.4824 5.7848 13.4819 5.78534 13.4813 5.78588L12.7146 6.56253C12.5268 6.75287 12.2704 6.86 12.003 6.86C11.7355 6.86 11.4792 6.75287 11.2913 6.56253L10.5247 5.78588C10.5241 5.78534 10.5236 5.7848 10.523 5.78426C10.1146 5.37483 9.62945 5.04992 9.09533 4.82814C8.5605 4.60606 7.98709 4.49174 7.40799 4.49174Z" fill="#2F294D"/>
</g>
<defs>
<clipPath id="clip0_1224_725">
<rect width="24" height="24" fill="white" transform="translate(0.00292969 0.5)"/>
</clipPath>
</defs>
</svg>
